<?xml version="1.0" standalone="no"?>
<!DOCTYPE svg PUBLIC "-//W3C//DTD SVG 1.1//EN" "http://www.w3.org/Graphics/SVG/1.1/DTD/svg11.dtd" >
<svg xmlns="http://www.w3.org/2000/svg" xmlns:xlink="http://www.w3.org/1999/xlink" version="1.1">
<metadata></metadata>
<defs>
<font id="winter_solstice_expanexpanded" horiz-adv-x="422" >
<font-face units-per-em="1000" ascent="800" descent="-200" />
<missing-glyph horiz-adv-x="308" />
<glyph horiz-adv-x="0" />
<glyph unicode="&#xd;" horiz-adv-x="500" />
<glyph unicode=" "  horiz-adv-x="308" />
<glyph unicode="&#x09;" horiz-adv-x="308" />
<glyph unicode="&#xa0;" horiz-adv-x="308" />
<glyph unicode="!" horiz-adv-x="208" d="M37 610h133v-421h-133v421zM37 0v80h133v-80h-133z" />
<glyph unicode="&#x22;" horiz-adv-x="379" d="M210 430v181h132v-111q0 -2 -4 -5.5t-10 -8l-12 -9l-10 -7.5q-2 -2 -15.5 -7.5t-30 -12.5t-31.5 -12.5t-19 -7.5zM37 430v181h132v-111q0 -2 -4 -5.5t-10 -8l-12 -9l-10 -7.5q-2 -2 -15.5 -7.5t-30 -12.5t-31.5 -12.5t-19 -7.5z" />
<glyph unicode="#" horiz-adv-x="575" d="M120 610h133v-173l70 29v144h133v-89l82 37v-105l-82 -34v-60l82 34v-102l-82 -34v-257h-133v201l-70 -30v-171h-133v117l-83 -35v103l83 34v60l-83 -35v103l83 34v229zM323 363l-70 -30v-58l70 29v59z" />
<glyph unicode="$" horiz-adv-x="420" d="M144 -56v56h-83q-1 0 -5 4t-7 6q-2 4 -7 11t-5 9v205q13 0 33.5 -3.5t40 -8.5t36 -11t22.5 -11v-121h84v220l-217 90v90l72 55h-108q8 21 23.5 39.5t36.5 35.5h84v56h133v-56h135l-56 -80h-188v-85l217 -91v-334q0 -1 -4.5 -4.5t-7.5 -5.5q-5 -2 -14 -6t-10 -4h-72v-56 h-133z" />
<glyph unicode="%" horiz-adv-x="500" d="M43 310q-1 2 -3.5 5t-2.5 5v275l6 10q3 1 4.5 3l1.5 2h144q1 0 5.5 -2t6.5 -3l6 -5v-230l101 240h133l-128 -305h128q1 0 5.5 -2t6.5 -3l6 -5v-285q0 -4 -6 -5q-2 -2 -6.5 -3.5t-5.5 -1.5h-144l-6 5q-1 2 -3.5 5t-2.5 5v224l-101 -239h-133l129 305h-135zM385 92v123h-17 v-123h17zM133 397v123h-17v-123h17z" />
<glyph unicode="&#x26;" horiz-adv-x="504" d="M169 347l298 124v-102l-82 -34v-350q0 -1 -4 -4.5t-10 -8t-12 -9.5t-10 -8q-3 -3 -16.5 -9t-29.5 -12.5t-30.5 -12t-19.5 -6.5v85h-216v450l72 85h-108q8 21 24 39.5t36 35.5h352l-55 -80h-189v-183zM169 246v-166h84v200z" />
<glyph unicode="'" horiz-adv-x="206" d="M37 430v181h132v-111q0 -2 -4 -5.5t-10 -8l-12 -9l-10 -7.5q-2 -2 -15.5 -7.5t-30 -12.5t-31.5 -12.5t-19 -7.5z" />
<glyph unicode="(" horiz-adv-x="306" d="M269 51v-60q0 -1 -5 -4.5t-7 -5.5q-5 -2 -14 -6t-10 -4h-172q-1 0 -5 4t-7 6q-2 4 -7 11t-5 9v610q0 2 5 9t7 11q3 2 7 6t5 4h172q1 0 10 -4t14 -6q2 -2 7 -5.5t5 -4.5v-60h-100v-510h100z" />
<glyph unicode=")" horiz-adv-x="306" d="M36 51v-60q0 -1 4.5 -4.5t7.5 -5.5q5 -2 14 -6t10 -4h172q1 0 5 4t7 6q2 4 7 11t5 9v610q0 2 -5 9t-7 11q-3 2 -7 6t-5 4h-172q-1 0 -10 -4t-14 -6q-3 -2 -7.5 -5.5t-4.5 -4.5v-60h100v-510h-100z" />
<glyph unicode="*" horiz-adv-x="266" d="M97 640h77v-29l55 28v-88l-55 -35v-73h-77v30l-60 -31v90l60 36v72z" />
<glyph unicode="+" horiz-adv-x="372" d="M122 515h134v-77l79 35v-104l-79 -39v-133h-134v83l-85 -36v103l85 41v127z" />
<glyph unicode="," horiz-adv-x="208" d="M37 80h133v-80q-7 -7 -23 -19t-35 -23.5t-39 -20.5t-36 -10v153z" />
<glyph unicode="-" horiz-adv-x="223" d="M37 309v101l149 62v-102z" />
<glyph unicode="." horiz-adv-x="208" d="M37 0v80h133v-80h-133z" />
<glyph unicode="/" horiz-adv-x="464" d="M37 0l257 610h133l-257 -610h-133z" />
<glyph unicode="0" d="M49 10q3 -2 7 -6t5 -4h288q1 0 10 4t14 6q3 2 7.5 5.5t4.5 4.5v570q0 1 -4.5 4.5t-7.5 5.5q-5 2 -14 6t-10 4h-288q-1 0 -5 -4t-7 -6q-2 -4 -7 -11t-5 -9v-550q0 -2 5 -9t7 -11zM253 80h-84v450h84v-450z" />
<glyph unicode="1" horiz-adv-x="203" d="M166 0v610h-107q-21 -17 -36.5 -35.5t-23.5 -39.5h95l-60 -55v-480h132z" />
<glyph unicode="2" horiz-adv-x="426" d="M38 220l218 90v220h-84v-121q-6 -5 -22.5 -11t-36 -11t-40 -8.5t-33.5 -3.5v205q0 2 4.5 9t7.5 11l6 6t6 4h288q1 0 10 -4t14 -6q2 -2 7 -5.5t5 -4.5v-334l-218 -91v-85h189l55 -80h-376v220z" />
<glyph unicode="3" horiz-adv-x="401" d="M323 430l41 25v134q-3 6 -7.5 11.5t-15.5 9.5h-274q-20 -17 -36 -37t-24 -41h223v-70l-139 -70v-103l139 61v-270h-188v-80h286q1 0 10 4t14 6q2 2 7 5.5t5 4.5v380z" />
<glyph unicode="4" horiz-adv-x="425" d="M37 303l217 96v-472q17 1 37 10t39 20.5t34.5 23.5t23.5 19v610h-134v-105l-85 -45v151h-132v-308z" />
<glyph unicode="5" horiz-adv-x="426" d="M38 390l218 -90v-220h-84v121q-6 5 -22.5 11t-36 11t-40 8.5t-33.5 3.5v-205q0 -2 4.5 -9t7.5 -11l6 -6t6 -4h288q1 0 10 4t14 6q2 2 7 5.5t5 4.5v334l-218 91v85h189l55 80h-376v-220z" />
<glyph unicode="6" d="M169 530h189l55 80h-352q-20 -17 -36 -35.5t-24 -39.5h108l-72 -65v-440q0 -2 5 -9t7 -11q3 -2 7 -6t5 -4h299q11 5 16 12.5t9 16.5v443l-216 -96v154zM169 263l84 42v-225h-84v183z" />
<glyph unicode="7" horiz-adv-x="409" d="M248 0l149 610h-324q-20 -17 -36 -35.5t-24 -39.5h237l-137 -535h135z" />
<glyph unicode="8" horiz-adv-x="426" d="M78 430l-41 25v134q3 6 7 11.5t16 9.5h306q12 -4 16 -9.5t7 -11.5v-134l-41 -25l41 -30v-380q0 -1 -5 -4.5t-7 -5.5q-5 -2 -14 -6t-10 -4h-280q-1 0 -10 4t-14 6q-2 2 -7 5.5t-5 4.5v380zM256 350l-86 -54v-216h86v270zM256 532h-86v-130l86 60v70z" />
<glyph unicode="9" horiz-adv-x="424" d="M169 80h84v172l-216 97v101l72 85h-108q8 21 24 39.5t36 35.5h303q11 -4 15.5 -9.5t6.5 -11.5v-569q0 -1 -4.5 -4.5t-7.5 -5.5q-5 -2 -13.5 -6t-10.5 -4h-271q-24 4 -33 8t-9 12v215q13 0 33 -3.5t40 -8.5t36.5 -11t22.5 -11v-121zM169 399l84 -32v163h-84v-131z" />
<glyph unicode=":" horiz-adv-x="208" d="M37 0v80h133v-80h-133zM37 392v80h133v-80h-133z" />
<glyph unicode=";" horiz-adv-x="208" d="M37 392v80h133v-80h-133zM37 80h133v-80q-7 -7 -23 -19t-35 -23.5t-39 -20.5t-36 -10v153z" />
<glyph unicode="&#x3c;" horiz-adv-x="337" d="M166 0l-129 303l130 307h133l-130 -307l129 -303h-133z" />
<glyph unicode="=" horiz-adv-x="372" d="M37 326v103l298 124v-102zM37 164v103l298 124v-102z" />
<glyph unicode="&#x3e;" horiz-adv-x="337" d="M170 0l129 303l-130 307h-133l130 -307l-129 -303h133z" />
<glyph unicode="?" horiz-adv-x="426" d="M38 220l218 90v220h-84v-121q-6 -5 -22.5 -11t-36 -11t-40 -8.5t-33.5 -3.5v205q0 2 4.5 9t7.5 11l6 6t6 4h288q1 0 10 -4t14 -6q2 -2 7 -5.5t5 -4.5v-334l-218 -91h-132v55zM37 0v80h133v-80h-133z" />
<glyph unicode="@" horiz-adv-x="594" d="M215 181q-1 2 -3.5 5t-2.5 5v275l6 10q2 1 4 3l2 2h144q1 0 5 -2t7 -3l6 -5v-214h42v273h-241v1h-15v-451h256v-60q0 -1 -5 -4.5t-7 -5.5q-5 -2 -14 -6t-10 -4h-328q-1 0 -5 4t-7 6q-2 4 -7 11t-5 9v551q0 2 5 9t7 11q3 2 7 6t5 4h472q1 0 5 -4t7 -6q2 -4 7 -11t5 -9 v-375q0 -2 -5 -9t-7 -11q-3 -2 -7 -6t-5 -4h-312zM305 268v123h-17v-123h17z" />
<glyph unicode="A" horiz-adv-x="464" d="M391 -45q-3 -3 -16.5 -9t-29.5 -12.5t-30.5 -12t-19.5 -6.5v432l-127 -35v-312h-131v470l72 65h-108q5 6 13 17t16.5 22.5t16.5 21.5t14 14h330q1 0 10 -4t14 -6q3 -2 7.5 -5.5t4.5 -4.5v-605q0 -1 -4 -4.5t-10 -8t-12 -9.5t-10 -8zM295 530h-127v-117l127 35v82z" />
<glyph unicode="B" horiz-adv-x="464" d="M386 430l41 -30v-380q0 -1 -4.5 -4.5t-7.5 -5.5q-5 -2 -14 -6t-10 -4h-354v450l72 85h-108q8 21 24 39.5t36 35.5h343q12 -4 16.5 -9.5t6.5 -11.5v-134zM169 309v-229h125v275zM169 410l125 52v68h-125v-120z" />
<glyph unicode="C" d="M277 520h-108v-440h84v109q6 5 22 11t36 11t40 8.5t34 3.5v-223h-324q-1 0 -5 4t-7 6q-2 4 -7 11t-5 9v440l72 65h-108q8 21 24 39.5t36 35.5h324v-180l-7 2q-20 6 -38 13t-32 17t-22.5 24t-8.5 34z" />
<glyph unicode="D" horiz-adv-x="462" d="M35 535h-36q5 6 12.5 17t16 22.5t17 21.5t14.5 14h330q1 0 10 -4t14 -6q2 -2 7 -5.5t5 -4.5v-570q0 -1 -5 -4.5t-7 -5.5q-5 -2 -14 -6t-10 -4h-354v535zM167 530v-450h126v450h-126z" />
<glyph unicode="E" d="M169 309v-229h84v109q6 5 22 11t36 11t40 8.5t34 3.5v-238q0 -1 -4 -4.5t-10 -8t-12 -9.5t-10 -8q-3 -3 -16.5 -9t-29.5 -12.5t-30.5 -12t-19.5 -6.5v85h-216v450l72 85h-108q8 21 24 39.5t36 35.5h352l-55 -80h-189v-120l149 62v-102z" />
<glyph unicode="F" d="M169 309v-382q-16 1 -36 10t-39 20.5t-34.5 23.5t-22.5 19v480l72 55h-108q8 21 24 39.5t36 35.5h352l-55 -80h-189v-120l149 62v-102z" />
<glyph unicode="G" horiz-adv-x="463" d="M169 530v-450h125v325q6 5 22 11t36 11t40 8.5t34 3.5v-454q0 -1 -4 -4.5t-10 -8t-12 -9.5t-10 -8q-3 -3 -16.5 -9t-29.5 -12.5t-30.5 -12t-19.5 -6.5v85h-233q-1 0 -5 4t-7 6q-2 4 -7 11t-5 9v440l72 65h-108q8 21 24 39.5t36 35.5h352l-55 -80h-189z" />
<glyph unicode="H" horiz-adv-x="464" d="M37 0v610h132v-151l125 46v105h133v-610h-133v399l-124 -49v-350h-133z" />
<glyph unicode="I" horiz-adv-x="364" d="M235 75h120q-8 -21 -23.5 -39.5t-36.5 -35.5h-303l55 75h56v405l60 55h-170q8 21 23.5 39.5t36.5 35.5h303l-55 -75h-66v-460z" />
<glyph unicode="J" horiz-adv-x="523" d="M426 530v-510q0 -1 -4.5 -4.5t-7.5 -5.5q-5 -2 -14 -6t-10 -4h-307q-26 4 -36 8t-10 12v419q13 0 33 -3.5t40 -8.5t36.5 -11t22.5 -11v-325h125v455h-190q8 21 24 39.5t36 35.5h352l-55 -80h-35z" />
<glyph unicode="K" horiz-adv-x="466" d="M37 0v610h133v-200l125 52v148h133v-155l-40 -25l40 -30v-473q-16 1 -36 10t-39 20.5t-35 23.5t-23 19v350l-125 -51v-299h-133z" />
<glyph unicode="L" d="M385 0h-348v610h133v-530h83v109q6 5 22 11t36 11t40 8.5t34 3.5v-223z" />
<glyph unicode="M" horiz-adv-x="643" d="M389 0h-133v278l-86 133v-412q-7 -7 -23 -19t-35 -23.5t-39 -20.5t-36 -10v684h131l152 -222l155 222h131v-610h-133v411l-84 -133v-278z" />
<glyph unicode="N" horiz-adv-x="464" d="M37 -85v695h123l134 -144v144h133v-610h-133v278l-124 137v-430q0 -9 -17.5 -19.5t-40 -21t-44.5 -18.5t-31 -11z" />
<glyph unicode="O" horiz-adv-x="462" d="M37 470l72 65h-108q5 6 13 17t16.5 22.5t16.5 21.5t14 14h328q1 0 10 -4t14 -6q2 -2 7 -5.5t5 -4.5v-570q0 -1 -5 -4.5t-7 -5.5q-5 -2 -14 -6t-10 -4h-328q-1 0 -5 4t-7 6q-2 4 -7 11t-5 9v440zM169 530v-450h124v450h-124z" />
<glyph unicode="P" horiz-adv-x="464" d="M37 450l72 85h-108q8 21 24 39.5t36 35.5h343q12 -4 16.5 -9.5t6.5 -11.5v-178l-258 -106v-306q-7 -7 -22.5 -19t-34.5 -23.5t-39 -20.5t-36 -10v524zM169 410l125 52v68h-125v-120z" />
<glyph unicode="Q" d="M161 0h-100q-1 0 -5 4t-7 6q-2 4 -7 11t-5 9v440l72 65h-108q5 6 13 17t16.5 22.5t16.5 21.5t14 14h327q1 0 10 -4t14 -6q2 -2 7 -5.5t5 -4.5v-570q0 -1 -5 -4.5t-7 -5.5q-5 -2 -14 -6t-10 -4h-95v-15q0 -1 -4 -4.5t-10 -8t-12 -9.5t-10 -8q-3 -3 -16.5 -9t-29.5 -12.5 t-30.5 -12t-19.5 -6.5v85zM169 530v-450h123v450h-123z" />
<glyph unicode="R" horiz-adv-x="463" d="M385 430l41 -30v-473q-16 1 -36 10t-39 20.5t-35 23.5t-23 19v358l-125 -49v-309h-132v450l72 85h-108q8 21 23.5 39.5t36.5 35.5h343q12 -4 16 -9.5t7 -11.5v-134zM168 410l125 52v68h-125v-120z" />
<glyph unicode="S" horiz-adv-x="420" d="M36 390l217 -90v-220h-84v121q-6 5 -22.5 11t-36 11t-40 8.5t-33.5 3.5v-205q0 -2 5 -9t7 -11q3 -2 7 -6t5 -4h288q1 0 10 4t14 6q3 2 7.5 5.5t4.5 4.5v334l-217 91v85h188l56 80h-352q-21 -17 -36.5 -35.5t-23.5 -39.5h108l-72 -55v-90z" />
<glyph unicode="T" horiz-adv-x="416" d="M116 480l60 55h-165q8 21 23.5 39.5t36.5 35.5h335l-56 -75h-102v-608q-15 1 -35 10t-39 20.5t-35 23.5t-23 19v480z" />
<glyph unicode="U" horiz-adv-x="457" d="M169 80h119v530h132v-590q0 -1 -4.5 -4.5t-7.5 -5.5q-5 -2 -14 -6t-10 -4h-323q-1 0 -5 4t-7 6q-2 4 -7 11t-5 9v580h132v-530z" />
<glyph unicode="V" horiz-adv-x="464" d="M294 610h133v-610h-128l-262 277v333h133v-278l124 -149v427z" />
<glyph unicode="W" horiz-adv-x="643" d="M389 610v-278l84 -133v411h133v-610h-131l-155 222l-152 -222h-131v610h133v-411l86 133v278h133z" />
<glyph unicode="X" horiz-adv-x="466" d="M295 462v148h133v-155l-40 -25l40 -30v-473q-16 1 -36 10t-39 20.5t-35 23.5t-23 19v358l-125 -49v-309h-133v400l41 30l-41 25v155h133v-200z" />
<glyph unicode="Y" d="M169 610h-132v-297q0 -2 5 -9t7 -11q3 -2 7 -6t5 -4l85 37v-320q7 -7 23 -19t35 -23.5t39 -20.5t35 -10v455l71 34q1 0 10 4t14 6q3 2 7.5 5.5t4.5 4.5v174h-132v-147l-84 -40v187z" />
<glyph unicode="Z" horiz-adv-x="486" d="M448 75h-233l234 535h-352q-20 -17 -36 -35.5t-24 -39.5h243l-244 -535h352q20 17 36 35.5t24 39.5z" />
<glyph unicode="[" horiz-adv-x="306" d="M269 80v-60q0 -1 -5 -4.5t-7 -5.5q-5 -2 -14 -6t-10 -4h-172q-1 0 -5 4t-7 6q-2 4 -7 11t-5 9v550q0 2 5 9t7 11q3 2 7 6t5 4h172q1 0 10 -4t14 -6q2 -2 7 -5.5t5 -4.5v-60h-100v-450h100z" />
<glyph unicode="\" horiz-adv-x="464" d="M426 0l-257 610h-133l257 -610h133z" />
<glyph unicode="]" horiz-adv-x="306" d="M36 80v-60q0 -1 4.5 -4.5t7.5 -5.5q5 -2 14 -6t10 -4h172q1 0 5 4t7 6q2 4 7 11t5 9v550q0 2 -5 9t-7 11q-3 2 -7 6t-5 4h-172q-1 0 -10 -4t-14 -6q-3 -2 -7.5 -5.5t-4.5 -4.5v-60h100v-450h-100z" />
<glyph unicode="^" horiz-adv-x="464" d="M292 0h133v610h-129l-261 -277v-333h133v177l124 -51v-126zM292 415v-188l-123 51z" />
<glyph unicode="_" horiz-adv-x="364" d="M355 75h-308l-55 -75h303q21 17 36.5 35.5t23.5 39.5z" />
<glyph unicode="`" horiz-adv-x="232" d="M37 640h97l60 -69h-97z" />
<glyph unicode="a" d="M349 -45q-3 -3 -16.5 -9t-29.5 -12.5t-30.5 -12t-19.5 -6.5v432l-85 -35v-312h-131v470l72 65h-108q5 6 13 17t16.5 22.5t16.5 21.5t14 14h288q1 0 10 -4t14 -6q3 -2 7.5 -5.5t4.5 -4.5v-605q0 -1 -4 -4.5t-10 -8t-12 -9.5t-10 -8zM253 530h-85v-117l85 35v82z" />
<glyph unicode="b" horiz-adv-x="425" d="M347 430l41 -30v-380q0 -1 -5 -4.5t-7 -5.5q-5 -2 -14 -6t-10 -4h-315v450l72 85h-108q8 21 24 39.5t36 35.5h304q11 -4 15.5 -9.5t7.5 -11.5v-134zM169 309v-229h85v275zM169 410l85 52v68h-85v-120z" />
<glyph unicode="c" d="M277 520h-108v-440h84v109q6 5 22 11t36 11t40 8.5t34 3.5v-223h-324q-1 0 -5 4t-7 6q-2 4 -7 11t-5 9v440l72 65h-108q8 21 24 39.5t36 35.5h324v-180l-14 1q-20 6 -37 13t-29.5 17.5t-20 24.5t-7.5 34z" />
<glyph unicode="d" horiz-adv-x="420" d="M35 535h-36q5 6 12.5 17t16 22.5t17 21.5t14.5 14h288q1 0 10 -4t14 -6q2 -2 7 -5.5t5 -4.5v-570q0 -1 -5 -4.5t-7 -5.5q-5 -2 -14 -6t-10 -4h-312v535zM167 530v-450h84v450h-84z" />
<glyph unicode="e" d="M169 309v-229h84v109q6 5 22 11t36 11t40 8.5t34 3.5v-223h-348v450l72 85h-108q8 21 24 39.5t36 35.5h352l-55 -80h-189v-120l149 62v-102z" />
<glyph unicode="f" horiz-adv-x="392" d="M169 309v-382q-16 1 -36 10t-39 20.5t-34.5 23.5t-22.5 19v480l72 55h-108q8 21 24 39.5t36 35.5h323l-55 -80h-160v-120l120 62v-102z" />
<glyph unicode="g" d="M169 530v-450h84v325q6 5 22 11t36 11t40 8.5t34 3.5v-454q0 -1 -4 -4.5t-10 -8t-12 -9.5t-10 -8q-3 -3 -16.5 -9t-29.5 -12.5t-30.5 -12t-19.5 -6.5v85h-192q-1 0 -5 4t-7 6q-2 4 -7 11t-5 9v440l72 65h-108q8 21 24 39.5t36 35.5h352l-55 -80h-189z" />
<glyph unicode="h" horiz-adv-x="425" d="M37 0v610h132v-151l85 46v105h134v-610h-134v399l-84 -49v-350h-133z" />
<glyph unicode="i" horiz-adv-x="208" d="M37 610h133v-610h-133v610z" />
<glyph unicode="j" horiz-adv-x="482" d="M385 530v-510q0 -1 -4.5 -4.5t-7.5 -5.5q-5 -2 -14 -6t-10 -4h-266q-26 4 -36 8t-10 12v419q13 0 33 -3.5t40 -8.5t36.5 -11t22.5 -11v-325h84v455h-189q8 21 23.5 39.5t36.5 35.5h351l-55 -80h-35z" />
<glyph unicode="k" horiz-adv-x="420" d="M169 410l81 52v148h133v-155l-41 -25l41 -30v-473q-16 1 -36 10t-39 20.5t-35 23.5t-23 19v350l-81 -53v-297h-132v610h132v-200z" />
<glyph unicode="l" d="M385 0h-348v610h133v-530h83v109q6 5 22 11t36 11t40 8.5t34 3.5v-223z" />
<glyph unicode="m" horiz-adv-x="643" d="M389 0v278l84 133v-411h133v610h-131l-155 -222l-152 222h-131v-610h133v411l86 -133v-278h133z" />
<glyph unicode="n" horiz-adv-x="425" d="M37 -85v695h123l94 -136v136h134v-610h-134v278l-84 129v-422q0 -9 -17.5 -19.5t-40 -21t-44.5 -18.5t-31 -11z" />
<glyph unicode="o" d="M37 470l72 65h-108q5 6 13 17t16.5 22.5t16.5 21.5t14 14h288q1 0 10 -4t14 -6q3 -2 7.5 -5.5t4.5 -4.5v-570q0 -1 -4.5 -4.5t-7.5 -5.5q-5 -2 -14 -6t-10 -4h-288q-1 0 -5 4t-7 6q-2 4 -7 11t-5 9v440zM169 530v-450h84v450h-84z" />
<glyph unicode="p" horiz-adv-x="425" d="M388 589v-177l-219 -126v-286h-132v450l72 85h-108q8 21 24 39.5t36 35.5h304q11 -4 15.5 -9.5t7.5 -11.5zM169 410l85 50v70h-85v-120z" />
<glyph unicode="q" d="M146 0h-85q-1 0 -5 4t-7 6q-2 4 -7 11t-5 9v440l72 65h-108q5 6 13 17t16.5 22.5t16.5 21.5t14 14h288q1 0 10 -4t14 -6q3 -2 7.5 -5.5t4.5 -4.5v-570q0 -1 -4.5 -4.5t-7.5 -5.5q-5 -2 -14 -6t-10 -4h-71v-15q0 -1 -4 -4.5t-10 -8t-12 -9.5t-10 -8q-3 -3 -16.5 -9 t-29.5 -12.5t-30.5 -12t-19.5 -6.5v85zM169 530v-450h84v450h-84z" />
<glyph unicode="r" horiz-adv-x="419" d="M341 430l41 -30v-473q-17 1 -37 10t-39.5 20.5t-35 23.5t-22.5 19v358l-80 -51v-307h-132v450l72 85h-108q8 21 23.5 39.5t36.5 35.5h299q11 -4 15.5 -9.5t7.5 -11.5v-134zM168 410l80 49v71h-80v-120z" />
<glyph unicode="s" horiz-adv-x="420" d="M36 390l217 -90v-220h-84v121q-6 5 -22.5 11t-36 11t-40 8.5t-33.5 3.5v-205q0 -2 5 -9t7 -11q3 -2 7 -6t5 -4h288q1 0 10 4t14 6q3 2 7.5 5.5t4.5 4.5v334l-217 91v85h188l56 80h-352q-21 -17 -36.5 -35.5t-23.5 -39.5h108l-72 -55v-90z" />
<glyph unicode="t" horiz-adv-x="401" d="M110 480l60 55h-159q8 21 23.5 39.5t36.5 35.5h323l-56 -75h-96v-608q-15 1 -35 10t-39 20.5t-35 23.5t-23 19v480z" />
<glyph unicode="u" d="M169 610v-530h84v530h132v-590q0 -1 -4.5 -4.5t-7.5 -5.5q-5 -2 -14 -6t-10 -4h-288q-1 0 -5 4t-7 6q-2 4 -7 11t-5 9v580h132z" />
<glyph unicode="v" horiz-adv-x="424" d="M253 610h133v-610h-128l-222 278v333h133v-278l84 -126v403z" />
<glyph unicode="w" horiz-adv-x="643" d="M389 610v-278l84 -133v411h133v-610h-131l-155 222l-152 -222h-131v610h133v-411l86 133v278h133z" />
<glyph unicode="x" horiz-adv-x="425" d="M254 462v148h134v-155l-41 -25l41 -30v-473q-17 1 -37 10t-39.5 20.5t-35 23.5t-22.5 19v358l-84 -49v-309h-133v400l41 30l-41 25v155h133v-200z" />
<glyph unicode="y" d="M169 610h-132v-297q0 -2 5 -9t7 -11q3 -2 7 -6t5 -4l85 37v-320q7 -7 23 -19t35 -23.5t39 -20.5t35 -10v455l71 34q1 0 10 4t14 6q3 2 7.5 5.5t4.5 4.5v174h-132v-147l-84 -40v187z" />
<glyph unicode="z" horiz-adv-x="458" d="M420 75h-214l215 535h-324q-20 -17 -36 -35.5t-24 -39.5h220l-221 -535h324q21 17 36.5 35.5t23.5 39.5z" />
<glyph unicode="{" horiz-adv-x="366" d="M37 309v101l60 25v176q0 2 5 9t7 11q3 2 7 6t5 4h172q1 0 10 -4t14 -6q2 -2 7 -5.5t5 -4.5v-60h-100v-510h100v-60q0 -1 -5 -4.5t-7 -5.5q-5 -2 -14 -6t-10 -4h-172q-1 0 -5 4t-7 6q-2 4 -7 11t-5 9v332z" />
<glyph unicode="|" horiz-adv-x="208" d="M37 751h133v-904h-133v904z" />
<glyph unicode="}" horiz-adv-x="364" d="M37 -9v60h100v510h-100v60q0 1 5 4.5t7 5.5q5 2 14 6t10 4h172q1 0 5 -4t7 -6q2 -4 7 -11t5 -9v-163l57 24v-102l-57 -24v-345q0 -2 -5 -9t-7 -11q-3 -2 -7 -6t-5 -4h-172q-1 0 -10 4t-14 6q-2 2 -7 5.5t-5 4.5z" />
<glyph unicode="~" horiz-adv-x="310" d="M124 428l62 -46v71l86 32v-113l-85 -34l-63 46v-71l-87 -33v114z" />
<glyph horiz-adv-x="236" />
<glyph unicode="&#xa1;" horiz-adv-x="208" d="M169 0h-133v421h133v-421zM169 610v-80h-133v80h133z" />
<glyph unicode="&#xa2;" d="M144 -56v56h-83q-1 0 -5 4t-7 6q-2 4 -7 11t-5 9v440l72 65h-108q8 21 24 39.5t36 35.5h82v56h133v-56h109v-180l-14 1q-20 6 -37 13t-29.5 17.5t-20 24.5t-7.5 34h-108v-440h84v109q6 5 22 11t36 11t40 8.5t34 3.5v-223h-108v-56h-133z" />
<glyph unicode="&#xa3;" horiz-adv-x="491" d="M38 234v101l68 28v87l72 85h-108q8 21 23.5 39.5t36.5 35.5h212l-55 -80h-49v-120l148 62v-102l-148 -61v-229h84v109q6 5 22 11t36 11t40 8.5t34 3.5v-223h-417v80h69v181z" />
<glyph unicode="&#xa4;" horiz-adv-x="466" d="M428 610h-133v-71h-125v71h-133v-155l41 -25l-41 -30v-400h133v132h125v-132q7 -7 23 -19t35 -23.5t39 -20.5t36 -10v473l-40 30l40 25v155zM258 239h-46v196h46v-196z" />
<glyph unicode="&#xa5;" d="M62 135v103l84 35v47l-85 -37q-1 0 -5 4t-7 6q-2 4 -7 11t-5 9v297h132v-187l84 40v147h132v-174q0 -1 -4.5 -4.5t-7.5 -5.5q-5 -2 -14 -6t-10 -4l-71 -34v-54l82 34v-102l-82 -34v-47l82 34v-102l-82 -34v-150q-15 1 -35 10t-39 20.5t-35 23.5t-23 19v21l-84 -35v103 l84 35v46z" />
<glyph unicode="&#xa6;" horiz-adv-x="208" d="M37 610h133v-247h-133v247zM37 0v254h133v-254h-133z" />
<glyph unicode="&#xa7;" horiz-adv-x="466" d="M78 430v109h217v71h133v-155l-40 -25v-298h-218v-132q-7 -7 -23 -19t-35 -23.5t-39 -20.5t-36 -10v473zM208 239h45v196h-45v-196z" />
<glyph unicode="&#xa8;" horiz-adv-x="341" d="M37 571v69h117v-69h-117zM304 640v-69h-117v69h117z" />
<glyph unicode="&#xa9;" horiz-adv-x="292" d="M146 641q10 0 51 -11q34 -16 41 -35q16 -26 16 -44q0 -19 -16 -45q-8 -11 -17 -18t-23 -15q-24 -8 -38 -10l-14 -2q-28 0 -55 12q-14 8 -21.5 15t-17.5 18q-15 19 -15 45q0 51 55 79q52 11 54 11zM146 627q-52 0 -79 -38q-13 -20 -13 -36q0 -18 13 -38q5 -8 12 -15 t21 -14l7 -1q41 -6 41 -8h-2q21 0 45 9q19 10 32 29t13 36v4q0 13 -7.5 26t-19.5 23t-27.5 16.5t-31.5 6.5h-4zM180 537l17 -4q-9 -34 -51 -34q-57 0 -57 52q0 51 57 51q39 0 48 -28l-16 -3q-9 18 -32 18q-38 0 -38 -38q0 -36 37 -36q28 0 35 22z" />
<glyph unicode="&#xaa;" horiz-adv-x="464" d="M167 0h-133v610h128l262 -277v-333h-134v177l-123 -51v-126zM167 415v-188l122 51z" />
<glyph unicode="&#xab;" horiz-adv-x="283" d="M163 422l83 50v-81l-52 -30l52 -30v-81l-83 50v122zM37 422l83 50v-81l-52 -30l52 -30v-81l-83 50v122z" />
<glyph unicode="&#xac;" horiz-adv-x="372" d="M37 347l298 124v-243h-133v83l-165 -67v103z" />
<glyph unicode="&#xad;" horiz-adv-x="223" d="M37 309v101l149 62v-102z" />
<glyph unicode="&#xae;" horiz-adv-x="292" d="M146 642q28 0 51 -12q32 -14 41 -34q16 -26 16 -44q0 -19 -16 -45q-9 -20 -40 -33q-22 -9 -37 -10.5l-15 -1.5q-31 0 -55 12q-11 7 -19 14.5t-18 16.5l-2 2q-15 19 -15 45q0 14 3.5 22.5t9.5 19.5l2 2q13 22 40 34q25 12 54 12zM146 628q-52 0 -79 -38q-7 -10 -9.5 -19 t-2.5 -19l2.5 -10t9.5 -27q7 -13 33 -28l7 -2l39 -7q11 0 22 2t23 7q9 7 17 13.5t15 14.5q8 14 10.5 25.5l2.5 11.5v4q0 13 -7.5 26t-19.5 23t-27.5 16.5t-31.5 6.5h-4zM100 502v97h38q26 0 30 -4q5 -2 7 -3.5t6 -3.5q7 -7 7 -15q0 -26 -34 -27q11 -4 14 -9t13 -16l15 -19 h-24l-9 16q-17 20 -20 21q-4 4 -15 4h-10v-41h-18zM118 556h21q17 0 22.5 4t6.5 12q-2 8 -11 13q-1 1 -19 1h-20v-30z" />
<glyph unicode="&#xaf;" horiz-adv-x="428" d="M365 535h-357q8 21 24 39.5t36 35.5h352z" />
<glyph unicode="&#xb0;" horiz-adv-x="191" d="M37 640v-69h117v69h-117zM76 596v18h38v-18h-38z" />
<glyph unicode="&#xb1;" horiz-adv-x="372" d="M122 560h134v-77l79 35v-104l-79 -39v-133h-134v83l-85 -36v103l85 41v127zM37 103l298 126v-104l-298 -125v103z" />
<glyph unicode="&#xb2;" horiz-adv-x="266" d="M37 450l100 44v97h-25v-55q-2 -3 -11 -6.5t-20.5 -6.5t-23.5 -5t-20 -2v106l7 12l6 7h138q6 0 11 -5h3l10 -8v-166l-100 -45v-31h84l33 -50h-192v114z" />
<glyph unicode="&#xb3;" horiz-adv-x="270" d="M217 547l16 9v68q-3 5 -5 7.5t-12 8.5h-143q-22 -19 -36 -49h120v-25l-99 -43v-62l99 39v-115h-99v-50h153v1q0 1 3.5 3.5t7.5 5t7.5 4l3.5 1.5v185z" />
<glyph unicode="&#xb4;" horiz-adv-x="232" d="M193 640h-97l-60 -69h97z" />
<glyph unicode="&#xb5;" horiz-adv-x="1297" d="M1260 285l-7 12l-136 54l84 19h11l-11 13l-194 33l67 39h-227l17 45l-221 -25l-6 39l-18 5l-152 -58l-67 39l-90 -75q-4 -4 -22 -4q-32 0 -83 27l-17 -92l-106 8l4 -28l59 -58l-108 -5l144 -58l-95 -33l206 -36l-69 -36l234 -7l-25 -44l211 29l27 -25l-10 -25l170 65 l77 -40l85 79l108 -27l9 92l111 -14l4 7q0 18 -72 78zM1096 332l-16 -85l-25 2l5 88zM1082 211l-22 -18l-18 14l18 12zM1019 218q-37 0 -89 57v-56l-26 -2v115l84 -76l4 81l27 -5v-114zM878 219l-19 3q-17 27 -37 27q-17 0 -36 -27h-32q10 56 62 114q1 4 20 4q27 0 42 -37 v-84zM739 337l-8 -113l-36 -7l15 115zM666 213q-34 0 -90 56v-54l-26 -4v116l87 -73l6 78l23 -5v-114zM533 294q-14 -81 -57 -81q-8 -1 -13 -1.5t-12 -0.5q-39 0 -51 18q0 75 55 103h18q49 0 60 -38zM389 335l-3 -28q-5 2 -6.5 2.5l-1.5 0.5q0 1 -8 1q-14 0 -40 -17 q-22 -22 -22 -47q0 -23 32 -23q22 0 28 3l2 -19q-14 -2 -18.5 -4t-11.5 -2q-43 0 -58 52l-0.5 1.5t-1.5 5.5v8q0 54 109 66zM264 332l-10 -112l-31 -9l16 118zM851 275l-19 38l-28 -38h47zM503 277v5q-1 1 -1 9q-14 14 -29 14q-26 0 -42 -36v-8q0 -28 23 -28q18 0 39 10 q8 10 9 16.5t1 17.5z" />
<glyph unicode="&#xb6;" horiz-adv-x="1351" d="M1314 294l-2 -1l-17 -28h-75l48 -50l4 -9v-5q0 -19 -25 -28l-84 15l-11 -78q-6 -14 -31 -14q-21 0 -37.5 5.5t-40.5 16.5l-10 2l-81 -70l-42 -6l-53 38l-161 -64l-26 8v37l-212 -25l-25 12l10 32l-219 15v23l26 22l-137 20q-25 0 -25 26l52 32l-93 34l-10 31l94 12 l-48 48l5 38l98 -8q0 92 41 92h5l92 -24q33 34 54.5 51t47.5 25l77 -37l153 59l30 -22l-3 -19l3 -7l171 26l60 -5l-7 -39h199l18 -14q0 -35 -33 -36l171 -36v-8q0 -30 -63 -36q112 -33 112 -51zM1286 285l-7 12l-135 54l84 19h10l-10 13l-195 33l67 39h-226l16 45l-220 -25 l-6 39l-18 5l-153 -58l-67 39l-90 -75q-4 -4 -22 -4q-33 0 -82 27l-17 -92l-107 8l5 -28l59 -58l-108 -5l144 -58l-95 -33l205 -36l-68 -36l234 -7l-26 -44l212 29l26 -25l-10 -25l171 65l77 -40l85 79l108 -27l8 92l112 -14l3 7q0 18 -72 78zM1122 332l-16 -85l-25 2l5 88z M1109 211l-23 -18l-18 14l18 12zM1045 218q-37 0 -89 57v-56l-26 -2v115l84 -76l5 81l26 -5v-114zM905 219l-19 3q-17 27 -38 27q-15 0 -36 -27h-32q11 57 62 114q3 4 21 4q26 0 42 -37v-84zM766 337l-9 -113l-36 -7l16 115zM692 213q-31 0 -90 56v-54l-26 -4v116l88 -73 l6 78l22 -5v-114zM559 294q-12 -81 -56 -81q-8 -1 -13.5 -1.5t-11.5 -0.5q-40 0 -52 18q0 75 55 103h18q49 0 60 -38zM415 335l-2 -28q-5 2 -7 2.5l-2 0.5q0 1 -8 1q-14 0 -40 -17q-21 -21 -21 -47q0 -23 31 -23q21 0 29 3l1 -19q-14 -2 -18 -4t-12 -2q-43 0 -58 52 l-0.5 1.5t-1.5 5.5v8q0 54 109 66zM290 332l-9 -112l-31 -9l15 118zM877 275l-19 38l-28 -38h47zM529 277v5q-1 1 -1 9q-12 14 -29 14q-26 0 -42 -36v-8q0 -28 23 -28q19 0 40 10q7 10 8 16.5t1 17.5z" />
<glyph unicode="&#xb7;" horiz-adv-x="208" d="M37 392v80h133v-80h-133z" />
<glyph unicode="&#xb8;" horiz-adv-x="212" d="M42 0h133v-77l-218 -86v103l85 41v19z" />
<glyph unicode="&#xb9;" horiz-adv-x="156" d="M37 640h82v-304h-82v304z" />
<glyph unicode="&#xba;" horiz-adv-x="248" d="M43 340l6 -5h144q1 0 5.5 1.5t6.5 3.5q6 1 6 5v285l-6 5q-2 1 -6.5 3t-5.5 2h-144l-1.5 -2t-4.5 -3l-6 -10v-275q0 -2 2.5 -5t3.5 -5zM133 427h-17v123h17v-123z" />
<glyph unicode="&#xbb;" horiz-adv-x="283" d="M120 422l-83 50v-81l52 -30l-52 -30v-81l83 50v122zM246 422l-83 50v-81l52 -30l-52 -30v-81l83 50v122z" />
<glyph unicode="&#xbc;" horiz-adv-x="503" d="M466 0q-4 -4 -12.5 -10.5t-19 -12.5t-22.5 -11t-22 -6v226l-120 -46v96l-100 -236h-133l129 307h-62v304h82v-257l108 256h133l-129 -307h46v-71l46 17v54h76v-303z" />
<glyph unicode="&#xbd;" horiz-adv-x="499" d="M270 114l100 44v97h-26v-55q-2 -3 -11 -6.5t-20.5 -6.5t-23.5 -5t-19 -2v56l-100 -236h-133l129 307h-62v304h82v-257l108 256h133l-128 -305h122q3 0 11 -5h2l11 -8v-166l-101 -45v-31h84l34 -50h-192v114z" />
<glyph unicode="&#xbe;" horiz-adv-x="538" d="M217 518l16 -12v-125l96 229h133l-130 -307h47v-71l46 17v54h75v-303q-3 -4 -11.5 -10.5t-19 -12.5t-22.5 -11t-22 -6v226l-120 -46v96l-100 -236h-133l128 306h-142v50h99v115l-99 -39v62l99 43v25h-120q14 30 36 49h143q10 -6 12 -8.5t5 -7.5v-68z" />
<glyph unicode="&#xbf;" horiz-adv-x="426" d="M386 390l-217 -90v-220h84v121q6 5 22 11t36 11t40 8.5t34 3.5v-205q0 -2 -4.5 -9t-7.5 -11q-2 -2 -6.5 -6t-5.5 -4h-288q-1 0 -10 4t-14 6q-2 2 -7 5.5t-5 4.5v334l217 91h132v-55zM388 610v-80h-134v80h134z" />
<glyph unicode="&#xc0;" d="M349 -45q-3 -3 -16.5 -9t-29.5 -12.5t-30.5 -12t-19.5 -6.5v432l-85 -35v-312h-131v470l72 65h-108q5 6 13 17t16.5 22.5t16.5 21.5t14 14h288q1 0 10 -4t14 -6q3 -2 7.5 -5.5t4.5 -4.5v-605q0 -1 -4 -4.5t-10 -8t-12 -9.5t-10 -8zM253 530h-85v-117l85 35v82zM132 717 h97l60 -69h-97z" />
<glyph unicode="&#xc1;" d="M349 -45q-3 -3 -16.5 -9t-29.5 -12.5t-30.5 -12t-19.5 -6.5v432l-85 -35v-312h-131v470l72 65h-108q5 6 13 17t16.5 22.5t16.5 21.5t14 14h288q1 0 10 -4t14 -6q3 -2 7.5 -5.5t4.5 -4.5v-605q0 -1 -4 -4.5t-10 -8t-12 -9.5t-10 -8zM253 530h-85v-117l85 35v82zM194 717 h98l-60 -69h-98z" />
<glyph unicode="&#xc2;" d="M349 -45q-3 -3 -16.5 -9t-29.5 -12.5t-30.5 -12t-19.5 -6.5v432l-85 -35v-312h-131v470l72 65h-108q5 6 13 17t16.5 22.5t16.5 21.5t14 14h288q1 0 10 -4t14 -6q3 -2 7.5 -5.5t4.5 -4.5v-605q0 -1 -4 -4.5t-10 -8t-12 -9.5t-10 -8zM253 530h-85v-117l85 35v82zM284 717 l60 -69h-97l-36 43l-36 -43h-97l60 69h146z" />
<glyph unicode="&#xc3;" d="M349 -45q-3 -3 -16.5 -9t-29.5 -12.5t-30.5 -12t-19.5 -6.5v432l-85 -35v-312h-131v470l72 65h-108q5 6 13 17t16.5 22.5t16.5 21.5t14 14h288q1 0 10 -4t14 -6q3 -2 7.5 -5.5t4.5 -4.5v-605q0 -1 -4 -4.5t-10 -8t-12 -9.5t-10 -8zM253 530h-85v-117l85 35v82zM208 717 l36 -43l36 43h97l-60 -69h-99l-36 43l-36 -43h-97l60 69h99z" />
<glyph unicode="&#xc4;" d="M349 -45q-3 -3 -16.5 -9t-29.5 -12.5t-30.5 -12t-19.5 -6.5v432l-85 -35v-312h-131v470l72 65h-108q5 6 13 17t16.5 22.5t16.5 21.5t14 14h288q1 0 10 -4t14 -6q3 -2 7.5 -5.5t4.5 -4.5v-605q0 -1 -4 -4.5t-10 -8t-12 -9.5t-10 -8zM253 530h-85v-117l85 35v82zM78 648v69 h116v-69h-116zM344 717v-69h-116v69h116z" />
<glyph unicode="&#xc5;" d="M154 717v-69h116v69h-116zM168 530h85v-82l-85 -35v117zM349 -45q4 3 10 8t12 9.5t10 8t4 4.5v605q0 1 -4.5 4.5t-7.5 5.5q-5 2 -14 6t-10 4h-288q-6 -4 -14 -14t-16.5 -21.5t-16.5 -22.5t-13 -17h108l-72 -65v-470h131v312l85 35v-432q5 1 19.5 6.5t30.5 12t29.5 12.5 t16.5 9zM192 673v18h38v-18h-38z" />
<glyph unicode="&#xc6;" horiz-adv-x="637" d="M348 -45q-3 -3 -16.5 -9t-29.5 -12.5t-30.5 -12t-19.5 -6.5v432l-85 -35v-312h-131v470l72 65h-108q5 6 12.5 17t16 22.5t17 21.5t14.5 14h568l-56 -80h-188v-120l149 62v-102l-149 -61v-229h84v109q6 5 22 11t36 11t40 8.5t34 3.5v-223h-216v-15q0 -1 -4 -4.5t-10 -8 t-12 -9.5t-10 -8zM252 530h-85v-117l85 35v82z" />
<glyph unicode="&#xc7;" horiz-adv-x="248" d="M43 340l6 -5h144q1 0 5.5 1.5t6.5 3.5q6 1 6 5v285l-6 5q-2 1 -6.5 3t-5.5 2h-144l-1.5 -2t-4.5 -3l-6 -10v-275q0 -2 2.5 -5t3.5 -5zM133 427h-17v123h17v-123z" />
<glyph unicode="&#xc8;" d="M169 309v-229h84v109q6 5 22 11t36 11t40 8.5t34 3.5v-223h-348v450l72 85h-108q8 21 24 39.5t36 35.5h352l-55 -80h-189v-120l149 62v-102zM132 717h97l60 -69h-97z" />
<glyph unicode="&#xc9;" d="M169 309v-229h84v109q6 5 22 11t36 11t40 8.5t34 3.5v-223h-348v450l72 85h-108q8 21 24 39.5t36 35.5h352l-55 -80h-189v-120l149 62v-102zM194 717h98l-60 -69h-98z" />
<glyph unicode="&#xca;" d="M169 309v-229h84v109q6 5 22 11t36 11t40 8.5t34 3.5v-223h-348v450l72 85h-108q8 21 24 39.5t36 35.5h352l-55 -80h-189v-120l149 62v-102zM284 717l60 -69h-97l-36 43l-36 -43h-97l60 69h146z" />
<glyph unicode="&#xcb;" d="M169 309v-229h84v109q6 5 22 11t36 11t40 8.5t34 3.5v-223h-348v450l72 85h-108q8 21 24 39.5t36 35.5h352l-55 -80h-189v-120l149 62v-102zM78 648v69h116v-69h-116zM344 717v-69h-116v69h116z" />
<glyph unicode="&#xcc;" horiz-adv-x="364" d="M236 75h119q-8 -21 -23.5 -39.5t-36.5 -35.5h-303l55 75h57v405l60 55h-171q8 21 23.5 39.5t36.5 35.5h303l-55 -75h-65v-460zM103 717h97l60 -69h-97z" />
<glyph unicode="&#xcd;" horiz-adv-x="364" d="M236 75h119q-8 -21 -23.5 -39.5t-36.5 -35.5h-303l55 75h57v405l60 55h-171q8 21 23.5 39.5t36.5 35.5h303l-55 -75h-65v-460zM166 717h97l-60 -69h-97z" />
<glyph unicode="&#xce;" horiz-adv-x="364" d="M236 75h119q-8 -21 -23.5 -39.5t-36.5 -35.5h-303l55 75h57v405l60 55h-171q8 21 23.5 39.5t36.5 35.5h303l-55 -75h-65v-460zM254 718l60 -69h-97l-36 43l-36 -43h-97l60 69h146z" />
<glyph unicode="&#xcf;" horiz-adv-x="364" d="M48 648v69h116v-69h-116zM314 717v-69h-116v69h116zM236 75h119q-8 -21 -23.5 -39.5t-36.5 -35.5h-303l55 75h57v405l60 55h-171q8 21 23.5 39.5t36.5 35.5h303l-55 -75h-65v-460z" />
<glyph unicode="&#xd0;" horiz-adv-x="504" d="M37 309v101l82 34v91h-36q5 6 12.5 17t16 22.5t17 21.5t14.5 14h288q1 0 10 -4t14 -6q2 -2 7 -5.5t5 -4.5v-570q0 -1 -5 -4.5t-7 -5.5q-5 -2 -14 -6t-10 -4h-312v342zM251 530v-450h84v450h-84z" />
<glyph unicode="&#xd1;" horiz-adv-x="464" d="M37 -85v695h123l134 -144v144h133v-610h-133v278l-124 137v-430q0 -9 -17.5 -19.5t-40 -21t-44.5 -18.5t-31 -11zM226 717l36 -43l36 43h97l-60 -69h-99l-36 43l-36 -43h-97l60 69h99z" />
<glyph unicode="&#xd2;" d="M37 470l72 65h-108q5 6 13 17t16.5 22.5t16.5 21.5t14 14h288q1 0 10 -4t14 -6q3 -2 7.5 -5.5t4.5 -4.5v-570q0 -1 -4.5 -4.5t-7.5 -5.5q-5 -2 -14 -6t-10 -4h-288q-1 0 -5 4t-7 6q-2 4 -7 11t-5 9v440zM169 530v-450h84v450h-84zM132 717h97l60 -69h-97z" />
<glyph unicode="&#xd3;" d="M37 470l72 65h-108q5 6 13 17t16.5 22.5t16.5 21.5t14 14h288q1 0 10 -4t14 -6q3 -2 7.5 -5.5t4.5 -4.5v-570q0 -1 -4.5 -4.5t-7.5 -5.5q-5 -2 -14 -6t-10 -4h-288q-1 0 -5 4t-7 6q-2 4 -7 11t-5 9v440zM169 530v-450h84v450h-84zM194 717h98l-60 -69h-98z" />
<glyph unicode="&#xd4;" d="M37 470l72 65h-108q5 6 13 17t16.5 22.5t16.5 21.5t14 14h288q1 0 10 -4t14 -6q3 -2 7.5 -5.5t4.5 -4.5v-570q0 -1 -4.5 -4.5t-7.5 -5.5q-5 -2 -14 -6t-10 -4h-288q-1 0 -5 4t-7 6q-2 4 -7 11t-5 9v440zM169 530v-450h84v450h-84zM284 717l60 -69h-97l-36 43l-36 -43h-97 l60 69h146z" />
<glyph unicode="&#xd5;" d="M37 470l72 65h-108q5 6 13 17t16.5 22.5t16.5 21.5t14 14h288q1 0 10 -4t14 -6q3 -2 7.5 -5.5t4.5 -4.5v-570q0 -1 -4.5 -4.5t-7.5 -5.5q-5 -2 -14 -6t-10 -4h-288q-1 0 -5 4t-7 6q-2 4 -7 11t-5 9v440zM169 530v-450h84v450h-84zM208 717l36 -43l36 43h97l-60 -69h-99 l-36 43l-36 -43h-97l60 69h99z" />
<glyph unicode="&#xd6;" d="M37 470l72 65h-108q5 6 13 17t16.5 22.5t16.5 21.5t14 14h288q1 0 10 -4t14 -6q3 -2 7.5 -5.5t4.5 -4.5v-570q0 -1 -4.5 -4.5t-7.5 -5.5q-5 -2 -14 -6t-10 -4h-288q-1 0 -5 4t-7 6q-2 4 -7 11t-5 9v440zM169 530v-450h84v450h-84zM78 648v69h116v-69h-116zM344 717v-69 h-116v69h116z" />
<glyph unicode="&#xd7;" horiz-adv-x="464" d="M37 0l127 303l-128 307h133l63 -148l62 148h133l-129 -307l128 -303h-133l-61 145l-62 -145h-133z" />
<glyph unicode="&#xd8;" d="M49 10q-2 4 -7 11t-5 9v550q0 2 5 9t7 11q3 2 7 6t5 4h288q1 0 10 -4t14 -6q3 -2 7.5 -5.5t4.5 -4.5v-570q0 -1 -4.5 -4.5t-7.5 -5.5q-5 -2 -14 -6t-10 -4h-288q-1 0 -5 4t-7 6zM178 80h75v178zM169 530v-181l73 181h-73z" />
<glyph unicode="&#xd9;" d="M169 610v-530h84v530h132v-590q0 -1 -4.5 -4.5t-7.5 -5.5q-5 -2 -14 -6t-10 -4h-288q-1 0 -5 4t-7 6q-2 4 -7 11t-5 9v580h132zM132 717h97l60 -69h-97z" />
<glyph unicode="&#xda;" d="M169 610v-530h84v530h132v-590q0 -1 -4.5 -4.5t-7.5 -5.5q-5 -2 -14 -6t-10 -4h-288q-1 0 -5 4t-7 6q-2 4 -7 11t-5 9v580h132zM194 717h98l-60 -69h-98z" />
<glyph unicode="&#xdb;" d="M169 610v-530h84v530h132v-590q0 -1 -4.5 -4.5t-7.5 -5.5q-5 -2 -14 -6t-10 -4h-288q-1 0 -5 4t-7 6q-2 4 -7 11t-5 9v580h132zM284 717l60 -69h-97l-36 43l-36 -43h-97l60 69h146z" />
<glyph unicode="&#xdc;" d="M169 610v-530h84v530h132v-590q0 -1 -4.5 -4.5t-7.5 -5.5q-5 -2 -14 -6t-10 -4h-288q-1 0 -5 4t-7 6q-2 4 -7 11t-5 9v580h132zM78 648v69h116v-69h-116zM344 717v-69h-116v69h116z" />
<glyph unicode="&#xdd;" d="M37 610h132v-187l84 40v147h132v-174q0 -1 -4.5 -4.5t-7.5 -5.5q-5 -2 -14 -6t-10 -4l-71 -34v-455q-15 1 -35 10t-39 20.5t-35 23.5t-23 19v320l-85 -37q-1 0 -5 4t-7 6q-2 4 -7 11t-5 9v297zM194 717h98l-60 -69h-98z" />
<glyph unicode="&#xde;" horiz-adv-x="464" d="M37 610h133v-98h234q12 -4 16.5 -9.5t6.5 -11.5v-173l-258 -107v-211h-132v352l72 85h-108q9 28 36 53v120zM169 312l125 52v68h-125v-120z" />
<glyph unicode="&#xdf;" horiz-adv-x="457" d="M37 -153v685q8 21 24 41t36 37h300q12 -4 16 -9.5t7 -11.5v-134l-41 -25l41 -30v-380q0 -1 -4.5 -4.5t-7.5 -5.5q-5 -2 -14 -6t-10 -4h-161v80h64v270l-64 -27v103l64 36v70h-114v-685h-136z" />
<glyph unicode="&#xe0;" d="M349 -45q-3 -3 -16.5 -9t-29.5 -12.5t-30.5 -12t-19.5 -6.5v432l-85 -35v-312h-131v470l72 65h-108q5 6 13 17t16.5 22.5t16.5 21.5t14 14h288q1 0 10 -4t14 -6q3 -2 7.5 -5.5t4.5 -4.5v-605q0 -1 -4 -4.5t-10 -8t-12 -9.5t-10 -8zM253 530h-85v-117l85 35v82zM132 717 h97l60 -69h-97z" />
<glyph unicode="&#xe1;" d="M349 -45q-3 -3 -16.5 -9t-29.5 -12.5t-30.5 -12t-19.5 -6.5v432l-85 -35v-312h-131v470l72 65h-108q5 6 13 17t16.5 22.5t16.5 21.5t14 14h288q1 0 10 -4t14 -6q3 -2 7.5 -5.5t4.5 -4.5v-605q0 -1 -4 -4.5t-10 -8t-12 -9.5t-10 -8zM253 530h-85v-117l85 35v82zM194 717 h98l-60 -69h-98z" />
<glyph unicode="&#xe2;" d="M349 -45q-3 -3 -16.5 -9t-29.5 -12.5t-30.5 -12t-19.5 -6.5v432l-85 -35v-312h-131v470l72 65h-108q5 6 13 17t16.5 22.5t16.5 21.5t14 14h288q1 0 10 -4t14 -6q3 -2 7.5 -5.5t4.5 -4.5v-605q0 -1 -4 -4.5t-10 -8t-12 -9.5t-10 -8zM253 530h-85v-117l85 35v82zM284 717 l60 -69h-97l-36 43l-36 -43h-97l60 69h146z" />
<glyph unicode="&#xe3;" d="M349 -45q-3 -3 -16.5 -9t-29.5 -12.5t-30.5 -12t-19.5 -6.5v432l-85 -35v-312h-131v470l72 65h-108q5 6 13 17t16.5 22.5t16.5 21.5t14 14h288q1 0 10 -4t14 -6q3 -2 7.5 -5.5t4.5 -4.5v-605q0 -1 -4 -4.5t-10 -8t-12 -9.5t-10 -8zM253 530h-85v-117l85 35v82zM208 717 l36 -43l36 43h97l-60 -69h-99l-36 43l-36 -43h-97l60 69h99z" />
<glyph unicode="&#xe4;" d="M349 -45q-3 -3 -16.5 -9t-29.5 -12.5t-30.5 -12t-19.5 -6.5v432l-85 -35v-312h-131v470l72 65h-108q5 6 13 17t16.5 22.5t16.5 21.5t14 14h288q1 0 10 -4t14 -6q3 -2 7.5 -5.5t4.5 -4.5v-605q0 -1 -4 -4.5t-10 -8t-12 -9.5t-10 -8zM253 530h-85v-117l85 35v82zM78 648v69 h116v-69h-116zM344 717v-69h-116v69h116z" />
<glyph unicode="&#xe5;" d="M154 717v-69h116v69h-116zM168 530h85v-82l-85 -35v117zM349 -45q4 3 10 8t12 9.5t10 8t4 4.5v605q0 1 -4.5 4.5t-7.5 5.5q-5 2 -14 6t-10 4h-288q-6 -4 -14 -14t-16.5 -21.5t-16.5 -22.5t-13 -17h108l-72 -65v-470h131v312l85 35v-432q5 1 19.5 6.5t30.5 12t29.5 12.5 t16.5 9zM192 673v18h38v-18h-38z" />
<glyph unicode="&#xe6;" horiz-adv-x="637" d="M348 -45q-3 -3 -16.5 -9t-29.5 -12.5t-30.5 -12t-19.5 -6.5v432l-85 -35v-312h-131v470l72 65h-108q5 6 12.5 17t16 22.5t17 21.5t14.5 14h568l-56 -80h-188v-120l149 62v-102l-149 -61v-229h84v109q6 5 22 11t36 11t40 8.5t34 3.5v-223h-216v-15q0 -1 -4 -4.5t-10 -8 t-12 -9.5t-10 -8zM252 530h-85v-117l85 35v82z" />
<glyph unicode="&#xe7;" d="M277 520h-108v-440h84v109q6 5 22 11t36 11t40 8.5t34 3.5v-223h-66v-77l-218 -86v103l85 41v19h-125q-1 0 -5 4t-7 6q-2 4 -7 11t-5 9v440l72 65h-108q8 21 24 39.5t36 35.5h324v-180l-14 1q-20 6 -37 13t-29.5 17.5t-20 24.5t-7.5 34z" />
<glyph unicode="&#xe8;" d="M169 309v-229h84v109q6 5 22 11t36 11t40 8.5t34 3.5v-223h-348v450l72 85h-108q8 21 24 39.5t36 35.5h352l-55 -80h-189v-120l149 62v-102zM132 717h97l60 -69h-97z" />
<glyph unicode="&#xe9;" d="M169 309v-229h84v109q6 5 22 11t36 11t40 8.5t34 3.5v-223h-348v450l72 85h-108q8 21 24 39.5t36 35.5h352l-55 -80h-189v-120l149 62v-102zM194 717h98l-60 -69h-98z" />
<glyph unicode="&#xea;" d="M169 309v-229h84v109q6 5 22 11t36 11t40 8.5t34 3.5v-223h-348v450l72 85h-108q8 21 24 39.5t36 35.5h352l-55 -80h-189v-120l149 62v-102zM284 717l60 -69h-97l-36 43l-36 -43h-97l60 69h146z" />
<glyph unicode="&#xeb;" d="M169 309v-229h84v109q6 5 22 11t36 11t40 8.5t34 3.5v-223h-348v450l72 85h-108q8 21 24 39.5t36 35.5h352l-55 -80h-189v-120l149 62v-102zM78 648v69h116v-69h-116zM344 717v-69h-116v69h116z" />
<glyph unicode="&#xec;" horiz-adv-x="208" d="M37 610h133v-610h-133v610zM24 717h97l60 -69h-97z" />
<glyph unicode="&#xed;" horiz-adv-x="208" d="M37 610h133v-610h-133v610zM84 717h97l-60 -69h-97z" />
<glyph unicode="&#xee;" horiz-adv-x="208" d="M37 610h133v-610h-133v610zM176 718l60 -69h-97l-36 43l-36 -43h-97l60 69h146z" />
<glyph unicode="&#xef;" horiz-adv-x="208" d="M37 610h133v-610h-133v610zM-30 648v69h116v-69h-116zM236 717v-69h-116v69h116z" />
<glyph unicode="&#xf0;" horiz-adv-x="403" d="M244 530h-189l-55 80h352q20 -17 36 -35.5t24 -39.5h-108l72 -65v-440q0 -2 -5 -9t-7 -11q-3 -2 -7 -6t-5 -4h-299q-11 5 -16.5 12.5t-8.5 16.5v443l216 -96v154zM244 263l-84 42v-225h84v183z" />
<glyph unicode="&#xf1;" horiz-adv-x="464" d="M37 -85v695h123l134 -144v144h133v-610h-133v278l-124 137v-430q0 -9 -17.5 -19.5t-40 -21t-44.5 -18.5t-31 -11zM226 717l36 -43l36 43h97l-60 -69h-99l-36 43l-36 -43h-97l60 69h99z" />
<glyph unicode="&#xf2;" d="M37 470l72 65h-108q5 6 13 17t16.5 22.5t16.5 21.5t14 14h288q1 0 10 -4t14 -6q3 -2 7.5 -5.5t4.5 -4.5v-570q0 -1 -4.5 -4.5t-7.5 -5.5q-5 -2 -14 -6t-10 -4h-288q-1 0 -5 4t-7 6q-2 4 -7 11t-5 9v440zM169 530v-450h84v450h-84zM132 717h97l60 -69h-97z" />
<glyph unicode="&#xf3;" d="M37 470l72 65h-108q5 6 13 17t16.5 22.5t16.5 21.5t14 14h288q1 0 10 -4t14 -6q3 -2 7.5 -5.5t4.5 -4.5v-570q0 -1 -4.5 -4.5t-7.5 -5.5q-5 -2 -14 -6t-10 -4h-288q-1 0 -5 4t-7 6q-2 4 -7 11t-5 9v440zM169 530v-450h84v450h-84zM194 717h98l-60 -69h-98z" />
<glyph unicode="&#xf4;" d="M37 470l72 65h-108q5 6 13 17t16.5 22.5t16.5 21.5t14 14h288q1 0 10 -4t14 -6q3 -2 7.5 -5.5t4.5 -4.5v-570q0 -1 -4.5 -4.5t-7.5 -5.5q-5 -2 -14 -6t-10 -4h-288q-1 0 -5 4t-7 6q-2 4 -7 11t-5 9v440zM169 530v-450h84v450h-84zM284 717l60 -69h-97l-36 43l-36 -43h-97 l60 69h146z" />
<glyph unicode="&#xf5;" d="M37 470l72 65h-108q5 6 13 17t16.5 22.5t16.5 21.5t14 14h288q1 0 10 -4t14 -6q3 -2 7.5 -5.5t4.5 -4.5v-570q0 -1 -4.5 -4.5t-7.5 -5.5q-5 -2 -14 -6t-10 -4h-288q-1 0 -5 4t-7 6q-2 4 -7 11t-5 9v440zM169 530v-450h84v450h-84zM208 717l36 -43l36 43h97l-60 -69h-99 l-36 43l-36 -43h-97l60 69h99z" />
<glyph unicode="&#xf6;" d="M37 470l72 65h-108q5 6 13 17t16.5 22.5t16.5 21.5t14 14h288q1 0 10 -4t14 -6q3 -2 7.5 -5.5t4.5 -4.5v-570q0 -1 -4.5 -4.5t-7.5 -5.5q-5 -2 -14 -6t-10 -4h-288q-1 0 -5 4t-7 6q-2 4 -7 11t-5 9v440zM169 530v-450h84v450h-84zM78 648v69h116v-69h-116zM344 717v-69 h-116v69h116z" />
<glyph unicode="&#xf7;" horiz-adv-x="372" d="M37 244v103l298 124v-102zM116 172v80h134v-80h-134zM115 461v80h133v-80h-133z" />
<glyph unicode="&#xf8;" d="M37 470l72 65h-108q5 6 13 17t16.5 22.5t16.5 21.5t14 14h288q1 0 10 -4t14 -6q3 -2 7.5 -5.5t4.5 -4.5v-570q0 -1 -4.5 -4.5t-7.5 -5.5q-5 -2 -14 -6t-10 -4h-288q-1 0 -5 4t-7 6q-2 4 -7 11t-5 9v440zM178 80h75v178zM169 530v-181l73 181h-73z" />
<glyph unicode="&#xf9;" d="M169 610v-530h84v530h132v-590q0 -1 -4.5 -4.5t-7.5 -5.5q-5 -2 -14 -6t-10 -4h-288q-1 0 -5 4t-7 6q-2 4 -7 11t-5 9v580h132zM132 717h97l60 -69h-97z" />
<glyph unicode="&#xfa;" d="M169 610v-530h84v530h132v-590q0 -1 -4.5 -4.5t-7.5 -5.5q-5 -2 -14 -6t-10 -4h-288q-1 0 -5 4t-7 6q-2 4 -7 11t-5 9v580h132zM194 717h98l-60 -69h-98z" />
<glyph unicode="&#xfb;" d="M169 610v-530h84v530h132v-590q0 -1 -4.5 -4.5t-7.5 -5.5q-5 -2 -14 -6t-10 -4h-288q-1 0 -5 4t-7 6q-2 4 -7 11t-5 9v580h132zM284 717l60 -69h-97l-36 43l-36 -43h-97l60 69h146z" />
<glyph unicode="&#xfc;" d="M169 610v-530h84v530h132v-590q0 -1 -4.5 -4.5t-7.5 -5.5q-5 -2 -14 -6t-10 -4h-288q-1 0 -5 4t-7 6q-2 4 -7 11t-5 9v580h132zM78 648v69h116v-69h-116zM344 717v-69h-116v69h116z" />
<glyph unicode="&#xfd;" d="M37 610h132v-187l84 40v147h132v-174q0 -1 -4.5 -4.5t-7.5 -5.5q-5 -2 -14 -6t-10 -4l-71 -34v-455q-15 1 -35 10t-39 20.5t-35 23.5t-23 19v320l-85 -37q-1 0 -5 4t-7 6q-2 4 -7 11t-5 9v297zM194 717h98l-60 -69h-98z" />
<glyph unicode="&#xfe;" horiz-adv-x="464" d="M37 610h133v-98h234q12 -4 16.5 -9.5t6.5 -11.5v-173l-258 -107v-211h-132v352l72 85h-108q9 28 36 53v120zM169 312l125 52v68h-125v-120z" />
<glyph unicode="&#xff;" d="M37 610h132v-187l84 40v147h132v-174q0 -1 -4.5 -4.5t-7.5 -5.5q-5 -2 -14 -6t-10 -4l-71 -34v-455q-15 1 -35 10t-39 20.5t-35 23.5t-23 19v320l-85 -37q-1 0 -5 4t-7 6q-2 4 -7 11t-5 9v297zM78 648v69h116v-69h-116zM344 717v-69h-116v69h116z" />
<glyph unicode="&#x152;" horiz-adv-x="712" d="M458 309v-229h84v121q6 5 22 11t36 11t40 8.5t34 3.5v-235h-614q-1 0 -5 4t-7 6q-3 4 -7.5 11t-4.5 9v440l72 65h-108q8 21 23.5 39.5t36.5 35.5h642l-55 -80h-189v-120l149 62v-102zM276 520h-108v-440h84v109q8 6 29 13t45 13v232q-23 11 -36.5 28t-13.5 45z" />
<glyph unicode="&#x153;" horiz-adv-x="712" d="M458 309v-229h84v121q6 5 22 11t36 11t40 8.5t34 3.5v-235h-614q-1 0 -5 4t-7 6q-3 4 -7.5 11t-4.5 9v440l72 65h-108q8 21 23.5 39.5t36.5 35.5h642l-55 -80h-189v-120l149 62v-102zM276 520h-108v-440h84v109q8 6 29 13t45 13v232q-23 11 -36.5 28t-13.5 45z" />
<glyph unicode="&#x178;" d="M37 610h132v-187l84 40v147h132v-174q0 -1 -4.5 -4.5t-7.5 -5.5q-5 -2 -14 -6t-10 -4l-71 -34v-455q-15 1 -35 10t-39 20.5t-35 23.5t-23 19v320l-85 -37q-1 0 -5 4t-7 6q-2 4 -7 11t-5 9v297zM78 648v69h116v-69h-116zM344 717v-69h-116v69h116z" />
<glyph unicode="&#x2c6;" horiz-adv-x="341" d="M244 640l60 -69h-98l-36 43l-36 -43h-97l60 69h147z" />
<glyph unicode="&#x2dc;" horiz-adv-x="402" d="M196 640l36 -43l36 43h97l-60 -69h-99l-36 43l-36 -43h-97l60 69h99z" />
<glyph unicode="&#x2000;" horiz-adv-x="375" />
<glyph unicode="&#x2001;" horiz-adv-x="751" />
<glyph unicode="&#x2002;" horiz-adv-x="375" />
<glyph unicode="&#x2003;" horiz-adv-x="751" />
<glyph unicode="&#x2004;" horiz-adv-x="250" />
<glyph unicode="&#x2005;" horiz-adv-x="187" />
<glyph unicode="&#x2006;" horiz-adv-x="125" />
<glyph unicode="&#x2007;" horiz-adv-x="125" />
<glyph unicode="&#x2008;" horiz-adv-x="93" />
<glyph unicode="&#x2009;" horiz-adv-x="150" />
<glyph unicode="&#x200a;" horiz-adv-x="41" />
<glyph unicode="&#x2010;" horiz-adv-x="223" d="M37 309v101l149 62v-102z" />
<glyph unicode="&#x2011;" horiz-adv-x="223" d="M37 309v101l149 62v-102z" />
<glyph unicode="&#x2012;" horiz-adv-x="223" d="M37 309v101l149 62v-102z" />
<glyph unicode="&#x2013;" horiz-adv-x="223" d="M37 309v101l149 62v-102z" />
<glyph unicode="&#x2014;" horiz-adv-x="372" d="M37 244v103l298 124v-102z" />
<glyph unicode="&#x2018;" horiz-adv-x="206" d="M169 610v-181h-132v111q0 1 4 5t9.5 8.5t11.5 9t11 7.5q2 1 15.5 6.5t29.5 12.5t31 13z" />
<glyph unicode="&#x2019;" horiz-adv-x="206" d="M37 430v181h132v-111q0 -2 -4 -5.5t-10 -8l-12 -9l-10 -7.5q-2 -2 -15.5 -7.5t-30 -12.5t-31.5 -12.5t-19 -7.5z" />
<glyph unicode="&#x201a;" horiz-adv-x="208" d="M37 80h133v-80q-7 -7 -23 -19t-35 -23.5t-39 -20.5t-36 -10v153z" />
<glyph unicode="&#x201c;" horiz-adv-x="379" d="M169 610v-181h-132v111q0 1 4 5t9.5 8.5t11.5 9t11 7.5q2 1 15.5 6.5t29.5 12.5t31 13zM342 610v-181h-132v111q0 1 4 5t9.5 8.5t11.5 9t11 7.5q2 1 15.5 6.5t29.5 12.5t31 13z" />
<glyph unicode="&#x201d;" horiz-adv-x="379" d="M210 430v181h132v-111q0 -2 -4 -5.5t-10 -8l-12 -9l-10 -7.5q-2 -2 -15.5 -7.5t-30 -12.5t-31.5 -12.5t-19 -7.5zM37 430v181h132v-111q0 -2 -4 -5.5t-10 -8l-12 -9l-10 -7.5q-2 -2 -15.5 -7.5t-30 -12.5t-31.5 -12.5t-19 -7.5z" />
<glyph unicode="&#x201e;" horiz-adv-x="380" d="M210 80h133v-80q-7 -7 -23 -19t-35 -23.5t-39 -20.5t-36 -10v153zM37 80h133v-80q-7 -7 -23 -19t-35 -23.5t-39 -20.5t-36 -10v153z" />
<glyph unicode="&#x2022;" d="M49 10q3 -2 7 -6t5 -4h288q1 0 10 4t14 6q3 2 7.5 5.5t4.5 4.5v570q0 1 -4.5 4.5t-7.5 5.5q-5 2 -14 6t-10 4h-288q-1 0 -5 -4t-7 -6q-2 -4 -7 -11t-5 -9v-550q0 -2 5 -9t7 -11z" />
<glyph unicode="&#x2026;" horiz-adv-x="623" d="M452 0v80h134v-80h-134zM245 0v80h133v-80h-133zM37 0v80h133v-80h-133z" />
<glyph unicode="&#x202f;" horiz-adv-x="150" />
<glyph unicode="&#x2039;" horiz-adv-x="157" d="M37 422l83 50v-81l-52 -30l52 -30v-81l-83 50v122z" />
<glyph unicode="&#x203a;" horiz-adv-x="157" d="M119 422l-83 50v-81l52 -30l-52 -30v-81l83 50v122z" />
<glyph unicode="&#x205f;" horiz-adv-x="187" />
<glyph unicode="&#x20ac;" horiz-adv-x="512" d="M37 252v103l90 37v78l72 65h-108q8 21 24 39.5t36 35.5h324v-180l-14 1q-20 6 -37 13t-29.5 17.5t-20 24.5t-7.5 34h-108v-73l76 32v-102l-76 -32v-60l76 32v-102l-76 -32v-103h84v109q6 5 22 11t36 11t40 8.5t34 3.5v-223h-324q-1 0 -5 4t-7 6q-2 4 -7 11t-5 9v98 l-90 -38v103l90 37v60z" />
<glyph unicode="&#x2122;" horiz-adv-x="386" d="M92 619v-112h24v112h56v21h-135v-21h55zM198 636v-129h17v87l7 7l38 -86q3 -6 6 -7t6 -1q8 0 9.5 1t4.5 7l39 88l6 -9v-87h18v133h-7q-17 0 -31 -10t-24 -39q-4 -14 -7 -24t-8 -21q-3 9 -7.5 21t-11.5 29l-2 7q-7 13 -20 25.5t-20 12.5q-1 0 -1.5 -0.5t0.5 -0.5l1 -1 q0 -1 -6 -1q-5 0 -7 -2z" />
<glyph unicode="&#x25fc;" horiz-adv-x="610" d="M0 610h610v-610h-610v610z" />
</font>
</defs>
</svg>
