<?xml version="1.0" standalone="no"?>
<!DOCTYPE svg PUBLIC "-//W3C//DTD SVG 1.1//EN" "http://www.w3.org/Graphics/SVG/1.1/DTD/svg11.dtd" >
<svg xmlns="http://www.w3.org/2000/svg" xmlns:xlink="http://www.w3.org/1999/xlink" version="1.1">
<metadata></metadata>
<defs>
<font id="winter_solstice_outloutlineIt" horiz-adv-x="339" >
<font-face units-per-em="1000" ascent="800" descent="-200" />
<missing-glyph horiz-adv-x="244" />
<glyph horiz-adv-x="0" />
<glyph unicode="&#xd;" horiz-adv-x="500" />
<glyph unicode=" "  horiz-adv-x="244" />
<glyph unicode="&#x09;" horiz-adv-x="244" />
<glyph unicode="&#xa0;" horiz-adv-x="244" />
<glyph unicode="!" horiz-adv-x="153" d="M65 94l-12 -75h82l12 75h-82zM226 591h-82l-63 -395h82zM133 610h111l-69 -433h-111zM36 0l18 113h111l-18 -113h-111z" />
<glyph unicode="&#x22;" horiz-adv-x="299" d="M139 517l-24 -148q4 1 15.5 5.5t24 10t23 10t12.5 6.5q3 2 8 5.5t9.5 7.5t8 7.5t3.5 4.5l15 91h-95zM263 517l-24 -148q4 1 15.5 5.5t24.5 10t23.5 10t12.5 6.5q3 2 8 5.5t9.5 7.5t8 7.5t3.5 4.5l15 91h-96zM94 342l30 191h254l-17 -107q0 -2 -4 -7t-10 -10.5t-12.5 -11 t-11.5 -8.5l2 1l-0.5 -0.5t-1.5 -0.5q-1 -1 -2 -1l2 1q-5 -2 -22 -10t-31 -15l-52 -22l12 75q-6 -7 -15.5 -15t-15.5 -13l1 1l-1 -1q-1 -1 -2 -1l2 1q-5 -2 -22.5 -10t-31.5 -15z" />
<glyph unicode="#" horiz-adv-x="463" d="M276 331l58 28l-9 -55l-57 -27zM318 591h-102l-34 -215l-68 -32l-15 -96l68 33l-10 -57l-67 -32l-15 -96l67 33l-17 -110h102l25 160l58 28l-30 -188h101l38 241l67 32l15 96l-67 -32l9 56l67 32l16 98l-68 -34l14 83h-101l-22 -135l-57 -27zM201 610h138l-24 -151l17 8 l23 143h138l-11 -70l67 34l-23 -142l-67 -32l-2 -14l67 33l-22 -139l-67 -32l-39 -248h-138l28 176l-18 -9l-26 -167h-138l16 98l-69 -33l22 140l68 31l3 14l-69 -33l23 140l67 31zM293 319l-2 -12l17 8l2 13z" />
<glyph unicode="$" d="M141 19l-8 -53h100l8 53h54l18 9q3 2 7 5.5t4 4.5l50 316l-148 87l13 80h141l53 76h-100l8 53h-100l-8 -53h-62q-19 -17 -33.5 -34t-23.5 -37h81l-62 -52l-14 -86l149 -85l-33 -208h-63l18 114q-3 5 -14.5 10.5t-25.5 10.5t-29 8.5t-24 3.5l-31 -195q0 -2 2 -8.5t4 -10.5 q2 -2 4.5 -5.5t3.5 -3.5h61zM112 -53l8 53h-43l-6.5 3.5t-9.5 7.5l-4 5q-2 5 -6 15.5t-3 15.5l34 214q13 0 33 -4.5t39 -11t34.5 -14.5t20.5 -14l-16 -103h27l28 177l-148 85l16 106l29 25h-58q17 36 37 62.5t43 46.5h51l8 53h136l-8 -53h113l-80 -114h-133l-8 -50l148 -86 l-52 -328l-4 -7t-9 -12l-6 -5q-5 -3 -17 -8.5t-14 -5.5h-36l-8 -53h-136z" />
<glyph unicode="%" horiz-adv-x="401" d="M211 507l-18 -116h-13l18 116h13zM354 221l-18 -116h-12l18 116h12zM112 310l4 -5h100l-141 -286h100l111 224l-33 -210q0 -2 1 -5t2 -5l4 -4h107q5 0 10 4q5 2 5 5l43 268l-4 4q-2 1 -5 3t-4 2h-96l142 286h-99l-112 -225l34 216l-3 5q-2 0 -4.5 2t-3.5 2h-108l-2 -2 t-4 -2l-6 -10l-40 -258q-1 -2 0.5 -4.5t1.5 -4.5zM98 297l-4 13l-1 -6q0 4 -0.5 9.5l-0.5 5.5l41 263l13 20q2 0 2.5 1t4.5 7h124l13 -8l10 -13l-17 -112l66 133h138l-143 -286h76l13 -8l11 -13l-44 -275q-1 -7 -5.5 -12t-10.5 -8q-5 -4 -11.5 -6t-8.5 -2h-115l-12 16 q0 1 1 1q-2 3 -2.5 9.5l-0.5 6.5l16 99l-66 -132h-138l140 286h-81zM94 303q-1 0 -1 1z" />
<glyph unicode="&#x26;" horiz-adv-x="407" d="M174 95l25 157l68 32l-30 -189h-63zM457 464l-243 -117l27 173h142l54 76h-266q-17 -17 -32 -34t-24 -37h82l-68 -81l-67 -425h163l-13 -80q4 1 16 6t24.5 11t24 12t14.5 8q8 7 19.5 17t12.5 12l52 331l67 32zM390 501h-134l-19 -124l243 118l-22 -139l-67 -33l-50 -318 q-2 -8 -10.5 -15.5t-16.5 -15.5l-12 -11q-3 -3 -18.5 -10t-34.5 -15t-36 -15t-23 -9l14 86h-163l71 450l46 56h-70q17 36 37 62.5t42 46.5h304zM215 239l-20 -126h27l22 140z" />
<glyph unicode="'" horiz-adv-x="152" d="M132 517l-24 -148q3 1 13 5.5t21 10l20 10t11 6.5q5 5 15 14t10 11l15 91h-81zM90 342l30 191h110l-17 -107q0 -2 -3.5 -7t-9 -10.5l-11 -11t-9.5 -8.5l1 1v-1h-1q-1 -1 -2 -1l2 1q-5 -2 -19.5 -10t-26.5 -15z" />
<glyph unicode="(" horiz-adv-x="237" d="M217 10l9 57h-69l76 481h69l9 57q0 2 -7.5 9t-14.5 10h-118q-1 0 -4.5 -4t-5.5 -6q-2 -3 -6.5 -10t-5.5 -9l-91 -575q0 -2 2 -8.5t4 -10.5q2 -2 4 -5.5t3 -3.5h118q1 0 8 3.5t10 5.5q2 2 5.5 5t4.5 4zM246 86l-12 -76l-4 -7t-9 -11l-5 -5q-5 -3 -16.5 -8.5t-13.5 -5.5 h-118l-6 3t-10 8l-3 5q-2 5 -5 15t-2 16l91 575q2 7 7.5 16.5t8.5 14.5l6 5q5 5 12 8.5l7 3.5h118q2 0 11 -5.5t14 -8.5l4 -5q3 -5 5 -12l2 -7l-12 -76h-69l-70 -443h69z" />
<glyph unicode=")" horiz-adv-x="237" d="M52 86l-12 -76l2 -7t5 -11l4 -6q4 -3 13 -8t11 -5h119l6.5 3t10.5 8l6 6q4 5 10 14t7 16l91 575q2 6 -2 16.5t-6 15.5l-3 4q-3 5 -8.5 8.5l-5.5 3.5h-119q-2 0 -13 -6.5t-17 -8.5l-4 -4q-5 -5 -9 -12l-4 -7l-12 -76h69l-70 -443h-69zM56 10l9 57h69l76 481h-69l9 57 q0 1 4 4t6 5q4 2 10.5 6t7.5 4h119q1 0 3 -4l3 -6q2 -3 4 -10t1 -9l-91 -575q0 -2 -4.5 -8.5t-6.5 -10.5q-2 -2 -5 -5.5t-4 -3.5h-119q-1 0 -6.5 3.5t-8.5 5.5l-5 5t-2 4z" />
<glyph unicode="*" horiz-adv-x="204" d="M232 549h-51l-10 -60l-44 -30l-12 -75l44 26l-4 -25h51l10 61l41 29l12 73l-41 -23zM168 566h83l-2 -12l40 23l-17 -110l-42 -29l-11 -69h-83l2 11l-44 -26l18 114l45 29z" />
<glyph unicode="+" horiz-adv-x="293" d="M289 475h-96l-18 -113l-66 -36l-15 -91l66 31l-11 -73h96l18 118l62 35l14 92l-61 -31zM179 493h130l-9 -57l62 31l-21 -131l-62 -35l-20 -126h-130l10 62l-67 -32l21 131l67 36z" />
<glyph unicode="," horiz-adv-x="153" d="M145 79h-82l-20 -121q11 1 24.5 8t26.5 16t24 18.5t17 15.5zM51 95h111l-13 -85q-6 -6 -20 -17t-32 -22.5t-36.5 -20t-33.5 -9.5z" />
<glyph unicode="-" horiz-adv-x="167" d="M107 345l-13 -81l101 49l13 82zM74 238l18 118l135 66l-19 -119z" />
<glyph unicode="." horiz-adv-x="153" d="M61 67l-9 -54h82l9 54h-82zM36 0l13 80h111l-13 -80h-111z" />
<glyph unicode="/" horiz-adv-x="371" d="M343 591l-282 -572h99l282 572h-99zM33 0l300 610h137l-300 -610h-137z" />
<glyph unicode="0" horiz-adv-x="335" d="M190 113l61 384h26l-61 -384h-26zM55 19l1 -4l4 -4q3 -4 9 -7.5l6 -3.5h211q1 0 14 5t17 9l6 5q5 4 9 11.5l4 7.5l85 534l-2 7.5t-5 11.5l-5 6q-5 3 -14.5 8t-11.5 5h-211l-7 -3.5t-12 -7.5l-6 -6q-4 -5 -10 -14t-8 -16l-82 -516q-1 -6 2.5 -14.5t5.5 -13.5zM169 94h62 l67 422h-62zM71 28q-2 4 -4 10.5t-2 8.5l82 516q1 2 5 8.5t7 10.5q2 2 6 5.5l4 3.5h211q1 0 7 -3.5t9 -5.5q2 -2 5 -5.5t3 -4.5l-85 -534q0 -1 -4 -4.5t-7 -5.5l-11 -5.5t-8 -3.5h-211l-2.5 3.5t-4.5 5.5z" />
<glyph unicode="1" horiz-adv-x="157" d="M151 0l97 610h-91q-20 -20 -37.5 -46t-32.5 -62h47l-24 -26l-75 -476h116zM230 591l-91 -572h-86l71 450l48 52h-61q17 38 50 70h69z" />
<glyph unicode="2" horiz-adv-x="341" d="M269 310l-174 -85l-33 -206h278l-29 75h-139l13 80l173 85l50 313q0 1 -3 4.5t-5 5.5t-8.5 5.5l-6.5 3.5h-213q-1 0 -4.5 -3.5t-6.5 -5.5q-3 -4 -7 -10.5t-5 -8.5l-30 -192q10 0 25.5 3t31 8t28.5 10.5t18 10.5l18 113h62zM79 237l174 84l28 176h-27l-16 -102 q-7 -6 -24.5 -13.5t-38.5 -14t-42 -11t-35 -4.5l33 211q2 7 8 16t10 14l6 6q5 4 12.5 7.5l7.5 3.5h213q2 0 11.5 -5t14.5 -8l4 -6q4 -4 6 -11.5l2 -7.5l-52 -324l-175 -87l-7 -48h132l43 -113h-326z" />
<glyph unicode="3" horiz-adv-x="320" d="M362 420l22 16l22 139q-2 10 -6 19.5t-19 15.5h-211q-48 -42 -79 -111h170l-6 -36l-112 -66l-22 -138l111 57l-32 -203h-138l-18 -113h227q1 0 14 5t17 9l6 5q5 4 9 11.5l4 7.5l58 365zM369 446l-34 -24l25 -28l-56 -356q0 -1 -4.5 -4.5t-6.5 -5.5l-11 -5.5t-8 -3.5h-210 l12 75h139l40 253l-111 -57l15 97l113 65l10 66h-164q20 41 56 73h201q8 -3 10 -8.5t4 -10.5z" />
<glyph unicode="4" horiz-adv-x="337" d="M334 12l95 602h-133l-17 -108l-30 -19l20 128h-132l-54 -341l174 90l-69 -435q19 2 41.5 12t43.5 23.5t37.5 26.5t23.5 21zM280 396l-174 -91l46 291h97l-22 -143l69 43l15 99h98l-91 -576q-6 -7 -19.5 -18t-29 -22t-32 -19.5t-28.5 -9.5z" />
<glyph unicode="5" horiz-adv-x="341" d="M193 113l16 102q-5 6 -20 13.5t-34 14t-38.5 11t-33.5 4.5l-34 -211q-1 -6 3.5 -16t6.5 -15l3 -5q3 -4 9.5 -7.5l6.5 -3.5h213q2 0 14 5.5t17 8.5l5 5q5 4 9.5 11.5l4.5 7.5l51 324l-147 86l8 49h132l79 113h-326l-38 -237l148 -85l-28 -175h-27zM268 300l-148 85l33 206 h278l-53 -75h-139l-13 -80l147 -85l-50 -313q0 -1 -4 -4.5t-7 -5.5t-10.5 -5.5l-7.5 -3.5h-213q-1 0 -3.5 3.5t-4.5 5.5q-2 4 -4 10.5t-2 8.5l31 192q10 0 24.5 -3t28.5 -8t25 -10.5t15 -10.5l-18 -113h62z" />
<glyph unicode="6" horiz-adv-x="341" d="M193 113l22 142l30 17l-25 -159h-27zM254 497h133l79 113h-300q-23 -20 -42 -46t-36 -62h62l-35 -34l-67 -421q-1 -6 3 -16l6 -15l4 -5q3 -4 9.5 -7.5l6.5 -3.5h227q17 9 25 19.5t14 23.5l71 450l-175 -90zM268 305l-69 -39l-27 -172h63zM380 516h-141l-23 -144l175 90 l-66 -416q-8 -20 -22 -27h-223q-1 0 -3.5 3.5t-4.5 5.5q-2 4 -4 10.5t-2 8.5l66 413l63 61h-80q16 36 56 70h262z" />
<glyph unicode="7" horiz-adv-x="329" d="M230 0l214 610h-269q-23 -20 -42 -46t-36 -62h176l-181 -502h138zM419 591l-201 -572h-101l182 502h-175q16 35 55 70h240z" />
<glyph unicode="8" horiz-adv-x="338" d="M238 518h62l-10 -66l-71 -56zM203 297l70 50l-40 -253h-62zM129 446l26 -24l-35 -28l-56 -356q0 -1 2.5 -4.5t4.5 -5.5q3 -2 9 -5.5t7 -3.5h205q1 0 8 3.5l11 5.5q3 2 7 5.5t4 4.5l56 356l-25 28l34 24l20 126q-2 5 -4 10.5t-10 8.5h-224q-10 -3 -13.5 -8.5t-6.5 -10.5z M46 38l58 365l23 17l-18 16l22 139q5 10 12 19.5t25 15.5h231q15 -6 19 -15.5t6 -19.5l-22 -139l-22 -16l17 -17l-58 -365l-4 -7.5t-9 -11.5l-6 -5q-4 -4 -17 -9t-14 -5h-205q-2 0 -12 5t-14 8l-4 6q-3 4 -5.5 11.5zM218 287l-27 -174h27l31 196zM252 499l-10 -63l31 25 l6 38h-27z" />
<glyph unicode="9" horiz-adv-x="340" d="M275 363l-57 30l20 123h62zM233 94h-62l18 113q-4 5 -15.5 11t-25 10.5t-28 7.5t-24.5 3l-32 -201q-2 -8 4.5 -12t23.5 -7h201q1 0 8.5 3.5t10.5 5.5t7 5.5t4 4.5l85 534q-2 5 -4 10.5t-10 8.5h-224q-39 -35 -55 -70h80l-67 -80l-15 -95l145 -91zM208 215l-16 -102h27 l21 131l-146 91l18 112l45 55h-69q17 36 36 62t42 46h235q15 -6 19 -15.5t6 -19.5l-85 -537l-4.5 -7.5t-9.5 -11.5l-5 -5q-4 -4 -17 -9t-15 -5h-204q-26 5 -34 13t-5 25l35 220q13 0 32.5 -4t38.5 -10.5t34.5 -14t20.5 -14.5zM253 497l-15 -93l25 -12l17 105h-27z" />
<glyph unicode=":" horiz-adv-x="153" d="M122 454l-12 -74h82l12 74h-82zM65 92l-12 -74h82l12 74h-82zM36 0l18 111h111l-18 -111h-111zM93 361l18 111h111l-18 -111h-111z" />
<glyph unicode=";" horiz-adv-x="153" d="M147 93h-82l-23 -142q10 1 24 9.5t27 19t24.5 21.5t17.5 18zM123 458l-12 -74h82l12 74h-82zM54 112h111l-16 -100q-6 -8 -20 -21t-32 -26t-37 -23t-35 -12zM94 365l18 112h111l-18 -112h-111z" />
<glyph unicode="&#x3c;" horiz-adv-x="264" d="M104 303l46 -284h93l-45 284l137 288h-94zM135 0l-49 303l147 307h129l-146 -307l49 -303h-130z" />
<glyph unicode="=" horiz-adv-x="293" d="M98 260l-15 -93l231 113l15 93zM121 407l-14 -93l231 113l14 93zM85 284l21 135l269 130l-21 -133zM62 137l21 135l269 131l-21 -134z" />
<glyph unicode="&#x3e;" horiz-adv-x="264" d="M162 0l144 303l-48 307h-129l47 -307l-144 -303h130zM288 303l-135 -284h-94l136 284l-46 288h94z" />
<glyph unicode="?" horiz-adv-x="338" d="M73 94l-12 -75h97l12 75h-97zM267 310l-172 -85l-8 -51h96l173 85l50 313q0 1 -3 4.5t-5 5.5q-3 2 -9 5.5t-7 3.5h-211q-1 0 -4.5 -3.5t-6.5 -5.5q-2 -4 -6 -10.5t-5 -8.5l-30 -192q10 0 25 3t30.5 8t28 10.5t17.5 10.5l18 113h62zM79 237l172 84l28 176h-26l-16 -102 q-7 -6 -24.5 -13.5t-38.5 -14t-42 -11t-34 -4.5l33 211q2 7 8 16t9 14l7 6q5 4 12 7.5l7 3.5h211q2 0 11.5 -5t14.5 -8l5 -6q3 -4 5 -11.5l2 -7.5l-52 -324l-186 -93h-119zM40 0l18 113h133l-18 -113h-133z" />
<glyph unicode="@" horiz-adv-x="479" d="M325 386l-18 -116h-13l18 116h13zM225 189l4 -5h238q1 0 4.5 3.5t6.5 5.5q2 4 6.5 10.5t5.5 8.5l55 352q1 2 -1.5 8.5t-4.5 10.5q-2 2 -4 5.5t-3 3.5h-360q-1 0 -4.5 -3.5t-6.5 -5.5q-2 -4 -6.5 -10.5t-5.5 -8.5l-82 -517q0 -2 2 -8.5t4 -10.5q2 -2 4.5 -5.5t3.5 -3.5 h250q1 0 8.5 3.5t10.5 5.5t7 5.5t4 4.5l9 56h-195l67 423h11v-1h184l-41 -256h-32l32 201l-3 5q-2 0 -5 2t-4 2h-110l-1.5 -2t-3.5 -2l-6 -10l-41 -258q0 -2 1 -4.5t2 -4.5zM210 176l-2 8l-11 -71h195l-12 -75l-4.5 -7.5t-9.5 -11.5l-6 -5q-4 -4 -17 -9t-15 -5h-250 l-6.5 3.5t-9.5 7.5l-4 5q-2 5 -6.5 15t-3.5 16l82 517q2 7 8.5 16t9.5 14l7 6q5 4 12.5 7.5l7.5 3.5h360l6.5 -3.5t9.5 -7.5l4 -5l6 -15t2 -16l-55 -352q-2 -6 -8 -15.5t-9 -14.5l-7 -6q-5 -4 -12.5 -7.5l-7.5 -3.5h-246zM391 489l14 -8l7 -8l4 24h-158l-4 -24l4 8 q2 0 2.5 1t4.5 7h126zM207 182l-1 1q0 -1 1 -1z" />
<glyph unicode="A" horiz-adv-x="374" d="M239 520h95l-12 -77l-100 -34zM320 -24q8 7 19.5 17t12.5 12l90 572q1 1 -2 4l-5 5q-4 2 -10 6t-7 4h-247q-5 -4 -12.5 -13.5t-15.5 -20.5t-15.5 -21t-12.5 -16h81l-64 -62l-70 -444h98l47 295l100 33l-65 -408q4 1 15.5 6t24.5 11t24 12t14 8zM331 -37q-3 -3 -18 -10 t-34 -15t-36 -15t-23 -9l65 407l-62 -21l-48 -300h-134l75 472l35 34h-71q1 2 6 9t11 15.5t12 16t8 10.5v-1q11 15 24 31.5t27 27.5h253q2 0 12 -5.5t15 -8.5l4 -5q4 -5 6 -12l2 -7l-90 -572q-2 -8 -10.5 -15.5t-17.5 -15.5zM254 501l-10 -66l62 21l7 45h-59z" />
<glyph unicode="B" horiz-adv-x="374" d="M323 452l-101 -48l18 112h93zM173 94l34 215l100 43l-41 -258h-93zM413 394l-26 28l35 24l20 126q-2 5 -4 10.5t-10 8.5h-257q-40 -34 -56 -70h81l-67 -80l-67 -422h265q1 0 8 3.5l11 5.5q3 2 7 5.5t4 4.5zM438 436l-23 -16l18 -17l-58 -365l-4.5 -7.5t-9.5 -11.5l-5 -5 q-5 -3 -17.5 -8.5t-14.5 -5.5h-283l71 447l46 55h-70q17 36 36.5 62t42.5 46h267q16 -6 20 -15.5t6 -19.5zM223 297l-29 -184h57l33 210zM255 497l-10 -63l61 30l6 33h-57z" />
<glyph unicode="C" d="M236 507h80q-3 -19 1.5 -32t13.5 -22.5t21.5 -16t25.5 -12.5l5 -2l27 169h-240q-39 -35 -55 -70h80l-64 -61l-66 -413q0 -2 2.5 -8.5t3.5 -10.5q2 -2 4.5 -5.5t3.5 -3.5h240l33 209q-10 0 -25.5 -3.5t-31 -8.5t-28.5 -10.5t-18 -9.5l-16 -102h-62zM369 406 q-28 11 -50 28.5t-23 53.5h-45l-59 -375h27l14 91q7 6 24.5 13.5t38.5 14t42 11t35 4.5l-39 -247h-258l-6 3.5t-10 7.5l-3 5l-6 15t-3 16l67 421l35 34h-62q17 36 36 62t42 46h265l-34 -214z" />
<glyph unicode="D" horiz-adv-x="372" d="M171 94l67 422h94l-67 -422h-94zM113 521h27l-80 -502h265q1 0 8.5 3.5t10.5 5.5t7 5.5t4 4.5l85 534q0 1 -3 4.5t-5 5.5t-8.5 5.5t-7.5 3.5h-247q-5 -4 -13 -13.5t-16 -20t-15.5 -20.5t-11.5 -16zM322 0h-283l80 502h-40q1 2 5.5 9t10.5 15.5t11.5 16t8.5 10.5l-1 -1 q12 15 25 31t27 27h253q2 0 12 -5t15 -8l4 -6q4 -4 6 -11.5l2 -7.5l-85 -534l-4.5 -7.5t-9.5 -11.5l-5 -5q-4 -4 -17 -9t-15 -5zM253 497l-61 -384h58l61 384h-58z" />
<glyph unicode="E" horiz-adv-x="341" d="M172 95l34 216l120 58l16 96l-121 -58l18 113h141l53 76h-262q-18 -17 -32.5 -34t-23.5 -37h80l-66 -81l-67 -425h161l-13 -80q4 1 15.5 6t24 11t24 12t14.5 8q8 7 19 17t12 12l35 225q-10 0 -25 -3.5t-31 -8.5t-29 -10.5t-18 -9.5l-16 -103h-63zM342 356l-120 -57 l-29 -186h27l14 92q7 6 25 14t39 14.5t42 11t35 4.5l-38 -244q-2 -8 -10.5 -16t-17.5 -16l-11 -10q-3 -3 -18.5 -10.5t-33.5 -15.5t-35 -14.5t-23 -8.5l14 86h-161l71 450l45 56h-69q17 36 36.5 62.5t41.5 46.5h300l-79 -114h-133l-10 -64l121 59z" />
<glyph unicode="F" horiz-adv-x="341" d="M149 -50l57 361l120 57l16 97l-121 -59l18 114h141l53 75h-262q-18 -17 -32.5 -34t-23.5 -37h80l-61 -52l-72 -453q4 -7 14 -18t22.5 -22t26 -19.5t24.5 -9.5zM342 356l-120 -57l-58 -370q-18 2 -37 12t-36 23.5t-30 26.5t-18 21l74 469l29 24h-58q17 37 36.5 63t41.5 46 h300l-79 -113h-133l-10 -65l121 60z" />
<glyph unicode="G" horiz-adv-x="373" d="M173 95l67 425h141l53 76h-263q-18 -17 -32.5 -34t-23.5 -37h81l-64 -62l-66 -416q0 -2 2 -8.5t4 -10.5q2 -2 4.5 -5.5t3.5 -3.5h174l-13 -80q4 1 15.5 6t24.5 11t24 12t14 8q8 7 19.5 17t12.5 12l68 429q-10 0 -25.5 -3.5t-31.5 -8.5t-29 -10.5t-18 -9.5l-49 -307h-93z M388 501h-133l-61 -388h57l47 296q7 6 24.5 13.5t39 14.5t42.5 11.5t36 4.5l-71 -448q-2 -8 -10.5 -15.5t-17.5 -15.5l-11 -11q-3 -3 -18 -10t-34 -15t-36 -15t-23 -9l14 86h-156l-6.5 3.5t-9.5 7.5l-4 5q-2 5 -6 15.5t-3 15.5l68 425l35 34h-63q17 36 36.5 62.5t42.5 46.5 h301z" />
<glyph unicode="H" horiz-adv-x="371" d="M152 591l-91 -572h99l52 328l99 46l-59 -374h99l91 572h-99l-16 -98l-100 -43l23 141h-98zM41 0l97 610h133l-21 -132l61 26l17 106h135l-97 -610h-135l57 363l-60 -28l-53 -335h-134z" />
<glyph unicode="I" horiz-adv-x="294" d="M306 89h-88l69 432h48l52 70h-223q-40 -34 -56 -70h126l-53 -52l-60 -380h-42l-52 -70h224q17 16 31.5 33t23.5 37zM342 502h-40l-63 -394h94q-17 -36 -36.5 -62t-41.5 -46h-261l78 108h34l58 368l27 26h-109q17 36 36 62t41 46h262z" />
<glyph unicode="J" horiz-adv-x="422" d="M360 38l76 478h26l54 75h-266q-19 -16 -33.5 -33t-23.5 -37h144l-68 -427h-95l48 305q-4 5 -15.5 10.5t-25.5 10.5t-29 8t-25 3l-62 -393q-2 -8 5.5 -12t26.5 -7h233l7.5 3.5t11.5 5.5q2 2 6.5 5.5t4.5 4.5zM469 497h-18l-73 -459l-4.5 -7.5t-9.5 -11.5l-5 -5 q-3 -2 -8 -4.5t-10 -4.5t-9 -3.5t-5 -1.5h-236q-28 5 -37.5 12t-6.5 26l65 412q14 0 34 -4.5t39.5 -11t35 -14t21.5 -14.5l-46 -293h58l62 389h-150q17 36 36.5 62t42.5 46h305z" />
<glyph unicode="K" horiz-adv-x="372" d="M152 595l-91 -576h99l45 282l100 49l-52 -331q4 -7 13.5 -18t22.5 -22t26.5 -19.5t25.5 -9.5l71 447l-26 28l34 24l23 146h-99l-22 -140l-101 -49l30 189h-99zM41 0l97 614h134l-28 -178l62 31l23 147h135l-27 -175l-24 -16l18 -18l-75 -476q-18 2 -37.5 12t-36.5 23.5 t-30 26.5t-18 21l49 307l-62 -30l-46 -289h-134z" />
<glyph unicode="L" horiz-adv-x="335" d="M61 19h255l33 209q-11 0 -26 -3.5t-30 -8.5t-28 -10.5t-18 -9.5l-16 -102h-61l79 497h-97zM330 0h-290l97 610h133l-79 -497h25l14 91q7 6 24.5 13.5t38.5 14t41.5 11t34.5 4.5z" />
<glyph unicode="M" horiz-adv-x="520" d="M231 19h102l42 263l84 125l-61 -388h102l91 576h-100l-152 -210l-84 210h-101l-102 -646q12 1 29 9.5t34 19.5t30.5 22t19.5 18l61 389l47 -125zM349 0h-140l44 277l-19 55l-51 -321q-8 -8 -25.5 -21t-39.5 -26.5t-45 -23.5t-42 -12l108 686h129l77 -192l138 192h130 l-97 -614h-140l52 331l-35 -54z" />
<glyph unicode="N" horiz-adv-x="371" d="M152 596l-104 -657l24.5 10.5t35.5 17t33 19.5t17 19l64 406l72 -129l-42 -263h99l91 577h-99l-21 -136l-79 136h-91zM27 -90l111 705h117l57 -101l16 101h135l-97 -615h-135l44 275l-44 80l-55 -350q-2 -12 -22 -27t-45 -28.5t-49 -24.5t-33 -15z" />
<glyph unicode="O" horiz-adv-x="372" d="M173 94l67 422h92l-67 -422h-92zM196 521l-64 -61l-66 -413q0 -2 2 -8.5t4 -10.5q2 -2 4.5 -5.5t3.5 -3.5h245q1 0 8 3.5l11 5.5q3 2 7 5.5t4 4.5l85 534q0 1 -3 4.5t-5 5.5q-3 2 -9 5.5t-7 3.5h-245q-5 -4 -13 -13.5t-16 -20t-15.5 -20.5t-11.5 -16h81zM115 468l35 34 h-70q1 2 5.5 9t10.5 15.5t12 16t9 10.5l-1 -1q12 15 24.5 31t26.5 27h252q2 0 12 -5t15 -8l4 -6q4 -4 6 -11.5l2 -7.5l-85 -534l-4.5 -7.5t-9.5 -11.5l-5 -5q-5 -3 -17.5 -8.5t-14.5 -5.5h-245l-6.5 3.5t-9.5 7.5l-4 5l-6 15t-3 16zM255 497l-61 -384h56l61 384h-56z" />
<glyph unicode="P" horiz-adv-x="374" d="M323 455l-101 -49l18 114h93zM196 524l-67 -80l-78 -495q12 1 28 9.5t32 19.5t29.5 22t20.5 18l46 289l208 100l27 168q-2 6 -4 11t-10 9h-257q-18 -17 -32.5 -34t-23.5 -37h81zM112 450l46 55h-70q17 37 36.5 63t42.5 46h267q17 -6 21 -15.5t6 -19.5l-29 -184l-209 -100 l-45 -284q-8 -8 -24.5 -21t-37.5 -26t-44 -23.5t-42 -12.5zM255 501l-10 -65l62 31l5 34h-57z" />
<glyph unicode="Q" horiz-adv-x="342" d="M173 95l67 425h91l-67 -425h-91zM80 19h74l-13 -80q4 1 15.5 6t24.5 11t24 12t14 8q8 7 19.5 17t12.5 12l2 14h71q1 0 8 3.5l11 5.5q3 2 7 5.5t4 4.5l85 539q1 1 -2 4l-5 5q-4 2 -10 6t-7 4h-244q-5 -4 -12.5 -13.5t-15.5 -20.5t-15.5 -21t-12.5 -16h81l-64 -62l-66 -416 q0 -2 2 -8.5t4 -10.5q2 -2 4.5 -5.5t3.5 -3.5zM230 -37q-3 -3 -18 -10t-34 -15t-36 -15t-23 -9l14 86h-56l-6.5 3.5t-9.5 7.5l-4 5q-2 5 -6 15.5t-3 15.5l68 425l34 34h-70q1 2 6 9t11 15.5t12 16t8 10.5v-1q11 15 24 31.5t26 27.5h251q2 0 12 -5.5t15 -8.5l4 -5q4 -5 6 -12 l2 -7l-85 -539l-4.5 -7t-9.5 -12l-5 -5q-5 -3 -17.5 -8.5t-14.5 -5.5h-54q-3 -7 -10 -13.5t-15 -12.5zM255 501l-61 -388h55l61 388h-55z" />
<glyph unicode="R" horiz-adv-x="373" d="M322 455l-101 -49l18 114h93zM413 397l-27 28l35 24l20 126q-2 6 -4 11t-10 9h-257q-18 -17 -32.5 -34t-23.5 -37h81l-67 -80l-67 -425h99l46 292l101 46l-54 -338q4 -7 14 -18t23 -22.5t27 -19.5t25 -9zM438 439l-24 -16l18 -18l-75 -476q-18 2 -37.5 12t-37 23.5 t-30.5 26.5t-18 21l50 315l-62 -28l-47 -299h-135l71 450l46 55h-70q17 37 37 63t42 46h268q16 -6 20 -15.5t6 -19.5zM254 501l-10 -65l62 31l5 34h-57z" />
<glyph unicode="S" d="M193 113l16 102q-5 6 -20.5 13.5t-34.5 14t-39 11t-33 4.5l-34 -211q-1 -6 3 -16l6 -15l4 -5q3 -4 9.5 -7.5l6.5 -3.5h215q2 0 14 5.5t17 8.5l6 5q5 4 9 11.5l4 7.5l51 324l-148 86l8 49h133l80 113h-300q-23 -20 -42.5 -46t-36.5 -62h58l-29 -24l-17 -105l149 -85 l-28 -175h-27zM268 300l-149 85l13 84l63 52h-81q16 36 56 70h262l-53 -75h-141l-13 -80l149 -85l-50 -313q0 -1 -4 -4.5t-7 -5.5t-10.5 -5.5l-7.5 -3.5h-215q-1 0 -3.5 3.5t-4.5 5.5q-2 4 -4 10.5t-2 8.5l31 192q10 0 24.5 -3t28.5 -8t25.5 -10.5t14.5 -10.5l-18 -113h63z " />
<glyph unicode="T" horiz-adv-x="335" d="M245 524l-53 -52l-72 -453q4 -7 14 -18t22.5 -22t26 -19.5t24.5 -9.5l91 574h76l52 71h-249q-17 -17 -31.5 -34t-23.5 -37h123zM175 479l27 26h-107q17 37 36.5 63t41.5 46h287l-79 -109h-68l-91 -576q-18 2 -37 12t-36 23.5t-30 26.5t-18 21z" />
<glyph unicode="U" horiz-adv-x="365" d="M259 94h-88l79 497h-98l-87 -544q0 -2 2.5 -8.5t3.5 -10.5q2 -2 4.5 -5.5t3.5 -3.5h239q1 0 8 3.5l11 5.5q3 2 7 5.5t4 4.5l88 553h-98zM271 610l-79 -497h52l79 497h134l-91 -572l-4.5 -7.5t-9.5 -11.5l-6 -5q-4 -4 -17 -9t-14 -5h-239l-6 3.5t-10 7.5l-3 5l-6 15t-3 16 l90 563h133z" />
<glyph unicode="V" horiz-adv-x="371" d="M442 591h-99l-64 -400l-70 139l42 261h-99l-50 -312l154 -260h95zM328 610h135l-97 -610h-122l-160 272l54 338h134l-44 -275l43 -85z" />
<glyph unicode="W" horiz-adv-x="520" d="M382 330l42 261h-102l-42 -261l-85 -124l61 385h-102l-91 -572h101l150 208l86 -208h100l91 572h-102l-61 -385zM446 610l-44 -275l19 -53l52 328h140l-97 -610h-130l-78 190l-137 -190h-129l97 610h139l-52 -329l36 54l44 275h140z" />
<glyph unicode="X" horiz-adv-x="372" d="M344 595l-22 -140l-101 -49l30 189h-99l-23 -146l27 -24l-35 -28l-60 -378h99l46 292l101 46l-54 -338q4 -7 13.5 -18t22.5 -22t26.5 -19.5t25.5 -9.5l71 447l-26 28l34 24l23 146h-99zM272 614l-28 -178l62 31l23 147h135l-27 -175l-24 -16l18 -18l-75 -476 q-18 2 -37.5 12t-36.5 23.5t-30 26.5t-18 21l50 315l-62 -28l-47 -299h-134l64 405l22 18l-16 16l27 175h134z" />
<glyph unicode="Y" horiz-adv-x="335" d="M269 614h-132l-47 -299q-1 -6 2.5 -16.5t5.5 -15.5l4 -4q3 -5 11.5 -8.5l8.5 -3.5l44 23l-44 -278q5 -8 17.5 -21t29.5 -26.5t36 -23.5t36 -12l69 440l48 27l-3 -1q5 3 13 6.5t11 5.5l6 5q5 5 9 12l4 7l29 183h-132l-23 -147l-29 -16zM152 595h96l-28 -177l68 38l22 139 h97l-26 -164q0 -1 -4 -4.5t-6 -5.5q-5 -2 -12 -5.5t-8 -3.5l-57 -32l-68 -430q-11 1 -24 9.5t-25.5 19.5t-22 22t-13.5 18l48 302l-69 -35l-2.5 4t-3.5 6q-2 3 -4.5 10t-1.5 9z" />
<glyph unicode="Z" horiz-adv-x="389" d="M234 108l255 502h-296q-23 -20 -42.5 -46t-36.5 -62h180l-262 -502h295q23 20 42.5 46t36.5 62h-172zM205 89h174q-9 -20 -23.5 -37t-32.5 -33h-262l262 502h-181q16 35 55 70h263z" />
<glyph unicode="[" horiz-adv-x="237" d="M221 38l9 56h-69l67 422h69l9 56q0 2 -7.5 10.5t-14.5 8.5h-118q-1 0 -4.5 -3.5l-5.5 -5.5q-3 -4 -7 -10.5t-5 -8.5l-82 -516q0 -2 2 -8.5t4 -10.5q2 -2 4 -5.5t3 -3.5h118q1 0 8 3.5t10 5.5q2 2 6 5.5t4 4.5zM250 113l-12 -75l-4 -7.5t-9 -11.5l-5 -5q-2 -2 -6.5 -4 t-9.5 -4.5t-9 -4t-5 -1.5h-118l-6 3.5t-9 7.5l-3 5q-2 5 -5.5 15t-2.5 16l82 516q2 7 7.5 16t8.5 14l6 6q5 4 12 7.5l7 3.5h118q2 0 11 -5t14 -8l4 -6q3 -4 5 -11.5l2 -7.5l-12 -75h-69l-61 -384h69z" />
<glyph unicode="\" horiz-adv-x="371" d="M372 0l-106 610h-136l106 -610h136zM250 591l100 -572h-99l-99 572h98z" />
<glyph unicode="]" horiz-adv-x="237" d="M56 113l-12 -75l2 -7.5t5 -11.5l4 -6q4 -3 13 -8t11 -5h119l6.5 3.5t11.5 7.5l6 6q4 5 9.5 14t6.5 16l82 516q1 6 -2.5 16t-5.5 15l-3 5q-3 4 -8.5 7.5l-5.5 3.5h-119q-2 0 -13 -6t-17 -8l-4 -5q-5 -4 -9 -11.5l-4 -7.5l-12 -75h69l-61 -384h-69zM60 38l9 56h69l67 422 h-69l9 56q0 1 4 4.5t6 5.5q4 2 10.5 5.5t7.5 3.5h119q1 0 3 -3.5t3 -5.5q1 -4 3.5 -10.5t1.5 -8.5l-82 -516q0 -2 -4.5 -8.5t-6.5 -10.5q-2 -2 -5 -5.5t-4 -3.5h-119q-1 0 -6.5 3.5t-8.5 5.5q-2 2 -4.5 5.5t-2.5 4.5z" />
<glyph unicode="^" horiz-adv-x="371" d="M270 262l-42 24l57 65zM229 0h135l97 610h-122l-246 -272l-54 -338h134l24 154l52 -29zM284 232l28 176l-112 -128zM349 19h-99l19 118l-85 48l-26 -166h-98l49 312l236 260h95z" />
<glyph unicode="_" horiz-adv-x="294" d="M328 75h-261l-73 -75h261q21 14 39.5 32t33.5 43zM75 62h227q-8 -14 -21.5 -26t-30.5 -23h-224z" />
<glyph unicode="`" horiz-adv-x="174" d="M180 418h-62l31 -44h62zM90 430h100l49 -69h-99z" />
<glyph unicode="a" d="M237 520h63l-12 -77l-68 -34zM285 -24q8 7 19.5 17t12.5 12l90 572q1 1 -2 4l-5 5q-3 2 -9.5 6t-7.5 4h-213q-5 -3 -12.5 -12.5t-16 -20.5t-15.5 -21.5l-11 -16.5h80l-64 -62l-70 -444h97l47 295l68 33l-65 -408q4 1 15.5 6.5t24 11.5t23.5 11.5t14 7.5zM296 -37 q-3 -3 -18 -10t-33.5 -15t-35 -15t-22.5 -9l64 402l-30 -14l-48 -302h-132l75 472l34 34h-69q1 2 6 9t11 15t11.5 16t7.5 11v-1q11 15 24 31.5t26 27.5h219q2 0 12.5 -5.5t14.5 -8.5l4 -5q4 -5 6 -12l2 -7l-90 -572q-2 -8 -10.5 -15.5t-16.5 -15.5zM252 501l-9 -61l30 14 l7 47h-28z" />
<glyph unicode="b" horiz-adv-x="341" d="M291 452l-71 -48l18 112h63zM171 94l34 215l70 43l-41 -258h-63zM380 394l-25 28l34 24l20 126q-2 5 -4 10.5t-10 8.5h-225q-39 -35 -55 -70h80l-67 -80l-67 -422h233q1 0 8.5 3.5t10.5 5.5t7 5.5t4 4.5zM405 436l-23 -16l18 -17l-58 -365l-4.5 -7.5t-9.5 -11.5l-5 -5 q-4 -4 -17 -9t-15 -5h-250l71 447l45 55h-69q17 36 36 62t42 46h236q15 -6 19 -15.5t6 -19.5zM221 298l-29 -185h28l32 204zM253 497l-9 -57l31 22l6 35h-28z" />
<glyph unicode="c" d="M236 507h80q-3 -19 0.5 -32t11 -22.5t19 -16.5t25.5 -13l11 -1l27 169h-240q-39 -35 -55 -70h80l-64 -61l-66 -413q0 -2 2.5 -8.5t3.5 -10.5q2 -2 4.5 -5.5t3.5 -3.5h240l33 209q-10 0 -25.5 -3.5t-31 -8.5t-28.5 -10.5t-18 -9.5l-16 -102h-62zM365 404q-29 12 -49 30 t-20 54h-45l-59 -375h27l14 91q7 6 24.5 13.5t38.5 14t42 11t35 4.5l-39 -247h-258l-6 3.5t-10 7.5l-3 5l-6 15t-3 16l67 421l35 34h-62q17 36 36 62t42 46h265l-33 -208z" />
<glyph unicode="d" horiz-adv-x="337" d="M169 94l67 422h63l-67 -422h-63zM113 521h27l-80 -502h231q7 2 17.5 9t11.5 10l85 534q-1 3 -8.5 10t-14.5 9h-214q-5 -4 -12.5 -13t-16 -19.5t-15.5 -21zM288 0h-249l80 502h-40q1 2 5.5 9t10.5 15.5t11.5 16t8.5 10.5l-1 -1q12 15 24.5 31t26.5 27h220q2 0 11.5 -5 t14.5 -8l4 -6q4 -4 6 -11.5l2 -7.5l-85 -534l-4.5 -7.5t-9.5 -11.5l-5 -5q-5 -3 -17 -8.5t-14 -5.5zM251 497l-61 -384h27l61 384h-27z" />
<glyph unicode="e" horiz-adv-x="341" d="M172 94l34 215l120 57l15 96l-120 -58l18 112h141l53 75h-262q-40 -34 -56 -70h80l-66 -80l-67 -422h259l33 209q-10 0 -25 -3.5t-31 -8.5t-29 -10.5t-18 -9.5l-16 -102h-63zM342 354l-120 -57l-29 -184h27l14 91q7 6 25 13.5t39 14t42 11t35 4.5l-39 -247h-295l71 447 l45 55h-69q17 36 36 62t42 46h300l-79 -113h-133l-10 -63l120 59z" />
<glyph unicode="f" horiz-adv-x="317" d="M148 -50l57 361l98 57l16 97l-99 -59l18 114h118l53 75h-239q-17 -17 -31.5 -34t-23.5 -37h80l-62 -52l-72 -453q4 -7 14 -18t22.5 -22t26 -19.5t24.5 -9.5zM320 358l-98 -58l-59 -371q-18 2 -37 12t-36 23.5t-29.5 26.5t-17.5 21l74 469l28 24h-57q17 37 36.5 63 t41.5 46h276l-79 -113h-110l-9 -61l98 59z" />
<glyph unicode="g" horiz-adv-x="341" d="M172 95l67 425h141l53 76h-262q-18 -17 -32.5 -34t-23.5 -37h80l-63 -62l-66 -416q0 -2 2 -8.5t4 -10.5q2 -2 4.5 -5.5t3.5 -3.5h143l-13 -80q4 1 15.5 6t24 11t24 12t14.5 8q8 7 19 17t12 12l68 429q-10 0 -25 -3.5t-31 -8.5t-29 -10.5t-18 -9.5l-49 -307h-63zM387 501 h-133l-61 -388h27l47 296q7 6 24.5 14t38.5 14.5t42.5 11t35.5 4.5l-71 -448q-2 -8 -10 -15.5t-17 -15.5l-12 -11q-3 -3 -18.5 -10.5t-33.5 -15.5t-35 -14.5t-23 -8.5l14 86h-125l-6.5 3.5t-9.5 7.5l-4 5q-2 5 -6 15.5t-3 15.5l68 425l34 34h-62q17 36 36.5 62.5t41.5 46.5 h300z" />
<glyph unicode="h" horiz-adv-x="337" d="M152 591l-91 -572h97l52 328l69 46l-59 -374h98l91 572h-98l-16 -98l-69 -43l23 141h-97zM40 0l97 610h132l-20 -126l30 19l17 107h133l-97 -610h-133l57 358l-29 -20l-54 -338h-133z" />
<glyph unicode="i" horiz-adv-x="153" d="M226 591h-82l-91 -572h82zM133 610h111l-97 -610h-111z" />
<glyph unicode="j" horiz-adv-x="388" d="M326 38l76 478h26l54 75h-264q-40 -34 -56 -70h142l-68 -427h-63l48 305q-4 5 -16 10.5t-26 10.5t-28.5 8t-23.5 3l-62 -393q-2 -8 5 -12t26 -7h200q1 0 8.5 3.5t10.5 5.5t7 5.5t4 4.5zM435 497h-18l-73 -459l-4 -7.5t-9 -11.5l-6 -5q-4 -4 -17 -9t-15 -5h-202 q-28 5 -37.5 12t-6.5 26l65 412q13 0 33 -4.5t39.5 -11t35 -14t20.5 -14.5l-46 -293h27l62 389h-149q17 36 37 62t43 46h302z" />
<glyph unicode="k" horiz-adv-x="333" d="M285 455l-67 -49l30 189h-96l-91 -576h96l44 280l67 51l-52 -331q4 -7 13.5 -18t22 -22t26 -19.5t25.5 -9.5l71 447l-26 28l34 24l23 146h-98zM269 614l-27 -169l28 20l23 149h132l-27 -175l-23 -16l17 -18l-75 -476q-18 2 -37 12t-35.5 23.5t-29 26.5t-17.5 21l47 299 l-27 -21l-46 -290h-132l97 614h132z" />
<glyph unicode="l" horiz-adv-x="335" d="M61 19h255l33 209q-11 0 -26 -3.5t-30 -8.5t-28 -10.5t-18 -9.5l-16 -102h-61l79 497h-97zM330 0h-290l97 610h133l-79 -497h25l14 91q7 6 24.5 13.5t38.5 14t41.5 11t34.5 4.5z" />
<glyph unicode="m" horiz-adv-x="520" d="M376 0h140l97 610h-130l-139 -191l-76 191h-129l-97 -610h139l52 329l20 -54l-44 -275h140l44 275l35 53zM374 280l-41 -261h-102l41 261l-46 124l-61 -385h-102l91 572h101l84 -208l152 208h100l-91 -572h-102l61 385z" />
<glyph unicode="n" horiz-adv-x="337" d="M152 596l-104 -657q7 3 24 10.5t35 17t32.5 20t16.5 18.5l63 399l43 -122l-42 -263h98l91 577h-98l-20 -129l-49 129h-90zM26 -90l111 705h117l30 -79l12 79h133l-97 -615h-133l44 275l-18 53l-51 -323q-2 -12 -22 -27t-44.5 -28.5t-48.5 -24.5t-33 -15z" />
<glyph unicode="o" d="M171 94l67 422h62l-67 -422h-62zM195 521l-64 -61l-66 -413q0 -2 2.5 -8.5t3.5 -10.5q2 -2 4.5 -5.5t3.5 -3.5h213q1 0 8.5 3.5t10.5 5.5t7 5.5t4 4.5l85 534q0 1 -3 4.5t-5 5.5t-8.5 5.5t-7.5 3.5h-213q-5 -4 -12.5 -13t-16 -19.5t-15.5 -21l-11 -16.5h80zM115 468 l35 34h-69q1 2 5.5 9t10.5 15.5t11.5 16t8.5 10.5l-1 -1q12 15 24.5 31t26.5 27h219q2 0 12 -5t15 -8l4 -6q4 -4 6 -11.5l2 -7.5l-85 -534l-4.5 -7.5t-9.5 -11.5l-5 -5q-4 -4 -17 -9t-15 -5h-213l-6 3.5t-10 7.5l-3 5l-6 15t-3 16zM253 497l-61 -384h27l61 384h-27z" />
<glyph unicode="p" horiz-adv-x="341" d="M290 450l-70 -46l18 112h63zM382 405l27 167q-2 5 -4 10.5t-10 8.5h-225q-39 -35 -55 -70h80l-67 -80l-67 -422h98l42 268zM427 575l-28 -179l-181 -118l-44 -278h-133l71 447l45 55h-69q17 36 36 62t42 46h236q15 -6 19 -15.5t6 -19.5zM253 497l-9 -58l31 21l6 37h-28z " />
<glyph unicode="q" d="M171 95l67 425h62l-67 -425h-62zM79 19h63l-13 -80q4 1 15.5 6.5t24 11.5t23.5 11.5t14 7.5q8 7 19.5 17t12.5 12l2 14h52q1 0 8.5 3.5t10.5 5.5t7 5.5t4 4.5l85 539q1 1 -2 4l-5 5q-3 2 -9.5 6t-7.5 4h-213q-5 -3 -12.5 -12.5t-16 -20.5t-15.5 -21.5l-11 -16.5h80 l-64 -62l-66 -416q0 -2 2.5 -8.5t3.5 -10.5q2 -2 4.5 -5.5t3.5 -3.5zM217 -37q-3 -3 -18 -10t-33.5 -15t-35.5 -15t-23 -9l14 86h-45l-6 3.5t-10 7.5l-3 5q-2 5 -6 15.5t-3 15.5l68 425l34 34h-69q1 2 6 9t11 15t11.5 16t7.5 11v-1q11 15 24 31.5t26 27.5h219q2 0 12.5 -5.5 t14.5 -8.5l4 -5q4 -5 6 -12l2 -7l-85 -539l-4.5 -7t-9.5 -12l-5 -5q-4 -4 -17 -9t-15 -5h-35q-4 -7 -11 -13.5t-15 -13.5zM253 501l-61 -388h27l61 388h-27z" />
<glyph unicode="r" horiz-adv-x="336" d="M287 452l-68 -46l18 114h60zM376 397l-26 28l34 24l20 126q-1 6 -3.5 11t-10.5 9h-221q-17 -17 -31.5 -34t-23.5 -37h80l-67 -80l-67 -425h98l46 290l68 48l-54 -338q4 -7 13.5 -18t22 -22t26 -19.5t25.5 -9.5zM401 439l-23 -16l17 -18l-75 -476q-18 2 -37.5 12 t-36.5 23.5t-29.5 26.5t-17.5 21l48 306l-27 -19l-47 -299h-133l71 450l45 55h-69q17 37 36.5 63t41.5 46h232q16 -6 20 -15.5t6 -19.5zM252 501l-9 -58l27 19l6 39h-24z" />
<glyph unicode="s" d="M193 113l16 102q-5 6 -20.5 13.5t-34.5 14t-39 11t-33 4.5l-34 -211q-1 -6 3 -16l6 -15l4 -5q3 -4 9.5 -7.5l6.5 -3.5h215q2 0 14 5.5t17 8.5l6 5q5 4 9 11.5l4 7.5l51 324l-148 86l8 49h133l80 113h-300q-23 -20 -42.5 -46t-36.5 -62h58l-29 -24l-17 -105l149 -85 l-28 -175h-27zM268 300l-149 85l13 84l63 52h-81q16 36 56 70h262l-53 -75h-141l-13 -80l149 -85l-50 -313q0 -1 -4 -4.5t-7 -5.5t-10.5 -5.5l-7.5 -3.5h-215q-1 0 -3.5 3.5t-4.5 5.5q-2 4 -4 10.5t-2 8.5l31 192q10 0 24.5 -3t28.5 -8t25.5 -10.5t14.5 -10.5l-18 -113h63z " />
<glyph unicode="t" horiz-adv-x="323" d="M240 524l-52 -52l-72 -453q4 -7 13.5 -18t22 -22t26 -19.5t24.5 -9.5l91 574h71l52 71h-239q-17 -17 -31.5 -34t-23.5 -37h118zM171 479l26 26h-102q17 37 36.5 63t41.5 46h277l-79 -109h-63l-91 -576q-18 2 -37 12t-36 23.5t-29.5 26.5t-17.5 21z" />
<glyph unicode="u" horiz-adv-x="335" d="M169 94l79 497h-96l-87 -544q0 -2 2 -8.5t4 -10.5q2 -2 4.5 -5.5l2.5 -3.5h211q1 0 8 3.5l11 5.5q3 2 7 5.5t4 4.5l88 553h-97l-79 -497h-62zM269 610l-79 -497h26l79 497h132l-91 -572l-4 -7.5t-9 -11.5l-6 -5q-4 -4 -17 -9t-14 -5h-211l-6 3.5t-9 7.5l-4 5l-6 15t-3 16 l90 563h132z" />
<glyph unicode="v" horiz-adv-x="336" d="M408 591h-98l-60 -378l-43 118l42 261h-98l-50 -312l122 -261h94zM296 610h132l-97 -610h-121l-128 274l54 337h133l-44 -276l19 -51z" />
<glyph unicode="w" horiz-adv-x="520" d="M382 330l42 261h-102l-42 -261l-85 -124l61 385h-102l-91 -572h101l150 208l86 -208h100l91 572h-102l-61 -385zM446 610l-44 -275l19 -53l52 328h140l-97 -610h-130l-78 190l-137 -190h-129l97 610h139l-52 -329l36 54l44 275h140z" />
<glyph unicode="x" horiz-adv-x="337" d="M311 595l-22 -140l-70 -49l30 189h-97l-23 -146l26 -24l-34 -28l-60 -378h97l46 292l70 46l-54 -338q4 -7 13.5 -18t22 -22t26 -19.5t25.5 -9.5l71 447l-26 28l34 24l23 146h-98zM270 614l-27 -170l30 21l23 149h133l-27 -175l-23 -16l17 -18l-75 -476q-18 2 -37 12 t-36 23.5t-29.5 26.5t-17.5 21l49 309l-29 -20l-48 -301h-133l64 405l23 18l-17 16l27 175h133z" />
<glyph unicode="y" horiz-adv-x="335" d="M269 614h-132l-47 -299q-1 -6 2.5 -16.5t5.5 -15.5l4 -4q3 -5 11.5 -8.5l8.5 -3.5l44 23l-44 -278q5 -8 17.5 -21t29.5 -26.5t36 -23.5t36 -12l69 440l48 27l-3 -1q5 3 13 6.5t11 5.5l6 5q5 5 9 12l4 7l29 183h-132l-23 -147l-29 -16zM152 595h96l-28 -177l68 38l22 139 h97l-26 -164q0 -1 -4 -4.5t-6 -5.5q-5 -2 -12 -5.5t-8 -3.5l-57 -32l-68 -430q-11 1 -24 9.5t-25.5 19.5t-22 22t-13.5 18l48 302l-69 -35l-2.5 4t-3.5 6q-2 3 -4.5 10t-1.5 9z" />
<glyph unicode="z" horiz-adv-x="366" d="M225 108l240 502h-272q-23 -20 -42.5 -46t-36.5 -62h161l-242 -502h272q22 20 41.5 46t36.5 62h-158zM198 89h158q-9 -20 -23.5 -37t-31.5 -33h-241l244 502h-163q16 36 56 70h240z" />
<glyph unicode="{" horiz-adv-x="288" d="M121 406l-15 -96l47 23l-50 -313q0 -2 2 -8.5t3 -10.5q2 -2 4.5 -5.5t3.5 -3.5h123q1 0 8 3.5t10 5.5q2 2 5.5 5t4.5 4l9 57h-71l76 481h71l9 57q0 2 -7.5 9t-14.5 10h-123q-1 0 -4.5 -4t-6.5 -6q-2 -3 -6 -10t-5 -9l-26 -166zM84 280l22 138l47 23l24 154q2 7 7.5 16.5 t9.5 14.5l6 5q5 5 12 8.5l7 3.5h123q2 0 11 -5.5t14 -8.5l4 -5q3 -5 5.5 -12l2.5 -7l-12 -76h-72l-70 -443h72l-12 -76l-4.5 -7t-9.5 -11l-5 -5q-5 -4 -16.5 -9t-13.5 -5h-123l-6 3t-10 8l-4 5q-2 5 -5 15t-2 16l45 283z" />
<glyph unicode="|" horiz-adv-x="153" d="M249 738h-82l-137 -865h82zM156 757h111l-143 -904h-111z" />
<glyph unicode="}" horiz-adv-x="286" d="M68 67l-9 -57q-1 -1 2 -4t4 -5q4 -2 10 -5.5l6 -3.5h123q1 0 4.5 3.5l5.5 5.5q2 4 6.5 10.5t4.5 8.5l52 325l44 23l15 96l-44 -22l24 153q1 2 -1 9t-4 10q-2 2 -4 6t-3 4h-123l-7 -4t-12 -6q-2 -2 -5.5 -5t-3.5 -4l-9 -57h71l-76 -481h-71zM42 10l12 76h71l70 443h-71 l12 76l4 7t9 12l4 4q6 2 17 8.5t14 6.5h123l6 -3.5t9 -8.5l4 -4q2 -5 5.5 -15.5t1.5 -16.5l-19 -123l45 22l-22 -138l-45 -23l-50 -313q-1 -7 -7 -16t-10 -14l-6 -6q-4 -5 -11 -8l-7 -3h-123q-2 0 -11.5 5t-13.5 8l-4 6q-3 4 -5 11z" />
<glyph unicode="~" horiz-adv-x="240" d="M211 336l-37 39l-64 -29l-15 -95l64 28l10 59l38 -38l63 28l15 95l-64 -27zM181 395l20 -22l5 34l100 41l-21 -131l-84 -38l-21 22l-6 -33l-99 -43l21 132z" />
<glyph horiz-adv-x="197" />
<glyph unicode="&#xa1;" horiz-adv-x="153" d="M213 516l12 75h-81l-12 -75h81zM53 19h81l63 395h-81zM146 0h-111l69 433h111zM243 610l-18 -113h-111l18 113h111z" />
<glyph unicode="&#xa2;" d="M140 19l-8 -53h99l8 53h80l33 211q-10 0 -25.5 -3.5t-31 -8.5t-28.5 -10.5t-18 -9.5l-16 -103h-62l66 417h80q-6 -38 11.5 -56t44.5 -29l10 -1l28 171h-81l8 53h-98l-8 -53h-61q-18 -17 -32.5 -34t-23.5 -37h80l-64 -62l-66 -417q0 -2 2.5 -8.5t3.5 -10.5q2 -2 4.5 -5.5 t3.5 -3.5h61zM112 -53l8 53h-44l-6 3.5t-10 7.5l-3 5q-2 5 -6 15.5t-3 15.5l68 426l34 34h-62q17 36 36.5 62.5t42.5 46.5h50l8 53h134l-8 -53h81l-34 -210l-32 2q-29 12 -49.5 30t-19.5 55h-45l-60 -379h27l15 92q7 6 24 13.5t38 14t42 11t35 4.5l-39 -249h-80l-8 -53h-134 z" />
<glyph unicode="&#xa3;" horiz-adv-x="393" d="M113 333l-15 -95l54 26l-27 -170h-51l-12 -75h311l33 209q-10 0 -25.5 -3.5t-31.5 -8.5t-29 -10.5t-18 -9.5l-16 -102h-63l34 215l121 57l15 96l-121 -58l18 112h37l53 75h-158q-40 -34 -56 -70h81l-67 -80l-13 -82zM75 208l22 137l54 26l12 76l46 55h-70q17 36 36.5 62 t42.5 46h196l-80 -113h-29l-10 -63l121 59l-22 -139l-121 -57l-29 -184h27l14 91q7 6 25 13.5t39.5 14t42.5 11t35 4.5l-39 -247h-347l18 113h51l19 121z" />
<glyph unicode="&#xa4;" horiz-adv-x="372" d="M464 614h-135l-10 -67h-57l10 67h-134l-27 -175l16 -16l-22 -18l-64 -405h134l20 125h57l-18 -113q5 -8 18 -21t30 -26.5t36.5 -23.5t37.5 -12l75 476l-18 18l24 16zM227 245h34l29 185h-34zM344 595h99l-23 -146l-34 -24l26 -28l-71 -447q-12 1 -25.5 9.5t-26.5 19.5 t-22.5 22t-13.5 18l20 125h-93l-20 -125h-99l60 378l35 28l-27 24l23 146h99l-10 -67h93z" />
<glyph unicode="&#xa5;" horiz-adv-x="335" d="M115 244l-16 -98l67 33l-6 -43l-68 -33l-15 -97l67 33l-3 -20q4 -7 13.5 -18t22 -22t25.5 -19.5t24 -9.5l23 142l65 32l15 96l-65 -32l7 44l65 33l15 96l-65 -32l8 51l57 32q1 0 8 3.5t12 5.5q2 2 6 5.5t4 4.5l26 164h-97l-22 -139l-68 -38l28 177h-96l-44 -280 q-1 -2 1.5 -9t4.5 -10q1 -2 3.5 -6l2.5 -4l69 35l-7 -44zM55 -26l45 282l66 32v2l-44 -23l-8.5 3.5t-11.5 8.5l-4 4q-2 5 -5.5 15.5t-2.5 16.5l47 299h132l-26 -163l29 16l23 147h132l-29 -183l-4 -7t-9 -12l-6 -5q-3 -2 -11 -5.5t-13 -6.5l3 1l-48 -27l-1 -10l65 33 l-22 -140l-65 -32v-2l65 33l-22 -140l-65 -32l-24 -150q-18 2 -36 12t-34 22t-28.5 25t-18.5 21zM77 115l66 32v1z" />
<glyph unicode="&#xa6;" horiz-adv-x="153" d="M91 257l-38 -238h82l38 238h-82zM226 591h-82l-37 -232h82zM36 0l44 276h111l-44 -276h-111zM133 610h111l-43 -269h-111z" />
<glyph unicode="&#xa7;" horiz-adv-x="372" d="M258 245h-34l29 185h34zM173 528l-17 -103l-35 -28l-71 -447q12 1 28.5 9.5t33 19.5t29.5 22t19 18l20 125h162l44 281l34 24l23 146h-99l-10 -67h-161zM30 -71l75 476l35 29l18 113h161l10 67h135l-27 -175l-35 -23l-46 -291h-161l-18 -113q-8 -8 -24.5 -21t-37.5 -26.5 t-43.5 -23.5t-41.5 -12z" />
<glyph unicode="&#xa8;" horiz-adv-x="267" d="M303 374l7 44h-82l-7 -44h82zM122 418l-7 -44h82l7 44h-82zM96 361l11 69h222l-11 -69h-222z" />
<glyph unicode="&#xa9;" horiz-adv-x="225" d="M236 452l-12 4q-8 -18 -27 -18q-25 0 -20 29q4 31 31 31q14 0 20 -14l11 2q-2 23 -29 23q-40 0 -46 -42t32 -42q29 0 40 27zM213 529h3q21 0 37 -18.5t12 -40.5v-3q-2 -14 -13.5 -29.5t-25.5 -23.5q-15 -7 -33 -7h1l-6.5 2t-20.5 4l-4 1q-8 5 -12.5 11t-6.5 13 q-2 8 -3.5 15.5t-0.5 15.5q2 11 14 29q24 31 59 31zM215 541q-5 0 -39 -9q-41 -24 -47 -65q-3 -21 4 -37q5 -9 9.5 -14.5t13.5 -12.5q16 -9 35 -9l9.5 1t28.5 8q11 7 17.5 12.5t13.5 14.5q14 24 17 37q2 8 0 16.5t-5 19.5q-4 15 -24 29q-26 9 -33 9zM217 557q6 0 16 -2.5 t23 -7.5q28 -18 31 -38v2q4 -13 6 -24t0 -20q-3 -17 -20 -44q-8 -12 -17.5 -19t-25.5 -17q-9 -3 -14 -5t-9 -3t-8 -1.5t-10 -0.5q-23 0 -44 12q-11 9 -16.5 15t-10.5 15q-11 22 -6 48q8 50 61 80q36 10 44 10zM200 454q6 0 12 15q-3 13 -7 13q-9 0 -12 -15q-1 -13 7 -13z M248 467v3l1 1l-12 -2l11 -3v1z" />
<glyph unicode="&#xaa;" horiz-adv-x="371" d="M192 232l28 176l69 -128zM59 19h99l19 118l98 48l-26 -166h99l49 312l-152 260h-95zM172 0h-134l97 610h122l160 -272l-54 -338h-135l24 154l-60 -29zM263 286l-35 65l-15 -89z" />
<glyph unicode="&#xab;" horiz-adv-x="218" d="M177 417l-64 -42l-16 -104l50 -42l11 68l-31 26l39 25zM262 417l-63 -42l-16 -104l49 -42l11 68l-31 26l39 25zM99 383l99 67l-10 -64l95 64l-17 -110l-26 -17l20 -17l-17 -110l-75 64l-10 -64l-78 67zM154 323l19 -15l4 29z" />
<glyph unicode="&#xac;" horiz-adv-x="293" d="M337 422l-230 -107l-14 -88l127 57l-11 -71h95zM92 326l267 124l-40 -254h-130l10 61l-127 -58z" />
<glyph unicode="&#xad;" horiz-adv-x="167" d="M107 345l-13 -81l101 49l13 82zM74 238l18 118l135 66l-19 -119z" />
<glyph unicode="&#xae;" horiz-adv-x="225" d="M199 471h-14l4 25h14q12 0 12 -1q4 -3 6 -11q-2 -7 -6 -10t-16 -3zM177 506l-12 -79h13l5 34h7q6 0 9 -4q1 0 12 -17l3 -13h17l-8 16q-5 9 -6.5 13t-9.5 7q25 1 28 22q0 6 -3 12q-2 2 -4 3t-4 3q-2 3 -20 3h-27zM213 530h3q21 0 37 -18.5t13 -40.5l-1 -3l-3.5 -9.5 t-10.5 -20.5q-6 -7 -12 -12.5t-13 -10.5q-18 -8 -33 -8l-26 6l-4 2q-7 6 -12 11.5t-7 11.5q-2 14 -2.5 22l-0.5 8q2 8 4.5 15.5t8.5 15.5q24 31 59 31zM215 542q-18 0 -39 -10q-19 -10 -31 -28l-1 -2q-6 -9 -9.5 -15.5t-5.5 -18.5q-3 -21 4 -37l1 -1l10.5 -14t11.5 -12 q14 -10 35 -10l10.5 1t27.5 9q24 14 31 27q14 24 17 37t-5 36q-4 16 -24 28q-14 10 -33 10zM217 558q25 0 42 -12l-1 1q26 -17 30 -37q3 -12 5 -23t0 -19q-3 -19 -19 -43q-11 -20 -40 -36q-14 -6 -20 -8.5t-14 -2.5h-11q-26 0 -44 12q-9 8 -21 23q-1 2 -1.5 2.5t-1.5 2.5 l-2 3q-12 22 -7 47q2 14 6 22t12 19l1 2q15 22 41 36l-2 -1q24 12 47 12zM249 471q0 5 1 6q-5 -14 -15 -20q1 -2 2 -3.5t2 -3.5l1 -2q3 6 4 9t4 13zM195 434l-2 -9l4 -1z" />
<glyph unicode="&#xaf;" horiz-adv-x="346" d="M94 362h266l49 49h-262q-17 -11 -31 -23t-22 -26zM368 349h-300q16 25 34.5 43t39.5 32h301z" />
<glyph unicode="&#xb0;" horiz-adv-x="139" d="M103 430l-11 -69h97l11 69h-97zM136 401l-2 -11h22l2 11h-22zM108 374l7 44h69l-7 -44h-69z" />
<glyph unicode="&#xb1;" horiz-adv-x="293" d="M307 232l-232 -117l-15 -96l231 116zM300 541h-96l-19 -118l-67 -38l-15 -97l66 34l-12 -77h96l19 124l62 36l16 97l-62 -33zM60 126l196 100h-119l10 65l-66 -33l22 137l67 38l20 127h130l-10 -60l62 33l-21 -138l-63 -37l-20 -127l62 32l-22 -139l-270 -136z" />
<glyph unicode="&#xb2;" horiz-adv-x="204" d="M192 454l-72 -38l-16 -101h128l-16 44h-56l4 27l74 40l24 147l-7 7h-1q-4 4 -7 4h-92l-4 -6l-7 -10l-15 -94q5 0 13 1.5t16 4.5t14.5 6t8.5 6l8 48h17zM105 426l73 39l1 10q-15 -8 -36 -13.5t-33 -5.5l19 116l8 15l13 15h100q5 0 12 -4h2l15 -17l-26 -165l-72 -39h47 l28 -80h-171z" />
<glyph unicode="&#xb3;" horiz-adv-x="207" d="M279 499l1 1l12 75q-3 9 -5.5 13t-12.5 13h-107q-14 -13 -26.5 -32t-26.5 -47h76l-60 -31l-15 -94l71 34l-8 -55h-66l-13 -80h134l3 19q0 -2 6.5 -4t7.5 -2l30 190h-1zM266 509l-13 -8l10 -10l-26 -164q-1 0 -9 -5t-8 -7v-1h-102l7 44h66l16 102l-72 -35l9 55l72 38l4 22 h-80q6 14 14 24.5t16 18.5h96q5 -5 6 -7t3 -7z" />
<glyph unicode="&#xb4;" horiz-adv-x="174" d="M250 430h-100l-72 -69h100zM156 418h62l-46 -44h-62z" />
<glyph unicode="&#xb5;" horiz-adv-x="1066" d="M1114 265l-14 42l-63 31l13 4h44l-26 48l-116 23l74 44h-216l22 45l-192 -25l1 30l-31 10l-129 -53l-51 39l-96 -79q2 2 -4 2q-9 0 -27.5 9.5t-47.5 27.5l-30 -96l-91 8v-54l21 -30l-58 -3l-11 -30l79 -40l-99 -38l172 -36l-74 -41l219 -7l-30 -47l200 30l5 -7l-25 -53 l178 73l60 -39l83 75l94 -27l21 87l81 -12l15 24q3 21 -27 59zM479 279l-1 -5q-2 -11 -3.5 -16.5t-8.5 -14.5q-11 -5 -18.5 -7t-14.5 -2q-18 0 -14 25l1 8q18 33 39 33q13 0 20 -13v-8zM748 307l9 -35h-37zM271 222l24 103l-20 -3l-30 -109zM390 302l6 26q-89 -12 -98 -61 l-1 -8q0 -3 0.5 -4.5l0.5 -1.5q4 -48 39 -48q5 0 9.5 1.5t15.5 3.5l2 18q-6 -3 -23 -3q-25 0 -22 22q3 23 24 43q22 16 34 16q6 0 6 -1l1.5 -0.5t5.5 -2.5zM505 290q-2 35 -43 35h-14q-47 -26 -59 -95q8 -17 39 -17q5 0 9.5 0.5t10.5 1.5q36 0 57 75zM600 215l17 105l-18 5 l-16 -72l-59 67l-17 -107l21 4l8 50q37 -52 64 -52zM654 225l23 105l-24 -5l-29 -106zM756 223l16 -2l12 77q-7 34 -28 34q-16 0 -17 -3q-51 -54 -67 -106h26q19 25 32 25q19 0 26 -25zM884 220l16 105l-20 5l-16 -75l-56 70l-16 -106l21 2l8 51q34 -52 63 -52zM913 197 l21 16l-17 8l-17 -11zM937 247l25 78l-28 5l-17 -82zM1083 293l5 -11l-88 -7q49 -55 46 -72l-4 -6l-88 13l-19 -85l-83 25l-80 -73l-56 37l-146 -60l11 23l-17 23l-173 -27l26 41l-187 6l60 33l-159 33l81 31l-107 54l88 4l-39 54v26l84 -8l27 85q37 -25 62 -25q15 0 18 4 l84 69l48 -36l131 54l13 -5l-1 -36l181 23l-19 -41h181l-59 -36l150 -31l7 -12h-9l-70 -17z" />
<glyph unicode="&#xb6;" horiz-adv-x="1111" d="M502 281l-1 -5q-2 -11 -3.5 -17t-8.5 -15q-21 -9 -34 -9q-20 0 -15 26l1 7q19 34 40 34q14 0 21 -13q-2 -8 0 -8zM770 309l10 -35h-38zM293 223l25 104l-22 -3l-29 -109zM412 304l6 26q-89 -12 -98 -62l-1 -7q1 -3 1 -5v-1q4 -49 39 -49q6 0 10 2t15 4l1 17 q-3 -1 -8.5 -1.5t-14.5 -0.5q-25 0 -22 21q4 23 25 44q21 15 34 15h7l1.5 -0.5t4.5 -2.5zM527 292q-2 35 -42 35h-14q-50 -27 -60 -96q7 -16 39 -16q5 0 9 0.5t11 0.5q36 0 57 76zM622 216l17 106l-17 5l-17 -72l-59 67l-17 -107l22 3l7 50q37 -52 64 -52zM676 227l24 105 l-24 -5l-30 -107zM780 225l14 -3l13 78q-9 34 -29 34q-14 0 -17 -3q-49 -55 -66 -106h26q18 25 33 25q16 0 26 -25zM907 221l17 106l-20 5l-16 -76l-57 71l-17 -107l21 2l8 52q35 -53 64 -53zM935 198l22 17l-18 7l-16 -11zM960 248l25 79l-28 5l-16 -82zM1107 294l3 -11 l-87 -6q49 -55 46 -73l-4 -6l-88 13l-20 -86l-82 25l-81 -73l-56 37l-145 -60l10 23l-17 23l-174 -27l27 41l-187 7l60 33l-159 34l81 30l-108 54l88 5l-39 54l1 26l84 -8l27 86q34 -25 63 -25q12 0 17 3l83 70l49 -36l131 54l14 -5l-1 -36l180 23l-19 -42h182l-60 -36 l151 -31l7 -12h-9l-69 -17zM1132 291l2 1q3 17 -82 47q51 6 55 34l1 7l-132 33q26 2 32 34l-12 13h-160l12 36l-49 5l-139 -24l-3 6l6 18l-21 20l-132 -55l-57 35q-21 -8 -41 -23.5t-52 -47.5l-70 22h-4q-33 0 -46 -85l-78 7l-9 -35l31 -45l-77 -11l3 -28l70 -32l-46 -30 q-5 -24 16 -24l107 -19l-24 -20l-4 -21l174 -14l-13 -30l19 -11l173 23l-5 -34l20 -8l138 60l37 -36l35 6l76 65l7 -2q18 -11 30 -15.5t29 -4.5q23 0 27 13l21 72l65 -14q23 11 24 26l1 5l-1 8l-32 47h60zM1151 280l-8 -4l-20 -30h-31l12 -18l3 -15l-2 -8q-5 -32 -45 -45 l-50 10l-14 -53q-13 -28 -50 -28q-19 0 -32 4.5t-30 15.5l-72 -62l-49 -7l-34 32l-135 -57l-38 15l4 25l-157 -21l-36 22l9 22l-169 13l8 46l-71 13q-37 1 -29 53l26 16l-50 23l-6 57l65 8l-18 26l16 62l75 -8q18 84 66 84h7l61 -20q30 29 51.5 44.5t49.5 25.5l56 -34 l135 56l36 -36l-3 -8l118 20l72 -6l-11 -35h146l22 -23q-3 -17 -11 -33l111 -28l-3 -21q-3 -23 -22 -36q53 -26 47 -57zM724 355l-12 -60q7 12 15.5 23.5t18.5 22.5q7 12 35 12q19 0 32 -16l6 38l58 -73l11 53l51 -12l3 11l17 -3l59 15l-140 29l44 28h-147l17 37l-169 -22 l1 40l-131 -52l-44 33l-70 -59q-12 -9 -32 -9q-25 0 -50 13l-24 -75l-77 6l55 -75l-51 -3l52 -26l30 110l60 8l-8 -31q18 12 45 20.5t64 12.5l-7 -30q7 7 15 13.5t18 11.5h19q25 0 41 -13l5 34l62 -71l12 54l51 -14l2 7zM810 199l-9 2l-9 -1v3l-28 5q-11 23 -13 23 q-4 0 -23 -25h-59l-49 -10l1 3l-2 -1q-22 0 -49 24l-3 -19l-61 -11l4 25q-19 -19 -43 -19q-2 0 -3.5 -0.5t-2.5 -0.5h3q-3 -1 -17 -1q-27 0 -44 14l-1 -14q-20 -3 -24.5 -3.5t-4.5 -2.5h-1q-5 -1 -8.5 -1.5t-7.5 -0.5q-32 0 -46 26l-1 -5l-64 -20l120 -26l-48 -26l155 -5 l-23 -34l147 23l26 -36l122 51l50 -35l78 71l72 -22l9 39l-22 -17l-29 31q-26 0 -46 23l-4 -21l-42 -3v-3zM1041 221q-7 10 -20 25.5t-30 35.5l-18 -52zM397 255q4 14 11 27q-6 3 -9.5 4t-7.5 2l-15 -9q-14 -14 -17 -31q0 -3 6 -3q12 0 32 10zM1055 297l-51 26l-9 -29z M482 276v1q-2 2 0 4l-3 1.5l-1 0.5q-7 0 -17 -18l-1 -4q0 -7 -2 -7q9 0 18 4q3 4 3.5 8t2.5 10zM218 194l23 -4l3 14z" />
<glyph unicode="&#xb7;" horiz-adv-x="153" d="M102 328l-8 -53h82l8 53h-82zM77 261l13 80h111l-13 -80h-111z" />
<glyph unicode="&#xb8;" horiz-adv-x="171" d="M152 16h-91l-3 -15l-63 -33l-13 -83l160 69zM47 32h123l-14 -88l-195 -85l18 118l65 33z" />
<glyph unicode="&#xb9;" horiz-adv-x="108" d="M180 583h-43l-42 -268h43zM128 601h68l-48 -304h-68z" />
<glyph unicode="&#xba;" horiz-adv-x="188" d="M90 311l12 -15h100q1 0 6.5 2t10.5 5q12 7 14 20l41 259l-9 12l-11 7h-108q-4 -5 -4.5 -6t-1.5 -2l-12 -18l-39 -248l0.5 -6t1.5 -9q-1 0 -1 -1zM168 395h11l17 109h-11zM111 314l-4 4q0 2 -1.5 4.5t-0.5 4.5l38 243l6 9q2 1 3 2.5l1 1.5h94q1 0 3.5 -1.5t4.5 -2.5l3 -4 l-40 -252q0 -3 -5 -5q-5 -4 -8 -4h-94z" />
<glyph unicode="&#xbb;" horiz-adv-x="218" d="M180 337l18 -14l-22 -15zM185 386l-76 64l-17 -110l21 -17l-27 -17l-17 -110l96 64l-10 -64l99 67l19 120l-78 67zM206 417l49 -42l-16 -104l-63 -42l11 68l39 26l-31 25zM120 417l50 -42l-16 -104l-64 -42l11 68l39 26l-31 25z" />
<glyph unicode="&#xbc;" horiz-adv-x="403" d="M383 19l45 285h-57l-8 -51l-36 -16l10 67h-35l143 290h-100l-119 -242l38 242h-61l-45 -286h46l-142 -289h100l109 222l-14 -90l97 43l-34 -213q7 1 17 5.5t19 10.5t16.5 12t10.5 10zM401 19l-6 -11q-4 -5 -14 -12.5t-23.5 -15t-29 -13.5t-29.5 -8l32 206l-97 -43l2 8 l-65 -130h-137l141 289h-38l51 324h97l-24 -150l75 149h137l-143 -289h119z" />
<glyph unicode="&#xbd;" horiz-adv-x="400" d="M334 167l-81 -41l-17 -107h144l-18 47h-63l5 29l82 42l24 156l-6 7h-2q-3 5 -8 5h-91l142 286h-100l-119 -240l38 241h-61l-45 -285h46l-142 -288h100l109 221l-8 -52q6 0 15 2t18 4.5t16.5 5.5t9.5 6l8 52h19zM407 0h-192l21 130l-65 -130h-137l141 288h-38l51 323h97 l-24 -150l75 149h137l-142 -286h66q7 0 15 -5h2l16 -18l-28 -175l-80 -42h53zM320 189q-14 -6 -32 -11.5t-32 -7.5l-16 -32l78 40z" />
<glyph unicode="&#xbe;" horiz-adv-x="432" d="M286 496l-11 11l14 8l10 64l-3 7.5t-8 7.5h-108q-19 -18 -34 -46h91l-4 -23l-81 -41l-10 -58l81 37l-17 -109h-75l-7 -47h107l-143 -288h101l110 222l-14 -90l98 43l-34 -213q7 1 17 5.5t19 10.5t16.5 12t10.5 10l45 285h-57l-8 -51l-37 -16l10 67h-35l144 290h-101 l-106 -216zM305 506l-1 -1l1 -1l-3 -15l62 123h138l-144 -289h120l-49 -311q-5 -5 -16 -13t-25 -16.5t-29.5 -15t-30.5 -8.5l32 206l-98 -43l2 8l-65 -130h-139l142 288h-100l13 85h76l9 59l-81 -36l16 100l68 33h-85q29 58 58 84h122q11 -10 14 -14t6 -14z" />
<glyph unicode="&#xbf;" horiz-adv-x="338" d="M397 516l12 75h-98l-12 -75h98zM203 300l172 85l8 51h-97l-172 -85l-50 -313q0 -1 2.5 -4.5t4.5 -5.5q3 -2 9 -5.5t7 -3.5h211q1 0 4.5 3.5l5.5 5.5q3 4 7.5 10.5t4.5 8.5l31 192q-10 0 -25 -3t-30.5 -8t-28.5 -10.5t-18 -10.5l-18 -113h-61zM390 373l-172 -85l-28 -175 h27l16 102q7 6 24 13.5t38 14t42 11t35 4.5l-34 -211q-1 -7 -7 -16t-10 -14l-6 -6q-5 -4 -12.5 -7.5l-7.5 -3.5h-211q-2 0 -12 5t-14 8l-4 6q-3 4 -5.5 11.5l-2.5 7.5l51 324l188 93h118zM429 610l-18 -113h-133l18 113h133z" />
<glyph unicode="&#xc0;" d="M312 702h-72l34 -66h72zM238 524h63l-12 -78l-69 -34zM285 -24q8 7 19.5 17t12.5 12l91 576q0 1 -2.5 4.5t-4.5 5.5q-3 2 -9.5 5.5t-7.5 3.5h-213q-5 -4 -12.5 -13.5t-16 -20.5t-15.5 -21t-11 -16h80l-64 -62l-71 -448h97l47 297l68 34l-65 -412q4 1 15.5 6.5t24 12 t23.5 12t14 7.5zM208 721h115l53 -102h11q2 0 12.5 -5t14.5 -8l4 -6q4 -5 6 -12l2 -7l-91 -576q-2 -8 -10.5 -16t-16.5 -16l-12 -10q-3 -3 -18 -10.5t-33.5 -15.5t-35 -15t-22.5 -9l64 405l-30 -14l-48 -304h-132l75 475l35 35h-69q1 1 5.5 8t10.5 15.5t11.5 16.5t8.5 11v-1 q11 15 24 31.5t26 27.5h92zM253 505l-10 -62l30 14l8 48h-28z" />
<glyph unicode="&#xc1;" d="M358 702h-72l-55 -66h72zM238 524h63l-12 -78l-69 -34zM285 -24q8 7 19.5 17t12.5 12l91 576q0 1 -2.5 4.5t-4.5 5.5q-3 2 -9.5 5.5t-7.5 3.5h-213q-5 -4 -12.5 -13.5t-16 -20.5t-15.5 -21t-11 -16h80l-64 -62l-71 -448h97l47 297l68 34l-65 -412q4 1 15.5 6.5t24 12 t23.5 12t14 7.5zM280 721h115l-85 -102h77q2 0 12.5 -5t14.5 -8l4 -6q4 -5 6 -12l2 -7l-91 -576q-2 -8 -10.5 -16t-16.5 -16l-12 -10q-3 -3 -18 -10.5t-33.5 -15.5t-35 -15t-22.5 -9l64 405l-30 -14l-48 -304h-132l75 475l35 35h-69q1 1 5.5 8t10.5 15.5t11.5 16.5t8.5 11 v-1q11 15 24 31.5t26 27.5h27zM253 505l-10 -62l30 14l8 48h-28z" />
<glyph unicode="&#xc2;" d="M387 636l-35 66h-108l-54 -66h72l32 41l21 -41h72zM238 524h63l-12 -78l-69 -34zM285 -24q8 7 19.5 17t12.5 12l91 576q0 1 -2.5 4.5t-4.5 5.5q-3 2 -9.5 5.5t-7.5 3.5h-213q-5 -4 -12.5 -13.5t-16 -20.5t-15.5 -21t-11 -16h80l-64 -62l-71 -448h97l47 297l68 34 l-65 -412q4 1 15.5 6.5t24 12t23.5 12t14 7.5zM364 721l55 -104h-26q5 -2 11 -5.5t10 -5.5l4 -6q4 -5 6 -12l2 -7l-91 -576q-2 -8 -11 -16.5t-17 -16.5l-11 -9q-3 -3 -18 -10.5t-33.5 -15.5t-35 -15t-22.5 -9l64 405l-30 -14l-48 -304h-132l75 475l35 35h-69q1 1 5.5 8 t10.5 15.5t11.5 16.5t8.5 11v-1q11 14 23 30t24 27h-13l86 104h126zM253 505l-10 -62l30 14l8 48h-28zM289 645l-21 -26h33z" />
<glyph unicode="&#xc3;" d="M316 661l-20 41h-73l-55 -66h72l33 41l21 -41h72l55 66h-72zM238 524h63l-12 -78l-69 -34zM285 -24q8 7 19.5 17t12.5 12l91 576q0 1 -2.5 4.5t-4.5 5.5q-3 2 -9.5 5.5t-7.5 3.5h-213q-5 -4 -12.5 -13.5t-16 -20.5t-15.5 -21t-11 -16h80l-64 -62l-71 -448h97l47 297 l68 34l-65 -412q4 1 15.5 6.5t24 12t23.5 12t14 7.5zM307 721l14 -28l22 28h116l-86 -102h14q2 0 12.5 -5t14.5 -8l4 -6q4 -5 6 -12l2 -7l-91 -576q-2 -8 -11 -16.5t-17 -16.5l-11 -9q-3 -3 -18 -10.5t-33.5 -15.5t-35 -15t-22.5 -9l64 405l-30 -14l-48 -304h-132l75 475 l35 35h-69q1 1 5.5 8t10.5 15.5t11.5 16.5t8.5 11v-1q11 14 23 30t24 27h-34l86 104h90zM253 505l-10 -62l30 14l8 48h-28zM268 645l-21 -26h33z" />
<glyph unicode="&#xc4;" d="M387 636l10 66h-86l-10 -66h86zM200 702l-10 -66h86l10 66h-86zM238 524h63l-12 -78l-69 -34zM285 -24q8 7 19.5 17t12.5 12l91 576q0 1 -2.5 4.5t-4.5 5.5q-3 2 -9.5 5.5t-7.5 3.5h-213q-5 -4 -12.5 -13.5t-16 -20.5t-15.5 -21t-11 -16h80l-64 -62l-71 -448h97l47 297 l68 34l-65 -412q4 1 15.5 6.5t24 12t23.5 12t14 7.5zM418 721l-16 -104h-9q5 -2 11 -5.5t10 -5.5l4 -6q4 -5 6 -12l2 -7l-91 -576q-2 -8 -10.5 -16t-16.5 -16l-12 -10q-3 -3 -18 -10.5t-33.5 -15.5t-35 -15t-22.5 -9l64 405l-30 -14l-48 -304h-132l75 475l35 35h-69 q1 1 5.5 8t10.5 15.5t11.5 16.5t8.5 11v-1q11 15 24 31.5t26 27.5h1l16 102h233zM253 505l-10 -62l30 14l8 48h-28z" />
<glyph unicode="&#xc5;" d="M243 443l10 62h28l-8 -48zM296 -37l12 10q8 8 16.5 16t10.5 16l91 576l-2 7t-6 12l-4 6q-4 3 -14.5 8t-12.5 5h-40l16 102h-122l-16 -102h-57q-13 -11 -26 -27.5t-24 -31.5v1q-3 -3 -8.5 -11t-11.5 -16.5t-10.5 -15.5t-5.5 -8h69l-35 -35l-75 -475h132l48 304l30 14 l-64 -405q6 2 22.5 9t35 15t33.5 15.5t18 10.5zM280 677l-2 -17h28l2 17h-28zM285 -24q-3 -2 -14 -7.5t-23.5 -12t-24 -12t-15.5 -6.5l65 412l-68 -34l-47 -297h-97l71 448l64 62h-80q4 6 11 16t15.5 21t16 20.5t12.5 13.5h213q1 0 7.5 -3.5t9.5 -5.5q2 -2 4.5 -5.5 t2.5 -4.5l-91 -576q-1 -2 -12.5 -12t-19.5 -17zM301 524h-63l-18 -112l69 34zM246 636l10 66h86l-10 -66h-86z" />
<glyph unicode="&#xc6;" horiz-adv-x="519" d="M243 520h66l-12 -77l-71 -34zM297 -24q8 7 20 17t13 12l2 14h167l33 211q-11 0 -27 -3.5t-32 -8t-29.5 -10.5t-18.5 -10l-16 -103h-65l34 216l124 58l16 96l-125 -58l18 113h146l54 76h-439q-5 -4 -12.5 -13.5t-16 -20.5t-16 -21t-12.5 -16h83l-66 -62l-70 -444h102 l47 295l71 33l-65 -408q4 1 16 6t25 11t24.5 12t14.5 8zM308 -37q-3 -3 -18.5 -10t-35 -15t-37 -15t-23.5 -9l64 402l-31 -14l-48 -302h-138l75 472l36 34h-73q1 2 6 9t11 15.5t12 16t9 10.5v-1q11 15 24.5 31.5t27.5 27.5h477l-82 -114h-138l-10 -64l126 59l-23 -140 l-125 -57l-29 -186h28l14 92q7 6 26 14t41 14.5t44 11t36 4.5l-39 -249h-169q-2 -7 -10 -13.5t-16 -12.5zM258 501l-9 -61l31 14l7 47h-29z" />
<glyph unicode="&#xc7;" horiz-adv-x="188" d="M90 311l12 -15h100q1 0 6.5 2t10.5 5q12 7 14 20l41 259l-9 12l-11 7h-108q-4 -5 -4.5 -6t-1.5 -2l-12 -18l-39 -248l0.5 -6t1.5 -9q-1 0 -1 -1zM168 395h11l17 109h-11zM111 314l-4 4q0 2 -1.5 4.5t-0.5 4.5l38 243l6 9q2 1 3 2.5l1 1.5h94q1 0 3.5 -1.5t4.5 -2.5l3 -4 l-40 -252q0 -3 -5 -5q-5 -4 -8 -4h-94z" />
<glyph unicode="&#xc8;" horiz-adv-x="341" d="M313 698h-73l34 -65h73zM172 95l34 217l120 57l16 97l-121 -59l19 114h141l53 76h-262q-19 -17 -33.5 -34t-23.5 -37h80l-66 -81l-67 -426h259l33 211q-10 0 -25 -3.5t-31 -8.5t-29 -10.5t-18 -9.5l-16 -103h-63zM208 717h117l53 -101h89l-79 -114h-133l-11 -64l121 59 l-22 -140l-121 -58l-29 -185h27l15 92q7 6 24.5 13.5t38.5 14t42 11t35 4.5l-39 -249h-295l71 451l45 56h-69q17 36 36.5 62.5t42.5 46.5h94z" />
<glyph unicode="&#xc9;" horiz-adv-x="341" d="M360 698h-73l-56 -65h73zM172 95l34 217l120 57l16 97l-121 -59l19 114h141l53 76h-262q-19 -17 -33.5 -34t-23.5 -37h80l-66 -81l-67 -426h259l33 211q-10 0 -25 -3.5t-31 -8.5t-29 -10.5t-18 -9.5l-16 -103h-63zM281 717h116l-85 -101h155l-79 -114h-133l-11 -64 l121 59l-22 -140l-121 -58l-29 -185h27l15 92q7 6 24.5 13.5t38.5 14t42 11t35 4.5l-39 -249h-295l71 451l45 56h-69q17 36 36.5 62.5t42.5 46.5h28z" />
<glyph unicode="&#xca;" horiz-adv-x="341" d="M388 633l-34 65h-109l-56 -65h73l34 40l19 -40h73zM172 95l34 217l120 57l16 97l-121 -59l19 114h141l53 76h-262q-19 -17 -33.5 -34t-23.5 -37h80l-66 -81l-67 -426h259l33 211q-10 0 -25 -3.5t-31 -8.5t-29 -10.5t-18 -9.5l-16 -103h-63zM366 717l53 -101h48l-79 -114 h-133l-11 -64l121 59l-22 -140l-121 -58l-29 -185h27l15 92q7 6 24.5 13.5t38.5 14t42 11t35 4.5l-39 -249h-295l71 451l45 56h-69q17 35 36 61t41 46h-14l88 103h127zM291 641l-21 -25h33z" />
<glyph unicode="&#xcb;" horiz-adv-x="341" d="M388 633l11 65h-87l-11 -65h87zM200 698l-11 -65h87l11 65h-87zM172 95l34 217l120 57l16 97l-121 -59l19 114h141l53 76h-262q-19 -17 -33.5 -34t-23.5 -37h80l-66 -81l-67 -426h259l33 211q-10 0 -25 -3.5t-31 -8.5t-29 -10.5t-18 -9.5l-16 -103h-63zM420 717l-16 -101 h63l-79 -114h-133l-11 -64l121 59l-22 -140l-121 -58l-29 -185h27l15 92q7 6 24.5 13.5t38.5 14t42 11t35 4.5l-39 -249h-295l71 451l45 56h-69q17 36 36.5 62.5t42.5 46.5h2l16 101h235z" />
<glyph unicode="&#xcc;" horiz-adv-x="294" d="M289 698h-71l33 -65h71zM306 90h-87l69 436h47l53 71h-223q-19 -17 -33.5 -34t-23.5 -37h127l-52 -52l-61 -384h-43l-52 -71h224q17 17 31.5 34t23.5 37zM186 717h115l52 -101h69l-80 -109h-40l-63 -398h94q-17 -36 -36.5 -62.5t-41.5 -46.5h-261l78 109h35l59 371l26 27 h-110q17 36 36.5 62.5t41.5 46.5h78z" />
<glyph unicode="&#xcd;" horiz-adv-x="294" d="M335 698h-71l-56 -65h72zM306 90h-87l69 436h47l53 71h-223q-19 -17 -33.5 -34t-23.5 -37h127l-52 -52l-61 -384h-43l-52 -71h224q17 17 31.5 34t23.5 37zM258 717h115l-85 -101h134l-80 -109h-40l-63 -398h94q-17 -36 -36.5 -62.5t-41.5 -46.5h-261l78 109h35l59 371 l26 27h-110q17 36 36.5 62.5t41.5 46.5h13z" />
<glyph unicode="&#xce;" horiz-adv-x="294" d="M362 634l-33 65h-108l-55 -65h72l33 40l20 -40h71zM306 90h-87l69 436h47l53 71h-223q-19 -17 -33.5 -34t-23.5 -37h127l-52 -52l-61 -384h-43l-52 -71h224q17 17 31.5 34t23.5 37zM341 718l53 -102h28l-80 -109h-40l-63 -398h94q-17 -36 -36.5 -62.5t-41.5 -46.5h-261 l78 109h35l59 371l26 27h-110q17 35 36 61.5t41 46.5h-30l86 103h126zM266 642l-22 -26h35z" />
<glyph unicode="&#xcf;" horiz-adv-x="294" d="M306 90h-87l69 436h47l53 71h-223q-19 -17 -33.5 -34t-23.5 -37h127l-52 -52l-61 -384h-43l-52 -71h224q17 17 31.5 34t23.5 37zM362 633l11 65h-86l-11 -65h86zM177 698l-11 -65h86l11 65h-86zM145 614l17 103h232l-16 -101h44l-80 -109h-40l-63 -398h94 q-17 -36 -36.5 -62.5t-41.5 -46.5h-261l78 109h35l59 371l26 27h-110q17 35 36 61t40 46h-13z" />
<glyph unicode="&#xd0;" horiz-adv-x="404" d="M234 94l67 422h63l-67 -422h-63zM123 404l-15 -95l66 31l-51 -321h234q1 0 8 3.5l11 5.5q3 2 7 5.5t4 4.5l85 534q0 1 -3 4.5t-5 5.5q-3 2 -9 5.5t-7 3.5h-216q-5 -4 -13 -13.5t-16 -20t-15.5 -20.5t-11.5 -16h27l-14 -86zM85 279l22 137l66 31l9 55h-40q1 2 5.5 9 t10.5 15.5t11.5 16t8.5 10.5l-1 -1q12 15 25 31t27 27h222q2 0 12 -5t15 -8l4 -6q3 -4 5.5 -11.5l2.5 -7.5l-85 -534l-4.5 -7.5t-9.5 -11.5l-5 -5q-5 -3 -17.5 -8.5t-14.5 -5.5h-252l49 310zM316 497l-61 -384h27l61 384h-27z" />
<glyph unicode="&#xd1;" horiz-adv-x="371" d="M330 661l-21 41h-73l-54 -66h72l33 41l20 -41h73l55 66h-72zM153 600l-105 -662l24.5 10.5t35.5 17.5t33 20.5t17 18.5l65 409l71 -130l-42 -265h99l92 581h-99l-22 -137l-78 137h-91zM321 721l14 -28l22 28h115l-85 -102h77l-98 -619h-135l44 277l-43 80l-56 -352 q-2 -13 -22 -28t-45 -28.5t-49 -24t-33 -14.5l112 709h6l85 102h91zM260 617h-3l56 -99l16 99h-34l-13 28z" />
<glyph unicode="&#xd2;" d="M312 698h-72l33 -65h72zM171 95l68 426h62l-68 -426h-62zM195 526l-64 -62l-66 -417q0 -2 2.5 -8.5t3.5 -10.5q2 -2 4.5 -5.5t3.5 -3.5h213q1 0 8.5 3.5t10.5 5.5t7 5.5t4 4.5l86 540q0 1 -3 4l-5 5l-9 6t-7 4h-213q-5 -4 -12.5 -13.5t-16 -20.5t-16 -21t-11.5 -16h80z M208 717h115l53 -101h11q2 0 12 -5.5t14 -8.5l5 -5q4 -5 6 -12l2 -7l-86 -540l-4.5 -7t-9.5 -12l-5 -5q-4 -4 -17 -9t-15 -5h-213l-6 3.5t-10 7.5l-3 5q-2 5 -6 15.5t-3 15.5l68 426l34 34h-69q1 1 6 8t11 15.5t11.5 16.5t7.5 11v-1q11 15 24 31.5t27 27.5h92zM254 502 l-62 -388h27l62 388h-27z" />
<glyph unicode="&#xd3;" d="M358 698h-72l-56 -65h72zM171 95l68 426h62l-68 -426h-62zM195 526l-64 -62l-66 -417q0 -2 2.5 -8.5t3.5 -10.5q2 -2 4.5 -5.5t3.5 -3.5h213q1 0 8.5 3.5t10.5 5.5t7 5.5t4 4.5l86 540q0 1 -3 4l-5 5l-9 6t-7 4h-213q-5 -4 -12.5 -13.5t-16 -20.5t-16 -21t-11.5 -16h80z M280 717h115l-85 -101h77q2 0 12 -5.5t14 -8.5l5 -5q4 -5 6 -12l2 -7l-86 -540l-4.5 -7t-9.5 -12l-5 -5q-4 -4 -17 -9t-15 -5h-213l-6 3.5t-10 7.5l-3 5q-2 5 -6 15.5t-3 15.5l68 426l34 34h-69q1 1 6 8t11 15.5t11.5 16.5t7.5 11v-1q11 15 24 31.5t27 27.5h27zM254 502 l-62 -388h27l62 388h-27z" />
<glyph unicode="&#xd4;" d="M386 633l-34 65h-108l-55 -65h72l33 40l20 -40h72zM171 95l68 426h62l-68 -426h-62zM195 526l-64 -62l-66 -417q0 -2 2.5 -8.5t3.5 -10.5q2 -2 4.5 -5.5t3.5 -3.5h213q1 0 8.5 3.5t10.5 5.5t7 5.5t4 4.5l86 540q0 1 -3 4l-5 5l-9 6t-7 4h-213q-5 -4 -12.5 -13.5 t-16 -20.5t-16 -21t-11.5 -16h80zM364 717l54 -103h-26q5 -2 11.5 -6t9.5 -6l5 -5q4 -5 6 -12l2 -7l-86 -540l-4.5 -7t-9.5 -12l-5 -5q-4 -4 -17 -9t-15 -5h-213l-6 3.5t-10 7.5l-3 5q-2 5 -6 15.5t-3 15.5l68 426l34 34h-69q1 1 6 8t11 15.5t11.5 16.5t7.5 11v-1 q11 14 23 30t24 27h-13l87 103h126zM254 502l-62 -388h27l62 388h-27zM289 641l-21 -25h33z" />
<glyph unicode="&#xd5;" d="M315 657l-19 41h-73l-56 -65h72l34 40l20 -40h72l56 65h-72zM171 95l68 426h62l-68 -426h-62zM195 526l-64 -62l-66 -417q0 -2 2.5 -8.5t3.5 -10.5q2 -2 4.5 -5.5t3.5 -3.5h213q1 0 8.5 3.5t10.5 5.5t7 5.5t4 4.5l86 540q0 1 -3 4l-5 5l-9 6t-7 4h-213q-5 -4 -12.5 -13.5 t-16 -20.5t-16 -21t-11.5 -16h80zM307 717l13 -27l23 27h116l-86 -101h14q2 0 12 -5.5t14 -8.5l5 -5q4 -5 6 -12l2 -7l-86 -540l-4.5 -7t-9.5 -12l-5 -5q-4 -4 -17 -9t-15 -5h-213l-6 3.5t-10 7.5l-3 5q-2 5 -6 15.5t-3 15.5l68 426l34 34h-69q1 1 6 8t11 15.5t11.5 16.5 t7.5 11v-1q11 14 23 30t24 27h-34l87 103h90zM254 502l-62 -388h27l62 388h-27zM268 641l-21 -25h33z" />
<glyph unicode="&#xd6;" d="M386 633l11 65h-86l-11 -65h86zM200 698l-11 -65h86l11 65h-86zM171 95l68 426h62l-68 -426h-62zM195 526l-64 -62l-66 -417q0 -2 2.5 -8.5t3.5 -10.5q2 -2 4.5 -5.5t3.5 -3.5h213q1 0 8.5 3.5t10.5 5.5t7 5.5t4 4.5l86 540q0 1 -3 4l-5 5l-9 6t-7 4h-213 q-5 -4 -12.5 -13.5t-16 -20.5t-16 -21t-11.5 -16h80zM418 717l-17 -103h-9q5 -2 11.5 -6t9.5 -6l5 -5q4 -5 6 -12l2 -7l-86 -540l-4.5 -7t-9.5 -12l-5 -5q-4 -4 -17 -9t-15 -5h-213l-6 3.5t-10 7.5l-3 5q-2 5 -6 15.5t-3 15.5l68 426l34 34h-69q1 1 6 8t11 15.5t11.5 16.5 t7.5 11v-1q11 15 24 31.5t27 27.5h1l16 101h233zM254 502l-62 -388h27l62 388h-27z" />
<glyph unicode="&#xd7;" horiz-adv-x="371" d="M201 303l-140 -284h99l68 136l23 -136h99l-50 284l142 288h-99l-68 -139l-25 139h-98zM33 0l148 303l-51 307h136l18 -101l50 101h136l-152 -307l55 -303h-137l-17 98l-49 -98h-137z" />
<glyph unicode="&#xd8;" horiz-adv-x="335" d="M209 346l27 170h54zM231 94h-55l81 167zM71 28q2 -2 4.5 -5.5l2.5 -3.5h211q1 0 8 3.5l11 5.5q3 2 7 5.5t4 4.5l85 534q0 1 -3 4.5t-5 5.5q-3 2 -9 5.5t-7 3.5h-211l-4 -3.5t-6 -5.5q-3 -4 -7 -10.5t-5 -8.5l-82 -516q0 -2 2 -8.5t4 -10.5zM56 15l-1 4q-2 5 -5.5 13.5 t-2.5 14.5l82 516q2 7 8 16t10 14l6 6q5 4 12 7.5l7 3.5h211q2 0 11.5 -5t14.5 -8l5 -6q3 -4 5 -11.5l2 -7.5l-85 -534l-4 -7.5t-9 -11.5l-6 -5q-4 -4 -17 -9t-14 -5h-211l-6 3.5t-9 7.5zM203 113h13l6 38zM262 497h-11l-6 -36z" />
<glyph unicode="&#xd9;" horiz-adv-x="335" d="M309 698h-71l33 -65h71zM169 95l80 502h-96l-88 -550q0 -2 2 -8.5t4 -10.5q2 -2 4.5 -5.5l2.5 -3.5h211q1 0 8 3.5l11 5.5q3 2 7 5.5t4 4.5l89 559h-97l-80 -502h-62zM207 717h114l52 -101h55l-92 -578l-4 -7t-9 -12l-6 -5q-4 -4 -17 -9t-14 -5h-211l-6 3.5t-9 7.5l-4 5 q-2 5 -6 15.5t-3 15.5l91 569h121zM269 614l-79 -500h26l79 500h-26z" />
<glyph unicode="&#xda;" horiz-adv-x="335" d="M355 698h-71l-55 -65h71zM169 95l80 502h-96l-88 -550q0 -2 2 -8.5t4 -10.5q2 -2 4.5 -5.5l2.5 -3.5h211q1 0 8 3.5l11 5.5q3 2 7 5.5t4 4.5l89 559h-97l-80 -502h-62zM278 717h114l-84 -101h120l-92 -578l-4 -7t-9 -12l-6 -5q-4 -4 -17 -9t-14 -5h-211l-6 3.5t-9 7.5 l-4 5q-2 5 -6 15.5t-3 15.5l91 569h56zM269 614l-79 -500h26l79 500h-26z" />
<glyph unicode="&#xdb;" horiz-adv-x="335" d="M383 633l-33 65h-107l-55 -65h71l33 40l20 -40h71zM169 95l80 502h-96l-88 -550q0 -2 2 -8.5t4 -10.5q2 -2 4.5 -5.5l2.5 -3.5h211q1 0 8 3.5l11 5.5q3 2 7 5.5t4 4.5l89 559h-97l-80 -502h-62zM362 717l51 -101h15l-92 -578l-4 -7t-9 -12l-6 -5q-4 -4 -17 -9t-14 -5 h-211l-6 3.5t-9 7.5l-4 5q-2 5 -6 15.5t-3 15.5l91 569h14l85 101h125zM270 616l-80 -502h26l80 502h3l-12 25l-20 -25h3z" />
<glyph unicode="&#xdc;" horiz-adv-x="335" d="M383 633l11 65h-85l-11 -65h85zM199 698l-11 -65h85l11 65h-85zM169 95l80 502h-96l-88 -550q0 -2 2 -8.5t4 -10.5q2 -2 4.5 -5.5l2.5 -3.5h211q1 0 8 3.5l11 5.5q3 2 7 5.5t4 4.5l89 559h-97l-80 -502h-62zM414 717l-16 -101h30l-92 -578l-4 -7t-9 -12l-6 -5 q-4 -4 -17 -9t-14 -5h-211l-6 3.5t-9 7.5l-4 5q-2 5 -6 15.5t-3 15.5l91 569h30l16 101h230zM269 614l-79 -500h26l79 500h-26z" />
<glyph unicode="&#xdd;" horiz-adv-x="335" d="M355 701h-71l-54 -65h71zM249 600h-96l-45 -283q0 -2 2 -8.5t4 -10.5q2 -2 4.5 -6l2.5 -4l68 36l-48 -305q4 -7 13.5 -18t21.5 -22t25.5 -19.5t24.5 -9.5l69 433l57 32q1 0 8 4t11 6q3 2 7 5t4 4l26 166h-97l-22 -140l-68 -38zM278 721h114l-84 -102h120l-29 -185l-4 -7 t-9 -12l-6 -5q-4 -2 -11.5 -5.5t-13.5 -6.5l3 1l-47 -27l-70 -443q-18 1 -37 11t-35.5 23.5t-29 27t-17.5 21.5l44 280l-43 -23l-8.5 3.5t-11.5 8.5l-5 5q-2 5 -5.5 15t-2.5 16l48 302h56zM270 617l-26 -163l28 16l24 147h-26z" />
<glyph unicode="&#xde;" horiz-adv-x="374" d="M308 360l-101 -48l18 112h93zM253 591h-100l-18 -112q-24 -21 -35 -50h81l-67 -80l-52 -330h99l31 198l209 100l26 163q-2 5 -4 10.5t-10 8.5h-175zM138 610h136l-15 -92h160q17 -6 20.5 -15.5t5.5 -19.5l-28 -178l-209 -100l-32 -205h-135l56 355l46 55h-69q10 25 21 43 t23 32zM240 405l-10 -63l62 30l5 33h-57z" />
<glyph unicode="&#xdf;" horiz-adv-x="365" d="M141 525l-103 -651h101l103 651h84l-10 -67l-53 -34l-15 -98l51 26l-41 -257h-47l-12 -76h119q1 0 8 4t12 6q2 2 6 5t4 4l57 361l-25 29l33 23l21 128q-2 5 -4 10.5t-10 9.5h-222q-38 -35 -57 -74zM18 -145l106 672q11 25 29 47.5t41 43.5h232q16 -7 20 -16t6 -20 l-22 -140l-24 -16l19 -18l-59 -370l-4.5 -7t-9.5 -12l-6 -5q-4 -4 -17 -9t-14 -5h-137l18 114h47l33 206l-51 -25l22 139l52 34l6 37h-49l-103 -650h-135z" />
<glyph unicode="&#xe0;" d="M312 702h-72l34 -66h72zM238 524h63l-12 -78l-69 -34zM285 -24q8 7 19.5 17t12.5 12l91 576q0 1 -2.5 4.5t-4.5 5.5q-3 2 -9.5 5.5t-7.5 3.5h-213q-5 -4 -12.5 -13.5t-16 -20.5t-15.5 -21t-11 -16h80l-64 -62l-71 -448h97l47 297l68 34l-65 -412q4 1 15.5 6.5t24 12 t23.5 12t14 7.5zM208 721h115l53 -102h11q2 0 12.5 -5t14.5 -8l4 -6q4 -5 6 -12l2 -7l-91 -576q-2 -8 -10.5 -16t-16.5 -16l-12 -10q-3 -3 -18 -10.5t-33.5 -15.5t-35 -15t-22.5 -9l64 405l-30 -14l-48 -304h-132l75 475l35 35h-69q1 1 5.5 8t10.5 15.5t11.5 16.5t8.5 11v-1 q11 15 24 31.5t26 27.5h92zM253 505l-10 -62l30 14l8 48h-28z" />
<glyph unicode="&#xe1;" d="M358 702h-72l-55 -66h72zM238 524h63l-12 -78l-69 -34zM285 -24q8 7 19.5 17t12.5 12l91 576q0 1 -2.5 4.5t-4.5 5.5q-3 2 -9.5 5.5t-7.5 3.5h-213q-5 -4 -12.5 -13.5t-16 -20.5t-15.5 -21t-11 -16h80l-64 -62l-71 -448h97l47 297l68 34l-65 -412q4 1 15.5 6.5t24 12 t23.5 12t14 7.5zM280 721h115l-85 -102h77q2 0 12.5 -5t14.5 -8l4 -6q4 -5 6 -12l2 -7l-91 -576q-2 -8 -10.5 -16t-16.5 -16l-12 -10q-3 -3 -18 -10.5t-33.5 -15.5t-35 -15t-22.5 -9l64 405l-30 -14l-48 -304h-132l75 475l35 35h-69q1 1 5.5 8t10.5 15.5t11.5 16.5t8.5 11 v-1q11 15 24 31.5t26 27.5h27zM253 505l-10 -62l30 14l8 48h-28z" />
<glyph unicode="&#xe2;" d="M387 636l-35 66h-108l-54 -66h72l32 41l21 -41h72zM238 524h63l-12 -78l-69 -34zM285 -24q8 7 19.5 17t12.5 12l91 576q0 1 -2.5 4.5t-4.5 5.5q-3 2 -9.5 5.5t-7.5 3.5h-213q-5 -4 -12.5 -13.5t-16 -20.5t-15.5 -21t-11 -16h80l-64 -62l-71 -448h97l47 297l68 34 l-65 -412q4 1 15.5 6.5t24 12t23.5 12t14 7.5zM364 721l55 -104h-26q5 -2 11 -5.5t10 -5.5l4 -6q4 -5 6 -12l2 -7l-91 -576q-2 -8 -11 -16.5t-17 -16.5l-11 -9q-3 -3 -18 -10.5t-33.5 -15.5t-35 -15t-22.5 -9l64 405l-30 -14l-48 -304h-132l75 475l35 35h-69q1 1 5.5 8 t10.5 15.5t11.5 16.5t8.5 11v-1q11 14 23 30t24 27h-13l86 104h126zM253 505l-10 -62l30 14l8 48h-28zM289 645l-21 -26h33z" />
<glyph unicode="&#xe3;" d="M316 661l-20 41h-73l-55 -66h72l33 41l21 -41h72l55 66h-72zM238 524h63l-12 -78l-69 -34zM285 -24q8 7 19.5 17t12.5 12l91 576q0 1 -2.5 4.5t-4.5 5.5q-3 2 -9.5 5.5t-7.5 3.5h-213q-5 -4 -12.5 -13.5t-16 -20.5t-15.5 -21t-11 -16h80l-64 -62l-71 -448h97l47 297 l68 34l-65 -412q4 1 15.5 6.5t24 12t23.5 12t14 7.5zM307 721l14 -28l22 28h116l-86 -102h14q2 0 12.5 -5t14.5 -8l4 -6q4 -5 6 -12l2 -7l-91 -576q-2 -8 -11 -16.5t-17 -16.5l-11 -9q-3 -3 -18 -10.5t-33.5 -15.5t-35 -15t-22.5 -9l64 405l-30 -14l-48 -304h-132l75 475 l35 35h-69q1 1 5.5 8t10.5 15.5t11.5 16.5t8.5 11v-1q11 14 23 30t24 27h-34l86 104h90zM253 505l-10 -62l30 14l8 48h-28zM268 645l-21 -26h33z" />
<glyph unicode="&#xe4;" d="M387 636l10 66h-86l-10 -66h86zM200 702l-10 -66h86l10 66h-86zM238 524h63l-12 -78l-69 -34zM285 -24q8 7 19.5 17t12.5 12l91 576q0 1 -2.5 4.5t-4.5 5.5q-3 2 -9.5 5.5t-7.5 3.5h-213q-5 -4 -12.5 -13.5t-16 -20.5t-15.5 -21t-11 -16h80l-64 -62l-71 -448h97l47 297 l68 34l-65 -412q4 1 15.5 6.5t24 12t23.5 12t14 7.5zM418 721l-16 -104h-9q5 -2 11 -5.5t10 -5.5l4 -6q4 -5 6 -12l2 -7l-91 -576q-2 -8 -10.5 -16t-16.5 -16l-12 -10q-3 -3 -18 -10.5t-33.5 -15.5t-35 -15t-22.5 -9l64 405l-30 -14l-48 -304h-132l75 475l35 35h-69 q1 1 5.5 8t10.5 15.5t11.5 16.5t8.5 11v-1q11 15 24 31.5t26 27.5h1l16 102h233zM253 505l-10 -62l30 14l8 48h-28z" />
<glyph unicode="&#xe5;" d="M243 443l10 62h28l-8 -48zM296 -37l12 10q8 8 16.5 16t10.5 16l91 576l-2 7t-6 12l-4 6q-4 3 -14.5 8t-12.5 5h-40l16 102h-122l-16 -102h-57q-13 -11 -26 -27.5t-24 -31.5v1q-3 -3 -8.5 -11t-11.5 -16.5t-10.5 -15.5t-5.5 -8h69l-35 -35l-75 -475h132l48 304l30 14 l-64 -405q6 2 22.5 9t35 15t33.5 15.5t18 10.5zM280 677l-2 -17h28l2 17h-28zM285 -24q-3 -2 -14 -7.5t-23.5 -12t-24 -12t-15.5 -6.5l65 412l-68 -34l-47 -297h-97l71 448l64 62h-80q4 6 11 16t15.5 21t16 20.5t12.5 13.5h213q1 0 7.5 -3.5t9.5 -5.5q2 -2 4.5 -5.5 t2.5 -4.5l-91 -576q-1 -2 -12.5 -12t-19.5 -17zM301 524h-63l-18 -112l69 34zM246 636l10 66h86l-10 -66h-86z" />
<glyph unicode="&#xe6;" horiz-adv-x="519" d="M243 520h66l-12 -77l-71 -34zM297 -24q8 7 20 17t13 12l2 14h167l33 211q-11 0 -27 -3.5t-32 -8t-29.5 -10.5t-18.5 -10l-16 -103h-65l34 216l124 58l16 96l-125 -58l18 113h146l54 76h-439q-5 -4 -12.5 -13.5t-16 -20.5t-16 -21t-12.5 -16h83l-66 -62l-70 -444h102 l47 295l71 33l-65 -408q4 1 16 6t25 11t24.5 12t14.5 8zM308 -37q-3 -3 -18.5 -10t-35 -15t-37 -15t-23.5 -9l64 402l-31 -14l-48 -302h-138l75 472l36 34h-73q1 2 6 9t11 15.5t12 16t9 10.5v-1q11 15 24.5 31.5t27.5 27.5h477l-82 -114h-138l-10 -64l126 59l-23 -140 l-125 -57l-29 -186h28l14 92q7 6 26 14t41 14.5t44 11t36 4.5l-39 -249h-169q-2 -7 -10 -13.5t-16 -12.5zM258 501l-9 -61l31 14l7 47h-29z" />
<glyph unicode="&#xe7;" d="M237 513h80q-3 -19 0.5 -32t11 -22.5t19 -16.5t25.5 -13l11 -1l27 171h-240q-18 -17 -32 -34t-23 -37h80l-64 -62l-66 -418q-1 -2 1.5 -9t4.5 -10q2 -2 4 -6t3 -4h93l-3 -18l-70 -39l-16 -98l175 82l12 73h49l34 212q-10 0 -25.5 -3.5t-31 -8.5t-28.5 -10.5t-18 -9.5 l-17 -104h-62zM366 410q-29 12 -49 30t-20 54h-45l-60 -380h27l15 92q7 6 24.5 14t38.5 14.5t42 11t35 4.5l-40 -250h-49l-11 -67l-212 -99l22 138l48 28h-56l-6 3.5t-10 7.5l-3 5q-2 5 -6 15.5t-2 16.5l67 426l35 35h-62q17 36 36.5 62.5t41.5 46.5h265l-34 -211z" />
<glyph unicode="&#xe8;" horiz-adv-x="341" d="M313 698h-73l34 -65h73zM172 95l34 217l120 57l16 97l-121 -59l19 114h141l53 76h-262q-19 -17 -33.5 -34t-23.5 -37h80l-66 -81l-67 -426h259l33 211q-10 0 -25 -3.5t-31 -8.5t-29 -10.5t-18 -9.5l-16 -103h-63zM208 717h117l53 -101h89l-79 -114h-133l-11 -64l121 59 l-22 -140l-121 -58l-29 -185h27l15 92q7 6 24.5 13.5t38.5 14t42 11t35 4.5l-39 -249h-295l71 451l45 56h-69q17 36 36.5 62.5t42.5 46.5h94z" />
<glyph unicode="&#xe9;" horiz-adv-x="341" d="M360 698h-73l-56 -65h73zM172 95l34 217l120 57l16 97l-121 -59l19 114h141l53 76h-262q-19 -17 -33.5 -34t-23.5 -37h80l-66 -81l-67 -426h259l33 211q-10 0 -25 -3.5t-31 -8.5t-29 -10.5t-18 -9.5l-16 -103h-63zM281 717h116l-85 -101h155l-79 -114h-133l-11 -64 l121 59l-22 -140l-121 -58l-29 -185h27l15 92q7 6 24.5 13.5t38.5 14t42 11t35 4.5l-39 -249h-295l71 451l45 56h-69q17 36 36.5 62.5t42.5 46.5h28z" />
<glyph unicode="&#xea;" horiz-adv-x="341" d="M388 633l-34 65h-109l-56 -65h73l34 40l19 -40h73zM172 95l34 217l120 57l16 97l-121 -59l19 114h141l53 76h-262q-19 -17 -33.5 -34t-23.5 -37h80l-66 -81l-67 -426h259l33 211q-10 0 -25 -3.5t-31 -8.5t-29 -10.5t-18 -9.5l-16 -103h-63zM366 717l53 -101h48l-79 -114 h-133l-11 -64l121 59l-22 -140l-121 -58l-29 -185h27l15 92q7 6 24.5 13.5t38.5 14t42 11t35 4.5l-39 -249h-295l71 451l45 56h-69q17 35 36 61t41 46h-14l88 103h127zM291 641l-21 -25h33z" />
<glyph unicode="&#xeb;" horiz-adv-x="341" d="M388 633l11 65h-87l-11 -65h87zM200 698l-11 -65h87l11 65h-87zM172 95l34 217l120 57l16 97l-121 -59l19 114h141l53 76h-262q-19 -17 -33.5 -34t-23.5 -37h80l-66 -81l-67 -426h259l33 211q-10 0 -25 -3.5t-31 -8.5t-29 -10.5t-18 -9.5l-16 -103h-63zM420 717l-16 -101 h63l-79 -114h-133l-11 -64l121 59l-22 -140l-121 -58l-29 -185h27l15 92q7 6 24.5 13.5t38.5 14t42 11t35 4.5l-39 -249h-295l71 451l45 56h-69q17 36 36.5 62.5t42.5 46.5h2l16 101h235z" />
<glyph unicode="&#xec;" horiz-adv-x="159" d="M217 698h-62l27 -65h62zM232 597h-85l-92 -578h85zM128 717h99l44 -103h-22l-97 -614h-115l98 616h36z" />
<glyph unicode="&#xed;" horiz-adv-x="159" d="M255 698h-62l-49 -65h62zM232 597h-85l-92 -578h85zM188 717h100l-76 -101h38l-98 -616h-115l97 614h-23z" />
<glyph unicode="&#xee;" horiz-adv-x="173" d="M297 634l-31 65h-104l-53 -65h68l33 40l18 -40h69zM245 597h-94l-92 -578h94zM277 718l50 -103h-63l-97 -615h-128l97 615h-63l84 103h120zM205 642l-21 -26h33z" />
<glyph unicode="&#xef;" horiz-adv-x="173" d="M297 633l11 65h-82l-11 -65h82zM120 698l-11 -65h82l11 65h-82zM245 597h-94l-92 -578h94zM328 717l-17 -103h-47l-97 -614h-128l97 614h-47l17 103h222z" />
<glyph unicode="&#xf0;" horiz-adv-x="327" d="M198 305l57 -39l-27 -172h-63zM154 516h141l-23 -144l-147 90l-66 -416q2 -8 4.5 -15t9.5 -12h223q1 0 4.5 3.5l5.5 5.5q3 4 7.5 10.5t4.5 8.5l66 413l-44 61h81q-3 20 -12 37t-22 33h-262zM41 43l71 450l147 -90l15 94h-133l-44 113h300q16 -20 27.5 -46t17.5 -62h-63 l24 -34l-67 -421q-1 -7 -7 -16t-9 -14l-7 -6q-5 -4 -12.5 -7.5l-7.5 -3.5h-227q-14 9 -18.5 19.5t-6.5 23.5zM211 272l-25 -159h27l22 142z" />
<glyph unicode="&#xf1;" horiz-adv-x="371" d="M330 661l-21 41h-73l-54 -66h72l33 41l20 -41h73l55 66h-72zM153 600l-105 -662l24.5 10.5t35.5 17.5t33 20.5t17 18.5l65 409l71 -130l-42 -265h99l92 581h-99l-22 -137l-78 137h-91zM321 721l14 -28l22 28h115l-85 -102h77l-98 -619h-135l44 277l-43 80l-56 -352 q-2 -13 -22 -28t-45 -28.5t-49 -24t-33 -14.5l112 709h6l85 102h91zM260 617h-3l56 -99l16 99h-34l-13 28z" />
<glyph unicode="&#xf2;" d="M312 698h-72l33 -65h72zM171 95l68 426h62l-68 -426h-62zM195 526l-64 -62l-66 -417q0 -2 2.5 -8.5t3.5 -10.5q2 -2 4.5 -5.5t3.5 -3.5h213q1 0 8.5 3.5t10.5 5.5t7 5.5t4 4.5l86 540q0 1 -3 4l-5 5l-9 6t-7 4h-213q-5 -4 -12.5 -13.5t-16 -20.5t-16 -21t-11.5 -16h80z M208 717h115l53 -101h11q2 0 12 -5.5t14 -8.5l5 -5q4 -5 6 -12l2 -7l-86 -540l-4.5 -7t-9.5 -12l-5 -5q-4 -4 -17 -9t-15 -5h-213l-6 3.5t-10 7.5l-3 5q-2 5 -6 15.5t-3 15.5l68 426l34 34h-69q1 1 6 8t11 15.5t11.5 16.5t7.5 11v-1q11 15 24 31.5t27 27.5h92zM254 502 l-62 -388h27l62 388h-27z" />
<glyph unicode="&#xf3;" d="M358 698h-72l-56 -65h72zM171 95l68 426h62l-68 -426h-62zM195 526l-64 -62l-66 -417q0 -2 2.5 -8.5t3.5 -10.5q2 -2 4.5 -5.5t3.5 -3.5h213q1 0 8.5 3.5t10.5 5.5t7 5.5t4 4.5l86 540q0 1 -3 4l-5 5l-9 6t-7 4h-213q-5 -4 -12.5 -13.5t-16 -20.5t-16 -21t-11.5 -16h80z M280 717h115l-85 -101h77q2 0 12 -5.5t14 -8.5l5 -5q4 -5 6 -12l2 -7l-86 -540l-4.5 -7t-9.5 -12l-5 -5q-4 -4 -17 -9t-15 -5h-213l-6 3.5t-10 7.5l-3 5q-2 5 -6 15.5t-3 15.5l68 426l34 34h-69q1 1 6 8t11 15.5t11.5 16.5t7.5 11v-1q11 15 24 31.5t27 27.5h27zM254 502 l-62 -388h27l62 388h-27z" />
<glyph unicode="&#xf4;" d="M386 633l-34 65h-108l-55 -65h72l33 40l20 -40h72zM171 95l68 426h62l-68 -426h-62zM195 526l-64 -62l-66 -417q0 -2 2.5 -8.5t3.5 -10.5q2 -2 4.5 -5.5t3.5 -3.5h213q1 0 8.5 3.5t10.5 5.5t7 5.5t4 4.5l86 540q0 1 -3 4l-5 5l-9 6t-7 4h-213q-5 -4 -12.5 -13.5 t-16 -20.5t-16 -21t-11.5 -16h80zM364 717l54 -103h-26q5 -2 11.5 -6t9.5 -6l5 -5q4 -5 6 -12l2 -7l-86 -540l-4.5 -7t-9.5 -12l-5 -5q-4 -4 -17 -9t-15 -5h-213l-6 3.5t-10 7.5l-3 5q-2 5 -6 15.5t-3 15.5l68 426l34 34h-69q1 1 6 8t11 15.5t11.5 16.5t7.5 11v-1 q11 14 23 30t24 27h-13l87 103h126zM254 502l-62 -388h27l62 388h-27zM289 641l-21 -25h33z" />
<glyph unicode="&#xf5;" d="M315 657l-19 41h-73l-56 -65h72l34 40l20 -40h72l56 65h-72zM171 95l68 426h62l-68 -426h-62zM195 526l-64 -62l-66 -417q0 -2 2.5 -8.5t3.5 -10.5q2 -2 4.5 -5.5t3.5 -3.5h213q1 0 8.5 3.5t10.5 5.5t7 5.5t4 4.5l86 540q0 1 -3 4l-5 5l-9 6t-7 4h-213q-5 -4 -12.5 -13.5 t-16 -20.5t-16 -21t-11.5 -16h80zM307 717l13 -27l23 27h116l-86 -101h14q2 0 12 -5.5t14 -8.5l5 -5q4 -5 6 -12l2 -7l-86 -540l-4.5 -7t-9.5 -12l-5 -5q-4 -4 -17 -9t-15 -5h-213l-6 3.5t-10 7.5l-3 5q-2 5 -6 15.5t-3 15.5l68 426l34 34h-69q1 1 6 8t11 15.5t11.5 16.5 t7.5 11v-1q11 14 23 30t24 27h-34l87 103h90zM254 502l-62 -388h27l62 388h-27zM268 641l-21 -25h33z" />
<glyph unicode="&#xf6;" d="M386 633l11 65h-86l-11 -65h86zM200 698l-11 -65h86l11 65h-86zM171 95l68 426h62l-68 -426h-62zM195 526l-64 -62l-66 -417q0 -2 2.5 -8.5t3.5 -10.5q2 -2 4.5 -5.5t3.5 -3.5h213q1 0 8.5 3.5t10.5 5.5t7 5.5t4 4.5l86 540q0 1 -3 4l-5 5l-9 6t-7 4h-213 q-5 -4 -12.5 -13.5t-16 -20.5t-16 -21t-11.5 -16h80zM418 717l-17 -103h-9q5 -2 11.5 -6t9.5 -6l5 -5q4 -5 6 -12l2 -7l-86 -540l-4.5 -7t-9.5 -12l-5 -5q-4 -4 -17 -9t-15 -5h-213l-6 3.5t-10 7.5l-3 5q-2 5 -6 15.5t-3 15.5l68 426l34 34h-69q1 1 6 8t11 15.5t11.5 16.5 t7.5 11v-1q11 15 24 31.5t27 27.5h1l16 101h233zM254 502l-62 -388h27l62 388h-27z" />
<glyph unicode="&#xf7;" horiz-adv-x="293" d="M193 506l-11 -72h95l11 72h-95zM153 245l-12 -72h95l12 72h-95zM109 331l-14 -93l231 113l14 92zM162 416l17 108h130l-13 -84l67 33l-21 -133l-157 -77h84l-17 -108h-130l13 83l-62 -30l21 135l151 73h-83z" />
<glyph unicode="&#xf8;" d="M211 346l27 170h54zM233 94h-56l82 167zM195 521l-64 -61l-66 -413q0 -2 2.5 -8.5t3.5 -10.5q2 -2 4.5 -5.5t3.5 -3.5h213q1 0 8.5 3.5t10.5 5.5t7 5.5t4 4.5l85 534q0 1 -3 4.5t-5 5.5t-8.5 5.5t-7.5 3.5h-213q-5 -4 -12.5 -13t-16 -19.5t-15.5 -21l-11 -16.5h80z M115 468l35 34h-69q1 2 5.5 9t10.5 15.5t11.5 16t8.5 10.5l-1 -1q12 15 24.5 31t26.5 27h219q2 0 12 -5t15 -8l4 -6q4 -4 6 -11.5l2 -7.5l-85 -534l-4.5 -7.5t-9.5 -11.5l-5 -5q-4 -4 -17 -9t-15 -5h-213l-6 3.5t-10 7.5l-3 5l-6 15t-3 16zM205 113h14l6 38zM264 497h-11 l-6 -36z" />
<glyph unicode="&#xf9;" horiz-adv-x="335" d="M309 698h-71l33 -65h71zM169 95l80 502h-96l-88 -550q0 -2 2 -8.5t4 -10.5q2 -2 4.5 -5.5l2.5 -3.5h211q1 0 8 3.5l11 5.5q3 2 7 5.5t4 4.5l89 559h-97l-80 -502h-62zM207 717h114l52 -101h55l-92 -578l-4 -7t-9 -12l-6 -5q-4 -4 -17 -9t-14 -5h-211l-6 3.5t-9 7.5l-4 5 q-2 5 -6 15.5t-3 15.5l91 569h121zM269 614l-79 -500h26l79 500h-26z" />
<glyph unicode="&#xfa;" horiz-adv-x="335" d="M355 698h-71l-55 -65h71zM169 95l80 502h-96l-88 -550q0 -2 2 -8.5t4 -10.5q2 -2 4.5 -5.5l2.5 -3.5h211q1 0 8 3.5l11 5.5q3 2 7 5.5t4 4.5l89 559h-97l-80 -502h-62zM278 717h114l-84 -101h120l-92 -578l-4 -7t-9 -12l-6 -5q-4 -4 -17 -9t-14 -5h-211l-6 3.5t-9 7.5 l-4 5q-2 5 -6 15.5t-3 15.5l91 569h56zM269 614l-79 -500h26l79 500h-26z" />
<glyph unicode="&#xfb;" horiz-adv-x="335" d="M383 633l-33 65h-107l-55 -65h71l33 40l20 -40h71zM169 95l80 502h-96l-88 -550q0 -2 2 -8.5t4 -10.5q2 -2 4.5 -5.5l2.5 -3.5h211q1 0 8 3.5l11 5.5q3 2 7 5.5t4 4.5l89 559h-97l-80 -502h-62zM362 717l51 -101h15l-92 -578l-4 -7t-9 -12l-6 -5q-4 -4 -17 -9t-14 -5 h-211l-6 3.5t-9 7.5l-4 5q-2 5 -6 15.5t-3 15.5l91 569h14l85 101h125zM270 616l-80 -502h26l80 502h3l-12 25l-20 -25h3z" />
<glyph unicode="&#xfc;" horiz-adv-x="335" d="M383 633l11 65h-85l-11 -65h85zM199 698l-11 -65h85l11 65h-85zM169 95l80 502h-96l-88 -550q0 -2 2 -8.5t4 -10.5q2 -2 4.5 -5.5l2.5 -3.5h211q1 0 8 3.5l11 5.5q3 2 7 5.5t4 4.5l89 559h-97l-80 -502h-62zM414 717l-16 -101h30l-92 -578l-4 -7t-9 -12l-6 -5 q-4 -4 -17 -9t-14 -5h-211l-6 3.5t-9 7.5l-4 5q-2 5 -6 15.5t-3 15.5l91 569h30l16 101h230zM269 614l-79 -500h26l79 500h-26z" />
<glyph unicode="&#xfd;" horiz-adv-x="335" d="M355 701h-71l-54 -65h71zM249 600h-96l-45 -283q0 -2 2 -8.5t4 -10.5q2 -2 4.5 -6l2.5 -4l68 36l-48 -305q4 -7 13.5 -18t21.5 -22t25.5 -19.5t24.5 -9.5l69 433l57 32q1 0 8 4t11 6q3 2 7 5t4 4l26 166h-97l-22 -140l-68 -38zM278 721h114l-84 -102h120l-29 -185l-4 -7 t-9 -12l-6 -5q-4 -2 -11.5 -5.5t-13.5 -6.5l3 1l-47 -27l-70 -443q-18 1 -37 11t-35.5 23.5t-29 27t-17.5 21.5l44 280l-43 -23l-8.5 3.5t-11.5 8.5l-5 5q-2 5 -5.5 15t-2.5 16l48 302h56zM270 617l-26 -163l28 16l24 147h-26z" />
<glyph unicode="&#xfe;" horiz-adv-x="374" d="M308 360l-101 -48l18 112h93zM253 591h-100l-18 -112q-24 -21 -35 -50h81l-67 -80l-52 -330h99l31 198l209 100l26 163q-2 5 -4 10.5t-10 8.5h-175zM138 610h136l-15 -92h160q17 -6 20.5 -15.5t5.5 -19.5l-28 -178l-209 -100l-32 -205h-135l56 355l46 55h-69q10 25 21 43 t23 32zM240 405l-10 -63l62 30l5 33h-57z" />
<glyph unicode="&#xff;" horiz-adv-x="335" d="M384 636l10 65h-85l-10 -65h85zM199 701l-10 -65h85l10 65h-85zM249 600h-96l-45 -283q0 -2 2 -8.5t4 -10.5q2 -2 4.5 -6l2.5 -4l68 36l-48 -305q4 -7 13.5 -18t21.5 -22t25.5 -19.5t24.5 -9.5l69 433l57 32q1 0 8 4t11 6q3 2 7 5t4 4l26 166h-97l-22 -140l-68 -38z M414 721l-16 -102h30l-29 -185l-4 -7t-9 -12l-6 -5q-4 -2 -11.5 -5.5t-13.5 -6.5l3 1l-47 -27l-70 -443q-18 1 -37 11t-35.5 23.5t-29 27t-17.5 21.5l44 280l-43 -23l-8.5 3.5t-11.5 8.5l-5 5q-2 5 -5.5 15t-2.5 16l48 302h30l16 102h230zM270 617l-26 -163l28 16l24 147 h-26z" />
<glyph unicode="&#x152;" horiz-adv-x="581" d="M243 507h84q-4 -26 4.5 -42t23.5 -27l-34 -217q-20 -6 -37.5 -12.5t-24.5 -12.5l-16 -102h-65zM404 94l34 215l125 57l15 96l-125 -58l18 112h147l55 75h-500q-42 -35 -58 -70h84l-66 -61l-66 -413q0 -2 2 -8.5t4 -10.5q2 -2 5 -5.5t4 -3.5h479l35 220q-11 0 -27 -3 t-32.5 -8t-30 -10.5t-18.5 -10.5l-18 -113h-66zM580 354l-125 -57l-29 -184h28l16 102q7 6 25.5 13.5t41 14t44.5 11t36 4.5l-41 -258h-497l-7 3.5t-10 7.5l-4 5q-2 5 -6.5 15t-3.5 16l67 421l37 34h-66q17 36 38 62t44 46h540l-82 -113h-139l-10 -63l125 59zM336 428 q-29 21 -30 60h-48l-59 -375h29l14 91q10 8 27 16.5t36 14.5z" />
<glyph unicode="&#x153;" horiz-adv-x="581" d="M243 507h84q-4 -26 4.5 -42t23.5 -27l-34 -217q-20 -6 -37.5 -12.5t-24.5 -12.5l-16 -102h-65zM404 94l34 215l125 57l15 96l-125 -58l18 112h147l55 75h-500q-42 -35 -58 -70h84l-66 -61l-66 -413q0 -2 2 -8.5t4 -10.5q2 -2 5 -5.5t4 -3.5h479l35 220q-11 0 -27 -3 t-32.5 -8t-30 -10.5t-18.5 -10.5l-18 -113h-66zM580 354l-125 -57l-29 -184h28l16 102q7 6 25.5 13.5t41 14t44.5 11t36 4.5l-41 -258h-497l-7 3.5t-10 7.5l-4 5q-2 5 -6.5 15t-3.5 16l67 421l37 34h-66q17 36 38 62t44 46h540l-82 -113h-139l-10 -63l125 59zM336 428 q-29 21 -30 60h-48l-59 -375h29l14 91q10 8 27 16.5t36 14.5z" />
<glyph unicode="&#x178;" horiz-adv-x="335" d="M384 636l10 65h-85l-10 -65h85zM199 701l-10 -65h85l10 65h-85zM249 600h-96l-45 -283q0 -2 2 -8.5t4 -10.5q2 -2 4.5 -6l2.5 -4l68 36l-48 -305q4 -7 13.5 -18t21.5 -22t25.5 -19.5t24.5 -9.5l69 433l57 32q1 0 8 4t11 6q3 2 7 5t4 4l26 166h-97l-22 -140l-68 -38z M414 721l-16 -102h30l-29 -185l-4 -7t-9 -12l-6 -5q-4 -2 -11.5 -5.5t-13.5 -6.5l3 1l-47 -27l-70 -443q-18 1 -37 11t-35.5 23.5t-29 27t-17.5 21.5l44 280l-43 -23l-8.5 3.5t-11.5 8.5l-5 5q-2 5 -5.5 15t-2.5 16l48 302h30l16 102h230zM270 617l-26 -163l28 16l24 147 h-26z" />
<glyph unicode="&#x2c6;" horiz-adv-x="267" d="M303 374l-35 44h-103l-50 -44h69l30 27l21 -27h68zM278 430l56 -69h-110l-14 19l-20 -19h-110l78 69h120z" />
<glyph unicode="&#x2dc;" horiz-adv-x="318" d="M261 391l-22 27h-72l-51 -44h71l31 27l21 -27h72l51 44h-71zM249 430l15 -18l20 18h114l-80 -69h-89l-15 19l-20 -19h-114l80 69h89z" />
<glyph unicode="&#x2000;" horiz-adv-x="378" />
<glyph unicode="&#x2001;" horiz-adv-x="757" />
<glyph unicode="&#x2002;" horiz-adv-x="378" />
<glyph unicode="&#x2003;" horiz-adv-x="757" />
<glyph unicode="&#x2004;" horiz-adv-x="252" />
<glyph unicode="&#x2005;" horiz-adv-x="189" />
<glyph unicode="&#x2006;" horiz-adv-x="126" />
<glyph unicode="&#x2007;" horiz-adv-x="126" />
<glyph unicode="&#x2008;" horiz-adv-x="94" />
<glyph unicode="&#x2009;" horiz-adv-x="151" />
<glyph unicode="&#x200a;" horiz-adv-x="42" />
<glyph unicode="&#x2010;" horiz-adv-x="167" d="M107 345l-13 -81l101 49l13 82zM74 238l18 118l135 66l-19 -119z" />
<glyph unicode="&#x2011;" horiz-adv-x="167" d="M107 345l-13 -81l101 49l13 82zM74 238l18 118l135 66l-19 -119z" />
<glyph unicode="&#x2012;" horiz-adv-x="167" d="M107 345l-13 -81l101 49l13 82zM74 238l18 118l135 66l-19 -119z" />
<glyph unicode="&#x2013;" horiz-adv-x="167" d="M107 345l-13 -81l101 49l13 82zM74 238l18 118l135 66l-19 -119z" />
<glyph unicode="&#x2014;" horiz-adv-x="293" d="M106 312l-14 -88l230 107l14 86zM71 196l20 127l267 122l-19 -124z" />
<glyph unicode="&#x2018;" horiz-adv-x="152" d="M189 368l24 148q-4 -2 -13.5 -7t-20.5 -10.5l-20 -10l-11 -5.5q-5 -5 -15 -13.5t-10 -10.5l-15 -91h81zM232 541l-30 -190h-110l17 108q0 2 4 7t9 10.5t11 11t10 8.5l14 7l27 13.5t28.5 14.5t19.5 10z" />
<glyph unicode="&#x2019;" horiz-adv-x="152" d="M132 517l-24 -148q3 1 13 5.5t21 10l20 10t11 6.5q5 5 15 14t10 11l15 91h-81zM90 342l30 191h110l-17 -107q0 -2 -3.5 -7t-9 -10.5l-11 -11t-9.5 -8.5l1 1v-1h-1q-1 -1 -2 -1l2 1q-5 -2 -19.5 -10t-26.5 -15z" />
<glyph unicode="&#x201a;" horiz-adv-x="153" d="M145 79h-82l-20 -121q11 1 24.5 8t26.5 16t24 18.5t17 15.5zM51 95h111l-13 -85q-6 -6 -20 -17t-32 -22.5t-36.5 -20t-33.5 -9.5z" />
<glyph unicode="&#x201c;" horiz-adv-x="299" d="M335 368l24 148q-5 -2 -16.5 -7t-24 -10.5t-23 -10t-12.5 -5.5q-6 -5 -17.5 -13.5t-11.5 -10.5l-15 -91h96zM210 368l24 148q-4 -2 -15 -7t-24 -10.5t-23.5 -10t-12.5 -5.5q-7 -5 -18 -13.5t-11 -10.5l-15 -91h95zM380 541l-30 -190h-254l17 108q0 2 4.5 7t10.5 11 t12.5 11t11.5 8q2 1 16 7l31.5 13.5t33.5 14.5t22 10l-12 -73q7 7 17 15.5t17 12.5q2 1 15.5 7t31 13.5t33.5 14.5t23 10z" />
<glyph unicode="&#x201d;" horiz-adv-x="299" d="M139 517l-24 -148q4 1 15.5 5.5t24 10t23 10t12.5 6.5q3 2 8 5.5t9.5 7.5t8 7.5t3.5 4.5l15 91h-95zM263 517l-24 -148q4 1 15.5 5.5t24.5 10t23.5 10t12.5 6.5q3 2 8 5.5t9.5 7.5t8 7.5t3.5 4.5l15 91h-96zM94 342l30 191h254l-17 -107q0 -2 -4 -7t-10 -10.5t-12.5 -11 t-11.5 -8.5l2 1l-0.5 -0.5t-1.5 -0.5q-1 -1 -2 -1l2 1q-5 -2 -22 -10t-31 -15l-52 -22l12 75q-6 -7 -15.5 -15t-15.5 -13l1 1l-1 -1q-1 -1 -2 -1l2 1q-5 -2 -22.5 -10t-31.5 -15z" />
<glyph unicode="&#x201e;" horiz-adv-x="300" d="M166 79h-96l-20 -121q12 1 27.5 8t31 16t28.5 18.5t19 15.5zM291 79h-96l-20 -121q12 1 27.5 8t31 16t28.5 18.5t19 15.5zM55 95h255l-13 -85q-8 -6 -24 -17t-36 -22t-42 -20t-40 -10l10 64q-10 -8 -26 -18.5t-35 -20.5t-38 -17t-35 -8z" />
<glyph unicode="&#x2022;" horiz-adv-x="335" d="M55 19l1 -4l4 -4q3 -4 9 -7.5l6 -3.5h211q1 0 14 5t17 9l6 5q5 4 9 11.5l4 7.5l85 534l-2 7.5t-5 11.5l-5 6q-5 3 -14.5 8t-11.5 5h-211l-7 -3.5t-12 -7.5l-6 -6q-4 -5 -10 -14t-8 -16l-82 -516q-1 -6 2.5 -14.5t5.5 -13.5zM71 28q-2 4 -4 10.5t-2 8.5l82 516q1 2 5 8.5 t7 10.5q2 2 6 5.5l4 3.5h211q1 0 7 -3.5t9 -5.5q2 -2 5 -5.5t3 -4.5l-85 -534q0 -1 -4 -4.5t-7 -5.5l-11 -5.5t-8 -3.5h-211l-2.5 3.5t-4.5 5.5z" />
<glyph unicode="&#x2026;" horiz-adv-x="503" d="M71 67l-9 -54h102l9 54h-102zM230 67l-9 -54h102l9 54h-102zM389 67l-9 -54h102l9 54h-102zM360 0l13 80h139l-13 -80h-139zM42 0l13 80h138l-13 -80h-138zM201 0l13 80h138l-13 -80h-138z" />
<glyph unicode="&#x202f;" horiz-adv-x="151" />
<glyph unicode="&#x2039;" horiz-adv-x="109" d="M155 417l-51 -42l-16 -104l37 -42l11 68l-23 26l31 25zM94 383l79 67l-17 -110l-22 -17l16 -17l-17 -110l-58 67z" />
<glyph unicode="&#x203a;" horiz-adv-x="109" d="M162 383l-59 67l-17 -110l15 -17l-21 -17l-17 -110l80 67zM111 417l36 -42l-16 -104l-50 -42l11 68l31 26l-23 25z" />
<glyph unicode="&#x205f;" horiz-adv-x="189" />
<glyph unicode="&#x20ac;" horiz-adv-x="411" d="M115 352l-16 -97l74 36l-9 -56l-73 -35l-16 -97l74 36l-15 -92q0 -2 2 -8.5t4 -10.5q2 -2 4.5 -5.5t3.5 -3.5h243l33 209q-11 0 -26.5 -3.5t-31 -8.5t-28.5 -10.5t-18 -9.5l-16 -102h-63l15 97l61 30l15 95l-61 -30l9 57l61 30l15 95l-61 -30l11 69h81q-3 -19 0.5 -32 t11.5 -22.5t19.5 -16.5t25.5 -13l11 -1l27 169h-243q-40 -34 -56 -70h81l-64 -61l-12 -73zM76 224l23 140l73 34l11 70l35 34h-63q17 36 36.5 62t42.5 46h269l-33 -208l-33 2q-22 9 -39.5 21t-25.5 31l-15 -95l-61 -31l-2 -13l61 30l-20 -126q26 10 58 18t52 8l-39 -247 h-261l-6.5 3.5t-9.5 7.5l-4 5l-6 15t-3 16l10 61l-74 -36l23 140l73 34l2 14zM272 178l-10 -65h27l13 80zM356 488h-35l-3 -19z" />
<glyph unicode="&#x2122;" horiz-adv-x="305" d="M255 521h1q2 0 3 1q-4 0 -4 -1zM156 477l-14 -87h52l14 87h24l-14 -87h47l2 14q3 -11 8.5 -12.5t13.5 -1.5q14 0 17.5 1.5t9.5 12.5l-2 -14h48l21 134h-23q-16 0 -30.5 -7.5t-27.5 -28.5q-5 13 -17 24.5t-19 11.5l-1.5 -5t-2.5 -10.5t-1.5 -10.5l-0.5 -5l-9 4l4 24 q-3 0 -5 -2q2 2 5 2v3h-132l-7 -47h40zM237 406l16 99q2 2 6 2t4 1h-1q-1 0 0 0.5t2 0.5q5 0 12.5 -9.5t10.5 -19.5l1 -6q2 -13 4 -22t4 -16q5 8 8 16t8 19q11 23 22 30t23 7h6l-16 -102h-13l11 67l-4 7l-39 -68q-3 -5 -4.5 -5.5t-6.5 -0.5q-2 0 -4 0.5t-4 5.5l-16 66l-7 -5 l-11 -67h-12zM161 406l14 86h-40l2 16h97l-2 -16h-40l-14 -86h-17z" />
<glyph unicode="&#x25fc;" horiz-adv-x="615" d="M0 615h615v-615h-615v615z" />
</font>
</defs>
</svg>
