<?xml version="1.0" standalone="no"?>
<!DOCTYPE svg PUBLIC "-//W3C//DTD SVG 1.1//EN" "http://www.w3.org/Graphics/SVG/1.1/DTD/svg11.dtd" >
<svg xmlns="http://www.w3.org/2000/svg" xmlns:xlink="http://www.w3.org/1999/xlink" version="1.1">
<metadata></metadata>
<defs>
<font id="winter_solstice_leftalicIt" horiz-adv-x="352" >
<font-face units-per-em="1000" ascent="800" descent="-200" />
<missing-glyph horiz-adv-x="259" />
<glyph horiz-adv-x="0" />
<glyph unicode="&#xd;" horiz-adv-x="500" />
<glyph unicode=" "  horiz-adv-x="259" />
<glyph unicode="&#x09;" horiz-adv-x="259" />
<glyph unicode="&#xa0;" horiz-adv-x="259" />
<glyph unicode="!" horiz-adv-x="173" d="M-55 610h111l59 -421h-111zM31 0l-11 80h111l11 -80h-111z" />
<glyph unicode="&#x22;" horiz-adv-x="316" d="M115 430l-26 181h110l16 -111q0 -2 -9.5 -13.5t-16.5 -16.5q-2 -2 -12 -7.5t-22.5 -12t-24 -12.5t-15.5 -8zM-29 430l-26 181h110l16 -111q0 -2 -9.5 -13.5t-16.5 -16.5q-2 -2 -12 -7.5t-22.5 -12t-24 -12.5t-15.5 -8z" />
<glyph unicode="#" horiz-adv-x="479" d="M14 610h111l25 -173l54 29l-21 144h111l13 -89l63 37l14 -105l-63 -34l9 -60l63 34l14 -102l-63 -34l36 -257h-111l-28 201l-54 -30l24 -171h-111l-16 117l-65 -35l-14 103l64 34l-8 60l-64 -35l-15 103l64 34zM218 363l-54 -30l8 -58l54 29z" />
<glyph unicode="$" horiz-adv-x="350" d="M128 -56l-8 56h-69q-1 0 -5 4l-6 6q-3 4 -8 11t-5 9l-29 205q11 0 28 -3.5t34.5 -8.5t32 -11t20.5 -11l17 -121h70l-31 220l-194 90l-12 90l52 55h-90q4 21 14.5 39.5t24.5 35.5h70l-8 56h111l8 -56h112l-34 -80h-157l11 -85l194 -91l47 -334q0 -1 -3 -4.5t-5 -5.5 q-4 -2 -11 -6t-8 -4h-60l8 -56h-111z" />
<glyph unicode="%" horiz-adv-x="417" d="M-8 310q-1 2 -3.5 5t-2.5 5l-39 275l4 10q2 1 3 3l1 2h120q1 0 5 -2l6 -3l6 -5l32 -230l50 240h111l-64 -305h107q1 0 5 -2l6 -3l6 -5l40 -285q0 -3 -5 -5q-5 -5 -9 -5h-120l-6 5q-1 2 -3.5 5t-2.5 5l-32 224l-50 -239h-111l64 305h-112zM308 92l-17 123h-14l17 -123h14z M55 397l-17 123h-14l17 -123h14z" />
<glyph unicode="&#x26;" horiz-adv-x="420" d="M92 347l231 124l14 -102l-63 -34l49 -350q0 -2 -9.5 -12.5t-16.5 -17.5q-2 -3 -12 -9t-22.5 -12.5t-24 -12t-15.5 -6.5l-12 85h-180l-63 450l48 85h-90q4 21 14.5 39.5t24.5 35.5h293l-34 -80h-157zM106 246l24 -166h70l-28 200z" />
<glyph unicode="'" horiz-adv-x="172" d="M-29 430l-26 181h110l16 -111q0 -2 -9.5 -13.5t-16.5 -16.5q-2 -2 -12 -7.5t-22.5 -12t-24 -12.5t-15.5 -8z" />
<glyph unicode="(" horiz-adv-x="255" d="M217 51l8 -60q0 -1 -3 -4.5t-5 -5.5q-4 -2 -11 -6t-8 -4h-143q-1 0 -5 4l-6 6q-3 4 -8 11t-5 9l-86 610q0 2 2.5 9t4.5 11q2 2 5 6t4 4h143q1 0 9 -4l12 -6q3 -2 7.5 -5.5t4.5 -4.5l8 -60h-83l72 -510h83z" />
<glyph unicode=")" horiz-adv-x="255" d="M23 51l8 -60q0 -1 4.5 -4.5t7.5 -5.5l12 -6t9 -4h143q1 0 4 4t5 6q2 4 4.5 11t2.5 9l-86 610q0 2 -5 9t-8 11l-6 6t-5 4h-143q-1 0 -8 -4t-11 -6q-2 -2 -5 -5.5t-3 -4.5l8 -60h83l72 -510h-83z" />
<glyph unicode="*" horiz-adv-x="222" d="M-9 640h64l4 -29l42 28l13 -88l-42 -35l11 -73h-64l-4 30l-46 -31l-13 90l45 36z" />
<glyph unicode="+" horiz-adv-x="310" d="M30 515h111l10 -77l62 35l14 -104l-60 -39l18 -133h-111l-11 83l-66 -36l-15 103l65 41z" />
<glyph unicode="," horiz-adv-x="173" d="M20 80h111l11 -80q-5 -7 -16.5 -19t-25.5 -23.5t-30 -20.5t-29 -10z" />
<glyph unicode="-" horiz-adv-x="186" d="M-12 309l-15 101l116 62l14 -102z" />
<glyph unicode="." horiz-adv-x="173" d="M31 0l-11 80h111l11 -80h-111z" />
<glyph unicode="/" horiz-adv-x="387" d="M31 0l128 610h111l-128 -610h-111z" />
<glyph unicode="0" d="M40 10l6 -6t5 -4h240q1 0 8 4t11 6q2 2 5 5.5t3 4.5l-80 570q0 1 -4.5 4.5t-6.5 5.5q-5 2 -13 6t-9 4h-240q-1 0 -3.5 -4t-4.5 -6q-2 -4 -5 -11t-3 -9l78 -550q0 -2 5 -9t8 -11zM200 80h-70l-63 450h70z" />
<glyph unicode="1" horiz-adv-x="169" d="M138 0l-86 610h-89q-14 -17 -24.5 -35.5t-14.5 -39.5h79l-42 -55l67 -480h110z" />
<glyph unicode="2" horiz-adv-x="355" d="M1 220l168 90l-30 220h-70l17 -121q-5 -5 -18 -11t-28.5 -11t-31.5 -8.5t-28 -3.5l-29 205q0 2 3 9t5 11q2 2 4.5 6t3.5 4h240q1 0 9 -4t13 -6q2 -2 6.5 -5.5t4.5 -4.5l47 -334l-168 -91l12 -85h157l57 -80h-313z" />
<glyph unicode="3" horiz-adv-x="334" d="M209 430l30 25l-19 134q-3 6 -7 11.5t-15 9.5h-228q-14 -17 -24.5 -37t-14.5 -41h186l10 -70l-106 -70l14 -103l108 61l38 -270h-157l11 -80h238q1 0 8 4t11 6q2 2 5 5.5t3 4.5l-53 380z" />
<glyph unicode="4" horiz-adv-x="354" d="M-12 303l168 96l66 -472q13 1 29 10t30 20.5t25.5 23.5t16.5 19l-86 610h-111l15 -105l-65 -45l-21 151h-110z" />
<glyph unicode="5" horiz-adv-x="355" d="M-23 390l194 -90l31 -220h-70l-17 121q-6 5 -20.5 11t-32 11t-34.5 8.5t-28 3.5l29 -205q0 -2 5 -9t8 -11l6 -6t5 -4h240q1 0 8 4t11 6q2 2 5 5.5t3 4.5l-47 334l-194 91l-11 85h157l34 80h-313z" />
<glyph unicode="6" d="M67 530h157l34 80h-293q-14 -17 -24.5 -35.5t-14.5 -39.5h90l-51 -65l62 -440q0 -2 5 -9t8 -11l6 -6t5 -4h249q8 5 11.5 12.5t5.5 16.5l-62 443l-167 -96zM104 263l64 42l32 -225h-70z" />
<glyph unicode="7" horiz-adv-x="341" d="M207 0l38 610h-270q-14 -17 -24.5 -35.5t-14.5 -39.5h197l-39 -535h113z" />
<glyph unicode="8" horiz-adv-x="355" d="M5 430l-38 25l-19 134q2 6 4.5 11.5t11.5 9.5h255q11 -4 15 -9.5t7 -11.5l19 -134l-30 -25l38 -30l53 -380q0 -1 -3 -4.5t-5 -5.5q-4 -2 -11 -6t-8 -4h-233q-1 0 -9 4l-12 6q-3 2 -7.5 5.5t-4.5 4.5l-53 380zM164 350l-64 -54l31 -216h71zM138 532h-71l19 -130l62 60z " />
<glyph unicode="9" horiz-adv-x="353" d="M130 80h70l-24 172l-194 97l-14 101l48 85h-90q4 21 14.5 39.5t24.5 35.5h252q11 -4 15 -9.5t7 -11.5l80 -569q0 -1 -3 -4.5t-5 -5.5q-4 -2 -11 -6t-8 -4h-226q-21 4 -28.5 8t-9.5 12l-30 215q11 0 28 -3.5t34.5 -8.5t32 -11t20.5 -11zM85 399l74 -32l-22 163h-70z" />
<glyph unicode=":" horiz-adv-x="173" d="M31 0l-11 80h111l11 -80h-111zM-24 392l-11 80h111l11 -80h-111z" />
<glyph unicode=";" horiz-adv-x="173" d="M-24 392l-11 80h111l11 -80h-111zM20 80h111l11 -80q-5 -7 -16.5 -19t-25.5 -23.5t-30 -20.5t-29 -10z" />
<glyph unicode="&#x3c;" horiz-adv-x="281" d="M138 0l-150 303l65 307h111l-65 -307l150 -303h-111z" />
<glyph unicode="=" horiz-adv-x="310" d="M-15 326l-14 103l230 124l15 -102zM8 164l-15 103l231 124l14 -102z" />
<glyph unicode="&#x3e;" horiz-adv-x="281" d="M142 0l64 303l-151 307h-111l151 -307l-64 -303h111z" />
<glyph unicode="?" horiz-adv-x="355" d="M1 220l168 90l-30 220h-70l17 -121q-5 -5 -18 -11t-28.5 -11t-31.5 -8.5t-28 -3.5l-29 205q0 2 3 9t5 11q2 2 4.5 6t3.5 4h240q1 0 9 -4t13 -6q2 -2 6.5 -5.5t4.5 -4.5l47 -334l-168 -91h-110zM31 0l-11 80h111l11 -80h-111z" />
<glyph unicode="@" horiz-adv-x="495" d="M154 181q-6 5 -7 10l-38 275l3 10q2 1 3 3l1 2h120q1 0 5 -2l6 -3l6 -5l30 -214h35l-38 273h-201l-1 1h-12l64 -451h213l8 -60q0 -1 -3 -4.5t-5 -5.5q-4 -2 -11 -6t-8 -4h-273q-1 0 -5 4l-6 6q-3 4 -8 11t-5 9l-78 551q0 2 3 9t5 11q2 2 4.5 6t3.5 4h393q1 0 5 -4t7 -6 q2 -4 7 -11t5 -9l53 -375q0 -2 -2.5 -9t-4.5 -11q-2 -2 -5 -6t-4 -4h-260zM216 268l-17 123h-14l17 -123h14z" />
<glyph unicode="A" horiz-adv-x="387" d="M332 -45q-2 -3 -12 -9t-22.5 -12.5t-24 -12t-15.5 -6.5l-61 432l-101 -35l44 -312h-109l-66 470l51 65h-90q3 6 8 17t10.5 22.5t11 21.5t9.5 14h275q1 0 9 -4t13 -6q2 -2 6.5 -5.5t4.5 -4.5l85 -605q0 -2 -9.5 -12.5t-16.5 -17.5zM172 530h-106l16 -117l101 35z" />
<glyph unicode="B" horiz-adv-x="387" d="M262 430l38 -30l53 -380q0 -1 -3 -4.5t-5 -5.5q-4 -2 -11 -6t-8 -4h-295l-63 450l48 85h-90q4 21 14.5 39.5t24.5 35.5h286q11 -4 15 -9.5t7 -11.5l19 -134zM98 309l32 -229h104l-39 275zM83 410l97 52l-9 68h-104z" />
<glyph unicode="C" d="M158 520h-90l62 -440h70l-16 109q4 5 17 11t29 11t32.5 8.5t27.5 3.5l31 -223h-270q-1 0 -5 4l-6 6q-3 4 -8 11t-5 9l-62 440l51 65h-90q4 21 14.5 39.5t24.5 35.5h270l26 -180l-7 2q-17 6 -33 13t-29 17t-22 24t-12 34z" />
<glyph unicode="D" horiz-adv-x="385" d="M-46 535h-30q3 6 8 17t10.5 22.5t11 21.5t9.5 14h275q1 0 9 -4t13 -6q2 -2 6.5 -5.5t4.5 -4.5l80 -570q0 -1 -3 -4.5t-5 -5.5q-4 -2 -11 -6t-8 -4h-295zM65 530l63 -450h105l-63 450h-105z" />
<glyph unicode="E" d="M98 309l32 -229h70l-16 109q4 5 17 11t29 11t32.5 8.5t27.5 3.5l33 -238q0 -2 -9.5 -12.5t-16.5 -17.5q-2 -3 -12 -9t-22.5 -12.5t-24 -12t-15.5 -6.5l-12 85h-180l-63 450l48 85h-90q4 21 14.5 39.5t24.5 35.5h293l-34 -80h-157l16 -120l116 62l14 -102z" />
<glyph unicode="F" d="M98 309l53 -382q-13 1 -31 10t-35 20.5t-32 23.5t-22 19l-67 480l52 55h-90q4 21 14.5 39.5t24.5 35.5h293l-34 -80h-157l16 -120l116 62l14 -102z" />
<glyph unicode="G" horiz-adv-x="386" d="M67 530l63 -450h104l-46 325q4 5 17 11t28.5 11t32 8.5t27.5 3.5l64 -454q0 -2 -9.5 -12.5t-16.5 -17.5q-2 -3 -12 -9t-22.5 -12.5t-24 -12t-15.5 -6.5l-12 85h-194q-1 0 -5 4l-6 6q-3 4 -8 11t-5 9l-62 440l51 65h-90q4 21 14.5 39.5t24.5 35.5h293l-34 -80h-157z" />
<glyph unicode="H" horiz-adv-x="387" d="M31 0l-86 610h110l21 -151l98 46l-15 105h111l86 -610h-111l-56 399l-96 -49l49 -350h-111z" />
<glyph unicode="I" horiz-adv-x="303" d="M185 75h100q-4 -21 -14 -39.5t-25 -35.5h-253l35 75h47l-56 405l42 55h-142q4 21 14.5 39.5t24.5 35.5h253l-35 -75h-55z" />
<glyph unicode="J" horiz-adv-x="436" d="M281 530l71 -510q0 -1 -3 -4.5t-5 -5.5q-4 -2 -11 -6t-8 -4h-256q-23 4 -31 8t-10 12l-59 419q11 0 28 -3.5t34.5 -8.5t32 -11t20.5 -11l46 -325h104l-64 455h-158q4 21 14.5 39.5t24.5 35.5h293l-34 -80h-29z" />
<glyph unicode="K" horiz-adv-x="388" d="M31 0l-86 610h111l28 -200l97 52l-21 148h111l22 -155l-30 -25l38 -30l66 -473q-14 1 -31.5 10t-35 20.5t-32.5 23.5t-22 19l-49 350l-97 -51l42 -299h-111z" />
<glyph unicode="L" d="M321 0h-290l-86 610h111l75 -530h69l-16 109q4 5 17 11t29 11t32.5 8.5t27.5 3.5z" />
<glyph unicode="M" horiz-adv-x="536" d="M324 0h-111l-39 278l-90 133l58 -412q-5 -7 -16.5 -19t-25.5 -23.5t-30 -20.5t-29 -10l-96 684h109l158 -222l98 222h109l86 -610h-111l-58 411l-51 -133z" />
<glyph unicode="N" horiz-adv-x="387" d="M43 -85l-98 695h102l133 -144l-21 144h111l86 -610h-111l-39 278l-122 137l60 -430q1 -9 -12 -19.5t-30.5 -21t-34.5 -18.5t-24 -11z" />
<glyph unicode="O" horiz-adv-x="385" d="M-35 470l51 65h-90q3 6 8 17t10.5 22.5t11 21.5t9.5 14h273q1 0 9 -4t13 -6q2 -2 6.5 -5.5t4.5 -4.5l80 -570q0 -1 -3 -4.5t-5 -5.5q-4 -2 -11 -6t-8 -4h-273q-1 0 -5 4l-6 6q-3 4 -8 11t-5 9zM67 530l63 -450h103l-63 450h-103z" />
<glyph unicode="P" horiz-adv-x="387" d="M-32 450l48 85h-90q4 21 14.5 39.5t24.5 35.5h286q11 -4 15 -9.5t7 -11.5l25 -178l-200 -106l43 -306q-5 -7 -16.5 -19t-25.5 -23.5t-29.5 -20.5t-28.5 -10zM83 410l97 52l-9 68h-104z" />
<glyph unicode="Q" d="M134 0h-83q-1 0 -5 4l-6 6q-3 4 -8 11t-5 9l-62 440l51 65h-90q3 6 8 17t10.5 22.5t11 21.5t9.5 14h272q1 0 9 -4t13 -6q2 -2 6.5 -5.5t4.5 -4.5l80 -570q0 -1 -3 -4.5t-5 -5.5q-4 -2 -11 -6t-8 -4h-79l2 -15q0 -2 -9.5 -12.5t-16.5 -17.5q-2 -3 -12 -9t-22.5 -12.5 t-24 -12t-15.5 -6.5zM67 530l63 -450h102l-63 450h-102z" />
<glyph unicode="R" horiz-adv-x="386" d="M261 430l38 -30l66 -473q-14 1 -31.5 10t-35 20.5t-32.5 23.5t-22 19l-50 358l-97 -49l43 -309h-110l-63 450l48 85h-90q4 21 14.5 39.5t24.5 35.5h286q11 -4 15 -9.5t7 -11.5l19 -134zM82 410l97 52l-9 68h-104z" />
<glyph unicode="S" horiz-adv-x="350" d="M-25 390l194 -90l31 -220h-70l-17 121q-6 5 -20.5 11t-32 11t-34.5 8.5t-28 3.5l29 -205q0 -2 5 -9t8 -11l6 -6t5 -4h240q1 0 8 4t11 6q2 2 5 5.5t3 4.5l-47 334l-194 91l-11 85h157l34 80h-293q-14 -17 -24.5 -35.5t-14.5 -39.5h90l-52 -55z" />
<glyph unicode="T" horiz-adv-x="347" d="M30 480l42 55h-138q4 21 14.5 39.5t24.5 35.5h279l-35 -75h-85l85 -608q-13 1 -31 10t-35 20.5t-32 23.5t-22 19z" />
<glyph unicode="U" horiz-adv-x="381" d="M130 80h99l-75 530h110l83 -590q0 -1 -3 -4.5t-5 -5.5q-4 -2 -11 -6t-8 -4h-269q-1 0 -5 4l-6 6q-3 4 -8 11t-5 9l-82 580h110z" />
<glyph unicode="V" horiz-adv-x="387" d="M159 610h111l86 -610h-107l-257 277l-47 333h111l39 -278l124 -149z" />
<glyph unicode="W" horiz-adv-x="536" d="M238 610l39 -278l89 -133l-58 411h111l86 -610h-109l-160 222l-96 -222h-109l-86 610h111l58 -411l52 133l-39 278h111z" />
<glyph unicode="X" horiz-adv-x="388" d="M181 462l-21 148h111l22 -155l-30 -25l38 -30l66 -473q-14 1 -31.5 10t-35 20.5t-32.5 23.5t-22 19l-50 358l-97 -49l43 -309h-111l-56 400l30 30l-38 25l-22 155h111l28 -200z" />
<glyph unicode="Y" d="M55 610h-110l42 -297q0 -2 5 -9t8 -11l6 -6t5 -4l66 37l45 -320q7 -7 22 -19t32 -23.5t35 -20.5t31 -10l-64 455l55 34q1 0 8 4t10 6l5.5 5.5t3.5 4.5l-25 174h-110l21 -147l-64 -40z" />
<glyph unicode="Z" horiz-adv-x="405" d="M362 75h-194l120 535h-293q-14 -17 -24.5 -35.5t-14.5 -39.5h202l-128 -535h293q15 17 25 35.5t14 39.5z" />
<glyph unicode="[" horiz-adv-x="255" d="M213 80l8 -60q0 -1 -3 -4.5t-5 -5.5q-4 -2 -11 -6t-8 -4h-143q-1 0 -5 4l-6 6q-3 4 -8 11t-5 9l-78 550q0 2 3 9t5 11q2 2 4.5 6t3.5 4h143q1 0 9 -4t13 -6q2 -2 6.5 -5.5t4.5 -4.5l9 -60h-83l63 -450h83z" />
<glyph unicode="\" horiz-adv-x="387" d="M355 0l-300 610h-111l300 -610h111z" />
<glyph unicode="]" horiz-adv-x="255" d="M19 80l8 -60q0 -1 4.5 -4.5t7.5 -5.5l12 -6t9 -4h143q1 0 4 4t5 6q2 4 4.5 11t2.5 9l-78 550q0 2 -5 9t-7 11q-3 2 -7 6t-5 4h-143q-1 0 -8 -4t-10 -6l-5.5 -5.5t-3.5 -4.5l9 -60h83l63 -450h-83z" />
<glyph unicode="^" horiz-adv-x="387" d="M243 0h111l-86 610h-107l-179 -277l47 -333h111l-25 177l110 -51zM185 415l26 -188l-109 51z" />
<glyph unicode="_" horiz-adv-x="303" d="M285 75h-257l-35 -75h253q15 17 25 35.5t14 39.5z" />
<glyph unicode="`" horiz-adv-x="193" d="M-59 640h81l60 -69h-81z" />
<glyph unicode="a" d="M297 -45q-2 -3 -12 -9t-22.5 -12.5t-24 -12t-15.5 -6.5l-61 432l-66 -35l44 -312h-109l-66 470l51 65h-90q3 6 8 17t10.5 22.5t11 21.5t9.5 14h240q1 0 9 -4t13 -6q2 -2 6.5 -5.5t4.5 -4.5l85 -605q0 -2 -9.5 -12.5t-16.5 -17.5zM137 530h-71l16 -117l66 35z" />
<glyph unicode="b" horiz-adv-x="354" d="M229 430l38 -30l53 -380q0 -1 -3 -4.5t-5 -5.5q-4 -2 -11 -6t-8 -4h-262l-63 450l48 85h-90q4 21 14.5 39.5t24.5 35.5h253q11 -4 15 -9.5t7 -11.5l19 -134zM98 309l32 -229h71l-39 275zM83 410l64 52l-9 68h-71z" />
<glyph unicode="c" d="M158 520h-90l62 -440h70l-16 109q4 5 17 11t29 11t32.5 8.5t27.5 3.5l31 -223h-270q-1 0 -5 4l-6 6q-3 4 -8 11t-5 9l-62 440l51 65h-90q4 21 14.5 39.5t24.5 35.5h270l26 -180l-13 1q-34 12 -59 30.5t-31 58.5z" />
<glyph unicode="d" horiz-adv-x="350" d="M-46 535h-30q3 6 8 17t10.5 22.5t11 21.5t9.5 14h240q1 0 9 -4t13 -6q2 -2 6.5 -5.5t4.5 -4.5l80 -570q0 -1 -3 -4.5t-5 -5.5q-4 -2 -11 -6t-8 -4h-260zM65 530l63 -450h70l-63 450h-70z" />
<glyph unicode="e" d="M98 309l32 -229h70l-16 109q4 5 17 11t29 11t32.5 8.5t27.5 3.5l31 -223h-290l-63 450l48 85h-90q4 21 14.5 39.5t24.5 35.5h293l-34 -80h-157l16 -120l116 62l14 -102z" />
<glyph unicode="f" horiz-adv-x="327" d="M98 309l53 -382q-13 1 -31 10t-35 20.5t-32 23.5t-22 19l-67 480l52 55h-90q4 21 14.5 39.5t24.5 35.5h269l-34 -80h-133l16 -120l92 62l14 -102z" />
<glyph unicode="g" d="M67 530l63 -450h70l-46 325q4 5 17 11t28.5 11t32 8.5t27.5 3.5l64 -454q0 -2 -9.5 -12.5t-16.5 -17.5q-2 -3 -12 -9t-22.5 -12.5t-24 -12t-15.5 -6.5l-12 85h-160q-1 0 -5 4l-6 6q-3 4 -8 11t-5 9l-62 440l51 65h-90q4 21 14.5 39.5t24.5 35.5h293l-34 -80h-157z" />
<glyph unicode="h" horiz-adv-x="354" d="M31 0l-86 610h110l21 -151l65 46l-15 105h111l86 -610h-111l-56 399l-63 -49l49 -350h-111z" />
<glyph unicode="i" horiz-adv-x="173" d="M-55 610h111l86 -610h-111z" />
<glyph unicode="j" horiz-adv-x="402" d="M247 530l71 -510q0 -1 -3 -4.5t-5 -5.5q-4 -2 -11 -6t-8 -4h-222q-23 4 -31 8t-10 12l-59 419q11 0 28 -3.5t34.5 -8.5t32 -11t20.5 -11l46 -325h70l-64 455h-158q4 21 14.5 39.5t24.5 35.5h293l-34 -80h-29z" />
<glyph unicode="k" horiz-adv-x="350" d="M83 410l60 52l-21 148h111l22 -155l-30 -25l38 -30l66 -473q-14 1 -31.5 10t-35 20.5t-32.5 23.5t-22 19l-49 350l-60 -53l42 -297h-110l-86 610h110z" />
<glyph unicode="l" d="M321 0h-290l-86 610h111l75 -530h69l-16 109q4 5 17 11t29 11t32.5 8.5t27.5 3.5z" />
<glyph unicode="m" horiz-adv-x="536" d="M324 0l-39 278l51 133l58 -411h111l-86 610h-109l-98 -222l-158 222h-109l86 -610h111l-58 411l90 -133l39 -278h111z" />
<glyph unicode="n" horiz-adv-x="354" d="M43 -85l-98 695h102l98 -136l-19 136h111l86 -610h-111l-39 278l-88 129l59 -422q1 -9 -12 -19.5t-30.5 -21t-34.5 -18.5t-24 -11z" />
<glyph unicode="o" d="M-35 470l51 65h-90q3 6 8 17t10.5 22.5t11 21.5t9.5 14h240q1 0 9 -4t13 -6q2 -2 6.5 -5.5t4.5 -4.5l80 -570q0 -1 -3 -4.5t-5 -5.5q-4 -2 -11 -6t-8 -4h-240q-1 0 -5 4l-6 6q-3 4 -8 11t-5 9zM67 530l63 -450h70l-63 450h-70z" />
<glyph unicode="p" horiz-adv-x="354" d="M240 589l25 -177l-164 -126l40 -286h-110l-63 450l48 85h-90q4 21 14.5 39.5t24.5 35.5h253q11 -4 15 -9.5t7 -11.5zM83 410l64 50l-9 70h-71z" />
<glyph unicode="q" d="M122 0h-71q-1 0 -5 4l-6 6q-3 4 -8 11t-5 9l-62 440l51 65h-90q3 6 8 17t10.5 22.5t11 21.5t9.5 14h240q1 0 9 -4t13 -6q2 -2 6.5 -5.5t4.5 -4.5l80 -570q0 -1 -3 -4.5t-5 -5.5q-4 -2 -11 -6t-8 -4h-59l2 -15q0 -2 -9.5 -12.5t-16.5 -17.5q-2 -3 -12 -9t-22.5 -12.5 t-24 -12t-15.5 -6.5zM67 530l63 -450h70l-63 450h-70z" />
<glyph unicode="r" horiz-adv-x="349" d="M224 430l38 -30l66 -473q-14 1 -31.5 10t-35 20.5t-32.5 23.5t-22 19l-50 358l-60 -51l43 -307h-110l-63 450l48 85h-90q4 21 14.5 39.5t24.5 35.5h249q11 -4 15 -9.5t7 -11.5l19 -134zM82 410l60 49l-9 71h-67z" />
<glyph unicode="s" horiz-adv-x="350" d="M-25 390l194 -90l31 -220h-70l-17 121q-6 5 -20.5 11t-32 11t-34.5 8.5t-28 3.5l29 -205q0 -2 5 -9t8 -11l6 -6t5 -4h240q1 0 8 4t11 6q2 2 5 5.5t3 4.5l-47 334l-194 91l-11 85h157l34 80h-293q-14 -17 -24.5 -35.5t-14.5 -39.5h90l-52 -55z" />
<glyph unicode="t" horiz-adv-x="334" d="M25 480l42 55h-133q4 21 14.5 39.5t24.5 35.5h269l-35 -75h-80l85 -608q-13 1 -31 10t-35 20.5t-32 23.5t-22 19z" />
<glyph unicode="u" d="M55 610l75 -530h70l-75 530h110l83 -590q0 -1 -3 -4.5t-5 -5.5q-4 -2 -11 -6t-8 -4h-240q-1 0 -5 4l-6 6q-3 4 -8 11t-5 9l-82 580h110z" />
<glyph unicode="v" horiz-adv-x="353" d="M125 610h111l86 -610h-107l-224 278l-47 333h111l39 -278l88 -126z" />
<glyph unicode="w" horiz-adv-x="536" d="M238 610l39 -278l89 -133l-58 411h111l86 -610h-109l-160 222l-96 -222h-109l-86 610h111l58 -411l52 133l-39 278h111z" />
<glyph unicode="x" horiz-adv-x="354" d="M147 462l-21 148h111l22 -155l-30 -25l38 -30l66 -473q-14 1 -31.5 10t-35 20.5t-32.5 23.5t-22 19l-50 358l-63 -49l43 -309h-111l-56 400l30 30l-38 25l-22 155h111l28 -200z" />
<glyph unicode="y" d="M55 610h-110l42 -297q0 -2 5 -9t8 -11l6 -6t5 -4l66 37l45 -320q7 -7 22 -19t32 -23.5t35 -20.5t31 -10l-64 455l55 34q1 0 8 4t10 6l5.5 5.5t3.5 4.5l-25 174h-110l21 -147l-64 -40z" />
<glyph unicode="z" horiz-adv-x="382" d="M339 75h-178l104 535h-270q-14 -17 -24.5 -35.5t-14.5 -39.5h183l-109 -535h270q15 17 25 35.5t14 39.5z" />
<glyph unicode="{" horiz-adv-x="305" d="M-12 309l-15 101l47 25l-25 176q0 2 2.5 9t4.5 11q2 2 5 6t4 4h143q1 0 9 -4l12 -6q3 -2 7.5 -5.5t4.5 -4.5l8 -60h-83l72 -510h83l8 -60q0 -1 -3 -4.5t-5 -5.5q-4 -2 -11 -6t-8 -4h-143q-1 0 -5 4l-6 6q-3 4 -8 11t-5 9l-47 332z" />
<glyph unicode="|" horiz-adv-x="173" d="M-75 751h111l128 -904h-111z" />
<glyph unicode="}" horiz-adv-x="303" d="M32 -9l-8 60h83l-72 510h-83l-8 60q0 1 3 4.5t5 5.5q4 2 11 6t8 4h143q1 0 5 -4l6 -6q3 -4 8 -11t5 -9l23 -163l45 24l14 -102l-45 -24l49 -345q0 -2 -2.5 -9t-4.5 -11q-2 -2 -5 -6t-4 -4h-143q-1 0 -9 4l-12 6q-3 2 -7.5 5.5t-4.5 4.5z" />
<glyph unicode="~" horiz-adv-x="258" d="M43 428l58 -46l-10 71l68 32l16 -113l-67 -34l-59 46l10 -71l-67 -33l-16 114z" />
<glyph horiz-adv-x="197" />
<glyph unicode="&#xa1;" horiz-adv-x="173" d="M141 0h-111l-59 421h111zM55 610l12 -80h-111l-12 80h111z" />
<glyph unicode="&#xa2;" d="M128 -56l-8 56h-69q-1 0 -5 4l-6 6q-3 4 -8 11t-5 9l-62 440l51 65h-90q4 21 14.5 39.5t24.5 35.5h68l-8 56h111l8 -56h91l26 -180l-13 1q-34 12 -59 30.5t-31 58.5h-90l62 -440h70l-16 109q4 5 17 11t29 11t32.5 8.5t27.5 3.5l31 -223h-90l8 -56h-111z" />
<glyph unicode="&#xa3;" horiz-adv-x="409" d="M-1 234l-14 101l52 28l-12 87l48 85h-90q4 21 14.5 39.5t24.5 35.5h177l-34 -80h-41l16 -120l116 62l14 -102l-115 -61l32 -229h70l-16 109q4 5 17 11t29 11t32.5 8.5t27.5 3.5l31 -223h-347l-11 80h57l-26 181z" />
<glyph unicode="&#xa4;" horiz-adv-x="388" d="M271 610h-111l10 -71h-104l-10 71h-111l22 -155l38 -25l-30 -30l56 -400h111l-19 132h104l19 -132q7 -7 22 -19t32.5 -23.5t35 -20.5t31.5 -10l-66 473l-38 30l30 25zM181 239h-38l-27 196h38z" />
<glyph unicode="&#xa5;" d="M33 135l-14 103l65 35l-7 47l-66 -37q-1 0 -5 4l-6 6q-3 4 -8 11t-5 9l-42 297h110l27 -187l64 40l-21 147h110l25 -174q0 -1 -3.5 -4.5l-5.5 -5.5q-3 -2 -10 -6t-8 -4l-55 -34l8 -54l63 34l14 -102l-63 -34l7 -47l63 34l14 -102l-63 -34l21 -150q-13 1 -31 10t-35 20.5 t-32 23.5t-22 19l-3 21l-65 -35l-15 103l66 35l-7 46z" />
<glyph unicode="&#xa6;" horiz-adv-x="173" d="M-55 610h111l35 -247h-111zM31 0l-36 254h111l36 -254h-111z" />
<glyph unicode="&#xa7;" horiz-adv-x="388" d="M5 430l-16 109h181l-10 71h111l22 -155l-30 -25l41 -298h-181l19 -132q-5 -7 -16.5 -19t-25.5 -23.5t-30 -20.5t-29 -10l-66 473zM139 239h38l-27 196h-38z" />
<glyph unicode="&#xa8;" horiz-adv-x="284" d="M-49 571l-10 69h97l10 -69h-97zM163 640l10 -69h-97l-10 69h97z" />
<glyph unicode="&#xa9;" horiz-adv-x="243" d="M32 641q7 0 43 -11q31 -16 39 -35q18 -26 21 -44q1 -17 -8 -45q-5 -11 -11 -18t-17 -15q-20 -8 -31 -10l-11 -2q-23 0 -47 12q-13 8 -20.5 15t-17.5 18q-15 19 -18 45q-7 50 34 79q41 11 44 11zM34 627q-43 0 -61 -38q-8 -20 -6 -36q3 -18 17 -38q5 -8 11.5 -15t19.5 -14 l6 -1q35 -6 35 -8h-1q18 0 36 9q14 10 22.5 29t6.5 36l-1 4q-2 13 -10 26t-19.5 23t-25.5 16.5t-27 6.5h-3zM75 537l14 -4q-3 -34 -37 -34q-49 0 -55 52q-8 51 40 51q34 0 44 -28l-13 -3q-11 18 -29 18q-32 0 -26 -38q4 -36 36 -36q23 0 26 22z" />
<glyph unicode="&#xaa;" horiz-adv-x="387" d="M139 0h-111l-86 610h107l257 -277l47 -333h-111l-25 177l-96 -51zM81 415l26 -188l95 51z" />
<glyph unicode="&#xab;" horiz-adv-x="236" d="M77 422l62 50l11 -81l-39 -30l47 -30l12 -81l-76 50zM-28 422l62 50l11 -81l-39 -30l47 -30l12 -81l-76 50z" />
<glyph unicode="&#xac;" horiz-adv-x="310" d="M-18 347l231 124l34 -243h-111l-12 83l-127 -67z" />
<glyph unicode="&#xad;" horiz-adv-x="186" d="M-12 309l-15 101l116 62l14 -102z" />
<glyph unicode="&#xae;" horiz-adv-x="243" d="M32 642q23 0 43 -12q29 -14 39 -34q18 -24 20 -44q3 -19 -7 -45q-5 -20 -29 -33q-17 -9 -29 -10.5l-12 -1.5q-26 0 -48 12q-10 7 -17.5 14.5t-17.5 16.5l-2 2q-15 21 -19 45q-2 14 0 22.5t6 19.5v2q8 20 29 34q19 12 44 12zM34 628q-43 0 -61 -38q-5 -10 -5.5 -19 t0.5 -19l3.5 -10t12.5 -27q9 -13 31 -28l6 -2l34 -7q9 0 18 2t18 7q7 7 12.5 13.5t10.5 14.5q4 14 4.5 25.5l0.5 11.5v4q-2 13 -10 26t-19.5 23t-25.5 16.5t-27 6.5h-3zM12 502l-13 97h32q21 0 25 -4l7 -3.5t5 -3.5q8 -8 8 -15q4 -25 -25 -27q10 -4 13.5 -9t13.5 -16l14 -19 h-20l-9 16q-17 20 -20 21q-4 4 -12 4h-9l5 -41h-15zM20 556h18q14 0 18 4t4 12q-3 8 -11 13q-1 1 -16 1h-17z" />
<glyph unicode="&#xaf;" horiz-adv-x="357" d="M229 535h-297q4 21 14.5 39.5t24.5 35.5h293z" />
<glyph unicode="&#xb0;" horiz-adv-x="159" d="M-59 640l10 -69h97l-10 69h-97zM-21 596l-2 18h32l2 -18h-32z" />
<glyph unicode="&#xb1;" horiz-adv-x="310" d="M23 560h111l11 -77l61 35l15 -104l-61 -39l19 -133h-111l-12 83l-66 -36l-14 103l65 41zM17 103l230 126l14 -104l-230 -125z" />
<glyph unicode="&#xb2;" horiz-adv-x="222" d="M-32 450l77 44l-14 97h-21l8 -55q-2 -3 -9 -6.5t-16 -6.5t-18.5 -5t-16.5 -2l-14 106l4 12l4 7h115q2 0 10 -5h2l10 -8l23 -166l-78 -45l5 -31h70l35 -50h-160z" />
<glyph unicode="&#xb3;" horiz-adv-x="225" d="M104 547l12 9l-10 68q-3 5 -5 7.5t-11 8.5h-119q-17 -20 -23 -49h100l3 -25l-77 -43l9 -62l78 39l16 -115h-83l7 -50h128v1q-1 3 7 8.5t9 5.5l-26 185z" />
<glyph unicode="&#xb4;" horiz-adv-x="193" d="M71 640h-81l-40 -69h81z" />
<glyph unicode="&#xb5;" horiz-adv-x="1081" d="M1010 285l-8 12l-120 54l67 19h9l-11 13l-166 33l50 39h-189l8 45l-181 -25l-10 39l-16 5l-119 -58l-61 39l-65 -75q-3 -4 -17 -4q-27 0 -73 27l-1 -92l-90 8l8 -28l57 -58l-89 -5l128 -58l-75 -33l176 -36l-51 -36l196 -7l-15 -44l172 29l25 -25l-4 -25l133 65l69 -40 l60 79l94 -27l-6 92l95 -14l2 7q-3 19 -71 78zM866 332l-1 -85l-21 2l-8 88zM872 211l-16 -18l-17 14l13 12zM818 218q-30 0 -82 57l8 -56l-21 -2l-17 115l81 -76l-7 81l22 -5zM701 219l-16 3q-18 27 -35 27q-14 0 -26 -27h-27q1 28 9.5 56.5t26.5 57.5q0 4 16 4 q22 0 40 -37zM569 337l9 -113l-29 -7l-4 115zM525 213q-29 0 -83 56l8 -54l-22 -4l-16 116l83 -73l-6 78l20 -5zM403 294q0 -81 -36 -81q-7 -1 -11.5 -1.5t-9.5 -0.5q-32 0 -45 18q-10 74 31 103h15q41 0 56 -38zM277 335l2 -28q-5 2 -6.5 2.5l-1.5 0.5q0 1 -7 1 q-13 0 -30 -17q-15 -21 -12 -47q3 -23 30 -23q17 0 23 3l4 -19q-11 -2 -14.5 -4t-9.5 -2q-37 0 -56 52l-0.5 1.5t-2.5 5.5l-1 8q-8 54 82 66zM173 332l8 -112l-25 -9l-3 118zM670 275l-21 38l-18 -38h39zM380 277l-1 5l-0.5 2t-1.5 7q-12 14 -26 14q-21 0 -30 -36l1 -8 q4 -28 23 -28q16 0 32 10q5 12 5 16t-0.5 8.5t-1.5 9.5z" />
<glyph unicode="&#xb6;" horiz-adv-x="1126" d="M1054 294l-2 -1l-10 -28h-62l47 -50l4 -9l1 -5q3 -19 -17 -28l-72 15l2 -78q-3 -14 -24 -14q-17 0 -31.5 5.5t-37.5 16.5l-8 2l-58 -70l-34 -6l-50 38l-125 -64l-23 8l-5 37l-172 -25l-23 12l3 32l-184 15l-3 23l18 22l-117 20q-21 0 -24 26l39 32l-83 34l-12 31l76 12 l-46 48l-2 38l83 -8q-12 92 21 92h4l81 -24q23 34 38.5 51t35.5 25l69 -37l120 59l28 -22v-19l4 -7l138 26l51 -5l-1 -39h166l17 -14q5 -35 -22 -36l147 -36l1 -8q5 -30 -46 -36q97 -33 100 -51zM1032 285l-8 12l-120 54l67 19h9l-11 13l-166 33l50 39h-189l8 45l-181 -25 l-10 39l-16 5l-119 -58l-61 39l-65 -75q-3 -4 -17 -4q-27 0 -73 27l-1 -92l-90 8l8 -28l57 -58l-89 -5l128 -58l-75 -33l176 -36l-51 -36l196 -7l-15 -44l172 29l25 -25l-4 -25l133 65l69 -40l60 79l94 -27l-6 92l95 -14l2 7q-3 19 -71 78zM888 332l-1 -85l-21 2l-8 88z M894 211l-16 -18l-17 14l13 12zM840 218q-30 0 -82 57l8 -56l-21 -2l-17 115l81 -76l-7 81l22 -5zM723 219l-16 3q-18 27 -35 27q-14 0 -26 -27h-27q1 28 9.5 56.5t26.5 57.5q0 4 16 4q22 0 40 -37zM591 337l9 -113l-29 -7l-4 115zM547 213q-29 0 -83 56l8 -54l-22 -4 l-16 116l83 -73l-6 78l20 -5zM425 294q0 -81 -36 -81q-7 -1 -11.5 -1.5t-9.5 -0.5q-32 0 -45 18q-10 74 31 103h15q41 0 56 -38zM299 335l2 -28q-5 2 -6.5 2.5l-1.5 0.5q0 1 -7 1q-13 0 -30 -17q-15 -21 -12 -47q3 -23 30 -23q17 0 23 3l4 -19q-11 -2 -14.5 -4t-9.5 -2 q-37 0 -56 52l-0.5 1.5t-2.5 5.5l-1 8q-8 54 82 66zM195 332l8 -112l-25 -9l-3 118zM692 275l-21 38l-18 -38h39zM402 277l-1 5l-0.5 2t-1.5 7q-12 14 -26 14q-21 0 -30 -36l1 -8q4 -28 23 -28q16 0 32 10q5 12 5 16t-0.5 8.5t-1.5 9.5z" />
<glyph unicode="&#xb7;" horiz-adv-x="173" d="M-24 392l-11 80h111l11 -80h-111z" />
<glyph unicode="&#xb8;" horiz-adv-x="177" d="M35 0h111l11 -77l-170 -86l-15 103l66 41z" />
<glyph unicode="&#xb9;" horiz-adv-x="130" d="M-59 640h68l43 -304h-68z" />
<glyph unicode="&#xba;" horiz-adv-x="207" d="M-12 340l6 -5h120q4 0 9 5q5 2 5 5l-41 285l-5 5l-6 3t-5 2h-120l-1 -2t-3 -3l-4 -10l39 -275q0 -2 2.5 -5t3.5 -5zM51 427h-14l-17 123h14z" />
<glyph unicode="&#xbb;" horiz-adv-x="236" d="M41 422l-76 50l11 -81l47 -30l-39 -30l12 -81l62 50zM146 422l-76 50l11 -81l47 -30l-39 -30l12 -81l62 50z" />
<glyph unicode="&#xbc;" horiz-adv-x="419" d="M388 0q-2 -4 -8 -10.5t-14.5 -12.5t-17.5 -11t-17 -6l-32 226l-94 -46l-13 96l-50 -236h-111l64 307h-51l-43 304h68l36 -257l54 256h111l-65 -307h39l10 -71l36 17l-8 54h63z" />
<glyph unicode="&#xbd;" horiz-adv-x="416" d="M209 114l77 44l-14 97h-21l8 -55q-2 -3 -9 -6.5t-16 -6.5t-18.5 -5t-15.5 -2l-8 56l-50 -236h-111l64 307h-51l-43 304h68l36 -257l54 256h111l-64 -305h102q2 0 10 -5h2l10 -8l23 -166l-77 -45l4 -31h70l35 -50h-160z" />
<glyph unicode="&#xbe;" horiz-adv-x="448" d="M108 518l15 -12l17 -125l48 229h111l-65 -307h39l10 -71l36 17l-8 54h63l43 -303q-2 -4 -8 -10.5t-14.5 -12.5t-17.5 -11t-17 -6l-32 226l-94 -46l-13 96l-50 -236h-111l64 306h-119l-7 50h83l-16 115l-78 -39l-8 62l77 43l-4 25h-100q6 29 23 49h119q9 -6 11 -8.5 t5 -7.5l10 -68z" />
<glyph unicode="&#xbf;" horiz-adv-x="355" d="M267 390l-168 -90l31 -220h70l-17 121q4 5 17 11t28.5 11t32 8.5t27.5 3.5l29 -205q0 -2 -2.5 -9t-4.5 -11q-2 -2 -5 -6t-4 -4h-240q-1 0 -9 4l-12 6q-3 2 -7.5 5.5t-4.5 4.5l-47 334l168 91h110zM237 610l12 -80h-111l-12 80h111z" />
<glyph unicode="&#xc0;" d="M297 -45q-2 -3 -12 -9t-22.5 -12.5t-24 -12t-15.5 -6.5l-61 432l-66 -35l44 -312h-109l-66 470l51 65h-90q3 6 8 17t10.5 22.5t11 21.5t9.5 14h240q1 0 9 -4t13 -6q2 -2 6.5 -5.5t4.5 -4.5l85 -605q0 -2 -9.5 -12.5t-16.5 -17.5zM137 530h-71l16 -117l66 35zM9 717h81 l60 -69h-81z" />
<glyph unicode="&#xc1;" d="M297 -45q-2 -3 -12 -9t-22.5 -12.5t-24 -12t-15.5 -6.5l-61 432l-66 -35l44 -312h-109l-66 470l51 65h-90q3 6 8 17t10.5 22.5t11 21.5t9.5 14h240q1 0 9 -4t13 -6q2 -2 6.5 -5.5t4.5 -4.5l85 -605q0 -2 -9.5 -12.5t-16.5 -17.5zM137 530h-71l16 -117l66 35zM61 717h81 l-40 -69h-81z" />
<glyph unicode="&#xc2;" d="M297 -45q-2 -3 -12 -9t-22.5 -12.5t-24 -12t-15.5 -6.5l-61 432l-66 -35l44 -312h-109l-66 470l51 65h-90q3 6 8 17t10.5 22.5t11 21.5t9.5 14h240q1 0 9 -4t13 -6q2 -2 6.5 -5.5t4.5 -4.5l85 -605q0 -2 -9.5 -12.5t-16.5 -17.5zM137 530h-71l16 -117l66 35zM136 717 l60 -69h-81l-36 43l-24 -43h-81l40 69h122z" />
<glyph unicode="&#xc3;" d="M297 -45q-2 -3 -12 -9t-22.5 -12.5t-24 -12t-15.5 -6.5l-61 432l-66 -35l44 -312h-109l-66 470l51 65h-90q3 6 8 17t10.5 22.5t11 21.5t9.5 14h240q1 0 9 -4t13 -6q2 -2 6.5 -5.5t4.5 -4.5l85 -605q0 -2 -9.5 -12.5t-16.5 -17.5zM137 530h-71l16 -117l66 35zM72 717 l36 -43l24 43h81l-40 -69h-82l-36 43l-24 -43h-81l40 69h82z" />
<glyph unicode="&#xc4;" d="M297 -45q-2 -3 -12 -9t-22.5 -12.5t-24 -12t-15.5 -6.5l-61 432l-66 -35l44 -312h-109l-66 470l51 65h-90q3 6 8 17t10.5 22.5t11 21.5t9.5 14h240q1 0 9 -4t13 -6q2 -2 6.5 -5.5t4.5 -4.5l85 -605q0 -2 -9.5 -12.5t-16.5 -17.5zM137 530h-71l16 -117l66 35zM-26 648 l-10 69h97l10 -69h-97zM186 717l10 -69h-97l-10 69h97z" />
<glyph unicode="&#xc5;" d="M27 717l10 -69h97l-10 69h-97zM66 530h71l11 -82l-66 -35zM297 -45q7 7 16.5 17.5t9.5 12.5l-85 605q0 1 -4.5 4.5t-6.5 5.5q-5 2 -13 6t-9 4h-240q-4 -4 -9.5 -14t-11 -21.5t-10.5 -22.5t-8 -17h90l-51 -65l66 -470h109l-44 312l66 35l61 -432q4 1 15.5 6.5t24 12 t22.5 12.5t12 9zM65 673l-2 18h32l2 -18h-32z" />
<glyph unicode="&#xc6;" horiz-adv-x="531" d="M296 -45q-2 -3 -12 -9t-22.5 -12.5t-24 -12t-15.5 -6.5l-61 432l-66 -35l44 -312h-109l-66 470l51 65h-90q3 6 8 17t10.5 22.5t11 21.5t9.5 14h473l-34 -80h-157l16 -120l116 62l14 -102l-115 -61l32 -229h70l-16 109q4 5 17 11t29 11t32.5 8.5t27.5 3.5l31 -223h-180 l2 -15q0 -2 -9.5 -12.5t-16.5 -17.5zM136 530h-71l16 -117l66 35z" />
<glyph unicode="&#xc7;" horiz-adv-x="207" d="M-12 340l6 -5h120q4 0 9 5q5 2 5 5l-41 285l-5 5l-6 3t-5 2h-120l-1 -2t-3 -3l-4 -10l39 -275q0 -2 2.5 -5t3.5 -5zM51 427h-14l-17 123h14z" />
<glyph unicode="&#xc8;" d="M98 309l32 -229h70l-16 109q4 5 17 11t29 11t32.5 8.5t27.5 3.5l31 -223h-290l-63 450l48 85h-90q4 21 14.5 39.5t24.5 35.5h293l-34 -80h-157l16 -120l116 62l14 -102zM9 717h81l60 -69h-81z" />
<glyph unicode="&#xc9;" d="M98 309l32 -229h70l-16 109q4 5 17 11t29 11t32.5 8.5t27.5 3.5l31 -223h-290l-63 450l48 85h-90q4 21 14.5 39.5t24.5 35.5h293l-34 -80h-157l16 -120l116 62l14 -102zM61 717h81l-40 -69h-81z" />
<glyph unicode="&#xca;" d="M98 309l32 -229h70l-16 109q4 5 17 11t29 11t32.5 8.5t27.5 3.5l31 -223h-290l-63 450l48 85h-90q4 21 14.5 39.5t24.5 35.5h293l-34 -80h-157l16 -120l116 62l14 -102zM136 717l60 -69h-81l-36 43l-24 -43h-81l40 69h122z" />
<glyph unicode="&#xcb;" d="M98 309l32 -229h70l-16 109q4 5 17 11t29 11t32.5 8.5t27.5 3.5l31 -223h-290l-63 450l48 85h-90q4 21 14.5 39.5t24.5 35.5h293l-34 -80h-157l16 -120l116 62l14 -102zM-26 648l-10 69h97l10 -69h-97zM186 717l10 -69h-97l-10 69h97z" />
<glyph unicode="&#xcc;" horiz-adv-x="303" d="M186 75h99q-4 -21 -14 -39.5t-25 -35.5h-253l35 75h48l-56 405l42 55h-143q4 21 14.5 39.5t24.5 35.5h253l-35 -75h-54zM-15 717h81l60 -69h-81z" />
<glyph unicode="&#xcd;" horiz-adv-x="303" d="M186 75h99q-4 -21 -14 -39.5t-25 -35.5h-253l35 75h48l-56 405l42 55h-143q4 21 14.5 39.5t24.5 35.5h253l-35 -75h-54zM37 717h81l-40 -69h-81z" />
<glyph unicode="&#xce;" horiz-adv-x="303" d="M186 75h99q-4 -21 -14 -39.5t-25 -35.5h-253l35 75h48l-56 405l42 55h-143q4 21 14.5 39.5t24.5 35.5h253l-35 -75h-54zM111 718l60 -69h-81l-36 43l-24 -43h-81l40 69h122z" />
<glyph unicode="&#xcf;" horiz-adv-x="303" d="M-51 648l-10 69h97l10 -69h-97zM161 717l10 -69h-97l-10 69h97zM186 75h99q-4 -21 -14 -39.5t-25 -35.5h-253l35 75h48l-56 405l42 55h-143q4 21 14.5 39.5t24.5 35.5h253l-35 -75h-54z" />
<glyph unicode="&#xd0;" horiz-adv-x="420" d="M-12 309l-15 101l64 34l-13 91h-30q3 6 8 17t10.5 22.5t11 21.5t9.5 14h240q1 0 9 -4t13 -6q2 -2 6.5 -5.5t4.5 -4.5l80 -570q0 -1 -3 -4.5t-5 -5.5q-4 -2 -11 -6t-8 -4h-260l-48 342zM135 530l63 -450h70l-63 450h-70z" />
<glyph unicode="&#xd1;" horiz-adv-x="387" d="M43 -85l-98 695h102l133 -144l-21 144h111l86 -610h-111l-39 278l-122 137l60 -430q1 -9 -12 -19.5t-30.5 -21t-34.5 -18.5t-24 -11zM87 717l36 -43l24 43h81l-40 -69h-82l-36 43l-24 -43h-81l40 69h82z" />
<glyph unicode="&#xd2;" d="M-35 470l51 65h-90q3 6 8 17t10.5 22.5t11 21.5t9.5 14h240q1 0 9 -4t13 -6q2 -2 6.5 -5.5t4.5 -4.5l80 -570q0 -1 -3 -4.5t-5 -5.5q-4 -2 -11 -6t-8 -4h-240q-1 0 -5 4l-6 6q-3 4 -8 11t-5 9zM67 530l63 -450h70l-63 450h-70zM9 717h81l60 -69h-81z" />
<glyph unicode="&#xd3;" d="M-35 470l51 65h-90q3 6 8 17t10.5 22.5t11 21.5t9.5 14h240q1 0 9 -4t13 -6q2 -2 6.5 -5.5t4.5 -4.5l80 -570q0 -1 -3 -4.5t-5 -5.5q-4 -2 -11 -6t-8 -4h-240q-1 0 -5 4l-6 6q-3 4 -8 11t-5 9zM67 530l63 -450h70l-63 450h-70zM61 717h81l-40 -69h-81z" />
<glyph unicode="&#xd4;" d="M-35 470l51 65h-90q3 6 8 17t10.5 22.5t11 21.5t9.5 14h240q1 0 9 -4t13 -6q2 -2 6.5 -5.5t4.5 -4.5l80 -570q0 -1 -3 -4.5t-5 -5.5q-4 -2 -11 -6t-8 -4h-240q-1 0 -5 4l-6 6q-3 4 -8 11t-5 9zM67 530l63 -450h70l-63 450h-70zM136 717l60 -69h-81l-36 43l-24 -43h-81 l40 69h122z" />
<glyph unicode="&#xd5;" d="M-35 470l51 65h-90q3 6 8 17t10.5 22.5t11 21.5t9.5 14h240q1 0 9 -4t13 -6q2 -2 6.5 -5.5t4.5 -4.5l80 -570q0 -1 -3 -4.5t-5 -5.5q-4 -2 -11 -6t-8 -4h-240q-1 0 -5 4l-6 6q-3 4 -8 11t-5 9zM67 530l63 -450h70l-63 450h-70zM72 717l36 -43l24 43h81l-40 -69h-82 l-36 43l-24 -43h-81l40 69h82z" />
<glyph unicode="&#xd6;" d="M-35 470l51 65h-90q3 6 8 17t10.5 22.5t11 21.5t9.5 14h240q1 0 9 -4t13 -6q2 -2 6.5 -5.5t4.5 -4.5l80 -570q0 -1 -3 -4.5t-5 -5.5q-4 -2 -11 -6t-8 -4h-240q-1 0 -5 4l-6 6q-3 4 -8 11t-5 9zM67 530l63 -450h70l-63 450h-70zM-26 648l-10 69h97l10 -69h-97zM186 717 l10 -69h-97l-10 69h97z" />
<glyph unicode="&#xd7;" horiz-adv-x="387" d="M31 0l63 303l-150 307h111l73 -148l31 148h111l-65 -307l150 -303h-111l-71 145l-31 -145h-111z" />
<glyph unicode="&#xd8;" d="M40 10q-3 4 -8 11t-5 9l-78 550q0 2 3 9t5 11q2 2 4.5 6t3.5 4h240q1 0 9 -4t13 -6q2 -2 6.5 -5.5t4.5 -4.5l80 -570q0 -1 -3 -4.5t-5 -5.5q-4 -2 -11 -6t-8 -4h-240q-1 0 -5 4zM137 80h63l-25 178zM67 530l25 -181l36 181h-61z" />
<glyph unicode="&#xd9;" d="M55 610l75 -530h70l-75 530h110l83 -590q0 -1 -3 -4.5t-5 -5.5q-4 -2 -11 -6t-8 -4h-240q-1 0 -5 4l-6 6q-3 4 -8 11t-5 9l-82 580h110zM9 717h81l60 -69h-81z" />
<glyph unicode="&#xda;" d="M55 610l75 -530h70l-75 530h110l83 -590q0 -1 -3 -4.5t-5 -5.5q-4 -2 -11 -6t-8 -4h-240q-1 0 -5 4l-6 6q-3 4 -8 11t-5 9l-82 580h110zM61 717h81l-40 -69h-81z" />
<glyph unicode="&#xdb;" d="M55 610l75 -530h70l-75 530h110l83 -590q0 -1 -3 -4.5t-5 -5.5q-4 -2 -11 -6t-8 -4h-240q-1 0 -5 4l-6 6q-3 4 -8 11t-5 9l-82 580h110zM136 717l60 -69h-81l-36 43l-24 -43h-81l40 69h122z" />
<glyph unicode="&#xdc;" d="M55 610l75 -530h70l-75 530h110l83 -590q0 -1 -3 -4.5t-5 -5.5q-4 -2 -11 -6t-8 -4h-240q-1 0 -5 4l-6 6q-3 4 -8 11t-5 9l-82 580h110zM-26 648l-10 69h97l10 -69h-97zM186 717l10 -69h-97l-10 69h97z" />
<glyph unicode="&#xdd;" d="M-55 610h110l27 -187l64 40l-21 147h110l25 -174q0 -1 -3.5 -4.5l-5.5 -5.5q-3 -2 -10 -6t-8 -4l-55 -34l64 -455q-13 1 -31 10t-35 20.5t-32 23.5t-22 19l-45 320l-66 -37q-1 0 -5 4l-6 6q-3 4 -8 11t-5 9zM61 717h81l-40 -69h-81z" />
<glyph unicode="&#xde;" horiz-adv-x="387" d="M-55 610h111l14 -98h195q11 -4 15 -9.5t7 -11.5l24 -173l-200 -107l30 -211h-110l-49 352l48 85h-90q3 27 22 53zM97 312l97 52l-10 68h-104z" />
<glyph unicode="&#xdf;" horiz-adv-x="381" d="M53 -153l-97 685q4 21 14.5 41t24.5 37h250q11 -4 15 -9.5t7 -11.5l19 -134l-30 -25l38 -30l53 -380q0 -1 -3 -4.5t-5 -5.5q-4 -2 -11 -6t-8 -4h-134l-11 80h53l-38 270l-49 -27l-15 103l48 36l-10 70h-95l97 -685h-113z" />
<glyph unicode="&#xe0;" d="M297 -45q-2 -3 -12 -9t-22.5 -12.5t-24 -12t-15.5 -6.5l-61 432l-66 -35l44 -312h-109l-66 470l51 65h-90q3 6 8 17t10.5 22.5t11 21.5t9.5 14h240q1 0 9 -4t13 -6q2 -2 6.5 -5.5t4.5 -4.5l85 -605q0 -2 -9.5 -12.5t-16.5 -17.5zM137 530h-71l16 -117l66 35zM9 717h81 l60 -69h-81z" />
<glyph unicode="&#xe1;" d="M297 -45q-2 -3 -12 -9t-22.5 -12.5t-24 -12t-15.5 -6.5l-61 432l-66 -35l44 -312h-109l-66 470l51 65h-90q3 6 8 17t10.5 22.5t11 21.5t9.5 14h240q1 0 9 -4t13 -6q2 -2 6.5 -5.5t4.5 -4.5l85 -605q0 -2 -9.5 -12.5t-16.5 -17.5zM137 530h-71l16 -117l66 35zM61 717h81 l-40 -69h-81z" />
<glyph unicode="&#xe2;" d="M297 -45q-2 -3 -12 -9t-22.5 -12.5t-24 -12t-15.5 -6.5l-61 432l-66 -35l44 -312h-109l-66 470l51 65h-90q3 6 8 17t10.5 22.5t11 21.5t9.5 14h240q1 0 9 -4t13 -6q2 -2 6.5 -5.5t4.5 -4.5l85 -605q0 -2 -9.5 -12.5t-16.5 -17.5zM137 530h-71l16 -117l66 35zM136 717 l60 -69h-81l-36 43l-24 -43h-81l40 69h122z" />
<glyph unicode="&#xe3;" d="M297 -45q-2 -3 -12 -9t-22.5 -12.5t-24 -12t-15.5 -6.5l-61 432l-66 -35l44 -312h-109l-66 470l51 65h-90q3 6 8 17t10.5 22.5t11 21.5t9.5 14h240q1 0 9 -4t13 -6q2 -2 6.5 -5.5t4.5 -4.5l85 -605q0 -2 -9.5 -12.5t-16.5 -17.5zM137 530h-71l16 -117l66 35zM72 717 l36 -43l24 43h81l-40 -69h-82l-36 43l-24 -43h-81l40 69h82z" />
<glyph unicode="&#xe4;" d="M297 -45q-2 -3 -12 -9t-22.5 -12.5t-24 -12t-15.5 -6.5l-61 432l-66 -35l44 -312h-109l-66 470l51 65h-90q3 6 8 17t10.5 22.5t11 21.5t9.5 14h240q1 0 9 -4t13 -6q2 -2 6.5 -5.5t4.5 -4.5l85 -605q0 -2 -9.5 -12.5t-16.5 -17.5zM137 530h-71l16 -117l66 35zM-26 648 l-10 69h97l10 -69h-97zM186 717l10 -69h-97l-10 69h97z" />
<glyph unicode="&#xe5;" d="M27 717l10 -69h97l-10 69h-97zM66 530h71l11 -82l-66 -35zM297 -45q7 7 16.5 17.5t9.5 12.5l-85 605q0 1 -4.5 4.5t-6.5 5.5q-5 2 -13 6t-9 4h-240q-4 -4 -9.5 -14t-11 -21.5t-10.5 -22.5t-8 -17h90l-51 -65l66 -470h109l-44 312l66 35l61 -432q4 1 15.5 6.5t24 12 t22.5 12.5t12 9zM65 673l-2 18h32l2 -18h-32z" />
<glyph unicode="&#xe6;" horiz-adv-x="531" d="M296 -45q-2 -3 -12 -9t-22.5 -12.5t-24 -12t-15.5 -6.5l-61 432l-66 -35l44 -312h-109l-66 470l51 65h-90q3 6 8 17t10.5 22.5t11 21.5t9.5 14h473l-34 -80h-157l16 -120l116 62l14 -102l-115 -61l32 -229h70l-16 109q4 5 17 11t29 11t32.5 8.5t27.5 3.5l31 -223h-180 l2 -15q0 -2 -9.5 -12.5t-16.5 -17.5zM136 530h-71l16 -117l66 35z" />
<glyph unicode="&#xe7;" d="M158 520h-90l62 -440h70l-16 109q4 5 17 11t29 11t32.5 8.5t27.5 3.5l31 -223h-55l11 -77l-170 -86l-15 103l66 41l-3 19h-104q-1 0 -5 4l-6 6q-3 4 -8 11t-5 9l-62 440l51 65h-90q4 21 14.5 39.5t24.5 35.5h270l26 -180l-13 1q-34 12 -59 30.5t-31 58.5z" />
<glyph unicode="&#xe8;" d="M98 309l32 -229h70l-16 109q4 5 17 11t29 11t32.5 8.5t27.5 3.5l31 -223h-290l-63 450l48 85h-90q4 21 14.5 39.5t24.5 35.5h293l-34 -80h-157l16 -120l116 62l14 -102zM9 717h81l60 -69h-81z" />
<glyph unicode="&#xe9;" d="M98 309l32 -229h70l-16 109q4 5 17 11t29 11t32.5 8.5t27.5 3.5l31 -223h-290l-63 450l48 85h-90q4 21 14.5 39.5t24.5 35.5h293l-34 -80h-157l16 -120l116 62l14 -102zM61 717h81l-40 -69h-81z" />
<glyph unicode="&#xea;" d="M98 309l32 -229h70l-16 109q4 5 17 11t29 11t32.5 8.5t27.5 3.5l31 -223h-290l-63 450l48 85h-90q4 21 14.5 39.5t24.5 35.5h293l-34 -80h-157l16 -120l116 62l14 -102zM136 717l60 -69h-81l-36 43l-24 -43h-81l40 69h122z" />
<glyph unicode="&#xeb;" d="M98 309l32 -229h70l-16 109q4 5 17 11t29 11t32.5 8.5t27.5 3.5l31 -223h-290l-63 450l48 85h-90q4 21 14.5 39.5t24.5 35.5h293l-34 -80h-157l16 -120l116 62l14 -102zM-26 648l-10 69h97l10 -69h-97zM186 717l10 -69h-97l-10 69h97z" />
<glyph unicode="&#xec;" horiz-adv-x="173" d="M-55 610h111l86 -610h-111zM-81 717h81l60 -69h-81z" />
<glyph unicode="&#xed;" horiz-adv-x="173" d="M-55 610h111l86 -610h-111zM-31 717h81l-40 -69h-81z" />
<glyph unicode="&#xee;" horiz-adv-x="173" d="M-55 610h111l86 -610h-111zM46 718l60 -69h-81l-36 43l-24 -43h-81l40 69h122z" />
<glyph unicode="&#xef;" horiz-adv-x="173" d="M-55 610h111l86 -610h-111zM-116 648l-10 69h97l10 -69h-97zM96 717l10 -69h-97l-10 69h97z" />
<glyph unicode="&#xf0;" horiz-adv-x="336" d="M129 530h-157l-58 80h293q20 -17 35.5 -35.5t25.5 -39.5h-90l69 -65l62 -440q0 -2 -2.5 -9t-4.5 -11q-2 -2 -5 -6t-4 -4h-249q-10 5 -15 12.5t-10 16.5l-62 443l193 -96zM166 263l-76 42l32 -225h70z" />
<glyph unicode="&#xf1;" horiz-adv-x="387" d="M43 -85l-98 695h102l133 -144l-21 144h111l86 -610h-111l-39 278l-122 137l60 -430q1 -9 -12 -19.5t-30.5 -21t-34.5 -18.5t-24 -11zM87 717l36 -43l24 43h81l-40 -69h-82l-36 43l-24 -43h-81l40 69h82z" />
<glyph unicode="&#xf2;" d="M-35 470l51 65h-90q3 6 8 17t10.5 22.5t11 21.5t9.5 14h240q1 0 9 -4t13 -6q2 -2 6.5 -5.5t4.5 -4.5l80 -570q0 -1 -3 -4.5t-5 -5.5q-4 -2 -11 -6t-8 -4h-240q-1 0 -5 4l-6 6q-3 4 -8 11t-5 9zM67 530l63 -450h70l-63 450h-70zM9 717h81l60 -69h-81z" />
<glyph unicode="&#xf3;" d="M-35 470l51 65h-90q3 6 8 17t10.5 22.5t11 21.5t9.5 14h240q1 0 9 -4t13 -6q2 -2 6.5 -5.5t4.5 -4.5l80 -570q0 -1 -3 -4.5t-5 -5.5q-4 -2 -11 -6t-8 -4h-240q-1 0 -5 4l-6 6q-3 4 -8 11t-5 9zM67 530l63 -450h70l-63 450h-70zM61 717h81l-40 -69h-81z" />
<glyph unicode="&#xf4;" d="M-35 470l51 65h-90q3 6 8 17t10.5 22.5t11 21.5t9.5 14h240q1 0 9 -4t13 -6q2 -2 6.5 -5.5t4.5 -4.5l80 -570q0 -1 -3 -4.5t-5 -5.5q-4 -2 -11 -6t-8 -4h-240q-1 0 -5 4l-6 6q-3 4 -8 11t-5 9zM67 530l63 -450h70l-63 450h-70zM136 717l60 -69h-81l-36 43l-24 -43h-81 l40 69h122z" />
<glyph unicode="&#xf5;" d="M-35 470l51 65h-90q3 6 8 17t10.5 22.5t11 21.5t9.5 14h240q1 0 9 -4t13 -6q2 -2 6.5 -5.5t4.5 -4.5l80 -570q0 -1 -3 -4.5t-5 -5.5q-4 -2 -11 -6t-8 -4h-240q-1 0 -5 4l-6 6q-3 4 -8 11t-5 9zM67 530l63 -450h70l-63 450h-70zM72 717l36 -43l24 43h81l-40 -69h-82 l-36 43l-24 -43h-81l40 69h82z" />
<glyph unicode="&#xf6;" d="M-35 470l51 65h-90q3 6 8 17t10.5 22.5t11 21.5t9.5 14h240q1 0 9 -4t13 -6q2 -2 6.5 -5.5t4.5 -4.5l80 -570q0 -1 -3 -4.5t-5 -5.5q-4 -2 -11 -6t-8 -4h-240q-1 0 -5 4l-6 6q-3 4 -8 11t-5 9zM67 530l63 -450h70l-63 450h-70zM-26 648l-10 69h97l10 -69h-97zM186 717 l10 -69h-97l-10 69h97z" />
<glyph unicode="&#xf7;" horiz-adv-x="310" d="M-3 244l-15 103l231 124l14 -102zM73 172l-11 80h111l11 -80h-111zM31 461l-11 80h111l11 -80h-111z" />
<glyph unicode="&#xf8;" d="M-35 470l51 65h-90q3 6 8 17t10.5 22.5t11 21.5t9.5 14h240q1 0 9 -4t13 -6q2 -2 6.5 -5.5t4.5 -4.5l80 -570q0 -1 -3 -4.5t-5 -5.5q-4 -2 -11 -6t-8 -4h-240q-1 0 -5 4l-6 6q-3 4 -8 11t-5 9zM137 80h63l-25 178zM67 530l25 -181l36 181h-61z" />
<glyph unicode="&#xf9;" d="M55 610l75 -530h70l-75 530h110l83 -590q0 -1 -3 -4.5t-5 -5.5q-4 -2 -11 -6t-8 -4h-240q-1 0 -5 4l-6 6q-3 4 -8 11t-5 9l-82 580h110zM9 717h81l60 -69h-81z" />
<glyph unicode="&#xfa;" d="M55 610l75 -530h70l-75 530h110l83 -590q0 -1 -3 -4.5t-5 -5.5q-4 -2 -11 -6t-8 -4h-240q-1 0 -5 4l-6 6q-3 4 -8 11t-5 9l-82 580h110zM61 717h81l-40 -69h-81z" />
<glyph unicode="&#xfb;" d="M55 610l75 -530h70l-75 530h110l83 -590q0 -1 -3 -4.5t-5 -5.5q-4 -2 -11 -6t-8 -4h-240q-1 0 -5 4l-6 6q-3 4 -8 11t-5 9l-82 580h110zM136 717l60 -69h-81l-36 43l-24 -43h-81l40 69h122z" />
<glyph unicode="&#xfc;" d="M55 610l75 -530h70l-75 530h110l83 -590q0 -1 -3 -4.5t-5 -5.5q-4 -2 -11 -6t-8 -4h-240q-1 0 -5 4l-6 6q-3 4 -8 11t-5 9l-82 580h110zM-26 648l-10 69h97l10 -69h-97zM186 717l10 -69h-97l-10 69h97z" />
<glyph unicode="&#xfd;" d="M-55 610h110l27 -187l64 40l-21 147h110l25 -174q0 -1 -3.5 -4.5l-5.5 -5.5q-3 -2 -10 -6t-8 -4l-55 -34l64 -455q-13 1 -31 10t-35 20.5t-32 23.5t-22 19l-45 320l-66 -37q-1 0 -5 4l-6 6q-3 4 -8 11t-5 9zM61 717h81l-40 -69h-81z" />
<glyph unicode="&#xfe;" horiz-adv-x="387" d="M-55 610h111l14 -98h195q11 -4 15 -9.5t7 -11.5l24 -173l-200 -107l30 -211h-110l-49 352l48 85h-90q3 27 22 53zM97 312l97 52l-10 68h-104z" />
<glyph unicode="&#xff;" d="M-55 610h110l27 -187l64 40l-21 147h110l25 -174q0 -1 -3.5 -4.5l-5.5 -5.5q-3 -2 -10 -6t-8 -4l-55 -34l64 -455q-13 1 -31 10t-35 20.5t-32 23.5t-22 19l-45 320l-66 -37q-1 0 -5 4l-6 6q-3 4 -8 11t-5 9zM-26 648l-10 69h97l10 -69h-97zM186 717l10 -69h-97l-10 69h97 z" />
<glyph unicode="&#x152;" horiz-adv-x="593" d="M339 309l32 -229h70l-17 121q4 5 17 11t28.5 11t32 8.5t27.5 3.5l33 -235h-512q-1 0 -5 4l-6 6q-3 4 -8 11t-5 9l-62 440l51 65h-90q4 21 14.5 39.5t24.5 35.5h535l-34 -80h-157l16 -120l116 62l14 -102zM157 520h-90l62 -440h70l-16 109q5 6 22 13t37 13l-33 232 q-20 11 -34 28t-18 45z" />
<glyph unicode="&#x153;" horiz-adv-x="593" d="M339 309l32 -229h70l-17 121q4 5 17 11t28.5 11t32 8.5t27.5 3.5l33 -235h-512q-1 0 -5 4l-6 6q-3 4 -8 11t-5 9l-62 440l51 65h-90q4 21 14.5 39.5t24.5 35.5h535l-34 -80h-157l16 -120l116 62l14 -102zM157 520h-90l62 -440h70l-16 109q5 6 22 13t37 13l-33 232 q-20 11 -34 28t-18 45z" />
<glyph unicode="&#x178;" d="M-55 610h110l27 -187l64 40l-21 147h110l25 -174q0 -1 -3.5 -4.5l-5.5 -5.5q-3 -2 -10 -6t-8 -4l-55 -34l64 -455q-13 1 -31 10t-35 20.5t-32 23.5t-22 19l-45 320l-66 -37q-1 0 -5 4l-6 6q-3 4 -8 11t-5 9zM-26 648l-10 69h97l10 -69h-97zM186 717l10 -69h-97l-10 69h97 z" />
<glyph unicode="&#x2c6;" horiz-adv-x="284" d="M113 640l60 -69h-81l-36 43l-24 -43h-81l40 69h122z" />
<glyph unicode="&#x2dc;" horiz-adv-x="335" d="M73 640l36 -43l24 43h81l-40 -69h-82l-36 43l-24 -43h-81l40 69h82z" />
<glyph unicode="&#x2000;" horiz-adv-x="375" />
<glyph unicode="&#x2001;" horiz-adv-x="751" />
<glyph unicode="&#x2002;" horiz-adv-x="375" />
<glyph unicode="&#x2003;" horiz-adv-x="751" />
<glyph unicode="&#x2004;" horiz-adv-x="250" />
<glyph unicode="&#x2005;" horiz-adv-x="187" />
<glyph unicode="&#x2006;" horiz-adv-x="125" />
<glyph unicode="&#x2007;" horiz-adv-x="125" />
<glyph unicode="&#x2008;" horiz-adv-x="93" />
<glyph unicode="&#x2009;" horiz-adv-x="150" />
<glyph unicode="&#x200a;" horiz-adv-x="41" />
<glyph unicode="&#x2010;" horiz-adv-x="186" d="M-12 309l-15 101l116 62l14 -102z" />
<glyph unicode="&#x2011;" horiz-adv-x="186" d="M-12 309l-15 101l116 62l14 -102z" />
<glyph unicode="&#x2012;" horiz-adv-x="186" d="M-12 309l-15 101l116 62l14 -102z" />
<glyph unicode="&#x2013;" horiz-adv-x="186" d="M-12 309l-15 101l116 62l14 -102z" />
<glyph unicode="&#x2014;" horiz-adv-x="310" d="M-3 244l-15 103l231 124l14 -102z" />
<glyph unicode="&#x2018;" horiz-adv-x="172" d="M55 610l26 -181h-110l-16 111q0 2 9.5 13.5t16.5 16.5q1 1 11.5 6.5t23 12.5t24 13t15.5 8z" />
<glyph unicode="&#x2019;" horiz-adv-x="172" d="M-29 430l-26 181h110l16 -111q0 -2 -9.5 -13.5t-16.5 -16.5q-2 -2 -12 -7.5t-22.5 -12t-24 -12.5t-15.5 -8z" />
<glyph unicode="&#x201a;" horiz-adv-x="173" d="M20 80h111l11 -80q-5 -7 -16.5 -19t-25.5 -23.5t-30 -20.5t-29 -10z" />
<glyph unicode="&#x201c;" horiz-adv-x="316" d="M55 610l26 -181h-110l-16 111q0 2 9.5 13.5t16.5 16.5q1 1 11.5 6.5t23 12.5t24 13t15.5 8zM199 610l26 -181h-110l-16 111q0 2 9.5 13.5t16.5 16.5q1 1 11.5 6.5t23 12.5t24 13t15.5 8z" />
<glyph unicode="&#x201d;" horiz-adv-x="316" d="M115 430l-26 181h110l16 -111q0 -2 -9.5 -13.5t-16.5 -16.5q-2 -2 -12 -7.5t-22.5 -12t-24 -12.5t-15.5 -8zM-29 430l-26 181h110l16 -111q0 -2 -9.5 -13.5t-16.5 -16.5q-2 -2 -12 -7.5t-22.5 -12t-24 -12.5t-15.5 -8z" />
<glyph unicode="&#x201e;" horiz-adv-x="317" d="M164 80h111l11 -80q-5 -7 -16.5 -19t-25.5 -23.5t-30 -20.5t-29 -10zM20 80h111l11 -80q-5 -7 -16.5 -19t-25.5 -23.5t-30 -20.5t-29 -10z" />
<glyph unicode="&#x2022;" d="M40 10l6 -6t5 -4h240q1 0 8 4t11 6q2 2 5 5.5t3 4.5l-80 570q0 1 -4.5 4.5t-6.5 5.5q-5 2 -13 6t-9 4h-240q-1 0 -3.5 -4t-4.5 -6q-2 -4 -5 -11t-3 -9l78 -550q0 -2 5 -9t8 -11z" />
<glyph unicode="&#x2026;" horiz-adv-x="519" d="M377 0l-11 80h111l11 -80h-111zM204 0l-11 80h111l11 -80h-111zM31 0l-11 80h111l11 -80h-111z" />
<glyph unicode="&#x202f;" horiz-adv-x="150" />
<glyph unicode="&#x2039;" horiz-adv-x="131" d="M-28 422l62 50l11 -81l-39 -30l47 -30l12 -81l-76 50z" />
<glyph unicode="&#x203a;" horiz-adv-x="131" d="M40 422l-76 50l11 -81l47 -30l-39 -30l12 -81l62 50z" />
<glyph unicode="&#x205f;" horiz-adv-x="187" />
<glyph unicode="&#x20ac;" horiz-adv-x="427" d="M-4 252l-15 103l70 37l-11 78l51 65h-90q4 21 14.5 39.5t24.5 35.5h270l26 -180l-13 1q-34 12 -59 30.5t-31 58.5h-90l10 -73l59 32l14 -102l-58 -32l8 -60l58 32l15 -102l-59 -32l15 -103h70l-16 109q4 5 17 11t29 11t32.5 8.5t27.5 3.5l31 -223h-270q-1 0 -5 4l-6 6 q-3 4 -8 11t-5 9l-14 98l-70 -38l-14 103l70 37l-9 60z" />
<glyph unicode="&#x2122;" horiz-adv-x="322" d="M-10 619l16 -112h20l-16 112h46l-3 21h-112l3 -21h46zM76 636l18 -129h14l-12 87l5 7l44 -86q3 -6 5.5 -7t5.5 -1q6 0 7 1t3 7l20 88l7 -9l12 -87h15l-19 133h-6q-14 0 -24.5 -10t-14.5 -39q-1 -14 -2.5 -24t-3.5 -21q-4 9 -9.5 21t-13.5 29l-3 7q-7 13 -20 25.5 t-18 12.5q-1 0 -1.5 -0.5t0.5 -0.5l1 -1q0 -1 -5 -1t-5 -2z" />
<glyph unicode="&#x25fc;" horiz-adv-x="610" d="M0 610h610v-610h-610v610z" />
</font>
</defs>
</svg>
