<?xml version="1.0" standalone="no"?>
<!DOCTYPE svg PUBLIC "-//W3C//DTD SVG 1.1//EN" "http://www.w3.org/Graphics/SVG/1.1/DTD/svg11.dtd" >
<svg xmlns="http://www.w3.org/2000/svg" xmlns:xlink="http://www.w3.org/1999/xlink" version="1.1">
<metadata></metadata>
<defs>
<font id="winter_solstice_italicitalic" horiz-adv-x="352" >
<font-face units-per-em="1000" ascent="800" descent="-200" />
<missing-glyph horiz-adv-x="256" />
<glyph horiz-adv-x="0" />
<glyph unicode="&#xd;" horiz-adv-x="500" />
<glyph unicode=" "  horiz-adv-x="256" />
<glyph unicode="&#x09;" horiz-adv-x="256" />
<glyph unicode="&#xa0;" horiz-adv-x="256" />
<glyph unicode="!" horiz-adv-x="173" d="M128 610h111l-67 -421h-111zM31 0l13 80h111l-13 -80h-111z" />
<glyph unicode="&#x22;" horiz-adv-x="316" d="M243 430l29 181h110l-18 -111q0 -2 -4 -5.5t-9 -8t-11 -9l-10 -7.5q-2 -2 -14 -7.5t-27 -12.5t-28.5 -12.5t-17.5 -7.5zM99 430l29 181h110l-18 -111q0 -2 -4 -5.5t-9 -8t-11 -9l-10 -7.5q-2 -2 -14 -7.5t-27 -12.5t-28.5 -12.5t-17.5 -7.5z" />
<glyph unicode="#" horiz-adv-x="479" d="M197 610h111l-28 -173l63 29l23 144h111l-14 -89l73 37l-16 -105l-73 -34l-10 -60l73 34l-16 -102l-73 -34l-41 -257h-111l31 201l-62 -30l-27 -171h-111l19 117l-75 -35l17 103l74 34l9 60l-74 -35l16 103l74 34zM327 363l-63 -30l-10 -58l64 29z" />
<glyph unicode="$" horiz-adv-x="350" d="M111 -56l9 56h-69q-1 0 -3.5 4t-4.5 6q-2 4 -4.5 11t-3.5 9l33 205q11 0 27 -3.5t31.5 -8.5t28.5 -11t17 -11l-18 -121h70l35 220l-167 90l15 90l68 55h-90q22 41 62 75h70l8 56h111l-8 -56h112l-59 -80h-157l-14 -85l167 -91l-52 -334q-1 -1 -5.5 -4.5t-6.5 -5.5 q-5 -2 -13 -6t-9 -4h-60l-9 -56h-111z" />
<glyph unicode="%" horiz-adv-x="417" d="M86 310q-1 2 -3 5t-2 5l45 275l6 10q2 1 4 3l2 2h120q1 0 4 -2t5 -3l5 -5l-37 -230l122 240h111l-155 -305h107q1 0 4 -2t5 -3l4 -5l-45 -285q-2 -4 -6 -5q-8 -5 -11 -5h-120l-4 5l-2.5 5t-0.5 5l35 224l-122 -239h-111l156 305h-112zM335 92l20 123h-14l-20 -123h14z M174 397l20 123h-14l-20 -123h14z" />
<glyph unicode="&#x26;" horiz-adv-x="420" d="M196 347l268 124l-16 -102l-74 -34l-56 -350q0 -1 -4 -4.5t-9 -8t-11 -9.5t-10 -8q-3 -3 -15.5 -9t-26.5 -12.5t-27.5 -12t-17.5 -6.5l14 85h-180l71 450l74 85h-90q22 41 62 75h293l-59 -80h-157zM180 246l-26 -166h70l31 200z" />
<glyph unicode="'" horiz-adv-x="172" d="M99 430l29 181h110l-18 -111q0 -2 -4 -5.5t-9 -8t-11 -9l-10 -7.5q-2 -2 -14 -7.5t-27 -12.5t-28.5 -12.5t-17.5 -7.5z" />
<glyph unicode="(" horiz-adv-x="255" d="M232 51l-10 -60q0 -1 -4.5 -4.5t-6.5 -5.5q-5 -2 -12.5 -6t-8.5 -4h-143q-1 0 -4 4t-5 6q-2 4 -4.5 11t-2.5 9l97 610q0 2 5 9t8 11q3 2 7 6t5 4h143q1 0 8 -4t10 -6l5.5 -5.5t2.5 -4.5l-9 -60h-83l-81 -510h83z" />
<glyph unicode=")" horiz-adv-x="255" d="M38 51l-10 -60q0 -1 3.5 -4.5l5.5 -5.5q3 -2 10.5 -6t8.5 -4h143q1 0 4.5 4t6.5 6q3 4 8 11t5 9l97 610q0 2 -2.5 9t-4.5 11q-2 2 -4.5 6t-3.5 4h-143q-1 0 -9 -4t-13 -6q-2 -2 -6.5 -5.5t-5.5 -4.5l-9 -60h83l-81 -510h-83z" />
<glyph unicode="*" horiz-adv-x="222" d="M183 640h64l-5 -29l51 28l-15 -88l-51 -35l-12 -73h-64l5 30l-55 -31l15 90l55 36z" />
<glyph unicode="+" horiz-adv-x="310" d="M184 515h111l-13 -77l72 35l-16 -104l-73 -39l-20 -133h-111l12 83l-76 -36l16 103l77 41z" />
<glyph unicode="," horiz-adv-x="173" d="M44 80h111l-13 -80q-7 -7 -22 -19t-33 -23.5t-36.5 -20.5t-31.5 -10z" />
<glyph unicode="-" horiz-adv-x="186" d="M80 309l16 101l134 62l-16 -102z" />
<glyph unicode="." horiz-adv-x="173" d="M31 0l13 80h111l-13 -80h-111z" />
<glyph unicode="/" horiz-adv-x="387" d="M31 0l311 610h111l-311 -610h-111z" />
<glyph unicode="0" d="M43 10q2 -2 4.5 -6t3.5 -4h240q1 0 9 4t13 6q2 2 6.5 5.5t5.5 4.5l90 570q0 1 -3 4.5t-5 5.5q-5 2 -11.5 6t-7.5 4h-240q-1 0 -5 -4l-6 -6q-3 -4 -8 -11t-6 -9l-88 -550q1 -2 3.5 -9t4.5 -11zM224 80h-70l71 450h70z" />
<glyph unicode="1" horiz-adv-x="169" d="M138 0l97 610h-89q-40 -34 -62 -75h79l-58 -55l-77 -480h110z" />
<glyph unicode="2" horiz-adv-x="355" d="M67 220l196 90l34 220h-70l-19 -121q-6 -5 -20.5 -11t-32 -11t-35 -8.5t-28.5 -3.5l33 205q1 2 6 9t8 11l6 6t5 4h240q1 0 7.5 -4t11.5 -6q2 -2 5 -5.5t3 -4.5l-53 -334l-196 -91l-13 -85h157l33 -80h-313z" />
<glyph unicode="3" horiz-adv-x="334" d="M337 430l38 25l22 134q-2 6 -4.5 11.5t-11.5 9.5h-228q-41 -37 -62 -78h186l-12 -70l-127 -70l-16 -103l126 61l-43 -270h-157l-13 -80h238q1 0 9 4t13 6q2 2 6.5 5.5t5.5 4.5l60 380z" />
<glyph unicode="4" horiz-adv-x="354" d="M79 303l196 96l-75 -472q13 1 31.5 10t36.5 20.5t33 23.5t22 19l97 610h-111l-17 -105l-78 -45l24 151h-110z" />
<glyph unicode="5" horiz-adv-x="355" d="M94 390l167 -90l-35 -220h-70l18 121q-4 5 -17 11t-28.5 11t-31.5 8.5t-27 3.5l-33 -205q1 -2 3.5 -9t4.5 -11q2 -2 4.5 -6t3.5 -4h240q1 0 9 4t13 6q2 2 6.5 5.5t5.5 4.5l52 334l-167 91l14 85h157l59 80h-313z" />
<glyph unicode="6" d="M225 530h157l59 80h-293q-40 -34 -62 -75h90l-70 -65l-71 -440q1 -2 3.5 -9t4.5 -11q2 -2 4.5 -6t3.5 -4h249q10 5 15 12.5t10 16.5l71 443l-196 -96zM182 263l78 42l-36 -225h-70z" />
<glyph unicode="7" horiz-adv-x="341" d="M207 0l221 610h-270q-40 -34 -62 -75h197l-199 -535h113z" />
<glyph unicode="8" horiz-adv-x="355" d="M133 430l-30 25l22 134q3 6 7 11.5t15 9.5h255q9 -4 11.5 -9.5t4.5 -11.5l-22 -134l-38 -25l30 -30l-60 -380q-1 -1 -5.5 -4.5t-6.5 -5.5q-5 -2 -13 -6t-9 -4h-233q-1 0 -8 4t-10 6l-5.5 5.5t-2.5 4.5l60 380zM269 350l-80 -54l-34 -216h71zM298 532h-71l-21 -130l80 60z " />
<glyph unicode="9" horiz-adv-x="353" d="M154 80h70l27 172l-164 97l15 101l74 85h-90q22 41 62 75h252q9 -4 11.5 -9.5t4.5 -11.5l-90 -569q-1 -1 -5.5 -4.5t-6.5 -5.5q-5 -2 -13 -6t-9 -4h-226q-20 4 -26.5 8t-4.5 12l33 215q11 0 27 -3.5t31.5 -8.5t28.5 -11t17 -11zM204 399l66 -32l25 163h-70z" />
<glyph unicode=":" horiz-adv-x="173" d="M31 0l13 80h111l-13 -80h-111zM93 392l13 80h111l-13 -80h-111z" />
<glyph unicode=";" horiz-adv-x="173" d="M93 392l13 80h111l-13 -80h-111zM44 80h111l-13 -80q-7 -7 -22 -19t-33 -23.5t-36.5 -20.5t-31.5 -10z" />
<glyph unicode="&#x3c;" horiz-adv-x="281" d="M138 0l-59 303l157 307h111l-157 -307l59 -303h-111z" />
<glyph unicode="=" horiz-adv-x="310" d="M82 326l18 103l267 124l-16 -102zM57 164l16 103l268 124l-16 -102z" />
<glyph unicode="&#x3e;" horiz-adv-x="281" d="M142 0l155 303l-59 307h-111l59 -307l-155 -303h111z" />
<glyph unicode="?" horiz-adv-x="355" d="M67 220l196 90l34 220h-70l-19 -121q-6 -5 -20.5 -11t-32 -11t-35 -8.5t-28.5 -3.5l33 205q1 2 6 9t8 11l6 6t5 4h240q1 0 7.5 -4t11.5 -6q2 -2 5 -5.5t3 -4.5l-53 -334l-196 -91h-110zM31 0l13 80h111l-13 -80h-111z" />
<glyph unicode="@" horiz-adv-x="495" d="M208 181l-2.5 5t-0.5 5l43 275l7 10q2 1 4 3l2 2h120q1 0 4 -2t5 -3l4 -5l-34 -214h35l43 273h-201l1 1h-12l-72 -451h213l-9 -60q-1 -1 -5.5 -4.5t-6.5 -5.5q-5 -2 -13 -6t-9 -4h-273q-1 0 -3.5 4t-4.5 6q-2 4 -4.5 11t-3.5 9l88 551q1 2 6 9t8 11l6 6t5 4h393 q1 0 3.5 -4t5.5 -6q2 -4 4.5 -11t1.5 -9l-60 -375q0 -2 -4.5 -9t-7.5 -11q-3 -2 -7 -6t-5 -4h-260zM296 268l20 123h-14l-20 -123h14z" />
<glyph unicode="A" horiz-adv-x="387" d="M319 -45q-3 -3 -15.5 -9t-26.5 -12.5t-27.5 -12t-17.5 -6.5l69 432l-111 -35l-50 -312h-109l75 470l70 65h-90q4 6 12.5 17t17.5 22.5t18 21.5t14 14h275q1 0 7.5 -4t11.5 -6q2 -2 5 -5.5t3 -4.5l-97 -605q0 -1 -4 -4.5t-9 -8t-11 -9.5t-10 -8zM330 530h-106l-18 -117 l111 35z" />
<glyph unicode="B" horiz-adv-x="387" d="M390 430l30 -30l-60 -380q-1 -1 -5.5 -4.5t-6.5 -5.5q-5 -2 -13 -6t-9 -4h-295l71 450l74 85h-90q22 41 62 75h286q9 -4 11.5 -9.5t4.5 -11.5l-22 -134zM190 309l-36 -229h104l44 275zM206 410l112 52l11 68h-104z" />
<glyph unicode="C" d="M314 520h-90l-70 -440h70l17 109q6 5 20.5 11t31.5 11t34.5 8.5t28.5 3.5l-35 -223h-270q-1 0 -3.5 4t-4.5 6q-2 4 -4.5 11t-3.5 9l71 440l70 65h-90q22 41 62 75h270l-29 -180l-6 2q-15 6 -29 13t-24.5 17t-15 24t-0.5 34z" />
<glyph unicode="D" horiz-adv-x="385" d="M114 535h-30q4 6 12.5 17t17.5 22.5t18 21.5t14 14h275q1 0 7.5 -4t11.5 -6q2 -2 5 -5.5t3 -4.5l-90 -570q-1 -1 -5.5 -4.5t-6.5 -5.5q-5 -2 -13 -6t-9 -4h-295zM223 530l-71 -450h105l71 450h-105z" />
<glyph unicode="E" d="M190 309l-36 -229h70l17 109q6 5 20.5 11t31.5 11t34.5 8.5t28.5 3.5l-38 -238q0 -1 -4 -4.5t-9 -8t-11 -9.5t-10 -8q-3 -3 -15.5 -9t-26.5 -12.5t-27.5 -12t-17.5 -6.5l14 85h-180l71 450l74 85h-90q22 41 62 75h293l-59 -80h-157l-19 -120l134 62l-16 -102z" />
<glyph unicode="F" d="M190 309l-61 -382q-13 1 -28 10t-29 20.5t-25 23.5t-16 19l77 480l68 55h-90q22 41 62 75h293l-59 -80h-157l-19 -120l134 62l-16 -102z" />
<glyph unicode="G" horiz-adv-x="386" d="M225 530l-71 -450h104l51 325q6 5 20.5 11t31.5 11t34.5 8.5t28.5 3.5l-72 -454q0 -1 -4 -4.5t-9 -8t-11 -9.5t-10 -8q-3 -3 -15.5 -9t-26.5 -12.5t-27.5 -12t-17.5 -6.5l14 85h-194q-1 0 -3.5 4t-4.5 6q-2 4 -4.5 11t-3.5 9l71 440l70 65h-90q22 41 62 75h293l-59 -80 h-157z" />
<glyph unicode="H" horiz-adv-x="387" d="M31 0l97 610h110l-24 -151l111 46l17 105h111l-97 -610h-111l63 399l-110 -49l-56 -350h-111z" />
<glyph unicode="I" horiz-adv-x="303" d="M208 75h100q-23 -42 -62 -75h-253l58 75h47l65 405l58 55h-142q22 41 62 75h253l-58 -75h-55z" />
<glyph unicode="J" horiz-adv-x="436" d="M439 530l-80 -510q-1 -1 -5.5 -4.5t-6.5 -5.5q-5 -2 -13 -6t-9 -4h-256q-21 4 -28.5 8t-5.5 12l65 419q10 0 26.5 -3.5t32.5 -8.5t29 -11t17 -11l-51 -325h104l72 455h-158q22 41 62 75h293l-59 -80h-29z" />
<glyph unicode="K" horiz-adv-x="388" d="M31 0l97 610h111l-32 -200l112 52l24 148h111l-25 -155l-38 -25l30 -30l-76 -473q-14 1 -29 10t-29 20.5t-25 23.5t-16 19l56 350l-112 -51l-48 -299h-111z" />
<glyph unicode="L" d="M321 0h-290l97 610h111l-84 -530h69l17 109q6 5 20.5 11t31.5 11t34.5 8.5t28.5 3.5z" />
<glyph unicode="M" horiz-adv-x="536" d="M324 0h-111l44 278l-50 133l-65 -412q-8 -7 -23 -18.5t-33 -23.5t-36 -21t-31 -10l109 684h109l91 -222l165 222h109l-97 -610h-111l65 411l-91 -133z" />
<glyph unicode="N" horiz-adv-x="387" d="M17 -85l111 695h102l89 -144l23 144h111l-97 -610h-111l44 278l-81 137l-69 -430q-2 -9 -18 -19.5t-36.5 -21t-40 -18.5t-27.5 -11z" />
<glyph unicode="O" horiz-adv-x="385" d="M106 470l70 65h-90q4 6 12.5 17t17.5 22.5t18 21.5t14 14h273q1 0 7.5 -4t11.5 -6q2 -2 5 -5.5t3 -4.5l-90 -570q-1 -1 -5.5 -4.5t-6.5 -5.5q-5 -2 -13 -6t-9 -4h-273q-1 0 -3.5 4t-4.5 6q-2 4 -4.5 11t-3.5 9zM225 530l-71 -450h103l71 450h-103z" />
<glyph unicode="P" horiz-adv-x="387" d="M102 450l74 85h-90q22 41 62 75h286q9 -4 11.5 -9.5t4.5 -11.5l-29 -178l-231 -106l-49 -306q-8 -7 -23 -19t-32 -23.5t-35 -20.5t-32 -10zM206 410l112 52l11 68h-104z" />
<glyph unicode="Q" d="M134 0h-83q-1 0 -3.5 4t-4.5 6q-2 4 -4.5 11t-3.5 9l71 440l70 65h-90q4 6 12.5 17t17.5 22.5t18 21.5t14 14h272q1 0 7.5 -4t11.5 -6q2 -2 5 -5.5t3 -4.5l-90 -570q-1 -1 -5.5 -4.5t-6.5 -5.5q-5 -2 -13 -6t-9 -4h-79l-3 -15q0 -1 -4 -4.5t-9 -8t-11 -9.5t-10 -8 q-3 -3 -15.5 -9t-26.5 -12.5t-27.5 -12t-17.5 -6.5zM225 530l-71 -450h102l71 450h-102z" />
<glyph unicode="R" horiz-adv-x="386" d="M389 430l30 -30l-76 -473q-14 1 -29 10t-29 20.5t-25 23.5t-16 19l57 358l-112 -49l-49 -309h-110l71 450l74 85h-90q22 41 62 75h286q9 -4 11.5 -9.5t4.5 -11.5l-22 -134zM205 410l112 52l11 68h-104z" />
<glyph unicode="S" horiz-adv-x="350" d="M92 390l167 -90l-35 -220h-70l18 121q-4 5 -17 11t-28.5 11t-31.5 8.5t-27 3.5l-33 -205q1 -2 3.5 -9t4.5 -11q2 -2 4.5 -6t3.5 -4h240q1 0 9 4t13 6q2 2 6.5 5.5t5.5 4.5l52 334l-167 91l14 85h157l59 80h-293q-40 -34 -62 -75h90l-68 -55z" />
<glyph unicode="T" horiz-adv-x="347" d="M174 480l58 55h-138q22 41 62 75h279l-58 -75h-85l-97 -608q-13 1 -28 10t-29 20.5t-25 23.5t-16 19z" />
<glyph unicode="U" horiz-adv-x="381" d="M154 80h99l84 530h110l-93 -590q-1 -1 -5.5 -4.5t-6.5 -5.5q-5 -2 -13 -6t-9 -4h-269q-1 0 -3.5 4t-4.5 6q-2 4 -4.5 11t-3.5 9l93 580h110z" />
<glyph unicode="V" horiz-adv-x="387" d="M342 610h111l-97 -610h-107l-174 277l53 333h111l-44 -278l79 -149z" />
<glyph unicode="W" horiz-adv-x="536" d="M421 610l-44 -278l49 -133l65 411h111l-97 -610h-109l-94 222l-162 -222h-109l97 610h111l-65 -411l92 133l44 278h111z" />
<glyph unicode="X" horiz-adv-x="388" d="M319 462l24 148h111l-25 -155l-38 -25l30 -30l-76 -473q-14 1 -29 10t-29 20.5t-25 23.5t-16 19l57 358l-112 -49l-49 -309h-111l64 400l38 30l-30 25l25 155h111l-32 -200z" />
<glyph unicode="Y" d="M238 610h-110l-47 -297q0 -2 2.5 -9t4.5 -11q2 -2 4.5 -6t3.5 -4l76 37l-50 -320q5 -7 16 -19t25 -23.5t29 -20.5t28 -10l72 455l65 34q1 0 9.5 4t12.5 6q3 2 7 5.5t4 4.5l28 174h-110l-23 -147l-76 -40z" />
<glyph unicode="Z" horiz-adv-x="405" d="M385 75h-194l280 535h-293q-40 -34 -62 -75h202l-288 -535h293q39 33 62 75z" />
<glyph unicode="[" horiz-adv-x="255" d="M237 80l-9 -60q-1 -1 -5.5 -4.5t-6.5 -5.5q-5 -2 -13 -6t-9 -4h-143q-1 0 -3.5 4t-4.5 6q-2 4 -4.5 11t-3.5 9l88 550q1 2 6 9t8 11l6 6t5 4h143q1 0 7.5 -4t11.5 -6q2 -2 5 -5.5t3 -4.5l-10 -60h-83l-71 -450h83z" />
<glyph unicode="\" horiz-adv-x="387" d="M355 0l-117 610h-111l117 -610h111z" />
<glyph unicode="]" horiz-adv-x="255" d="M43 80l-9 -60q-1 -1 2.5 -4.5l5.5 -5.5q3 -2 10 -6t8 -4h143q1 0 5 4t7 6q3 4 8 11t4 9l88 550q1 2 -1.5 9t-4.5 11q-3 2 -5.5 6t-3.5 4h-143q-1 0 -9.5 -4t-11.5 -6t-7.5 -5.5t-4.5 -4.5l-10 -60h83l-71 -450h-83z" />
<glyph unicode="^" horiz-adv-x="387" d="M243 0h111l97 610h-107l-262 -277l-53 -333h111l28 177l95 -51zM309 415l-30 -188l-94 51z" />
<glyph unicode="_" horiz-adv-x="303" d="M308 75h-257l-58 -75h253q39 33 62 75z" />
<glyph unicode="`" horiz-adv-x="193" d="M133 640h81l39 -69h-81z" />
<glyph unicode="a" d="M284 -45q-3 -3 -15.5 -9t-26.5 -12.5t-27.5 -12t-17.5 -6.5l69 432l-76 -35l-50 -312h-109l75 470l70 65h-90q4 6 12.5 17t17.5 22.5t18 21.5t14 14h240q1 0 7.5 -4t11.5 -6q2 -2 5 -5.5t3 -4.5l-97 -605q0 -1 -4 -4.5t-9 -8t-11 -9.5t-10 -8zM295 530h-71l-18 -117 l76 35z" />
<glyph unicode="b" horiz-adv-x="354" d="M357 430l30 -30l-60 -380q-1 -1 -5.5 -4.5t-6.5 -5.5q-5 -2 -13 -6t-9 -4h-262l71 450l74 85h-90q22 41 62 75h253q9 -4 11.5 -9.5t4.5 -11.5l-22 -134zM190 309l-36 -229h71l44 275zM206 410l79 52l11 68h-71z" />
<glyph unicode="c" d="M314 520h-90l-70 -440h70l17 109q6 5 20.5 11t31.5 11t34.5 8.5t28.5 3.5l-35 -223h-270q-1 0 -3.5 4t-4.5 6q-2 4 -4.5 11t-3.5 9l71 440l70 65h-90q22 41 62 75h270l-29 -180l-12 1q-15 6 -28 13t-22 17.5t-13 24.5t0 34z" />
<glyph unicode="d" horiz-adv-x="350" d="M114 535h-30q4 6 12.5 17t17.5 22.5t18 21.5t14 14h240q1 0 7.5 -4t11.5 -6q2 -2 5 -5.5t3 -4.5l-90 -570q-1 -1 -5.5 -4.5t-6.5 -5.5q-5 -2 -13 -6t-9 -4h-260zM223 530l-71 -450h70l71 450h-70z" />
<glyph unicode="e" d="M190 309l-36 -229h70l17 109q6 5 20.5 11t31.5 11t34.5 8.5t28.5 3.5l-35 -223h-290l71 450l74 85h-90q22 41 62 75h293l-59 -80h-157l-19 -120l134 62l-16 -102z" />
<glyph unicode="f" horiz-adv-x="327" d="M190 309l-61 -382q-13 1 -28 10t-29 20.5t-25 23.5t-16 19l77 480l68 55h-90q22 41 62 75h269l-59 -80h-133l-19 -120l110 62l-16 -102z" />
<glyph unicode="g" d="M225 530l-71 -450h70l51 325q6 5 20.5 11t31.5 11t34.5 8.5t28.5 3.5l-72 -454q0 -1 -4 -4.5t-9 -8t-11 -9.5t-10 -8q-3 -3 -15.5 -9t-26.5 -12.5t-27.5 -12t-17.5 -6.5l14 85h-160q-1 0 -3.5 4t-4.5 6q-2 4 -4.5 11t-3.5 9l71 440l70 65h-90q22 41 62 75h293l-59 -80 h-157z" />
<glyph unicode="h" horiz-adv-x="354" d="M31 0l97 610h110l-24 -151l78 46l17 105h111l-97 -610h-111l63 399l-77 -49l-56 -350h-111z" />
<glyph unicode="i" horiz-adv-x="173" d="M128 610h111l-97 -610h-111z" />
<glyph unicode="j" horiz-adv-x="402" d="M405 530l-80 -510q-1 -1 -5.5 -4.5t-6.5 -5.5q-5 -2 -13 -6t-9 -4h-222q-21 4 -28.5 8t-5.5 12l65 419q10 0 26.5 -3.5t32.5 -8.5t29 -11t17 -11l-51 -325h70l72 455h-158q22 41 62 75h293l-59 -80h-29z" />
<glyph unicode="k" horiz-adv-x="350" d="M206 410l75 52l24 148h111l-25 -155l-38 -25l30 -30l-76 -473q-14 1 -29 10t-29 20.5t-25 23.5t-16 19l56 350l-76 -53l-47 -297h-110l97 610h110z" />
<glyph unicode="l" d="M321 0h-290l97 610h111l-84 -530h69l17 109q6 5 20.5 11t31.5 11t34.5 8.5t28.5 3.5z" />
<glyph unicode="m" horiz-adv-x="536" d="M324 0l44 278l91 133l-65 -411h111l97 610h-109l-165 -222l-91 222h-109l-97 -610h111l65 411l50 -133l-44 -278h111z" />
<glyph unicode="n" horiz-adv-x="354" d="M17 -85l111 695h102l58 -136l21 136h111l-97 -610h-111l44 278l-49 129l-68 -422q-2 -9 -18 -19.5t-36.5 -21t-40 -18.5t-27.5 -11z" />
<glyph unicode="o" d="M106 470l70 65h-90q4 6 12.5 17t17.5 22.5t18 21.5t14 14h240q1 0 7.5 -4t11.5 -6q2 -2 5 -5.5t3 -4.5l-90 -570q-1 -1 -5.5 -4.5t-6.5 -5.5q-5 -2 -13 -6t-9 -4h-240q-1 0 -3.5 4t-4.5 6q-2 4 -4.5 11t-3.5 9zM225 530l-71 -450h70l71 450h-70z" />
<glyph unicode="p" horiz-adv-x="354" d="M417 589l-28 -177l-203 -126l-45 -286h-110l71 450l74 85h-90q22 41 62 75h253q9 -4 11.5 -9.5t4.5 -11.5zM206 410l79 50l11 70h-71z" />
<glyph unicode="q" d="M122 0h-71q-1 0 -3.5 4t-4.5 6q-2 4 -4.5 11t-3.5 9l71 440l70 65h-90q4 6 12.5 17t17.5 22.5t18 21.5t14 14h240q1 0 7.5 -4t11.5 -6q2 -2 5 -5.5t3 -4.5l-90 -570q-1 -1 -5.5 -4.5t-6.5 -5.5q-5 -2 -13 -6t-9 -4h-59l-3 -15q0 -1 -4 -4.5t-9 -8t-11 -9.5t-10 -8 q-3 -3 -15.5 -9t-26.5 -12.5t-27.5 -12t-17.5 -6.5zM225 530l-71 -450h70l71 450h-70z" />
<glyph unicode="r" horiz-adv-x="349" d="M352 430l30 -30l-76 -473q-14 1 -29 10t-29 20.5t-25 23.5t-16 19l57 358l-75 -51l-49 -307h-110l71 450l74 85h-90q22 41 62 75h249q9 -4 11.5 -9.5t4.5 -11.5l-22 -134zM205 410l75 49l11 71h-67z" />
<glyph unicode="s" horiz-adv-x="350" d="M92 390l167 -90l-35 -220h-70l18 121q-4 5 -17 11t-28.5 11t-31.5 8.5t-27 3.5l-33 -205q1 -2 3.5 -9t4.5 -11q2 -2 4.5 -6t3.5 -4h240q1 0 9 4t13 6q2 2 6.5 5.5t5.5 4.5l52 334l-167 91l14 85h157l59 80h-293q-40 -34 -62 -75h90l-68 -55z" />
<glyph unicode="t" horiz-adv-x="334" d="M169 480l58 55h-133q22 41 62 75h269l-58 -75h-80l-97 -608q-13 1 -28 10t-29 20.5t-25 23.5t-16 19z" />
<glyph unicode="u" d="M238 610l-84 -530h70l84 530h110l-93 -590q-1 -1 -5.5 -4.5t-6.5 -5.5q-5 -2 -13 -6t-9 -4h-240q-1 0 -3.5 4t-4.5 6q-2 4 -4.5 11t-3.5 9l93 580h110z" />
<glyph unicode="v" horiz-adv-x="353" d="M308 610h111l-97 -610h-107l-141 278l53 333h111l-44 -278l49 -126z" />
<glyph unicode="w" horiz-adv-x="536" d="M421 610l-44 -278l49 -133l65 411h111l-97 -610h-109l-94 222l-162 -222h-109l97 610h111l-65 -411l92 133l44 278h111z" />
<glyph unicode="x" horiz-adv-x="354" d="M285 462l24 148h111l-25 -155l-38 -25l30 -30l-76 -473q-14 1 -29 10t-29 20.5t-25 23.5t-16 19l57 358l-78 -49l-49 -309h-111l64 400l38 30l-30 25l25 155h111l-32 -200z" />
<glyph unicode="y" d="M238 610h-110l-47 -297q0 -2 2.5 -9t4.5 -11q2 -2 4.5 -6t3.5 -4l76 37l-50 -320q5 -7 16 -19t25 -23.5t29 -20.5t28 -10l72 455l65 34q1 0 9.5 4t12.5 6q3 2 7 5.5t4 4.5l28 174h-110l-23 -147l-76 -40z" />
<glyph unicode="z" horiz-adv-x="382" d="M362 75h-178l264 535h-270q-40 -34 -62 -75h183l-269 -535h270q39 33 62 75z" />
<glyph unicode="{" horiz-adv-x="305" d="M80 309l16 101l54 25l28 176q0 2 5 9t8 11q3 2 7 6t5 4h143q1 0 8 -4t10 -6l5.5 -5.5t2.5 -4.5l-9 -60h-83l-81 -510h83l-10 -60q0 -1 -4.5 -4.5t-6.5 -5.5q-5 -2 -12.5 -6t-8.5 -4h-143q-1 0 -4 4t-5 6q-2 4 -4.5 11t-2.5 9l53 332z" />
<glyph unicode="|" horiz-adv-x="173" d="M150 751h111l-143 -904h-111z" />
<glyph unicode="}" horiz-adv-x="303" d="M29 -9l10 60h83l81 510h-83l9 60q1 1 5.5 4.5t6.5 5.5q5 2 13 6t9 4h143q1 0 3.5 -4t4.5 -6q2 -4 4.5 -11t2.5 -9l-26 -163l52 24l-16 -102l-52 -24l-55 -345q0 -2 -5 -9t-8 -11q-3 -2 -6.5 -6t-4.5 -4h-143q-1 0 -8.5 4t-10.5 6l-5.5 5.5t-3.5 4.5z" />
<glyph unicode="~" horiz-adv-x="258" d="M171 428l44 -46l12 71l78 32l-18 -113l-77 -34l-46 46l-11 -71l-78 -33l18 114z" />
<glyph horiz-adv-x="197" />
<glyph unicode="&#xa1;" horiz-adv-x="173" d="M141 0h-111l67 421h111zM238 610l-13 -80h-111l13 80h111z" />
<glyph unicode="&#xa2;" d="M111 -56l9 56h-69q-1 0 -3.5 4t-4.5 6q-2 4 -4.5 11t-3.5 9l71 440l70 65h-90q22 41 62 75h68l8 56h111l-8 -56h91l-29 -180l-12 1q-15 6 -28 13t-22 17.5t-13 24.5t0 34h-90l-70 -440h70l17 109q6 5 20.5 11t31.5 11t34.5 8.5t28.5 3.5l-35 -223h-90l-9 -56h-111z" />
<glyph unicode="&#xa3;" horiz-adv-x="409" d="M69 234l16 101l61 28l13 87l74 85h-90q22 41 62 75h177l-59 -80h-41l-19 -120l134 62l-16 -102l-134 -61l-36 -229h70l17 109q6 5 20.5 11t31.5 11t34.5 8.5t28.5 3.5l-35 -223h-347l13 80h57l28 181z" />
<glyph unicode="&#xa4;" horiz-adv-x="388" d="M454 610h-111l-11 -71h-104l11 71h-111l-25 -155l30 -25l-38 -30l-64 -400h111l21 132h104l-21 -132q5 -7 16 -19t25 -23.5t29 -20.5t29 -10l76 473l-30 30l38 25zM253 239h-38l31 196h38z" />
<glyph unicode="&#xa5;" d="M74 135l16 103l75 35l7 47l-76 -37q-1 0 -3.5 4t-4.5 6q-2 4 -4.5 11t-2.5 9l47 297h110l-29 -187l76 40l23 147h110l-28 -174q0 -1 -4 -4.5t-7 -5.5q-4 -2 -12.5 -6t-9.5 -4l-65 -34l-8 -54l74 34l-17 -102l-73 -34l-7 -47l73 34l-16 -102l-73 -34l-25 -150 q-13 1 -28 10t-29 20.5t-25 23.5t-16 19l4 21l-76 -35l16 103l76 35l7 46z" />
<glyph unicode="&#xa6;" horiz-adv-x="173" d="M128 610h111l-39 -247h-111zM31 0l41 254h111l-41 -254h-111z" />
<glyph unicode="&#xa7;" horiz-adv-x="388" d="M133 430l18 109h181l11 71h111l-25 -155l-38 -25l-47 -298h-181l-21 -132q-7 -7 -22 -19t-33 -23.5t-36.5 -20.5t-31.5 -10l76 473zM211 239h38l31 196h-38z" />
<glyph unicode="&#xa8;" horiz-adv-x="284" d="M122 571l11 69h97l-11 -69h-97zM355 640l-11 -69h-97l11 69h97z" />
<glyph unicode="&#xa9;" horiz-adv-x="243" d="M224 641q7 0 40 -11q25 -16 29 -35q9 -26 6.5 -44t-21.5 -45q-8 -11 -16 -18t-22 -15q-22 -8 -33.5 -10l-11.5 -2q-23 0 -44 12q-10 8 -15.5 15t-12.5 18q-8 24 -5 45q9 50 59 79q44 11 47 11zM222 627q-45 0 -72 -38q-7 -10 -11.5 -19t-5.5 -17q-3 -15 5 -38 q2 -8 6.5 -15t16.5 -14l6 -1q32 -6 32 -8h-1q18 0 39 9q17 10 31 29t16 36l1 4q2 13 -2 26t-12.5 23t-20.5 16.5t-25 6.5h-3zM236 537l13 -4q-13 -34 -48 -34q-47 0 -40 52q9 51 56 51q35 0 36 -28l-14 -3q-5 18 -23 18q-31 0 -39 -38q-5 -36 26 -36q23 0 33 22z" />
<glyph unicode="&#xaa;" horiz-adv-x="387" d="M139 0h-111l97 610h107l174 -277l-53 -333h-111l28 177l-111 -51zM205 415l-30 -188l110 51z" />
<glyph unicode="&#xab;" horiz-adv-x="236" d="M203 422l77 50l-13 -81l-47 -30l37 -30l-12 -81l-61 50zM98 422l77 50l-13 -81l-47 -30l37 -30l-12 -81l-61 50z" />
<glyph unicode="&#xac;" horiz-adv-x="310" d="M86 347l268 124l-39 -243h-111l14 83l-148 -67z" />
<glyph unicode="&#xad;" horiz-adv-x="186" d="M80 309l16 101l134 62l-16 -102z" />
<glyph unicode="&#xae;" horiz-adv-x="243" d="M224 642q23 0 40 -12q23 -14 29 -34q9 -26 6.5 -44t-21.5 -45q-5 -10 -14 -18t-23 -15q-20 -9 -33 -10.5l-13 -1.5q-27 0 -43 12q-8 7 -14 14.5t-13 16.5l-2 2q-8 24 -5 45q3 14 7 22.5t12 19.5l1 2q13 22 39 34q22 12 47 12zM222 628q-45 0 -72 -38q-8 -10 -11.5 -19 t-5.5 -19l1 -10t4 -27q2 -5 7.5 -12.5t14.5 -15.5l7 -2l31 -7q9 0 18 2t20 7q9 7 17 14t15 14q8 14 12 25.5l4 11.5l1 4q2 13 -2 26t-12.5 23t-20.5 16.5t-25 6.5h-3zM163 502l16 97h32q20 0 24 -4q3 -2 5 -3.5t5 -3.5q4 -8 3 -15q-4 -25 -34 -27q9 -4 11.5 -9t8.5 -16 l9 -19h-20l-5 16q-9 20 -13 21q-3 4 -11 4h-9l-7 -41h-15zM186 556h18q14 0 19.5 4t7.5 12q0 9 -7 13q-1 1 -16 1h-17z" />
<glyph unicode="&#xaf;" horiz-adv-x="357" d="M389 535h-297q22 41 62 75h293z" />
<glyph unicode="&#xb0;" horiz-adv-x="159" d="M133 640l-11 -69h97l11 69h-97zM158 596l2 18h32l-2 -18h-32z" />
<glyph unicode="&#xb1;" horiz-adv-x="310" d="M191 560h111l-12 -77l71 35l-16 -104l-73 -39l-20 -133h-111l12 83l-76 -36l16 103l77 41zM47 103l268 126l-16 -104l-268 -125z" />
<glyph unicode="&#xb2;" horiz-adv-x="222" d="M102 450l90 44l16 97h-21l-8 -55q-3 -3 -11 -6.5t-18 -6.5t-20 -5t-17 -2l17 106l8 12l6 7h115q5 0 8 -5h2l8 -8l-27 -166l-90 -45l-6 -31h70l20 -50h-160z" />
<glyph unicode="&#xb3;" horiz-adv-x="225" d="M267 547l15 9l11 68l-3 7.5t-8 8.5h-119q-21 -18 -38 -49h100l-4 -25l-90 -43l-10 -62l89 39l-18 -115h-83l-8 -50h128v1q1 3 10.5 8.5t10.5 5.5l29 185z" />
<glyph unicode="&#xb4;" horiz-adv-x="193" d="M263 640h-81l-61 -69h81z" />
<glyph unicode="&#xb5;" horiz-adv-x="1081" d="M1095 285l-4 12l-104 54l73 19h9l-7 13l-157 33l62 39h-189l21 45l-187 -25l1 39l-14 5l-137 -58l-50 39l-86 -75q-4 -4 -19 -4q-28 0 -65 27l-28 -92l-88 8l-1 -28l40 -58l-91 -5l111 -58l-84 -33l165 -36l-63 -36l194 -7l-28 -44l181 29l18 -25l-12 -25l152 65l58 -40 l84 79l85 -27l21 92l92 -14l4 7q1 21 -48 78zM966 332l-26 -85l-21 2l17 88zM935 211l-21 -18l-14 14l18 12zM883 218q-29 0 -65 57l-8 -56l-23 -2l19 115l58 -76l16 81l22 -5zM767 219l-16 3q-9 27 -26 27q-14 0 -35 -27h-27q18 56 70 114q3 4 18 4q22 0 29 -37zM669 337 l-25 -113l-31 -7l32 115zM589 213q-28 0 -67 56l-8 -54l-23 -4l19 116l62 -73l17 78l18 -5zM491 294q-24 -81 -60 -81q-8 -1 -12.5 -1.5t-9.5 -0.5q-33 0 -40 18q12 73 63 103h15q39 0 44 -38zM377 335l-6 -28q-3 2 -4.5 2.5l-1.5 0.5q0 1 -7 1q-13 0 -36 -17 q-22 -19 -25 -47q-5 -23 21 -23q19 0 25 3l-2 -19q-12 -2 -16 -4t-10 -2q-36 0 -39 52l-0.5 1.5t-1.5 5.5l1 8q10 54 102 66zM273 332l-26 -112l-28 -9l32 118zM752 275l-9 38l-30 -38h39zM463 277l1 5q-2 1 0 9q-8 14 -21 14q-21 0 -42 -36l-1 -8q-3 -28 15 -28q16 0 35 10 q8 10 9.5 16.5t3.5 17.5z" />
<glyph unicode="&#xb6;" horiz-adv-x="1126" d="M1142 294l-2 -1l-19 -28h-62l32 -50l1 -9l-1 -5q-1 -19 -24 -28l-68 15l-22 -78q-6 -14 -28 -14q-17 0 -30 5.5t-31 16.5l-8 2l-79 -70l-36 -6l-38 38l-144 -64l-20 8l5 37l-180 -25l-19 12l13 32l-180 15l4 23l25 22l-111 20q-22 0 -17 26l49 32l-72 34l-4 31l80 12 l-32 48l10 38l80 -8q15 92 49 92h4l73 -24q33 34 54 51t44 25l58 -37l137 59l22 -22l-7 -19l2 -7l147 26l49 -5l-12 -39h166l12 -14q-6 -34 -32 -36l136 -36l-2 -8q-3 -30 -57 -36q88 -33 85 -51zM1117 285l-4 12l-104 54l73 19h9l-7 13l-157 33l62 39h-189l21 45l-187 -25 l1 39l-14 5l-137 -58l-50 39l-86 -75q-4 -4 -19 -4q-28 0 -65 27l-28 -92l-88 8l-1 -28l40 -58l-91 -5l111 -58l-84 -33l165 -36l-63 -36l194 -7l-28 -44l181 29l18 -25l-12 -25l152 65l58 -40l84 79l85 -27l21 92l92 -14l4 7q1 21 -48 78zM988 332l-26 -85l-21 2l17 88z M957 211l-21 -18l-14 14l18 12zM905 218q-29 0 -65 57l-8 -56l-23 -2l19 115l58 -76l16 81l22 -5zM789 219l-16 3q-9 27 -26 27q-14 0 -35 -27h-27q18 56 70 114q3 4 18 4q22 0 29 -37zM691 337l-25 -113l-31 -7l32 115zM611 213q-28 0 -67 56l-8 -54l-23 -4l19 116l62 -73 l17 78l18 -5zM513 294q-24 -81 -60 -81q-8 -1 -12.5 -1.5t-9.5 -0.5q-33 0 -40 18q12 73 63 103h15q39 0 44 -38zM399 335l-6 -28q-3 2 -4.5 2.5l-1.5 0.5q0 1 -7 1q-13 0 -36 -17q-22 -19 -25 -47q-5 -23 21 -23q19 0 25 3l-2 -19q-12 -2 -16 -4t-10 -2q-36 0 -39 52 l-0.5 1.5t-1.5 5.5l1 8q10 54 102 66zM295 332l-26 -112l-28 -9l32 118zM774 275l-9 38l-30 -38h39zM485 277l1 5q-2 1 0 9q-8 14 -21 14q-21 0 -42 -36l-1 -8q-3 -28 15 -28q16 0 35 10q8 10 9.5 16.5t3.5 17.5z" />
<glyph unicode="&#xb7;" horiz-adv-x="173" d="M93 392l13 80h111l-13 -80h-111z" />
<glyph unicode="&#xb8;" horiz-adv-x="177" d="M35 0h111l-13 -77l-195 -86l16 103l78 41z" />
<glyph unicode="&#xb9;" horiz-adv-x="130" d="M133 640h68l-49 -304h-68z" />
<glyph unicode="&#xba;" horiz-adv-x="207" d="M90 340l4 -5h120q3 0 11 5q4 1 6 5l45 285l-4 5q-2 1 -5 3t-4 2h-120l-2 -2t-4 -3l-7 -10l-43 -275q-1 -2 0.5 -5zM179 427h-14l19 123h14z" />
<glyph unicode="&#xbb;" horiz-adv-x="236" d="M167 422l-61 50l-13 -81l39 -30l-49 -30l-12 -81l77 50zM272 422l-61 50l-13 -81l39 -30l-49 -30l-12 -81l77 50z" />
<glyph unicode="&#xbc;" horiz-adv-x="419" d="M388 0q-4 -4 -12 -10.5t-17.5 -12.5t-20 -11t-19.5 -6l36 226l-107 -46l15 96l-121 -236h-111l156 307h-51l48 304h68l-41 -257l131 256h111l-157 -307h39l-11 -71l41 17l8 54h63z" />
<glyph unicode="&#xbd;" horiz-adv-x="416" d="M243 114l90 44l16 97h-21l-9 -55q-2 -3 -10 -6.5t-18 -6.5t-20.5 -5t-16.5 -2l9 56l-121 -236h-111l156 307h-51l48 304h68l-41 -257l131 256h111l-155 -305h102q3 0 8 -5h2l7 -8l-26 -166l-91 -45l-5 -31h70l20 -50h-160z" />
<glyph unicode="&#xbe;" horiz-adv-x="448" d="M263 518l11 -12l-20 -125l117 229h111l-157 -307h39l-11 -71l41 17l8 54h63l-48 -303q-4 -4 -12 -10.5t-17.5 -12.5t-20 -11t-19.5 -6l36 226l-107 -46l15 96l-121 -236h-111l156 306h-119l8 50h83l18 115l-90 -39l10 62l91 43l3 25h-100q14 27 38 49h119q7 -6 8 -8.5 t4 -7.5l-11 -68z" />
<glyph unicode="&#xbf;" horiz-adv-x="355" d="M384 390l-195 -90l-35 -220h70l18 121q6 5 20.5 11t32 11t35 8.5t28.5 3.5l-33 -205q1 -2 -4 -9t-8 -11q-3 -2 -7 -6t-5 -4h-240q-1 0 -8 4t-10 6l-5.5 5.5t-2.5 4.5l52 334l195 91h110zM420 610l-13 -80h-111l13 80h111z" />
<glyph unicode="&#xc0;" d="M284 -45q-3 -3 -15.5 -9t-26.5 -12.5t-27.5 -12t-17.5 -6.5l69 432l-76 -35l-50 -312h-109l75 470l70 65h-90q4 6 12.5 17t17.5 22.5t18 21.5t14 14h240q1 0 7.5 -4t11.5 -6q2 -2 5 -5.5t3 -4.5l-97 -605q0 -1 -4 -4.5t-9 -8t-11 -9.5t-10 -8zM295 530h-71l-18 -117 l76 35zM223 717h81l40 -69h-81z" />
<glyph unicode="&#xc1;" d="M284 -45q-3 -3 -15.5 -9t-26.5 -12.5t-27.5 -12t-17.5 -6.5l69 432l-76 -35l-50 -312h-109l75 470l70 65h-90q4 6 12.5 17t17.5 22.5t18 21.5t14 14h240q1 0 7.5 -4t11.5 -6q2 -2 5 -5.5t3 -4.5l-97 -605q0 -1 -4 -4.5t-9 -8t-11 -9.5t-10 -8zM295 530h-71l-18 -117 l76 35zM275 717h81l-60 -69h-81z" />
<glyph unicode="&#xc2;" d="M284 -45q-3 -3 -15.5 -9t-26.5 -12.5t-27.5 -12t-17.5 -6.5l69 432l-76 -35l-50 -312h-109l75 470l70 65h-90q4 6 12.5 17t17.5 22.5t18 21.5t14 14h240q1 0 7.5 -4t11.5 -6q2 -2 5 -5.5t3 -4.5l-97 -605q0 -1 -4 -4.5t-9 -8t-11 -9.5t-10 -8zM295 530h-71l-18 -117 l76 35zM350 717l40 -69h-81l-23 43l-37 -43h-81l60 69h122z" />
<glyph unicode="&#xc3;" d="M284 -45q-3 -3 -15.5 -9t-26.5 -12.5t-27.5 -12t-17.5 -6.5l69 432l-76 -35l-50 -312h-109l75 470l70 65h-90q4 6 12.5 17t17.5 22.5t18 21.5t14 14h240q1 0 7.5 -4t11.5 -6q2 -2 5 -5.5t3 -4.5l-97 -605q0 -1 -4 -4.5t-9 -8t-11 -9.5t-10 -8zM295 530h-71l-18 -117 l76 35zM286 717l24 -43l36 43h81l-60 -69h-82l-23 43l-37 -43h-81l60 69h82z" />
<glyph unicode="&#xc4;" d="M284 -45q-3 -3 -15.5 -9t-26.5 -12.5t-27.5 -12t-17.5 -6.5l69 432l-76 -35l-50 -312h-109l75 470l70 65h-90q4 6 12.5 17t17.5 22.5t18 21.5t14 14h240q1 0 7.5 -4t11.5 -6q2 -2 5 -5.5t3 -4.5l-97 -605q0 -1 -4 -4.5t-9 -8t-11 -9.5t-10 -8zM295 530h-71l-18 -117 l76 35zM168 648l10 69h97l-10 -69h-97zM400 717l-10 -69h-97l10 69h97z" />
<glyph unicode="&#xc5;" d="M241 717l-10 -69h97l10 69h-97zM224 530h71l-13 -82l-76 -35zM284 -45q4 3 10 8t11 9.5t9 8t4 4.5l97 605q0 1 -3 4.5t-5 5.5q-5 2 -11.5 6t-7.5 4h-240q-5 -4 -14 -14t-18 -21.5t-17.5 -22.5t-12.5 -17h90l-70 -65l-75 -470h109l50 312l76 35l-69 -432q4 1 17.5 6.5 t27.5 12t26.5 12.5t15.5 9zM267 673l3 18h32l-3 -18h-32z" />
<glyph unicode="&#xc6;" horiz-adv-x="531" d="M283 -45q-3 -3 -15.5 -9t-26.5 -12.5t-27.5 -12t-17.5 -6.5l69 432l-76 -35l-50 -312h-109l75 470l70 65h-90q4 6 12.5 17t17.5 22.5t18 21.5t14 14h473l-59 -80h-157l-19 -120l134 62l-16 -102l-134 -61l-36 -229h70l17 109q6 5 20.5 11t31.5 11t34.5 8.5t28.5 3.5 l-35 -223h-180l-3 -15q0 -1 -4 -4.5t-9 -8t-11 -9.5t-10 -8zM294 530h-71l-18 -117l76 35z" />
<glyph unicode="&#xc7;" horiz-adv-x="207" d="M90 340l4 -5h120q3 0 11 5q4 1 6 5l45 285l-4 5q-2 1 -5 3t-4 2h-120l-2 -2t-4 -3l-7 -10l-43 -275q-1 -2 0.5 -5zM179 427h-14l19 123h14z" />
<glyph unicode="&#xc8;" d="M190 309l-36 -229h70l17 109q6 5 20.5 11t31.5 11t34.5 8.5t28.5 3.5l-35 -223h-290l71 450l74 85h-90q22 41 62 75h293l-59 -80h-157l-19 -120l134 62l-16 -102zM223 717h81l40 -69h-81z" />
<glyph unicode="&#xc9;" d="M190 309l-36 -229h70l17 109q6 5 20.5 11t31.5 11t34.5 8.5t28.5 3.5l-35 -223h-290l71 450l74 85h-90q22 41 62 75h293l-59 -80h-157l-19 -120l134 62l-16 -102zM275 717h81l-60 -69h-81z" />
<glyph unicode="&#xca;" d="M190 309l-36 -229h70l17 109q6 5 20.5 11t31.5 11t34.5 8.5t28.5 3.5l-35 -223h-290l71 450l74 85h-90q22 41 62 75h293l-59 -80h-157l-19 -120l134 62l-16 -102zM350 717l40 -69h-81l-23 43l-37 -43h-81l60 69h122z" />
<glyph unicode="&#xcb;" d="M190 309l-36 -229h70l17 109q6 5 20.5 11t31.5 11t34.5 8.5t28.5 3.5l-35 -223h-290l71 450l74 85h-90q22 41 62 75h293l-59 -80h-157l-19 -120l134 62l-16 -102zM168 648l10 69h97l-10 -69h-97zM400 717l-10 -69h-97l10 69h97z" />
<glyph unicode="&#xcc;" horiz-adv-x="303" d="M209 75h99q-23 -42 -62 -75h-253l58 75h48l65 405l58 55h-143q22 41 62 75h253l-58 -75h-54zM199 717h81l40 -69h-81z" />
<glyph unicode="&#xcd;" horiz-adv-x="303" d="M209 75h99q-23 -42 -62 -75h-253l58 75h48l65 405l58 55h-143q22 41 62 75h253l-58 -75h-54zM251 717h81l-60 -69h-81z" />
<glyph unicode="&#xce;" horiz-adv-x="303" d="M209 75h99q-23 -42 -62 -75h-253l58 75h48l65 405l58 55h-143q22 41 62 75h253l-58 -75h-54zM326 718l39 -69h-81l-23 43l-37 -43h-81l61 69h122z" />
<glyph unicode="&#xcf;" horiz-adv-x="303" d="M143 648l10 69h97l-10 -69h-97zM375 717l-10 -69h-97l10 69h97zM209 75h99q-23 -42 -62 -75h-253l58 75h48l65 405l58 55h-143q22 41 62 75h253l-58 -75h-54z" />
<glyph unicode="&#xd0;" horiz-adv-x="420" d="M80 309l16 101l73 34l15 91h-30q4 6 12.5 17t17.5 22.5t18 21.5t14 14h240q1 0 7.5 -4t11.5 -6q2 -2 5 -5.5t3 -4.5l-90 -570q-1 -1 -5.5 -4.5t-6.5 -5.5q-5 -2 -13 -6t-9 -4h-260l54 342zM293 530l-71 -450h70l71 450h-70z" />
<glyph unicode="&#xd1;" horiz-adv-x="387" d="M17 -85l111 695h102l89 -144l23 144h111l-97 -610h-111l44 278l-81 137l-69 -430q-2 -9 -18 -19.5t-36.5 -21t-40 -18.5t-27.5 -11zM301 717l24 -43l36 43h81l-60 -69h-82l-23 43l-37 -43h-81l60 69h82z" />
<glyph unicode="&#xd2;" d="M106 470l70 65h-90q4 6 12.5 17t17.5 22.5t18 21.5t14 14h240q1 0 7.5 -4t11.5 -6q2 -2 5 -5.5t3 -4.5l-90 -570q-1 -1 -5.5 -4.5t-6.5 -5.5q-5 -2 -13 -6t-9 -4h-240q-1 0 -3.5 4t-4.5 6q-2 4 -4.5 11t-3.5 9zM225 530l-71 -450h70l71 450h-70zM223 717h81l40 -69h-81z " />
<glyph unicode="&#xd3;" d="M106 470l70 65h-90q4 6 12.5 17t17.5 22.5t18 21.5t14 14h240q1 0 7.5 -4t11.5 -6q2 -2 5 -5.5t3 -4.5l-90 -570q-1 -1 -5.5 -4.5t-6.5 -5.5q-5 -2 -13 -6t-9 -4h-240q-1 0 -3.5 4t-4.5 6q-2 4 -4.5 11t-3.5 9zM225 530l-71 -450h70l71 450h-70zM275 717h81l-60 -69h-81z " />
<glyph unicode="&#xd4;" d="M106 470l70 65h-90q4 6 12.5 17t17.5 22.5t18 21.5t14 14h240q1 0 7.5 -4t11.5 -6q2 -2 5 -5.5t3 -4.5l-90 -570q-1 -1 -5.5 -4.5t-6.5 -5.5q-5 -2 -13 -6t-9 -4h-240q-1 0 -3.5 4t-4.5 6q-2 4 -4.5 11t-3.5 9zM225 530l-71 -450h70l71 450h-70zM350 717l40 -69h-81 l-23 43l-37 -43h-81l60 69h122z" />
<glyph unicode="&#xd5;" d="M106 470l70 65h-90q4 6 12.5 17t17.5 22.5t18 21.5t14 14h240q1 0 7.5 -4t11.5 -6q2 -2 5 -5.5t3 -4.5l-90 -570q-1 -1 -5.5 -4.5t-6.5 -5.5q-5 -2 -13 -6t-9 -4h-240q-1 0 -3.5 4t-4.5 6q-2 4 -4.5 11t-3.5 9zM225 530l-71 -450h70l71 450h-70zM286 717l24 -43l36 43h81 l-60 -69h-82l-23 43l-37 -43h-81l60 69h82z" />
<glyph unicode="&#xd6;" d="M106 470l70 65h-90q4 6 12.5 17t17.5 22.5t18 21.5t14 14h240q1 0 7.5 -4t11.5 -6q2 -2 5 -5.5t3 -4.5l-90 -570q-1 -1 -5.5 -4.5t-6.5 -5.5q-5 -2 -13 -6t-9 -4h-240q-1 0 -3.5 4t-4.5 6q-2 4 -4.5 11t-3.5 9zM225 530l-71 -450h70l71 450h-70zM168 648l10 69h97 l-10 -69h-97zM400 717l-10 -69h-97l10 69h97z" />
<glyph unicode="&#xd7;" horiz-adv-x="387" d="M31 0l154 303l-58 307h111l28 -148l76 148h111l-157 -307l59 -303h-111l-28 145l-74 -145h-111z" />
<glyph unicode="&#xd8;" d="M43 10q-2 4 -4.5 11t-3.5 9l88 550q1 2 6 9t8 11l6 6t5 4h240q1 0 7.5 -4t11.5 -6q2 -2 5 -5.5t3 -4.5l-90 -570q-1 -1 -5.5 -4.5t-6.5 -5.5q-5 -2 -13 -6t-9 -4h-240q-1 0 -3.5 4t-4.5 6zM161 80h63l27 178zM225 530l-28 -181l89 181h-61z" />
<glyph unicode="&#xd9;" d="M238 610l-84 -530h70l84 530h110l-93 -590q-1 -1 -5.5 -4.5t-6.5 -5.5q-5 -2 -13 -6t-9 -4h-240q-1 0 -3.5 4t-4.5 6q-2 4 -4.5 11t-3.5 9l93 580h110zM223 717h81l40 -69h-81z" />
<glyph unicode="&#xda;" d="M238 610l-84 -530h70l84 530h110l-93 -590q-1 -1 -5.5 -4.5t-6.5 -5.5q-5 -2 -13 -6t-9 -4h-240q-1 0 -3.5 4t-4.5 6q-2 4 -4.5 11t-3.5 9l93 580h110zM275 717h81l-60 -69h-81z" />
<glyph unicode="&#xdb;" d="M238 610l-84 -530h70l84 530h110l-93 -590q-1 -1 -5.5 -4.5t-6.5 -5.5q-5 -2 -13 -6t-9 -4h-240q-1 0 -3.5 4t-4.5 6q-2 4 -4.5 11t-3.5 9l93 580h110zM350 717l40 -69h-81l-23 43l-37 -43h-81l60 69h122z" />
<glyph unicode="&#xdc;" d="M238 610l-84 -530h70l84 530h110l-93 -590q-1 -1 -5.5 -4.5t-6.5 -5.5q-5 -2 -13 -6t-9 -4h-240q-1 0 -3.5 4t-4.5 6q-2 4 -4.5 11t-3.5 9l93 580h110zM168 648l10 69h97l-10 -69h-97zM400 717l-10 -69h-97l10 69h97z" />
<glyph unicode="&#xdd;" d="M128 610h110l-29 -187l76 40l23 147h110l-28 -174q0 -1 -4 -4.5t-7 -5.5q-4 -2 -12.5 -6t-9.5 -4l-65 -34l-72 -455q-13 1 -28 10t-29 20.5t-25 23.5t-16 19l50 320l-76 -37q-1 0 -3.5 4t-4.5 6q-2 4 -4.5 11t-2.5 9zM275 717h81l-60 -69h-81z" />
<glyph unicode="&#xde;" horiz-adv-x="387" d="M128 610h111l-16 -98h195q9 -4 11.5 -9.5t4.5 -11.5l-28 -173l-232 -107l-33 -211h-110l56 352l73 85h-90q10 25 38 53zM191 312l112 52l10 68h-104z" />
<glyph unicode="&#xdf;" horiz-adv-x="381" d="M7 -153l109 685q21 41 62 78h250q9 -4 11.5 -9.5t4.5 -11.5l-22 -134l-38 -25l30 -30l-60 -380q-1 -1 -5.5 -4.5t-6.5 -5.5q-5 -2 -13 -6t-9 -4h-134l13 80h53l43 270l-58 -27l17 103l58 36l12 70h-95l-109 -685h-113z" />
<glyph unicode="&#xe0;" d="M284 -45q-3 -3 -15.5 -9t-26.5 -12.5t-27.5 -12t-17.5 -6.5l69 432l-76 -35l-50 -312h-109l75 470l70 65h-90q4 6 12.5 17t17.5 22.5t18 21.5t14 14h240q1 0 7.5 -4t11.5 -6q2 -2 5 -5.5t3 -4.5l-97 -605q0 -1 -4 -4.5t-9 -8t-11 -9.5t-10 -8zM295 530h-71l-18 -117 l76 35zM223 717h81l40 -69h-81z" />
<glyph unicode="&#xe1;" d="M284 -45q-3 -3 -15.5 -9t-26.5 -12.5t-27.5 -12t-17.5 -6.5l69 432l-76 -35l-50 -312h-109l75 470l70 65h-90q4 6 12.5 17t17.5 22.5t18 21.5t14 14h240q1 0 7.5 -4t11.5 -6q2 -2 5 -5.5t3 -4.5l-97 -605q0 -1 -4 -4.5t-9 -8t-11 -9.5t-10 -8zM295 530h-71l-18 -117 l76 35zM275 717h81l-60 -69h-81z" />
<glyph unicode="&#xe2;" d="M284 -45q-3 -3 -15.5 -9t-26.5 -12.5t-27.5 -12t-17.5 -6.5l69 432l-76 -35l-50 -312h-109l75 470l70 65h-90q4 6 12.5 17t17.5 22.5t18 21.5t14 14h240q1 0 7.5 -4t11.5 -6q2 -2 5 -5.5t3 -4.5l-97 -605q0 -1 -4 -4.5t-9 -8t-11 -9.5t-10 -8zM295 530h-71l-18 -117 l76 35zM350 717l40 -69h-81l-23 43l-37 -43h-81l60 69h122z" />
<glyph unicode="&#xe3;" d="M284 -45q-3 -3 -15.5 -9t-26.5 -12.5t-27.5 -12t-17.5 -6.5l69 432l-76 -35l-50 -312h-109l75 470l70 65h-90q4 6 12.5 17t17.5 22.5t18 21.5t14 14h240q1 0 7.5 -4t11.5 -6q2 -2 5 -5.5t3 -4.5l-97 -605q0 -1 -4 -4.5t-9 -8t-11 -9.5t-10 -8zM295 530h-71l-18 -117 l76 35zM286 717l24 -43l36 43h81l-60 -69h-82l-23 43l-37 -43h-81l60 69h82z" />
<glyph unicode="&#xe4;" d="M284 -45q-3 -3 -15.5 -9t-26.5 -12.5t-27.5 -12t-17.5 -6.5l69 432l-76 -35l-50 -312h-109l75 470l70 65h-90q4 6 12.5 17t17.5 22.5t18 21.5t14 14h240q1 0 7.5 -4t11.5 -6q2 -2 5 -5.5t3 -4.5l-97 -605q0 -1 -4 -4.5t-9 -8t-11 -9.5t-10 -8zM295 530h-71l-18 -117 l76 35zM168 648l10 69h97l-10 -69h-97zM400 717l-10 -69h-97l10 69h97z" />
<glyph unicode="&#xe5;" d="M241 717l-10 -69h97l10 69h-97zM224 530h71l-13 -82l-76 -35zM284 -45q4 3 10 8t11 9.5t9 8t4 4.5l97 605q0 1 -3 4.5t-5 5.5q-5 2 -11.5 6t-7.5 4h-240q-5 -4 -14 -14t-18 -21.5t-17.5 -22.5t-12.5 -17h90l-70 -65l-75 -470h109l50 312l76 35l-69 -432q4 1 17.5 6.5 t27.5 12t26.5 12.5t15.5 9zM267 673l3 18h32l-3 -18h-32z" />
<glyph unicode="&#xe6;" horiz-adv-x="531" d="M283 -45q-3 -3 -15.5 -9t-26.5 -12.5t-27.5 -12t-17.5 -6.5l69 432l-76 -35l-50 -312h-109l75 470l70 65h-90q4 6 12.5 17t17.5 22.5t18 21.5t14 14h473l-59 -80h-157l-19 -120l134 62l-16 -102l-134 -61l-36 -229h70l17 109q6 5 20.5 11t31.5 11t34.5 8.5t28.5 3.5 l-35 -223h-180l-3 -15q0 -1 -4 -4.5t-9 -8t-11 -9.5t-10 -8zM294 530h-71l-18 -117l76 35z" />
<glyph unicode="&#xe7;" d="M314 520h-90l-70 -440h70l17 109q6 5 20.5 11t31.5 11t34.5 8.5t28.5 3.5l-35 -223h-55l-13 -77l-195 -86l16 103l78 41l3 19h-104q-1 0 -3.5 4t-4.5 6q-2 4 -4.5 11t-3.5 9l71 440l70 65h-90q22 41 62 75h270l-29 -180l-12 1q-15 6 -28 13t-22 17.5t-13 24.5t0 34z" />
<glyph unicode="&#xe8;" d="M190 309l-36 -229h70l17 109q6 5 20.5 11t31.5 11t34.5 8.5t28.5 3.5l-35 -223h-290l71 450l74 85h-90q22 41 62 75h293l-59 -80h-157l-19 -120l134 62l-16 -102zM223 717h81l40 -69h-81z" />
<glyph unicode="&#xe9;" d="M190 309l-36 -229h70l17 109q6 5 20.5 11t31.5 11t34.5 8.5t28.5 3.5l-35 -223h-290l71 450l74 85h-90q22 41 62 75h293l-59 -80h-157l-19 -120l134 62l-16 -102zM275 717h81l-60 -69h-81z" />
<glyph unicode="&#xea;" d="M190 309l-36 -229h70l17 109q6 5 20.5 11t31.5 11t34.5 8.5t28.5 3.5l-35 -223h-290l71 450l74 85h-90q22 41 62 75h293l-59 -80h-157l-19 -120l134 62l-16 -102zM350 717l40 -69h-81l-23 43l-37 -43h-81l60 69h122z" />
<glyph unicode="&#xeb;" d="M190 309l-36 -229h70l17 109q6 5 20.5 11t31.5 11t34.5 8.5t28.5 3.5l-35 -223h-290l71 450l74 85h-90q22 41 62 75h293l-59 -80h-157l-19 -120l134 62l-16 -102zM168 648l10 69h97l-10 -69h-97zM400 717l-10 -69h-97l10 69h97z" />
<glyph unicode="&#xec;" horiz-adv-x="173" d="M128 610h111l-97 -610h-111zM133 717h81l40 -69h-81z" />
<glyph unicode="&#xed;" horiz-adv-x="173" d="M128 610h111l-97 -610h-111zM183 717h81l-60 -69h-81z" />
<glyph unicode="&#xee;" horiz-adv-x="173" d="M128 610h111l-97 -610h-111zM261 718l39 -69h-81l-23 43l-37 -43h-81l61 69h122z" />
<glyph unicode="&#xef;" horiz-adv-x="173" d="M128 610h111l-97 -610h-111zM78 648l10 69h97l-10 -69h-97zM310 717l-10 -69h-97l10 69h97z" />
<glyph unicode="&#xf0;" horiz-adv-x="336" d="M287 530h-157l-33 80h293q15 -17 24.5 -35.5t13.5 -39.5h-90l50 -65l-71 -440q1 -2 -4 -9t-8 -11q-3 -2 -7 -6t-5 -4h-249q-8 5 -11 12.5t-6 16.5l71 443l164 -96zM244 263l-62 42l-36 -225h70z" />
<glyph unicode="&#xf1;" horiz-adv-x="387" d="M17 -85l111 695h102l89 -144l23 144h111l-97 -610h-111l44 278l-81 137l-69 -430q-2 -9 -18 -19.5t-36.5 -21t-40 -18.5t-27.5 -11zM301 717l24 -43l36 43h81l-60 -69h-82l-23 43l-37 -43h-81l60 69h82z" />
<glyph unicode="&#xf2;" d="M106 470l70 65h-90q4 6 12.5 17t17.5 22.5t18 21.5t14 14h240q1 0 7.5 -4t11.5 -6q2 -2 5 -5.5t3 -4.5l-90 -570q-1 -1 -5.5 -4.5t-6.5 -5.5q-5 -2 -13 -6t-9 -4h-240q-1 0 -3.5 4t-4.5 6q-2 4 -4.5 11t-3.5 9zM225 530l-71 -450h70l71 450h-70zM223 717h81l40 -69h-81z " />
<glyph unicode="&#xf3;" d="M106 470l70 65h-90q4 6 12.5 17t17.5 22.5t18 21.5t14 14h240q1 0 7.5 -4t11.5 -6q2 -2 5 -5.5t3 -4.5l-90 -570q-1 -1 -5.5 -4.5t-6.5 -5.5q-5 -2 -13 -6t-9 -4h-240q-1 0 -3.5 4t-4.5 6q-2 4 -4.5 11t-3.5 9zM225 530l-71 -450h70l71 450h-70zM275 717h81l-60 -69h-81z " />
<glyph unicode="&#xf4;" d="M106 470l70 65h-90q4 6 12.5 17t17.5 22.5t18 21.5t14 14h240q1 0 7.5 -4t11.5 -6q2 -2 5 -5.5t3 -4.5l-90 -570q-1 -1 -5.5 -4.5t-6.5 -5.5q-5 -2 -13 -6t-9 -4h-240q-1 0 -3.5 4t-4.5 6q-2 4 -4.5 11t-3.5 9zM225 530l-71 -450h70l71 450h-70zM350 717l40 -69h-81 l-23 43l-37 -43h-81l60 69h122z" />
<glyph unicode="&#xf5;" d="M106 470l70 65h-90q4 6 12.5 17t17.5 22.5t18 21.5t14 14h240q1 0 7.5 -4t11.5 -6q2 -2 5 -5.5t3 -4.5l-90 -570q-1 -1 -5.5 -4.5t-6.5 -5.5q-5 -2 -13 -6t-9 -4h-240q-1 0 -3.5 4t-4.5 6q-2 4 -4.5 11t-3.5 9zM225 530l-71 -450h70l71 450h-70zM286 717l24 -43l36 43h81 l-60 -69h-82l-23 43l-37 -43h-81l60 69h82z" />
<glyph unicode="&#xf6;" d="M106 470l70 65h-90q4 6 12.5 17t17.5 22.5t18 21.5t14 14h240q1 0 7.5 -4t11.5 -6q2 -2 5 -5.5t3 -4.5l-90 -570q-1 -1 -5.5 -4.5t-6.5 -5.5q-5 -2 -13 -6t-9 -4h-240q-1 0 -3.5 4t-4.5 6q-2 4 -4.5 11t-3.5 9zM225 530l-71 -450h70l71 450h-70zM168 648l10 69h97 l-10 -69h-97zM400 717l-10 -69h-97l10 69h97z" />
<glyph unicode="&#xf7;" horiz-adv-x="310" d="M70 244l16 103l268 124l-16 -102zM124 172l13 80h111l-13 -80h-111zM169 461l13 80h111l-13 -80h-111z" />
<glyph unicode="&#xf8;" d="M106 470l70 65h-90q4 6 12.5 17t17.5 22.5t18 21.5t14 14h240q1 0 7.5 -4t11.5 -6q2 -2 5 -5.5t3 -4.5l-90 -570q-1 -1 -5.5 -4.5t-6.5 -5.5q-5 -2 -13 -6t-9 -4h-240q-1 0 -3.5 4t-4.5 6q-2 4 -4.5 11t-3.5 9zM161 80h63l27 178zM225 530l-28 -181l89 181h-61z" />
<glyph unicode="&#xf9;" d="M238 610l-84 -530h70l84 530h110l-93 -590q-1 -1 -5.5 -4.5t-6.5 -5.5q-5 -2 -13 -6t-9 -4h-240q-1 0 -3.5 4t-4.5 6q-2 4 -4.5 11t-3.5 9l93 580h110zM223 717h81l40 -69h-81z" />
<glyph unicode="&#xfa;" d="M238 610l-84 -530h70l84 530h110l-93 -590q-1 -1 -5.5 -4.5t-6.5 -5.5q-5 -2 -13 -6t-9 -4h-240q-1 0 -3.5 4t-4.5 6q-2 4 -4.5 11t-3.5 9l93 580h110zM275 717h81l-60 -69h-81z" />
<glyph unicode="&#xfb;" d="M238 610l-84 -530h70l84 530h110l-93 -590q-1 -1 -5.5 -4.5t-6.5 -5.5q-5 -2 -13 -6t-9 -4h-240q-1 0 -3.5 4t-4.5 6q-2 4 -4.5 11t-3.5 9l93 580h110zM350 717l40 -69h-81l-23 43l-37 -43h-81l60 69h122z" />
<glyph unicode="&#xfc;" d="M238 610l-84 -530h70l84 530h110l-93 -590q-1 -1 -5.5 -4.5t-6.5 -5.5q-5 -2 -13 -6t-9 -4h-240q-1 0 -3.5 4t-4.5 6q-2 4 -4.5 11t-3.5 9l93 580h110zM168 648l10 69h97l-10 -69h-97zM400 717l-10 -69h-97l10 69h97z" />
<glyph unicode="&#xfd;" d="M128 610h110l-29 -187l76 40l23 147h110l-28 -174q0 -1 -4 -4.5t-7 -5.5q-4 -2 -12.5 -6t-9.5 -4l-65 -34l-72 -455q-13 1 -28 10t-29 20.5t-25 23.5t-16 19l50 320l-76 -37q-1 0 -3.5 4t-4.5 6q-2 4 -4.5 11t-2.5 9zM275 717h81l-60 -69h-81z" />
<glyph unicode="&#xfe;" horiz-adv-x="387" d="M128 610h111l-16 -98h195q9 -4 11.5 -9.5t4.5 -11.5l-28 -173l-232 -107l-33 -211h-110l56 352l73 85h-90q10 25 38 53zM191 312l112 52l10 68h-104z" />
<glyph unicode="&#xff;" d="M128 610h110l-29 -187l76 40l23 147h110l-28 -174q0 -1 -4 -4.5t-7 -5.5q-4 -2 -12.5 -6t-9.5 -4l-65 -34l-72 -455q-13 1 -28 10t-29 20.5t-25 23.5t-16 19l50 320l-76 -37q-1 0 -3.5 4t-4.5 6q-2 4 -4.5 11t-2.5 9zM168 648l10 69h97l-10 -69h-97zM400 717l-10 -69h-97 l10 69h97z" />
<glyph unicode="&#x152;" horiz-adv-x="593" d="M431 309l-36 -229h70l18 121q6 5 20.5 11t32 11t35 8.5t28.5 3.5l-37 -235h-512q-1 0 -3.5 4t-4.5 6q-2 4 -4.5 11t-3.5 9l71 440l70 65h-90q22 41 62 75h535l-59 -80h-157l-19 -120l134 62l-16 -102zM313 520h-90l-70 -440h70l17 109q8 6 26 13t40 13l37 232 q-17 11 -26 28t-4 45z" />
<glyph unicode="&#x153;" horiz-adv-x="593" d="M431 309l-36 -229h70l18 121q6 5 20.5 11t32 11t35 8.5t28.5 3.5l-37 -235h-512q-1 0 -3.5 4t-4.5 6q-2 4 -4.5 11t-3.5 9l71 440l70 65h-90q22 41 62 75h535l-59 -80h-157l-19 -120l134 62l-16 -102zM313 520h-90l-70 -440h70l17 109q8 6 26 13t40 13l37 232 q-17 11 -26 28t-4 45z" />
<glyph unicode="&#x178;" d="M128 610h110l-29 -187l76 40l23 147h110l-28 -174q0 -1 -4 -4.5t-7 -5.5q-4 -2 -12.5 -6t-9.5 -4l-65 -34l-72 -455q-13 1 -28 10t-29 20.5t-25 23.5t-16 19l50 320l-76 -37q-1 0 -3.5 4t-4.5 6q-2 4 -4.5 11t-2.5 9zM168 648l10 69h97l-10 -69h-97zM400 717l-10 -69h-97 l10 69h97z" />
<glyph unicode="&#x2c6;" horiz-adv-x="284" d="M305 640l39 -69h-81l-24 43l-36 -43h-81l61 69h122z" />
<glyph unicode="&#x2dc;" horiz-adv-x="335" d="M265 640l23 -43l37 43h81l-61 -69h-82l-24 43l-36 -43h-81l61 69h82z" />
<glyph unicode="&#x2000;" horiz-adv-x="375" />
<glyph unicode="&#x2001;" horiz-adv-x="751" />
<glyph unicode="&#x2002;" horiz-adv-x="375" />
<glyph unicode="&#x2003;" horiz-adv-x="751" />
<glyph unicode="&#x2004;" horiz-adv-x="250" />
<glyph unicode="&#x2005;" horiz-adv-x="187" />
<glyph unicode="&#x2006;" horiz-adv-x="125" />
<glyph unicode="&#x2007;" horiz-adv-x="125" />
<glyph unicode="&#x2008;" horiz-adv-x="93" />
<glyph unicode="&#x2009;" horiz-adv-x="150" />
<glyph unicode="&#x200a;" horiz-adv-x="41" />
<glyph unicode="&#x2010;" horiz-adv-x="186" d="M80 309l16 101l134 62l-16 -102z" />
<glyph unicode="&#x2011;" horiz-adv-x="186" d="M80 309l16 101l134 62l-16 -102z" />
<glyph unicode="&#x2012;" horiz-adv-x="186" d="M80 309l16 101l134 62l-16 -102z" />
<glyph unicode="&#x2013;" horiz-adv-x="186" d="M80 309l16 101l134 62l-16 -102z" />
<glyph unicode="&#x2014;" horiz-adv-x="310" d="M70 244l16 103l268 124l-16 -102z" />
<glyph unicode="&#x2018;" horiz-adv-x="172" d="M238 610l-28 -181h-110l17 111q0 1 3.5 5t9 8.5t11.5 9t11 7.5q2 1 14 6.5t26 12.5t27.5 13t18.5 8z" />
<glyph unicode="&#x2019;" horiz-adv-x="172" d="M99 430l29 181h110l-18 -111q0 -2 -4 -5.5t-9 -8t-11 -9l-10 -7.5q-2 -2 -14 -7.5t-27 -12.5t-28.5 -12.5t-17.5 -7.5z" />
<glyph unicode="&#x201a;" horiz-adv-x="173" d="M44 80h111l-13 -80q-7 -7 -22 -19t-33 -23.5t-36.5 -20.5t-31.5 -10z" />
<glyph unicode="&#x201c;" horiz-adv-x="316" d="M238 610l-28 -181h-110l17 111q0 1 3.5 5t9 8.5t11.5 9t11 7.5q2 1 14 6.5t26 12.5t27.5 13t18.5 8zM382 610l-28 -181h-110l17 111q0 1 3.5 5t9 8.5t11.5 9t11 7.5q2 1 14 6.5t26 12.5t27.5 13t18.5 8z" />
<glyph unicode="&#x201d;" horiz-adv-x="316" d="M243 430l29 181h110l-18 -111q0 -2 -4 -5.5t-9 -8t-11 -9l-10 -7.5q-2 -2 -14 -7.5t-27 -12.5t-28.5 -12.5t-17.5 -7.5zM99 430l29 181h110l-18 -111q0 -2 -4 -5.5t-9 -8t-11 -9l-10 -7.5q-2 -2 -14 -7.5t-27 -12.5t-28.5 -12.5t-17.5 -7.5z" />
<glyph unicode="&#x201e;" horiz-adv-x="317" d="M188 80h111l-13 -80q-7 -7 -22 -19t-33 -23.5t-36.5 -20.5t-31.5 -10zM44 80h111l-13 -80q-7 -7 -22 -19t-33 -23.5t-36.5 -20.5t-31.5 -10z" />
<glyph unicode="&#x2022;" d="M43 10q2 -2 4.5 -6t3.5 -4h240q1 0 9 4t13 6q2 2 6.5 5.5t5.5 4.5l90 570q0 1 -3 4.5t-5 5.5q-5 2 -11.5 6t-7.5 4h-240q-1 0 -5 -4l-6 -6q-3 -4 -8 -11t-6 -9l-88 -550q1 -2 3.5 -9t4.5 -11z" />
<glyph unicode="&#x2026;" horiz-adv-x="519" d="M377 0l13 80h111l-13 -80h-111zM204 0l13 80h111l-13 -80h-111zM31 0l13 80h111l-13 -80h-111z" />
<glyph unicode="&#x202f;" horiz-adv-x="150" />
<glyph unicode="&#x2039;" horiz-adv-x="131" d="M98 422l77 50l-13 -81l-47 -30l37 -30l-12 -81l-61 50z" />
<glyph unicode="&#x203a;" horiz-adv-x="131" d="M166 422l-61 50l-13 -81l39 -30l-49 -30l-12 -81l77 50z" />
<glyph unicode="&#x205f;" horiz-adv-x="187" />
<glyph unicode="&#x20ac;" horiz-adv-x="427" d="M71 252l17 103l80 37l13 78l70 65h-90q22 41 62 75h270l-29 -180l-12 1q-15 6 -28 13t-22 17.5t-13 24.5t0 34h-90l-12 -73l68 32l-17 -102l-67 -32l-10 -60l68 32l-16 -102l-68 -32l-16 -103h70l17 109q6 5 20.5 11t31.5 11t34.5 8.5t28.5 3.5l-35 -223h-270 q-1 0 -3.5 4t-4.5 6q-2 4 -4.5 11t-3.5 9l17 98l-82 -38l17 103l81 37l9 60z" />
<glyph unicode="&#x2122;" horiz-adv-x="322" d="M175 619l-18 -112h20l18 112h46l4 21h-112l-4 -21h46zM266 636l-21 -129h14l15 87l7 7l18 -86q1 -6 3 -7t5 -1q6 0 7.5 1t5.5 7l46 88l5 -9l-15 -87h15l22 133h-6q-14 0 -27 -10t-27 -39q-5 -14 -9.5 -24t-10.5 -21q-2 9 -3.5 21t-3.5 29l-2 7q-3 13 -12 25.5t-14 12.5 q-1 0 -1.5 -0.5t0.5 -0.5l1 -1q-1 -1 -6 -1q-4 0 -6 -2z" />
<glyph unicode="&#x25fc;" horiz-adv-x="610" d="M0 610h610v-610h-610v610z" />
</font>
</defs>
</svg>
