<?xml version="1.0" standalone="no"?>
<!DOCTYPE svg PUBLIC "-//W3C//DTD SVG 1.1//EN" "http://www.w3.org/Graphics/SVG/1.1/DTD/svg11.dtd" >
<svg xmlns="http://www.w3.org/2000/svg" xmlns:xlink="http://www.w3.org/1999/xlink" version="1.1">
<metadata></metadata>
<defs>
<font id="winter_solstice_3dregular" horiz-adv-x="392" >
<font-face units-per-em="1000" ascent="800" descent="-200" />
<missing-glyph horiz-adv-x="259" />
<glyph horiz-adv-x="0" />
<glyph unicode="&#xd;" horiz-adv-x="500" />
<glyph unicode=" "  horiz-adv-x="259" />
<glyph unicode="&#x09;" horiz-adv-x="259" />
<glyph unicode="&#xa0;" horiz-adv-x="259" />
<glyph unicode="!" horiz-adv-x="213" d="M51 80v-80h111v80h-111zM162 610h-111v-421h111v421zM38 623h137v-6l32 -32v-441h-131l-32 32h-6v447zM38 -13v106h137v-6l32 -32v-100h-131l-32 32h-6z" />
<glyph unicode="&#x22;" horiz-adv-x="356" d="M51 611v-181q4 2 16.5 8t26 12.5t24.5 12t13 7.5q4 3 9 7.5t9.5 9t8 8.5t3.5 5v111h-110zM195 611v-181q4 2 16.5 8t26 12.5t24.5 12t13 7.5q4 3 9 7.5t9.5 9t8 8.5t3.5 5v111h-110zM182 409v26q-7 -7 -10 -8q-3 -2 -21.5 -11t-34.5 -17l-40 -20l-33 32l-5 -2v215h136v-6 l8 -8v14h136v-6l32 -32v-121q0 -2 -4 -7t-9 -11t-11 -11.5t-10 -8.5q-3 -2 -21.5 -11t-34.5 -17l-40 -20l-33 32z" />
<glyph unicode="#" horiz-adv-x="519" d="M231 333l58 30v-59l-58 -29v58zM231 610h-111v-229l-69 -34v-103l69 35v-60l-69 -34v-103l69 35v-117h111v171l58 30v-201h111v257l68 34v102l-68 -34v60l68 34v105l-68 -37v89h-111v-144l-58 -29v173zM107 623h137v-6l32 -32v38h137v-6l32 -32v-25l36 20v-8l32 -32v-128 l-26 -13l26 -25v-124l-68 -34v-261h-131l-32 32h-6v-32h-131l-32 32h-6v58l-31 -15l-33 32l-5 -2v133l25 12l-20 19l-5 -2v133l69 34v234z" />
<glyph unicode="$" horiz-adv-x="390" d="M140 0v-56h111v56h60q1 0 8.5 4t11.5 6q2 2 6 5.5t4 4.5v334l-181 91v85h157l46 80h-112v56h-111v-56h-70q-17 -17 -30 -35.5t-20 -39.5h90l-60 -55v-90l181 -90v-220h-70v121q-5 5 -18.5 11t-30 11t-33.5 8.5t-28 3.5v-205q0 -2 4 -9t6 -11q2 -2 5.5 -6t4.5 -4h69z M127 -69v24h-21l-4.5 2t-7.5 5l-26 26q-5 2 -7 3.5t-5 5.5l-9 9q-2 3 -5.5 10t-3.5 14v218q14 0 35 -4.5t41.5 -10.5t37 -13.5t22.5 -13.5v-4l32 -32v-77h12v184l-143 72l-28 28l-10 5v103l5 5h-1l-32 32h-7q11 32 27 56.5t36 44.5h62v56h137v-6l32 -32v-18h91l-4 -6l33 -32 l-58 -100h-153v-48l149 -75v-5l32 -32v-340l-3 -5t-6 -8l-6 -6q-4 -2 -13.5 -6.5t-11.5 -4.5h-50v-56h-131l-32 32h-6z" />
<glyph unicode="%" horiz-adv-x="457" d="M131 520v-123h-14v123h14zM341 215v-123h-14v123h14zM56 310l5 -5h112l-107 -305h111l84 239v-224q0 -2 2 -5t3 -5l5 -5h120q1 0 4.5 1.5t5.5 3.5q5 2 5 5v285l-5 5q-2 1 -5.5 3t-4.5 2h-107l107 305h-111l-84 -240v230l-5 5q-2 1 -5.5 3t-4.5 2h-120l-1.5 -2t-3.5 -3 l-5 -10v-275q0 -2 2 -5t3 -5zM46 302q-4 6 -5 8.5t-3 8.5v279l9 18l3 1.5t3 5.5h131l14 -7l11 -11v-4l32 -32v-32l30 86h138l-2 -5l33 -33l-94 -267h48l14 -7l11 -11v-4l32 -32v-289q0 -9 -9 -13q-9 -7 -16 -7h-124l-32 32h-4l-13 13v2q-2 3 -2.5 5t-2.5 7v23l-29 -82h-132 l-32 32h-7l96 273h-52l-32 32h-4l-7 7v-1l-3 3v1z" />
<glyph unicode="&#x26;" horiz-adv-x="460" d="M161 80v166l70 34v-200h-70zM409 471l-248 -124v183h157l46 80h-293q-17 -17 -30 -35.5t-20 -39.5h90l-60 -85v-450h180v-85q4 1 16 6.5t25.5 12t24.5 12.5t14 9t8.5 8t10 9.5l8 8t3.5 4.5v350l68 34v102zM42 490l-32 32h-7q11 32 27 56.5t36 44.5h322l-4 -6l33 -32 l-58 -100h-153v-101l216 108v-8l32 -32v-124l-68 -34v-344q0 -5 -7 -12t-15 -14l-11 -11q-3 -3 -16.5 -10t-29.5 -15t-31 -14.5t-20 -7.5l-33 33q-1 -1 -3 -1q-1 0 -2 -1v58h-142l-32 32h-6v467l25 36h-21zM206 205v-112h12v117z" />
<glyph unicode="'" horiz-adv-x="212" d="M51 611v-181q4 2 16.5 8t26 12.5t24.5 12t13 7.5q4 3 9 7.5t9.5 9t8 8.5t3.5 5v111h-110zM38 409v215h136v-6l32 -32v-121q0 -2 -4 -7t-9 -11t-11 -11.5t-10 -8.5q-3 -2 -21.5 -11t-34.5 -17l-40 -20l-33 32z" />
<glyph unicode="(" horiz-adv-x="295" d="M244 -9v60h-83v510h83v60q0 1 -4 4.5t-6 5.5q-4 2 -11.5 6t-8.5 4h-143q-1 0 -4.5 -4t-5.5 -6q-2 -4 -6 -11t-4 -9v-610q0 -2 4 -9t6 -11q2 -2 5.5 -6t4.5 -4h143q1 0 8.5 4t11.5 6q2 2 6 5.5t4 4.5zM257 64v-6l32 -32v-70l-3 -5t-6 -8l-6 -6q-4 -2 -13.5 -6.5 t-11.5 -4.5h-143l-4.5 2t-7.5 5l-26 26q-5 2 -7 3.5t-5 5.5l-9 9q-2 3 -5.5 10t-3.5 14v610q0 7 3.5 14t5.5 10l9 9q4 4 5.5 5t8.5 5h144q2 0 11.5 -3.5t12.5 -5.5l9 -9q7 -8 8 -9.5t2 -3.5v-1l23 -23q3 -4 6 -8.5l3 -4.5v-70h-83v-452h51z" />
<glyph unicode=")" horiz-adv-x="295" d="M37 64v-74q3 -7 4 -8.5t6 -5.5l9 -9q1 0 2.5 -1t3.5 -2l20 -20q1 -1 2 -1l6 -6q4 -2 13.5 -6.5t11.5 -4.5h143l4.5 2.5t8.5 6.5l6 6q2 4 6.5 12t4.5 13v610q0 5 -4.5 13t-6.5 12l-26 25q-2 3 -2.5 5t-1.5 4l-9 9q-8 7 -9.5 8t-3.5 2h-145q-2 0 -11.5 -3.5t-12.5 -5.5 l-9 -9q-5 -5 -6 -6.5t-4 -7.5v-74h6l32 -32h45v-452h-83zM50 -9v60h83v510h-83v60q0 1 4 4.5t6 5.5q4 2 11.5 6t8.5 4h143q1 0 4.5 -4t5.5 -6q2 -4 6 -11t4 -9v-610q0 -2 -4 -9t-6 -11q-2 -2 -5.5 -6t-4.5 -4h-143q-1 0 -8.5 4t-11.5 6q-2 2 -6 5.5t-4 4.5z" />
<glyph unicode="*" horiz-adv-x="262" d="M165 640h-64v-72l-50 -36v-90l50 31v-30h64v73l46 35v88l-46 -28v29zM88 653h90v-6l7 -8l39 24v-9l32 -32v-111l-46 -35v-78h-84l-14 14l-36 -22l-33 32l-5 -3v119l50 36v79z" />
<glyph unicode="+" horiz-adv-x="350" d="M233 515h-111v-127l-71 -41v-103l71 36v-83h111v133l66 39v104l-66 -35v77zM109 528h137v-6l32 -32v-13l34 18v-8l32 -32v-127l-66 -39v-137h-131l-32 32h-6v24l-33 -16l-33 32l-5 -2v133l71 41v132z" />
<glyph unicode="," horiz-adv-x="213" d="M162 80h-111v-153q13 1 30 10t33 20.5t29 23.5t19 19v80zM38 93h137v-6l32 -32v-94q-6 -8 -20.5 -21t-33.5 -25.5t-39.5 -22.5t-37.5 -11l-33 33q-1 -1 -5 -1v180z" />
<glyph unicode="-" horiz-adv-x="226" d="M51 410v-101l124 61v102zM38 288v130l150 75v-8l32 -32v-124l-144 -71l-33 32z" />
<glyph unicode="." horiz-adv-x="213" d="M51 80v-80h111v80h-111zM38 -13v106h137v-6l32 -32v-100h-131l-32 32h-6z" />
<glyph unicode="/" horiz-adv-x="427" d="M265 610l-214 -610h111l214 610h-111zM33 -13l223 636h138l-2 -5l33 -33l-221 -630h-132l-32 32h-7z" />
<glyph unicode="0" d="M206 93v392h12v-392h-12zM48 5l8 -8q3 -4 5 -5.5t7 -3.5l26 -26q3 -3 7.5 -5l4.5 -2h240q2 0 11.5 4.5t13.5 6.5l6 6q3 3 6 8l3 5v570l-3 4.5t-6 8.5l-23 23v1q-1 2 -2 3.5t-8 9.5l-9 9q-3 2 -12.5 5.5t-11.5 3.5h-241q-7 -4 -8.5 -5t-5.5 -5l-9 -9q-2 -3 -5.5 -10 t-3.5 -14v-550q0 -6 4 -13.5t6 -11.5zM161 80h70v450h-70v-450zM61 10q-2 4 -6 11t-4 9v550q0 2 4 9t6 11q2 2 5.5 6t4.5 4h240q1 0 8.5 -4t11.5 -6q2 -2 6 -5.5t4 -4.5v-570q0 -1 -4 -4.5t-6 -5.5q-4 -2 -11.5 -6t-8.5 -4h-240q-1 0 -4.5 4t-5.5 6z" />
<glyph unicode="1" horiz-adv-x="209" d="M171 617v6h-107q-20 -20 -36 -44.5t-27 -56.5h7l32 -32l-5 -5v-498h6l32 -32h130v630zM158 610v-610h-110v480l50 55h-79q7 21 20 39.5t30 35.5h89z" />
<glyph unicode="2" horiz-adv-x="395" d="M233 310l-181 -90v-220h313l-46 80h-157v85l181 91v334q0 1 -4 4.5t-6 5.5q-4 2 -11.5 6t-8.5 4h-240q-1 0 -4.5 -4t-5.5 -6q-2 -4 -6 -11t-4 -9v-205q11 0 28 3.5t33.5 8.5t30 11t18.5 11v121h70v-220zM39 228l181 90v167h-12v-115q-6 -6 -22 -13t-35.5 -13t-39.5 -10 t-33 -4l-32 32h-6v218q0 7 3.5 14t5.5 10l9 9q4 4 5.5 5t8.5 5h241q2 0 11.5 -3.5t12.5 -5.5l9 -9q7 -8 8 -9.5t2 -3.5v-1l23 -23q3 -4 6 -8.5l3 -4.5v-340l-181 -91v-31h120l7 -12l26 -26l58 -100h-341l-32 32h-6v241z" />
<glyph unicode="3" horiz-adv-x="374" d="M15 519l32 -32h152v-17l-116 -70v-133l5 3l33 -33l78 40v-184h-157v-106h6l32 -32h248q2 0 11.5 4.5t13.5 6.5l6 6q3 3 6 8l3 5v384l-27 26l27 20v140q-3 11 -11 19l-24 23l-1 1q-3 7 -8.5 13.5t-17.5 11.5h-235q-20 -20 -36.5 -46.5t-26.5 -57.5h7zM323 455l-34 -25 l34 -30v-380q0 -1 -4 -4.5t-6 -5.5q-4 -2 -11.5 -6t-8.5 -4h-238v80h157v270l-116 -61v103l116 70v70h-186q7 21 20 41t30 37h228q10 -4 13.5 -9.5t5.5 -11.5v-134z" />
<glyph unicode="4" horiz-adv-x="394" d="M206 504v82l-32 32v6h-136v-343l5 3l33 -33l143 75v-413q4 0 5 1l33 -33q17 1 37.5 11t39.5 22.5t33.5 25.5t20.5 21v624l-32 32v6h-137v-111zM232 399l-181 -96v308h110v-151l71 45v105h111v-610q-6 -7 -19 -19t-29 -23.5t-33 -20.5t-30 -10v472z" />
<glyph unicode="5" horiz-adv-x="395" d="M176 202v4q-6 6 -22.5 13.5t-37 13.5t-41.5 10.5t-35 4.5v-218q0 -7 3.5 -14t5.5 -10l9 -9q3 -4 5 -5.5t7 -3.5l26 -26q3 -3 7.5 -5l4.5 -2h240q2 0 11.5 4.5t13.5 6.5l6 6q3 3 6 8l3 5v340l-32 32v5l-149 75v48h153l58 100l-33 32l4 6h-350v-241l10 -5l28 -28l143 -72 v-184h-12v77zM233 300l-181 90v220h313l-46 -80h-157v-85l181 -91v-334q0 -1 -4 -4.5t-6 -5.5q-4 -2 -11.5 -6t-8.5 -4h-240q-1 0 -4.5 4t-5.5 6q-2 4 -6 11t-4 9v205q11 0 28 -3.5t33.5 -8.5t30 -11t18.5 -11v-121h70v220z" />
<glyph unicode="6" d="M206 93v129l12 7v-136h-12zM206 415v70h131zM10 522l32 -32h9l-13 -15v-445q0 -7 3.5 -14t5.5 -10l9 -9q3 -4 5 -5.5t7 -3.5l26 -26q3 -3 7.5 -5l4.5 -2h252q12 7 18 17t10 22v460l-31 31h4l58 100l-33 32l4 6h-322q-20 -20 -36 -44.5t-27 -56.5h7zM231 305l-70 -42v-183 h70v225zM318 530h-157v-154l180 96v-443q-3 -9 -7.5 -16.5t-13.5 -12.5h-249q-1 0 -4.5 4t-5.5 6q-2 4 -6 11t-4 9v440l60 65h-90q7 21 20 39.5t30 35.5h293z" />
<glyph unicode="7" horiz-adv-x="381" d="M366 617l1 6h-291q-20 -20 -36 -44.5t-27 -56.5h7l32 -32h152l-107 -503h7l32 -32h134l128 630zM351 610l-124 -610h-113l114 535h-197q7 21 20 39.5t30 35.5h270z" />
<glyph unicode="8" horiz-adv-x="395" d="M162 532h71v-70l-71 -60v130zM162 296l71 54v-270h-71v216zM51 455l34 -25l-34 -30v-380q0 -1 4 -4.5t6 -5.5q4 -2 11.5 -6t8.5 -4h233q1 0 8.5 4t11.5 6q2 2 6 5.5t4 4.5v380l-34 30l34 25v134q-2 6 -5.5 11.5t-13.5 9.5h-255q-10 -4 -13.5 -9.5t-5.5 -11.5v-134zM38 19 v386l25 22l-12 12l-13 10v142q3 8 8.5 16.5t21.5 15.5h259q12 -5 17.5 -11.5t8.5 -13.5l1 -1l24 -23q8 -8 11 -19v-140l-27 -20l27 -26v-384l-3 -5t-6 -8l-6 -6q-4 -2 -13.5 -6.5t-11.5 -4.5h-233q-2 0 -11.5 4.5t-13.5 6.5l-6 6q-1 0 -2 1l-20 20q-2 1 -3.5 2t-2.5 1l-9 9 q-5 4 -6 5.5t-4 8.5zM207 256v-163h13v172zM207 487v-31l13 12v19h-13z" />
<glyph unicode="9" horiz-adv-x="393" d="M231 367l-70 32v131h70v-163zM231 80h-70v121q-5 5 -19 11t-30.5 11t-33 8.5t-27.5 3.5v-215q0 -8 7.5 -12t27.5 -8h226q1 0 8.5 4t11.5 6q2 2 6 5.5t4 4.5v569q-2 6 -5.5 11.5t-13.5 9.5h-252q-17 -17 -30 -35.5t-20 -39.5h90l-60 -85v-101l180 -97v-172zM174 206v-4 l32 -32v-77h12v137l-142 78l-27 27l-11 6v113l25 36h-21l-32 32h-7q11 32 27 56.5t36 44.5h259q13 -6 18.5 -12.5t8.5 -13.5l24 -23q8 -8 11 -19v-570l-3 -5t-6 -8l-6 -6q-4 -2 -13.5 -6.5t-11.5 -4.5h-228q-14 3 -23 5.5t-14 7.5l-26 26q-11 4 -14.5 10t-3.5 16v228 q13 0 34 -4t41.5 -10.5t37.5 -14t23 -13.5zM206 485v-93l12 -5v98h-12z" />
<glyph unicode=":" horiz-adv-x="213" d="M51 472v-80h111v80h-111zM51 80v-80h111v80h-111zM38 -13v106h137v-6l32 -32v-100h-131l-32 32h-6zM38 379v106h137v-6l32 -32v-100h-131l-32 32h-6z" />
<glyph unicode=";" horiz-adv-x="213" d="M162 80h-111v-153q13 1 30 10t33 20.5t29 23.5t19 19v80zM51 472v-80h111v80h-111zM38 93h137v-6l32 -32v-94q-6 -8 -20.5 -21t-33.5 -25.5t-39.5 -22.5t-37.5 -11l-33 33q-1 -1 -5 -1v180zM38 379v106h137v-6l32 -32v-100h-131l-32 32h-6z" />
<glyph unicode="&#x3c;" horiz-adv-x="321" d="M51 303l107 -303h111l-107 303l108 307h-111zM149 -13l-111 316l112 320h138l-2 -5l33 -33l-112 -317l111 -313h-132l-32 32h-5z" />
<glyph unicode="=" horiz-adv-x="350" d="M51 267v-103l248 125v102zM51 429v-103l248 125v102zM38 304v133l274 137v-8l32 -32v-124l-25 -13l25 -25v-124l-268 -136l-33 32l-5 -2v133l24 12l-19 19z" />
<glyph unicode="&#x3e;" horiz-adv-x="321" d="M40 -13l32 -32h132l110 313l-111 317l-31 30l-2 8h-138l112 -320l-111 -316h7zM269 303l-107 -303h-111l107 303l-108 307h111z" />
<glyph unicode="?" horiz-adv-x="395" d="M51 80v-80h111v80h-111zM233 310l-181 -90v-55h110l181 91v334q0 1 -4 4.5t-6 5.5q-4 2 -11.5 6t-8.5 4h-240q-1 0 -4.5 -4t-5.5 -6q-2 -4 -6 -11t-4 -9v-205q11 0 28 3.5t33.5 8.5t30 11t18.5 11v121h70v-220zM39 228l181 90v167h-12v-115q-6 -6 -22 -13t-35.5 -13 t-39.5 -10t-33 -4l-32 32h-6v218q0 7 3.5 14t5.5 10l9 9q4 4 5.5 5t8.5 5h241q2 0 11.5 -3.5t12.5 -5.5l9 -9q7 -8 8 -9.5t2 -3.5v-1l17 -17h-1l7 -6q3 -4 6 -8.5l3 -4.5v-340l-189 -95h-122l-32 32h-6v76zM38 -13v106h137v-6l32 -32v-100h-131l-32 32h-6z" />
<glyph unicode="@" horiz-adv-x="535" d="M274 391v-123h-14v123h14zM199 181l5 -5h260q1 0 4.5 4t5.5 6q2 4 6 11t4 9v375q0 2 -4 9t-6 11q-2 2 -5.5 6t-4.5 4h-393q-1 0 -4.5 -4t-5.5 -6q-2 -4 -6 -11t-4 -9v-551q0 -2 4 -9t6 -11q2 -2 5.5 -6t4.5 -4h273q1 0 8.5 4t11.5 6q2 2 6 5.5t4 4.5v60h-213v451h12v-1 h201v-273h-35v214l-5 5q-2 1 -5.5 3t-4.5 2h-120l-1.5 -2t-3.5 -3l-5 -10v-275q0 -2 2 -5t3 -5zM94 -38l-26 26q-5 2 -7 3.5t-5 5.5l-9 9q-2 3 -5.5 10t-3.5 14v551q0 7 3.5 14t5.5 10l9 9q4 4 5.5 5t8.5 5h396q2 -1 3.5 -2t9.5 -8l9 -9q1 -2 1.5 -4t2.5 -5l26 -25 q2 -4 6.5 -12t4.5 -13v-375q0 -5 -4.5 -13t-6.5 -12l-6 -6q-4 -4 -8.5 -6.5l-4.5 -2.5h-264l-29 29v-67h181v-6l32 -32v-70l-3 -5t-6 -8l-6 -6q-4 -2 -13.5 -6.5t-11.5 -4.5h-273l-4.5 2t-7.5 5zM352 476v-4l9 -9v22h-18z" />
<glyph unicode="A" horiz-adv-x="427" d="M160 530h106v-82l-106 -35v117zM346 -45q3 3 8.5 8t10 9.5l8 8t3.5 4.5v605q0 1 -4 4.5t-6 5.5q-4 2 -11.5 6t-8.5 4h-275q-5 -4 -12 -14t-14 -21.5t-13.5 -22.5t-10.5 -17h90l-60 -65v-470h109v312l106 35v-432q4 1 16 6.5t25.5 12t24.5 12.5t14 9zM38 490l-32 32h-9 q1 1 4.5 6t7.5 11.5l8 13t6 10.5v1q9 15 20.5 31.5t22.5 27.5h280q2 0 11.5 -3.5t12.5 -5.5l9 -9q7 -8 8 -9.5t2 -3.5v-1l23 -23q3 -4 6 -8.5l3 -4.5v-605q0 -5 -7 -12t-15 -14l-11 -11q-3 -3 -16.5 -10t-29.5 -15t-31 -14.5t-20 -7.5l-33 33q-1 -1 -3 -1q-1 0 -2 -1v389 l-48 -16v-315h-129l-32 32h-6v488l13 15h-13zM205 485v-44l48 16v28h-48z" />
<glyph unicode="B" horiz-adv-x="427" d="M265 462l-104 -52v120h104v-68zM161 80v229l104 46v-275h-104zM376 400l-34 30l34 25v134q-2 6 -5.5 11.5t-13.5 9.5h-286q-17 -17 -30 -35.5t-20 -39.5h90l-60 -85v-450h295q1 0 8.5 4t11.5 6q2 2 6 5.5t4 4.5v380zM42 490l-32 32h-7q11 32 27 56.5t36 44.5h293 q13 -6 18.5 -12.5t8.5 -13.5l21 -21h-1v1l4 -3q8 -8 11 -19v-140l-27 -20l27 -26v-384l-3 -5t-6 -8l-6 -6q-4 -2 -13.5 -6.5t-11.5 -4.5h-305l-32 32h-6v467l25 36h-21zM206 267v-174h46v194zM206 485v-38l46 23v15h-46z" />
<glyph unicode="C" d="M161 520h90q0 -20 7 -34t19 -24t27 -17t31 -13l6 -2v180h-270q-17 -17 -30 -35.5t-20 -39.5h90l-60 -65v-440q0 -2 4 -9t6 -11q2 -2 5.5 -6t4.5 -4h270v223q-11 0 -28 -3.5t-33.5 -8.5t-30 -11t-18.5 -11v-109h-70v440zM42 490l-32 32h-7q11 32 27 56.5t36 44.5h288v-6 l32 -32v-203l-19 6q-20 7 -37.5 15.5t-30.5 21.5l-20 19q-20 12 -30 31h-43v-382h12v101q6 6 22.5 13.5t37 13.5t41.5 10.5t35 4.5v-6l32 -32v-243h-280l-4.5 2t-7.5 5l-26 26q-5 2 -7 3.5t-5 5.5l-9 9q-2 3 -5.5 10t-3.5 14v445l13 15h-9z" />
<glyph unicode="D" horiz-adv-x="425" d="M159 80v450h105v-450h-105zM19 535h30v-535h295q1 0 8.5 4t11.5 6q2 2 6 5.5t4 4.5v570q0 1 -4 4.5t-6 5.5q-4 2 -11.5 6t-8.5 4h-275q-5 -4 -12 -14t-14 -21.5t-13.5 -22.5t-10.5 -17zM410 568q3 -4 6 -8.5l3 -4.5v-570l-3 -5t-6 -8l-6 -6q-4 -2 -13.5 -6.5t-11.5 -4.5 h-305l-32 32h-6v503l-32 32h-9q1 1 4.5 6t7.5 11.5l8 13t6 10.5v1q9 15 20.5 31.5t22.5 27.5h280q2 0 11.5 -3.5t12.5 -5.5l9 -9q7 -8 8 -9.5t2 -3.5v-1zM204 485v-392h47v392h-47z" />
<glyph unicode="E" d="M161 80v229l124 61v102l-124 -62v120h157l46 80h-293q-17 -17 -30 -35.5t-20 -39.5h90l-60 -85v-450h180v-85q4 1 16 6.5t25.5 12t24.5 12.5t14 9t8.5 8t10 9.5l8 8t3.5 4.5v238q-11 0 -28 -3.5t-33.5 -8.5t-30 -11t-18.5 -11v-109h-70zM42 490l-32 32h-7q11 32 27 56.5 t36 44.5h322l-4 -6l33 -32l-58 -100h-61l32 -32v-124l-124 -61v-175h12v101q6 6 22.5 13.5t37 13.5t41.5 10.5t35 4.5v-6l32 -32v-248q0 -5 -7 -12t-15 -14l-11 -11q-3 -3 -16.5 -10t-29.5 -15t-31 -14.5t-20 -7.5l-33 33q-1 -1 -3 -1q-1 0 -2 -1v58h-142l-32 32h-6v467 l25 36h-21zM206 485v-38l76 38h-76z" />
<glyph unicode="F" d="M161 -73v382l124 61v102l-124 -62v120h157l46 80h-293q-17 -17 -30 -35.5t-20 -39.5h90l-60 -55v-480q6 -7 19 -19t29 -23.5t32.5 -20.5t29.5 -10zM42 490l-32 32h-7q11 32 27 56.5t36 44.5h322l-4 -6l33 -32l-58 -100h-61l32 -32v-124l-124 -61v-387q-16 1 -34 9.5 t-35 19.5t-31.5 23t-23.5 21l-8 8q-13 10 -22 19l-14 14v490l5 5h-1zM206 485v-38l76 38h-76z" />
<glyph unicode="G" horiz-adv-x="426" d="M161 80v450h157l46 80h-293q-17 -17 -30 -35.5t-20 -39.5h90l-60 -65v-440q0 -2 4 -9t6 -11q2 -2 5.5 -6t4.5 -4h194v-85q4 1 16 6.5t25.5 12t24.5 12.5t14 9t8.5 8t10 9.5l8 8t3.5 4.5v454q-11 0 -28 -3.5t-33.5 -8.5t-30 -11t-18.5 -11v-325h-104zM42 490l-32 32h-7 q11 32 27 56.5t36 44.5h322l-4 -6l33 -32l-58 -100h-153v-392h46v317q6 6 22.5 13.5t37 13.5t41.5 10.5t35 4.5v-6l32 -32v-464q0 -5 -7 -12t-15 -14l-11 -11q-3 -3 -16.5 -10t-29.5 -15t-31 -14.5t-20 -7.5l-33 33q-1 -1 -3 -1q-1 0 -2 -1v58h-146l-4.5 2t-7.5 5l-26 26 q-5 2 -7 3.5t-5 5.5l-9 9q-2 3 -5.5 10t-3.5 14v445l13 15h-9z" />
<glyph unicode="H" horiz-adv-x="427" d="M51 610v-610h111v350l103 49v-399h111v610h-111v-105l-104 -46v151h-110zM38 -13v636h136v-6l32 -32v-93l46 21v110h137v-6l32 -32v-630h-131l-32 32h-6v343l-45 -21v-354h-131l-32 32h-6z" />
<glyph unicode="I" horiz-adv-x="343" d="M316 75h-100v460h55l46 75h-253q-17 -17 -30 -35.5t-20 -39.5h142l-50 -55v-405h-47l-46 -75h253q17 17 30 35.5t20 39.5zM35 490l-32 32h-7q11 32 27 56.5t36 44.5h282l-4 -6l33 -32l-58 -95h-51v-402h73l-2 -6l33 -32q-10 -29 -25 -52t-35 -43h-275l-32 32h-9l62 101 h42v397l4 5h-62z" />
<glyph unicode="J" horiz-adv-x="476" d="M375 20v510h29l46 80h-293q-17 -17 -30 -35.5t-20 -39.5h158v-455h-104v325q-5 5 -19 11t-30.5 11t-33 8.5t-27.5 3.5v-419q0 -8 8 -12t30 -8h256q1 0 8.5 4t11.5 6q2 2 6 5.5t4 4.5zM128 490l-32 32h-7q11 32 27 56.5t36 44.5h322l-4 -6l33 -32l-58 -100h-25v-500l-3 -5 t-6 -8l-6 -6q-4 -2 -13.5 -6.5t-11.5 -4.5h-258q-16 3 -25.5 5.5t-14.5 7.5l-26 25q-11 4 -14.5 10t-3.5 17v432q13 0 34 -4t41.5 -10.5t37.5 -14t23 -13.5v-4l32 -32v-281h46v397h-124z" />
<glyph unicode="K" horiz-adv-x="428" d="M51 610v-610h111v299l104 51v-350q6 -7 19 -19t29 -23.5t32.5 -20.5t30.5 -10v473l-34 30l34 25v155h-111v-148l-104 -52v200h-111zM38 -13v636h137v-6l32 -32v-138l46 23v153h137v-6l32 -32v-170l-27 -20l27 -26v-488q-16 1 -34 9.5t-35.5 19.5t-32 23t-23.5 21l-9 9 q-13 10 -21.5 18t-13.5 14v285l-46 -22v-303h-131l-32 32h-6z" />
<glyph unicode="L" d="M51 0h290v223q-11 0 -28 -3.5t-33.5 -8.5t-30 -11t-18.5 -11v-109h-69v530h-111v-610zM207 585v-492h11v101q6 6 22.5 13.5t37 13.5t41.5 10.5t35 4.5v-6l32 -32v-243h-310l-32 32h-6v636h137v-6z" />
<glyph unicode="M" horiz-adv-x="576" d="M233 0h111v278l70 133v-411h111v610h-109l-129 -222l-127 222h-109v-684q13 1 30 10t33 20.5t29 23.5t19 19v412l71 -133v-278zM174 611l27 -26l91 -160l116 198h130v-6l32 -32v-630h-131l-32 32h-6v275l-12 -22v-285h-131l-32 32h-6v286l-13 24v-337q-6 -8 -20.5 -21 t-33.5 -25.5t-39.5 -22.5t-37.5 -11l-33 33q-1 -1 -5 -1v711h130z" />
<glyph unicode="N" horiz-adv-x="427" d="M51 610v-695q7 3 25.5 11t37.5 18.5t33.5 21t14.5 19.5v430l103 -137v-278h111v610h-111v-144l-112 144h-102zM38 -105v728h121l14 -18l20 -20l59 -76v114h137v-6l32 -32v-630h-131l-32 32h-6v287l-45 59v-383q0 -11 -17 -24.5t-39.5 -26t-44 -22t-30.5 -12.5l-32 32 l-4.5 -1.5z" />
<glyph unicode="O" horiz-adv-x="425" d="M161 80v450h103v-450h-103zM111 535l-60 -65v-440q0 -2 4 -9t6 -11q2 -2 5.5 -6t4.5 -4h273q1 0 8.5 4t11.5 6q2 2 6 5.5t4 4.5v570q0 1 -4 4.5t-6 5.5q-4 2 -11.5 6t-8.5 4h-273q-5 -4 -12 -14t-14 -21.5t-13.5 -22.5t-10.5 -17h90zM38 475l13 15h-13l-32 32h-9 q1 1 4.5 6t7.5 11.5l8 13t6 10.5v1q9 15 20.5 31.5t22.5 27.5h278q2 0 11.5 -3.5t12.5 -5.5l9 -9q7 -8 8 -9.5t2 -3.5v-1l17 -17h-1l7 -6q3 -4 6 -8.5l3 -4.5v-570l-3 -5t-6 -8l-6 -6q-4 -2 -13.5 -6.5t-11.5 -4.5h-273l-4.5 2t-7.5 5l-26 26q-5 2 -7 3.5t-5 5.5l-9 9 q-2 3 -5.5 10t-3.5 14v445zM206 485v-392h45v392h-45z" />
<glyph unicode="P" horiz-adv-x="427" d="M265 462l-104 -52v120h104v-68zM111 535l-60 -85v-524q13 1 30 10t32.5 20.5t28.5 23.5t19 19v306l215 106v178q-2 6 -5.5 11.5t-13.5 9.5h-286q-17 -17 -30 -35.5t-20 -39.5h90zM38 454l25 36h-21l-32 32h-7q11 32 27 56.5t36 44.5h293q12 -5 17.5 -11.5t8.5 -13.5l1 -1 l24 -23q8 -8 11 -19v-185l-215 -106v-304q-6 -8 -20.5 -21t-33.5 -25.5t-39.5 -22.5t-36.5 -11l-33 33q-1 -1 -5 -1v542zM206 485v-38l46 23v15h-46z" />
<glyph unicode="Q" d="M161 80v450h102v-450h-102zM71 0h83v-85q4 1 16 6.5t25.5 12t24.5 12.5t14 9t8.5 8t10 9.5l8 8t3.5 4.5v15h79q1 0 8.5 4t11.5 6q2 2 6 5.5t4 4.5v570q0 1 -4 4.5t-6 5.5q-4 2 -11.5 6t-8.5 4h-272q-5 -4 -12 -14t-14 -21.5t-13.5 -22.5t-10.5 -17h90l-60 -65v-440 q0 -2 4 -9t6 -11q2 -2 5.5 -6t4.5 -4zM409 568q3 -4 6 -8.5l3 -4.5v-570l-3 -5t-6 -8l-6 -6q-4 -2 -13.5 -6.5t-11.5 -4.5h-69v-5q0 -5 -7 -12t-15 -14l-11 -11q-3 -3 -16.5 -10t-29.5 -15t-31 -14.5t-20 -7.5l-33 33q-1 -1 -3 -1q-1 0 -2 -1v58h-35l-4.5 2t-7.5 5l-26 26 q-5 2 -7 3.5t-5 5.5l-9 9q-2 3 -5.5 10t-3.5 14v445l13 15h-13l-32 32h-9q1 1 4.5 6t7.5 11.5l8 13t6 10.5v1q9 15 20.5 31.5t22.5 27.5h277q2 0 11.5 -3.5t12.5 -5.5l9 -9q7 -8 8 -9.5t2 -3.5v-1zM206 485v-392h44v392h-44z" />
<glyph unicode="R" horiz-adv-x="426" d="M264 462l-104 -52v120h104v-68zM375 400l-34 30l34 25v134q-2 6 -5.5 11.5t-13.5 9.5h-286q-17 -17 -30 -35.5t-20 -39.5h90l-60 -85v-450h110v309l104 49v-358q6 -7 19 -19t29 -23.5t32.5 -20.5t30.5 -10v473zM41 490l-32 32h-7q11 32 27 56.5t36 44.5h293 q12 -5 17.5 -11.5t8.5 -13.5l1 -1l24 -23q8 -8 11 -19v-140l-27 -20l27 -26v-488q-16 1 -34 9.5t-35.5 19.5t-32 23t-23.5 21l-9 9q-13 10 -21.5 18t-13.5 14v294l-46 -21v-313h-130l-32 32h-6v467l25 36h-21zM205 485v-38l46 23v15h-46z" />
<glyph unicode="S" horiz-adv-x="390" d="M174 202v4q-6 6 -22.5 13.5t-37 13.5t-41.5 10.5t-35 4.5v-218q0 -7 3.5 -14t5.5 -10l9 -9q3 -4 5 -5.5t7 -3.5l26 -26q3 -3 7.5 -5l4.5 -2h240q2 0 11.5 4.5t13.5 6.5l6 6q3 3 6 8l3 5v340l-32 32v5l-149 75v48h153l58 100l-33 32l4 6h-322q-20 -20 -36 -44.5t-27 -56.5 h7l32 -32h1l-5 -5v-103l10 -5l28 -28l143 -72v-184h-12v77zM231 300l-181 90v90l60 55h-90q7 21 20 39.5t30 35.5h293l-46 -80h-157v-85l181 -91v-334q0 -1 -4 -4.5t-6 -5.5q-4 -2 -11.5 -6t-8.5 -4h-240q-1 0 -4.5 4t-5.5 6q-2 4 -6 11t-4 9v205q11 0 28 -3.5t33.5 -8.5 t30 -11t18.5 -11v-121h70v220z" />
<glyph unicode="T" horiz-adv-x="387" d="M167 535l-50 -55v-480q6 -7 19 -19t29 -23.5t32.5 -20.5t29.5 -10v608h85l46 75h-279q-17 -17 -30 -35.5t-20 -39.5h138zM104 485l4 5h-58l-32 32h-7q11 32 27 56.5t36 44.5h308l-4 -6l33 -32l-58 -95h-81v-609q-16 1 -34 9.5t-35 19.5t-31.5 23t-23.5 21l-8 8 q-13 10 -22 19l-14 14v490z" />
<glyph unicode="U" horiz-adv-x="421" d="M260 80h-99v530h-110v-580q0 -2 4 -9t6 -11q2 -2 5.5 -6t4.5 -4h269q1 0 8.5 4t11.5 6q2 2 6 5.5t4 4.5v590h-110v-530zM174 623v-6l32 -32v-492h41v530h136v-6l32 -32v-600l-3 -5t-6 -8l-6 -6q-4 -2 -13.5 -6.5t-11.5 -4.5h-269l-4.5 2t-7.5 5l-26 26q-5 2 -7 3.5 t-5 5.5l-9 9q-2 3 -5.5 10t-3.5 14v593h136z" />
<glyph unicode="V" horiz-adv-x="427" d="M376 610h-111v-427l-103 149v278h-111v-333l218 -277h107v610zM252 623h137v-6l32 -32v-630h-122l-32 32h-4l-225 286v350h137v-6l32 -32v-285l45 -66v389z" />
<glyph unicode="W" horiz-adv-x="576" d="M344 332v278h-111v-278l-71 -133v411h-111v-610h109l127 222l129 -222h109v610h-111v-411zM357 623v-6l32 -32v-285l12 -23v346h137v-6l32 -32v-630h-125l-32 32h-5l-95 162l-112 -194h-125l-32 32h-6v636h137v-6l32 -32v-273l13 25v286h137z" />
<glyph unicode="X" horiz-adv-x="428" d="M266 610v-148l-104 -52v200h-111v-155l34 -25l-34 -30v-400h111v309l104 49v-358q6 -7 19 -19t29 -23.5t32.5 -20.5t30.5 -10v473l-34 30l34 25v155h-111zM175 623v-6l32 -32v-138l46 23v153h137v-6l32 -32v-170l-27 -20l27 -26v-488q-16 1 -34 9.5t-35.5 19.5t-32 23 t-23.5 21l-9 9q-13 10 -21.5 18t-13.5 14v294l-46 -21v-313h-131l-32 32h-6v418l25 22l-12 12l-13 10v174h137z" />
<glyph unicode="Y" d="M174 623h-136v-310q0 -7 3.5 -14t5.5 -10l9 -9q2 -3 4 -4.5t8 -3.5l26 -26q4 -3 9.5 -5.5l5.5 -2.5l20 10v-253l14 -14t22 -19l8 -8q9 -9 23.5 -21t31.5 -23t35 -19.5t34 -9.5v460l54 31h-1q5 2 11.5 5t9.5 5l6 6q3 3 6 8l3 5v184l-32 32v6h-136v-152l-12 -7v121l-32 32 v6zM51 610h110v-187l70 40v147h110v-174q0 -1 -4 -4.5t-6 -5.5q-4 -2 -11.5 -6t-8.5 -4l-59 -34v-455q-13 1 -29.5 10t-32.5 20.5t-29 23.5t-19 19v320l-71 -37q-1 0 -4.5 4t-5.5 6q-2 4 -6 11t-4 9v297z" />
<glyph unicode="Z" horiz-adv-x="445" d="M410 618l2 5h-316q-20 -20 -36 -44.5t-27 -56.5h7l32 -32h149l-190 -503h8l32 -32h311q20 20 35 43t25 52l-33 32l2 6h-150l182 497zM199 75h194q-7 -21 -20 -39.5t-30 -35.5h-293l203 535h-202q7 21 20 39.5t30 35.5h293z" />
<glyph unicode="[" horiz-adv-x="295" d="M244 20v60h-83v450h83v60q0 1 -4 4.5t-6 5.5q-4 2 -11.5 6t-8.5 4h-143q-1 0 -4.5 -4t-5.5 -6q-2 -4 -6 -11t-4 -9v-550q0 -2 4 -9t6 -11q2 -2 5.5 -6t4.5 -4h143q1 0 8.5 4t11.5 6q2 2 6 5.5t4 4.5zM257 93v-6l32 -32v-70l-3 -5t-6 -8l-6 -6q-4 -2 -13.5 -6.5 t-11.5 -4.5h-143l-4.5 2t-7.5 5l-26 26q-5 2 -7 3.5t-5 5.5l-9 9q-2 3 -5.5 10t-3.5 14v550q0 7 3.5 14t5.5 10l9 9q4 4 5.5 5t8.5 5h144q2 0 11.5 -3.5t12.5 -5.5l9 -9q7 -8 8 -9.5t2 -3.5v-1l23 -23q3 -4 6 -8.5l3 -4.5v-70h-83v-392h51z" />
<glyph unicode="\" horiz-adv-x="427" d="M172 615l-2 8h-138l223 -636h5l32 -32h132l-221 630zM161 610l214 -610h-111l-214 610h111z" />
<glyph unicode="]" horiz-adv-x="295" d="M37 93v-74q3 -7 4 -8.5t6 -5.5l9 -9q1 0 2.5 -1t3.5 -2l20 -20q1 -1 2 -1l6 -6q4 -2 13.5 -6.5t11.5 -4.5h143l4.5 2.5t8.5 6.5l6 6q2 4 6.5 12t4.5 13v550q0 5 -4.5 13t-6.5 12l-26 25q-2 3 -2.5 5t-1.5 4l-9 9q-8 7 -9.5 8t-3.5 2h-145q-2 0 -11.5 -3.5t-12.5 -5.5 l-9 -9q-5 -5 -6 -6.5t-4 -7.5v-74h6l32 -32h45v-392h-83zM50 20v60h83v450h-83v60q0 1 4 4.5t6 5.5q4 2 11.5 6t8.5 4h143q1 0 4.5 -4t5.5 -6q2 -4 6 -11t4 -9v-550q0 -2 -4 -9t-6 -11q-2 -2 -5.5 -6t-4.5 -4h-143q-1 0 -8.5 4t-11.5 6q-2 2 -6 5.5t-4 4.5z" />
<glyph unicode="^" horiz-adv-x="427" d="M250 248l-28 13l28 37v-50zM42 -13l32 -32h131v171l45 -23v-116h6l32 -32h131v630l-32 32v6h-126l-225 -286v-350h6zM263 227v188l-102 -137zM374 0h-111v126l-103 51v-177h-111v333l218 277h107v-610z" />
<glyph unicode="_" horiz-adv-x="343" d="M334 88h-283l-62 -101h9l32 -32h275q20 20 35 43t25 52l-33 32zM59 75h257q-7 -21 -20 -39.5t-30 -35.5h-253z" />
<glyph unicode="`" horiz-adv-x="233" d="M132 640h-81l50 -69h81zM25 653h113l11 -15l23 -23l65 -89h-106l-32 32h-4z" />
<glyph unicode="a" d="M160 530h71v-82l-71 -35v117zM311 -45q3 3 8.5 8t10 9.5l8 8t3.5 4.5v605q0 1 -4 4.5t-6 5.5q-4 2 -11.5 6t-8.5 4h-240q-5 -4 -12 -14t-14 -21.5t-13.5 -22.5t-10.5 -17h90l-60 -65v-470h109v312l71 35v-432q4 1 16 6.5t25.5 12t24.5 12.5t14 9zM377 568q3 -4 6 -8.5 l3 -4.5v-605q0 -5 -7 -12t-15 -14l-11 -11q-3 -3 -16.5 -10t-29.5 -15t-31 -14.5t-20 -7.5l-33 33q-1 -1 -3 -1q-1 0 -2 -1v380l-13 -6v-316h-129l-32 32h-6v488l13 15h-13l-32 32h-9q1 1 4.5 6t7.5 11.5l8 13t6 10.5v1q9 15 20.5 31.5t22.5 27.5h245q2 0 11.5 -3.5 t12.5 -5.5l9 -9q7 -8 8 -9.5t2 -3.5v-1zM205 485v-36l13 7v29h-13z" />
<glyph unicode="b" horiz-adv-x="394" d="M232 462l-71 -52v120h71v-68zM161 80v229l71 46v-275h-71zM343 400l-34 30l34 25v134q-2 6 -5.5 11.5t-13.5 9.5h-253q-17 -17 -30 -35.5t-20 -39.5h90l-60 -85v-450h262q1 0 8.5 4t11.5 6q2 2 6 5.5t4 4.5v380zM42 490l-32 32h-7q11 32 27 56.5t36 44.5h260 q13 -6 18.5 -12.5t8.5 -13.5l21 -21h-1v1l4 -3q8 -8 11 -19v-140l-27 -20l27 -26v-384l-3 -5t-6 -8l-6 -6q-4 -2 -13.5 -6.5t-11.5 -4.5h-272l-32 32h-6v467l25 36h-21zM206 269v-176h13v184zM206 485v-27l13 10v17h-13z" />
<glyph unicode="c" d="M161 520h90q0 -40 23 -58.5t55 -30.5l12 -1v180h-270q-17 -17 -30 -35.5t-20 -39.5h90l-60 -65v-440q0 -2 4 -9t6 -11q2 -2 5.5 -6t4.5 -4h270v223q-11 0 -28 -3.5t-33.5 -8.5t-30 -11t-18.5 -11v-109h-70v440zM42 490l-32 32h-7q11 32 27 56.5t36 44.5h288v-6l32 -32 v-201l-22 2q-19 7 -35 15.5t-28 20.5l-16 15q-24 17 -36 38h-43v-382h12v101q6 6 22.5 13.5t37 13.5t41.5 10.5t35 4.5v-6l32 -32v-243h-280l-4.5 2t-7.5 5l-26 26q-5 2 -7 3.5t-5 5.5l-9 9q-2 3 -5.5 10t-3.5 14v445l13 15h-9z" />
<glyph unicode="d" horiz-adv-x="390" d="M159 80v450h70v-450h-70zM19 535h30v-535h260q1 0 8.5 4t11.5 6q2 2 6 5.5t4 4.5v570q0 1 -4 4.5t-6 5.5q-4 2 -11.5 6t-8.5 4h-240q-5 -4 -12 -14t-14 -21.5t-13.5 -22.5t-10.5 -17zM375 568q3 -4 6 -8.5l3 -4.5v-570l-3 -5t-6 -8l-6 -6q-4 -2 -13.5 -6.5t-11.5 -4.5 h-270l-32 32h-6v503l-32 32h-9q1 1 4.5 6t7.5 11.5l8 13t6 10.5v1q9 15 20.5 31.5t22.5 27.5h245q2 0 11.5 -3.5t12.5 -5.5l9 -9q7 -8 8 -9.5t2 -3.5v-1zM204 485v-392h12v392h-12z" />
<glyph unicode="e" d="M161 80v229l124 61v102l-124 -62v120h157l46 80h-293q-17 -17 -30 -35.5t-20 -39.5h90l-60 -85v-450h290v223q-11 0 -28 -3.5t-33.5 -8.5t-30 -11t-18.5 -11v-109h-70zM42 490l-32 32h-7q11 32 27 56.5t36 44.5h322l-4 -6l33 -32l-58 -100h-61l32 -32v-124l-124 -61v-175 h12v101q6 6 22.5 13.5t37 13.5t41.5 10.5t35 4.5v-6l32 -32v-243h-310l-32 32h-6v467l25 36h-21zM206 485v-38l76 38h-76z" />
<glyph unicode="f" horiz-adv-x="367" d="M161 -73v382l100 61v102l-100 -62v120h133l46 80h-269q-17 -17 -30 -35.5t-20 -39.5h90l-60 -55v-480q6 -7 19 -19t29 -23.5t32.5 -20.5t29.5 -10zM42 490l-32 32h-7q11 32 27 56.5t36 44.5h298l-4 -6l33 -32l-58 -100h-60l31 -31v-125l-100 -61v-387q-16 1 -34 9.5 t-35 19.5t-31.5 23t-23.5 21l-8 8q-13 10 -22 19l-14 14v490l5 5h-1zM206 485v-32l52 32h-52z" />
<glyph unicode="g" d="M161 80v450h157l46 80h-293q-17 -17 -30 -35.5t-20 -39.5h90l-60 -65v-440q0 -2 4 -9t6 -11q2 -2 5.5 -6t4.5 -4h160v-85q4 1 16 6.5t25.5 12t24.5 12.5t14 9t8.5 8t10 9.5l8 8t3.5 4.5v454q-11 0 -28 -3.5t-33.5 -8.5t-30 -11t-18.5 -11v-325h-70zM42 490l-32 32h-7 q11 32 27 56.5t36 44.5h322l-4 -6l33 -32l-58 -100h-153v-392h12v317q6 6 22.5 13.5t37 13.5t41.5 10.5t35 4.5v-6l32 -32v-464q0 -5 -7 -12t-15 -14l-11 -11q-3 -3 -16.5 -10t-29.5 -15t-31 -14.5t-20 -7.5l-33 33q-1 -1 -3 -1q-1 0 -2 -1v58h-112l-4.5 2t-7.5 5l-26 26 q-5 2 -7 3.5t-5 5.5l-9 9q-2 3 -5.5 10t-3.5 14v445l13 15h-9z" />
<glyph unicode="h" horiz-adv-x="394" d="M51 610v-610h111v350l70 49v-399h111v610h-111v-105l-71 -46v151h-110zM38 -13v636h136v-6l32 -32v-82l13 9v111h137v-6l32 -32v-630h-131l-32 32h-6v331l-12 -8v-355h-131l-32 32h-6z" />
<glyph unicode="i" horiz-adv-x="213" d="M162 610h-111v-610h111v610zM38 623h137v-6l32 -32v-630h-131l-32 32h-6v636z" />
<glyph unicode="j" horiz-adv-x="442" d="M341 20v510h29l46 80h-293q-17 -17 -30 -35.5t-20 -39.5h158v-455h-70v325q-5 5 -19 11t-30.5 11t-33 8.5t-27.5 3.5v-419q0 -8 8 -12t30 -8h222q1 0 8.5 4t11.5 6q2 2 6 5.5t4 4.5zM94 490l-32 32h-7q11 32 27 56.5t36 44.5h322l-4 -6l33 -32l-58 -100h-25v-500l-3 -5 t-6 -8l-6 -6q-4 -2 -13.5 -6.5t-11.5 -4.5h-224q-16 3 -25.5 5.5t-14.5 7.5l-26 25q-11 4 -14.5 10t-3.5 17v432q13 0 34 -4t41.5 -10.5t37.5 -14t23 -13.5v-4l32 -32v-281h12v397h-124z" />
<glyph unicode="k" horiz-adv-x="390" d="M228 462l-67 -52v200h-110v-610h110v297l67 53v-350q6 -7 19 -19t29 -23.5t32.5 -20.5t30.5 -10v473l-34 30l34 25v155h-111v-148zM174 623v-6l32 -32v-124l9 7v155h137v-6l32 -32v-170l-27 -20l27 -26v-488q-16 1 -34 9.5t-35.5 19.5t-32 23t-23.5 21l-9 9 q-13 10 -21.5 18t-13.5 14v268l-9 -6v-302h-130l-32 32h-6v636h136z" />
<glyph unicode="l" d="M51 0h290v223q-11 0 -28 -3.5t-33.5 -8.5t-30 -11t-18.5 -11v-109h-69v530h-111v-610zM207 585v-492h11v101q6 6 22.5 13.5t37 13.5t41.5 10.5t35 4.5v-6l32 -32v-243h-310l-32 32h-6v636h137v-6z" />
<glyph unicode="m" horiz-adv-x="576" d="M201 585l-27 26l-6 12h-130v-636h6l32 -32h131v342l13 -24v-286h6l32 -32h131v285l12 22v-275h6l32 -32h131v630l-32 32v6h-130l-116 -198zM344 278v-278h-111v278l-71 133v-411h-111v610h109l127 -222l129 222h109v-610h-111v411z" />
<glyph unicode="n" horiz-adv-x="394" d="M51 610v-695q7 3 25.5 11t37.5 18.5t33.5 21t14.5 19.5v422l70 -129v-278h111v610h-111v-136l-79 136h-102zM38 -105v728h123l7 -12l26 -26l25 -43v81h137v-6l32 -32v-630h-131l-32 32h-6v286l-12 22v-345q0 -11 -17 -24.5t-39.5 -26t-44 -22t-30.5 -12.5l-32 32 l-4.5 -1.5z" />
<glyph unicode="o" d="M161 80v450h70v-450h-70zM111 535l-60 -65v-440q0 -2 4 -9t6 -11q2 -2 5.5 -6t4.5 -4h240q1 0 8.5 4t11.5 6q2 2 6 5.5t4 4.5v570q0 1 -4 4.5t-6 5.5q-4 2 -11.5 6t-8.5 4h-240q-5 -4 -12 -14t-14 -21.5t-13.5 -22.5t-10.5 -17h90zM38 475l13 15h-13l-32 32h-9q1 1 4.5 6 t7.5 11.5l8 13t6 10.5v1q9 15 20.5 31.5t22.5 27.5h245q2 0 11.5 -3.5t12.5 -5.5l9 -9q7 -8 8 -9.5t2 -3.5v-1l17 -17h-1l7 -6q3 -4 6 -8.5l3 -4.5v-570l-3 -5t-6 -8l-6 -6q-4 -2 -13.5 -6.5t-11.5 -4.5h-240l-4.5 2t-7.5 5l-26 26q-5 2 -7 3.5t-5 5.5l-9 9q-2 3 -5.5 10 t-3.5 14v445zM206 485v-392h12v392h-12z" />
<glyph unicode="p" horiz-adv-x="394" d="M232 460l-71 -50v120h71v-70zM343 412v177q-2 6 -5.5 11.5t-13.5 9.5h-253q-17 -17 -30 -35.5t-20 -39.5h90l-60 -85v-450h110v286zM42 490l-32 32h-7q11 32 27 56.5t36 44.5h260q13 -6 18.5 -12.5t8.5 -13.5l24 -23q8 -8 11 -19v-183l-182 -126v-291h-130l-32 32h-6v467 l25 36h-21zM206 485v-27l13 9v18h-13z" />
<glyph unicode="q" d="M161 80v450h70v-450h-70zM71 0h71v-85q4 1 16 6.5t25.5 12t24.5 12.5t14 9t8.5 8t10 9.5l8 8t3.5 4.5v15h59q1 0 8.5 4t11.5 6q2 2 6 5.5t4 4.5v570q0 1 -4 4.5t-6 5.5q-4 2 -11.5 6t-8.5 4h-240q-5 -4 -12 -14t-14 -21.5t-13.5 -22.5t-10.5 -17h90l-60 -65v-440 q0 -2 4 -9t6 -11q2 -2 5.5 -6t4.5 -4zM377 568q3 -4 6 -8.5l3 -4.5v-570l-3 -5t-6 -8l-6 -6q-4 -2 -13.5 -6.5t-11.5 -4.5h-49v-5q0 -5 -7 -12t-15 -14l-11 -11q-3 -3 -16.5 -10t-29.5 -15t-31 -14.5t-20 -7.5l-33 33q-1 -1 -3 -1q-1 0 -2 -1v58h-23l-4.5 2t-7.5 5l-26 26 q-5 2 -7 3.5t-5 5.5l-9 9q-2 3 -5.5 10t-3.5 14v445l13 15h-13l-32 32h-9q1 1 4.5 6t7.5 11.5l8 13t6 10.5v1q9 15 20.5 31.5t22.5 27.5h245q2 0 11.5 -3.5t12.5 -5.5l9 -9q7 -8 8 -9.5t2 -3.5v-1zM206 485v-392h12v392h-12z" />
<glyph unicode="r" horiz-adv-x="389" d="M227 459l-67 -49v120h67v-71zM338 400l-34 30l34 25v134q-2 6 -5.5 11.5t-13.5 9.5h-249q-17 -17 -30 -35.5t-20 -39.5h90l-60 -85v-450h110v307l67 51v-358q6 -7 19 -19t29 -23.5t32.5 -20.5t30.5 -10v473zM41 490l-32 32h-7q11 32 27 56.5t36 44.5h256 q13 -6 18.5 -12.5t8.5 -13.5l24 -23q8 -8 11 -19v-140l-27 -20l27 -26v-488q-16 1 -34 9.5t-35.5 19.5t-32 23t-23.5 21l-9 9q-13 10 -21.5 18t-13.5 14v278l-9 -6v-312h-130l-32 32h-6v467l25 36h-21zM205 485v-27l9 7v20h-9z" />
<glyph unicode="s" horiz-adv-x="390" d="M174 202v4q-6 6 -22.5 13.5t-37 13.5t-41.5 10.5t-35 4.5v-218q0 -7 3.5 -14t5.5 -10l9 -9q3 -4 5 -5.5t7 -3.5l26 -26q3 -3 7.5 -5l4.5 -2h240q2 0 11.5 4.5t13.5 6.5l6 6q3 3 6 8l3 5v340l-32 32v5l-149 75v48h153l58 100l-33 32l4 6h-322q-20 -20 -36 -44.5t-27 -56.5 h7l32 -32h1l-5 -5v-103l10 -5l28 -28l143 -72v-184h-12v77zM231 300l-181 90v90l60 55h-90q7 21 20 39.5t30 35.5h293l-46 -80h-157v-85l181 -91v-334q0 -1 -4 -4.5t-6 -5.5q-4 -2 -11.5 -6t-8.5 -4h-240q-1 0 -4.5 4t-5.5 6q-2 4 -6 11t-4 9v205q11 0 28 -3.5t33.5 -8.5 t30 -11t18.5 -11v-121h70v220z" />
<glyph unicode="t" horiz-adv-x="374" d="M162 535l-50 -55v-480q6 -7 19 -19t29 -23.5t32.5 -20.5t29.5 -10v608h80l46 75h-269q-17 -17 -30 -35.5t-20 -39.5h133zM99 485l4 5h-53l-32 32h-7q11 32 27 56.5t36 44.5h298l-4 -6l33 -32l-58 -95h-76v-609q-16 1 -34 9.5t-35 19.5t-31.5 23t-23.5 21l-8 8 q-13 10 -22 19l-14 14v490z" />
<glyph unicode="u" d="M161 80v530h-110v-580q0 -2 4 -9t6 -11q2 -2 5.5 -6t4.5 -4h240q1 0 8.5 4t11.5 6q2 2 6 5.5t4 4.5v590h-110v-530h-70zM174 623v-6l32 -32v-492h12v530h136v-6l32 -32v-600l-3 -5t-6 -8l-6 -6q-4 -2 -13.5 -6.5t-11.5 -4.5h-240l-4.5 2t-7.5 5l-26 26q-5 2 -7 3.5 t-5 5.5l-9 9q-2 3 -5.5 10t-3.5 14v593h136z" />
<glyph unicode="v" horiz-adv-x="393" d="M342 610h-111v-403l-70 126v278h-111v-333l185 -278h107v610zM218 623h137v-6l32 -32v-630h-122l-32 32h-4l-192 288v349h137v-6l32 -32v-285l12 -22v344z" />
<glyph unicode="w" horiz-adv-x="576" d="M344 332v278h-111v-278l-71 -133v411h-111v-610h109l127 222l129 -222h109v610h-111v-411zM357 623v-6l32 -32v-285l12 -23v346h137v-6l32 -32v-630h-125l-32 32h-5l-95 162l-112 -194h-125l-32 32h-6v636h137v-6l32 -32v-273l13 25v286h137z" />
<glyph unicode="x" horiz-adv-x="394" d="M232 610v-148l-70 -52v200h-111v-155l34 -25l-34 -30v-400h111v309l70 49v-358q6 -7 19 -19t29 -23.5t32.5 -20.5t30.5 -10v473l-34 30l34 25v155h-111zM175 623v-6l32 -32v-126l12 9v155h137v-6l32 -32v-170l-27 -20l27 -26v-488q-16 1 -34 9.5t-35.5 19.5t-32 23 t-23.5 21l-9 9q-13 10 -21.5 18t-13.5 14v282l-12 -8v-314h-131l-32 32h-6v418l25 22l-12 12l-13 10v174h137z" />
<glyph unicode="y" d="M174 623h-136v-310q0 -7 3.5 -14t5.5 -10l9 -9q2 -3 4 -4.5t8 -3.5l26 -26q4 -3 9.5 -5.5l5.5 -2.5l20 10v-253l14 -14t22 -19l8 -8q9 -9 23.5 -21t31.5 -23t35 -19.5t34 -9.5v460l54 31h-1q5 2 11.5 5t9.5 5l6 6q3 3 6 8l3 5v184l-32 32v6h-136v-152l-12 -7v121l-32 32 v6zM51 610h110v-187l70 40v147h110v-174q0 -1 -4 -4.5t-6 -5.5q-4 -2 -11.5 -6t-8.5 -4l-59 -34v-455q-13 1 -29.5 10t-32.5 20.5t-29 23.5t-19 19v320l-71 -37q-1 0 -4.5 4t-5.5 6q-2 4 -6 11t-4 9v297z" />
<glyph unicode="z" horiz-adv-x="422" d="M386 618l2 5h-292q-20 -20 -36 -44.5t-27 -56.5h7l32 -32h133l-172 -503h7l32 -32h287q20 20 35 43t25 52l-33 32l2 6h-135l166 497zM192 75h178q-7 -21 -20 -39.5t-30 -35.5h-270l184 535h-183q7 21 20 39.5t30 35.5h270z" />
<glyph unicode="{" horiz-adv-x="345" d="M51 410v-101l50 24v-332q0 -2 4 -9t6 -11q2 -2 5.5 -6t4.5 -4h143q1 0 8.5 4t11.5 6q2 2 6 5.5t4 4.5v60h-83v510h83v60q0 1 -4 4.5t-6 5.5q-4 2 -11.5 6t-8.5 4h-143q-1 0 -4.5 -4t-5.5 -6q-2 -4 -6 -11t-4 -9v-176zM38 288v130l50 25v168q0 7 3.5 14t5.5 10l9 9 q4 4 5.5 5t8.5 5h144q2 0 11.5 -3.5t12.5 -5.5l9 -9q7 -8 8 -9.5t2 -3.5v-1l23 -23q3 -4 6 -8.5l3 -4.5v-70h-83v-452h51v-6l32 -32v-70l-3 -5t-6 -8l-6 -6q-4 -2 -13.5 -6.5t-11.5 -4.5h-143l-4.5 2t-7.5 5l-26 26q-5 2 -7 3.5t-5 5.5l-9 9q-2 3 -5.5 10t-3.5 14v262 l-12 -5l-33 32z" />
<glyph unicode="|" horiz-adv-x="213" d="M162 751h-111v-904h111v904zM38 764h137v-6l32 -32v-924h-131l-32 32h-6v930z" />
<glyph unicode="}" horiz-adv-x="343" d="M51 51v-60q0 -1 4 -4.5t6 -5.5q4 -2 11.5 -6t8.5 -4h143q1 0 4.5 4t5.5 6q2 4 6 11t4 9v345l48 24v102l-48 -24v163q0 2 -4 9t-6 11q-2 2 -5.5 6t-4.5 4h-143q-1 0 -8.5 -4t-11.5 -6q-2 -2 -6 -5.5t-4 -4.5v-60h83v-510h-83zM38 -10v74h83v452h-45l-32 32h-6v74 q3 6 4 7.5t6 6.5l9 9q3 2 12.5 5.5t11.5 3.5h145q2 -1 3.5 -2t9.5 -8l9 -9q1 -2 1.5 -4t2.5 -5l26 -25q2 -4 6.5 -12t4.5 -13v-91l16 8v-8l32 -32v-124l-48 -24v-339q0 -5 -4.5 -13t-6.5 -12l-6 -6q-4 -4 -8.5 -6.5l-4.5 -2.5h-143q-2 0 -11.5 4.5t-13.5 6.5l-6 6q-1 0 -2 1 l-20 20q-2 1 -3.5 2t-2.5 1l-9 9q-5 4 -6 5.5t-4 8.5z" />
<glyph unicode="~" horiz-adv-x="298" d="M175 382l-52 46l-72 -34v-114l72 33v71l53 -46l71 34v113l-72 -32v-71zM125 444l37 -33v50l98 44v-8l32 -32v-134l-83 -40l-41 35v-54l-92 -42l-33 32l-5 -2v142z" />
<glyph horiz-adv-x="197" />
<glyph unicode="&#xa1;" horiz-adv-x="213" d="M161 530v80h-111v-80h111zM50 0h111v421h-111v-421zM75 -45l-32 32h-6v447h137v-6l32 -32v-441h-131zM174 623v-6l32 -32v-100h-131l-32 32h-6v106h137z" />
<glyph unicode="&#xa2;" d="M140 0v-56h111v56h90v223q-11 0 -28 -3.5t-33.5 -8.5t-30 -11t-18.5 -11v-109h-70v440h90q0 -40 23 -58.5t55 -30.5l12 -1v180h-91v56h-111v-56h-68q-17 -17 -30 -35.5t-20 -39.5h90l-60 -65v-440q0 -2 4 -9t6 -11q2 -2 5.5 -6t4.5 -4h69zM127 -69v24h-21l-4.5 2t-7.5 5 l-26 26q-5 2 -7 3.5t-5 5.5l-9 9q-2 3 -5.5 10t-3.5 14v445l13 15h-9l-32 32h-7q11 32 27 56.5t36 44.5h60v56h137v-6l32 -32v-18h59v-6l32 -32v-201l-22 2q-19 7 -35 15.5t-28 20.5l-16 15q-24 17 -36 38h-43v-382h12v101q6 6 22.5 13.5t37 13.5t41.5 10.5t35 4.5v-6 l32 -32v-243h-90v-56h-131l-32 32h-6z" />
<glyph unicode="&#xa3;" horiz-adv-x="449" d="M52 335v-101l56 27v-181h-57v-80h347v223q-11 0 -28 -3.5t-33.5 -8.5t-30 -11t-18.5 -11v-109h-70v229l124 61v102l-124 -62v120h41l46 80h-177q-17 -17 -30 -35.5t-20 -39.5h90l-60 -85v-87zM39 213v130l56 28v83l25 36h-21l-32 32h-7q11 32 27 56.5t36 44.5h206l-4 -6 l33 -32l-58 -100h-37v-38l92 46v-8l32 -32v-124l-124 -61v-175h12v101q6 6 22.5 13.5t37 13.5t41.5 10.5t35 4.5v-6l32 -32v-243h-367l-32 32h-6v106h57v98l-18 -8l-33 32z" />
<glyph unicode="&#xa4;" horiz-adv-x="428" d="M390 623h-137v-71h-46v33l-32 32v6h-137v-174l13 -10l12 -12l-25 -22v-418h6l32 -32h131v132h46v-92q5 -6 13.5 -14t21.5 -18l9 -9q9 -9 23.5 -21t32 -23t35.5 -19.5t34 -9.5v488l-27 26l27 20v170l-32 32v6zM197 239h38v196h-38v-196zM266 610h111v-155l-34 -25l34 -30 v-473q-14 1 -30.5 10t-32.5 20.5t-29 23.5t-19 19v132h-104v-132h-111v400l34 30l-34 25v155h111v-71h104v71z" />
<glyph unicode="&#xa5;" d="M72 238v-103l70 35v-46l-70 -35v-103l70 35v-21q6 -7 19 -19t29 -23.5t32.5 -20.5t29.5 -10v150l68 34v102l-68 -34v47l68 34v102l-68 -34v54l59 34q1 0 8.5 4t11.5 6q2 2 6 5.5t4 4.5v174h-110v-147l-70 -40v187h-110v-297q0 -2 4 -9t6 -11q2 -2 5.5 -6t4.5 -4l71 37 v-47zM59 114v132l22 11l-14 15q-5 2 -7 3.5t-4 4.5l-9 9q-2 3 -5.5 10t-3.5 14v310h136v-6l32 -32v-121l12 7v152h136v-6l32 -32v-184l-3 -5t-6 -8l-6 -6q-3 -2 -9.5 -5t-11.5 -5h1l-10 -6l24 -23v-124l-17 -9l17 -16v-124l-68 -34v-155q-16 1 -34 9.5t-35 19.5t-31.5 23 t-23.5 21l-8 8q-1 1 -2.5 2t-3.5 3l-62 -32l-33 33l-5 -3v132l16 8l-11 11z" />
<glyph unicode="&#xa6;" horiz-adv-x="213" d="M51 254v-254h111v254h-111zM162 610h-111v-247h111v247zM38 -13v280h137v-6l32 -32v-274h-131l-32 32h-6zM38 623h137v-6l32 -32v-267h-131l-32 32h-6v273z" />
<glyph unicode="&#xa7;" horiz-adv-x="428" d="M231 239h-38v196h38v-196zM85 539v-109l-34 -30v-473q13 1 30 10t33 20.5t29 23.5t19 19v132h181v298l34 25v155h-111v-71h-181zM38 -87v492l34 30v117h181v71h137v-6l32 -32v-170l-34 -25v-303h-181v-126q-6 -8 -20.5 -21t-33.5 -25.5t-39.5 -22.5t-37.5 -11l-33 33 q-1 -1 -5 -1z" />
<glyph unicode="&#xa8;" horiz-adv-x="324" d="M273 571v69h-97v-69h97zM51 640v-69h97v69h-97zM286 653v-6l32 -32v-89h-117l-8 8v-8h-117l-32 32h-6v95h123v-6l2 -2v8h123z" />
<glyph unicode="&#xa9;" horiz-adv-x="283" d="M184 533l-14 4q-6 -22 -29 -22q-31 0 -31 36q0 38 32 38q18 0 26 -18l14 3q-7 28 -40 28q-48 0 -48 -51q0 -52 48 -52q35 0 42 34zM142 627h3q13 0 26 -6.5t23 -16.5t16.5 -23t6.5 -26v-4q0 -17 -11 -36t-27 -29q-20 -9 -37 -9h1q0 2 -34 8l-6 1q-11 7 -17 14t-10 15 q-11 20 -11 38q0 16 11 36q23 38 66 38zM142 641q-3 0 -45 -11q-46 -28 -46 -79q0 -26 12 -45q8 -11 15 -18t18 -15q22 -12 46 -12l11.5 2t31.5 10q12 8 19.5 15t13.5 18q14 26 14 45q0 18 -14 44q-6 19 -34 35q-35 11 -42 11zM142 654q9 0 53 -15q11 -8 19.5 -15.5 t13.5 -16.5l21 -21q5 -5 8 -11t5 -12q15 -26 15 -47q0 -23 -15 -50q-6 -12 -14.5 -19t-22.5 -17q-12 -5 -19 -7.5t-11.5 -4t-8 -2t-9.5 -0.5q-26 0 -50 12q-6 5 -10 8.5t-9 7.5l-14 14q-2 0 -2 1q-15 11 -23 19.5t-19 22.5q-12 19 -12 50q0 59 52 92l32 8t20 3z" />
<glyph unicode="&#xaa;" horiz-adv-x="427" d="M159 227v188l102 -137zM48 0h111v126l103 51v-177h111v333l-218 277h-107v-610zM73 -45l-32 32h-6v636h126l15 -19l19 -19l223 -284v-346h-131l-32 32h-6v120l-45 -22v-130h-131zM241 282l-37 50v-68z" />
<glyph unicode="&#xab;" horiz-adv-x="276" d="M120 472l-69 -50v-122l69 -50v81l-43 30l43 30v81zM225 472l-69 -50v-122l69 -50v81l-43 30l43 30v81zM38 428l95 70v-9l32 -32v-13l73 54v-9l32 -32v-106l-30 -21l30 -29v-106l-89 65l-16 16v-81l-89 65l-23 23l-15 11v134zM135 330l8 -8v14z" />
<glyph unicode="&#xac;" horiz-adv-x="350" d="M299 471l-248 -124v-103l137 67v-83h111v243zM38 355l274 137v-8l32 -32v-269h-131l-32 32h-6v26l-99 -48l-33 32l-5 -2v132z" />
<glyph unicode="&#xad;" horiz-adv-x="226" d="M51 410v-101l124 61v102zM38 288v130l150 75v-8l32 -32v-124l-144 -71l-33 32z" />
<glyph unicode="&#xae;" horiz-adv-x="283" d="M136 556h-18v30h17q15 0 16 -1q8 -5 9 -13q-1 -8 -5.5 -12t-18.5 -4zM103 599v-97h15v41h9q8 0 12 -4q3 -1 17 -21l7 -16h20l-12 19q-8 11 -11 16t-12 9q29 2 29 27q0 7 -6 15q-3 2 -5 3.5t-6 3.5q-4 4 -25 4h-32zM142 628h3q13 0 26 -6.5t23 -16.5t16.5 -23t6.5 -26v-4 l-2.5 -11.5t-8.5 -25.5q-5 -7 -12 -14t-15 -14q-10 -5 -19 -7t-18 -2l-33 7l-6 2q-20 15 -27 28q-6 17 -8 27l-2 10q0 10 2 19t8 19q23 38 66 38zM142 642q-24 0 -45 -12q-22 -12 -34 -34l-1 -2q-5 -11 -8 -19.5t-3 -22.5q0 -26 12 -45l2 -2q8 -9 15 -16.5t16 -14.5 q19 -12 46 -12l12.5 1.5t30.5 10.5q25 13 33 33q14 26 14 45q0 18 -14 44q-8 20 -34 34q-18 12 -42 12zM142 655q27 0 50 -14l-1 -1q24 -13 35 -33l21 -20q10 -10 14 -21h1q15 -27 15 -49q0 -23 -15 -50h-1q-9 -21 -37 -37q-14 -8 -20.5 -10.5t-14.5 -2.5h-12q-33 0 -52 13 q-2 1 -10 9l-18 18l-4 2t-5 3t-8.5 8t-11.5 13l-9 9q-1 1 -1.5 2t-1.5 2l-7 7q-6 9 -8.5 21.5t-2.5 27.5q0 17 3 26t9 21l1 2q14 27 40 41h-1q22 13 52 13zM198 579q1 0 -7 2l10 -11q-1 1 -1 4t-2 5zM170 603q0 1 -1 1z" />
<glyph unicode="&#xaf;" horiz-adv-x="397" d="M27 535h297l46 75h-293q-17 -17 -30 -35.5t-20 -39.5zM48 490l-32 32h-7q11 32 27 56.5t36 44.5h322l-4 -6l33 -32l-58 -95h-317z" />
<glyph unicode="&#xb0;" horiz-adv-x="199" d="M38 653v-95h6l32 -32h117v89l-32 32v6h-123zM83 614v-18h32v18h-32zM51 571v69h97v-69h-97z" />
<glyph unicode="&#xb1;" horiz-adv-x="350" d="M299 229l-248 -126v-103l248 125v104zM233 560h-111v-127l-71 -41v-103l71 36v-83h111v133l66 39v104l-66 -35v77zM38 111l168 86h-59l-32 32h-6v24l-33 -16l-33 32l-5 -2v133l71 41v132h137v-6l32 -32v-13l34 18v-8l32 -32v-127l-66 -39v-101l34 18v-8l32 -32v-127 l-268 -136l-33 33l-5 -3v133z" />
<glyph unicode="&#xb2;" horiz-adv-x="262" d="M134 494l-83 -44v-114h160l-28 50h-70v31l84 45v166l-9 8h-2q-5 5 -9 5h-115l-5 -7l-6 -12v-106q6 0 16 2t19.5 5t17 6.5t9.5 6.5v55h21v-97zM38 458l32 17l-26 28h-6v122l7 15l11 14h121q5 0 13 -5h3l17 -16v-4l32 -32v-176l-49 -27l5 -8l26 -25l39 -70h-187l-32 32h-6 v135z" />
<glyph unicode="&#xb3;" horiz-adv-x="265" d="M40 578l32 -32h12l-29 -15v-91l5 2l33 -32l45 21v-33h-83v-76h6l32 -32h148v11q0 1 8.5 2.5t9.5 1.5v199l-7 7l7 5v76q-2 4 -3.5 6.5t-3.5 4.5l-25 25q-3 7 -6.5 9.5t-11.5 10.5l-5 5h-128q-27 -27 -43 -75h7zM214 556l-13 -9l13 -12v-185q-1 0 -9.5 -5.5t-8.5 -8.5v-1 h-128v50h83v115l-83 -39v62l83 43v25h-100q11 30 30 49h119q8 -6 10 -8.5t4 -7.5v-68z" />
<glyph unicode="&#xb4;" horiz-adv-x="233" d="M207 653h-113l-70 -95h9l32 -32h106l65 89l-33 33zM100 640h81l-50 -69h-81z" />
<glyph unicode="&#xb5;" horiz-adv-x="1121" d="M1077 297l-4 9l-30 14l16 5h25l-22 32l-26 25l-8 13l-75 15l29 20l-33 33l7 5h-169l3 9l-33 33l2 6l-170 -24l-26 25v6l-28 9l-125 -57l-58 42l-83 -83h-9q-24 0 -79 36l-16 -100l-92 8l6 -47l35 -42l-72 -3l-2 -22l9 -5l29 -28l44 -22l-75 -31l15 -4l31 -30l106 -23 l-36 -23l14 -1l32 -31l157 -6l-8 -18l7 1l33 -32l157 25l-7 -23l7 3l33 -32l159 73l66 -41l71 79l97 -29l7 94l90 -13l7 16q0 21 -48 72l83 6l-14 28zM439 282v-5q0 -11 -1 -17.5t-7 -16.5q-19 -10 -33 -10q-19 0 -19 28v8q13 36 35 36q13 0 24 -14q0 -8 1 -9zM713 313 l16 -38h-39zM232 220l8 112l-21 -3l-13 -118zM342 307l2 28q-91 -12 -91 -66v-8q1 -4 1.5 -5.5l0.5 -1.5q12 -52 48 -52q6 0 10 2t15 4l-1 19q-6 -3 -24 -3q-26 0 -26 23q0 26 18 47q20 17 33 17q7 0 7 -1l1.5 -0.5t5.5 -2.5zM464 294q-9 38 -50 38h-15q-46 -28 -46 -103 q10 -18 43 -18q5 0 9.5 0.5t11.5 1.5q36 0 47 81zM575 213v114l-19 5l-5 -78l-73 73v-116l22 4v54q47 -56 75 -56zM629 224l7 113l-24 -5l-13 -115zM736 222l16 -3v84q-13 37 -35 37q-16 0 -17 -4q-43 -58 -52 -114h27q16 27 30 27q17 0 31 -27zM869 218v114l-22 5l-4 -81 l-70 76v-115l22 2v56q43 -57 74 -57zM903 193l19 18l-19 8l-15 -12zM920 247l13 85l-30 5l-4 -88zM1064 297l6 -12l-90 -7q60 -60 60 -78l-3 -7l-93 14l-7 -92l-90 27l-71 -79l-64 40l-142 -65l8 25l-22 25l-176 -29l21 44l-195 7l57 36l-171 36l79 33l-120 58l90 5l-49 58 l-4 28l89 -8l14 92q42 -27 69 -27q14 0 18 4l75 75l56 -39l127 58l15 -5l5 -39l184 25l-14 -45h189l-56 -39l162 -33l9 -13h-9l-70 -19z" />
<glyph unicode="&#xb6;" horiz-adv-x="1166" d="M461 282v-5q0 -11 -1 -17.5t-7 -16.5q-19 -10 -33 -10q-19 0 -19 28v8q13 36 35 36q13 0 24 -14q0 -8 1 -9zM735 313l16 -38h-39zM254 220l8 112l-21 -3l-13 -118zM364 307l2 28q-91 -12 -91 -66v-8q1 -4 1.5 -5.5l0.5 -1.5q12 -52 48 -52q6 0 10 2t15 4l-1 19 q-6 -3 -24 -3q-26 0 -26 23q0 26 18 47q20 17 33 17q7 0 7 -1l1.5 -0.5t5.5 -2.5zM486 294q-9 38 -50 38h-15q-46 -28 -46 -103q10 -18 43 -18q5 0 9.5 0.5t11.5 1.5q36 0 47 81zM597 213v114l-19 5l-5 -78l-73 73v-116l22 4v54q47 -56 75 -56zM651 224l7 113l-24 -5 l-13 -115zM758 222l16 -3v84q-13 37 -35 37q-16 0 -17 -4q-43 -58 -52 -114h27q16 27 30 27q17 0 31 -27zM891 218v114l-22 5l-4 -81l-70 76v-115l22 2v56q43 -57 74 -57zM925 193l19 18l-19 8l-15 -12zM942 247l13 85l-30 5l-4 -88zM1086 297l6 -12l-90 -7q60 -60 60 -78 l-3 -7l-93 14l-7 -92l-90 27l-71 -79l-64 40l-142 -65l8 25l-22 25l-176 -29l21 44l-195 7l57 36l-171 36l79 33l-120 58l90 5l-49 58l-4 28l89 -8l14 92q42 -27 69 -27q14 0 18 4l75 75l56 -39l127 58l15 -5l5 -39l184 25l-14 -45h189l-56 -39l162 -33l9 -13h-9l-70 -19z M1113 293l2 1q0 18 -93 51q52 6 52 36v8l-142 36q27 1 27 36l-15 14h-166l6 39l-50 5l-142 -26l-3 7l3 19l-25 22l-128 -59l-64 37q-21 -8 -39 -25t-46 -51l-77 24h-4q-34 0 -34 -92l-82 8l-4 -38l40 -48l-78 -12l8 -31l78 -34l-44 -32q0 -26 21 -26l114 -20l-21 -22v-23 l182 -15l-8 -32l21 -12l176 25v-37l22 -8l134 64l44 -38l35 6l68 70l8 -2q20 -11 34 -16.5t31 -5.5q21 0 26 14l9 78l70 -15q21 9 21 28v5l-3 9l-40 50h62zM1119 346q0 -18 -12 -28q13 -11 18 -21l24 -23q11 -11 11 -21l-5 -3l-15 -30h-47l27 -34l5 -15v-5q0 -26 -31 -39 l-62 13l-7 -64q-7 -25 -36 -25q-20 0 -34.5 5.5t-35.5 17.5l-66 -69l-44 -7l-43 37l-130 -62l-33 12l-28 27l-140 -19l-31 17l-27 26l-9 5l-136 12l-32 31l-6 1v23l-47 9q-13 0 -19 8l-25 24q-23 6 -23 45l17 12l-12 6l-29 29l-9 4l-13 50l70 11l-28 35l5 56l81 -8 q4 91 47 91h8l69 -22q26 31 45 48t45 27l64 -37l129 61l37 -33l-1 -4l10 -10l117 22l67 -6l-1 -5l33 -33h118l23 -22v-4l32 -32q0 -8 -1 -10l84 -21v-5l32 -32v-16zM672 354l-1 -7l25 -25l15 21l2 2q8 8 26 8q24 0 39 -30l4 -3v44l71 -77l4 67l47 -11v-6l8 -8l1 24l40 -8 l-1 1l-17 9l24 6l-68 15l-31 30l-11 3l1 1h-81l-32 32h-7l1 3l-127 -16l-33 32h-5l-101 -46l-54 37l-69 -69q-7 -7 -25 -7q-25 0 -61 21l-9 -54l29 4l-1 -6l18 -18q15 10 36.5 16t50.5 11l-1 -6l16 -16q10 10 21 17h20q34 0 51 -21v34l75 -75l4 66l44 -12v-5l9 -11l3 23z M299 178l-41 -14l62 -12l-6 -4l29 -30l100 -3l-3 -6l26 -26l117 19l32 -36v-1l2 -2l118 55l61 -39l69 79l82 -26l1 23l-18 18l-2 2l-2 -2q-26 0 -56 30l-8 8v-36l-42 -4l-1 1l-32 6l-26 26q-8 -2 -23 -27h-45l-3 2l-46 -10l-6 5l-6 -6q-26 0 -61 35l-4 4v-36l-42 -7l-20 19 q-12 -15 -31 -15q-2 0 -3 -0.5t-2 -0.5q-3 -1 -16 -1q-30 0 -46 15l-13 13l2 -30q-18 -2 -19.5 -3t-3.5 -2q-3 -1 -5.5 -1.5t-7.5 -0.5q-21 0 -36 15l-22 21q-1 1 -2 1zM156 318l2 -13l59 -69l8 75zM1045 208q-10 17 -50 57l-7 -49zM1002 305l-3 -15l33 2l-35 18zM187 232 l28 -13l1 15zM360 252q-2 -2 -3 -3.5t-3 -3.5q3 1 7 3v-9h1q0 4 0.5 8t0.5 8q-1 -1 -2 -1.5t-2 -1.5h1zM239 174l-8 -4l13 -3z" />
<glyph unicode="&#xb7;" horiz-adv-x="213" d="M51 472v-80h111v80h-111zM38 379v106h137v-6l32 -32v-100h-131l-32 32h-6z" />
<glyph unicode="&#xb8;" horiz-adv-x="217" d="M166 0h-111v-19l-71 -41v-103l182 86v77zM42 13h137v-6l32 -32v-93l-202 -96l-32 33l-6 -3v132l71 41v24z" />
<glyph unicode="&#xb9;" horiz-adv-x="170" d="M119 640h-68v-304h68v304zM38 653h94v-6l32 -32v-324h-88l-32 32h-6v330z" />
<glyph unicode="&#xba;" horiz-adv-x="247" d="M43 335l13 -13h4l32 -32h124q2 0 7 1.5t9 5.5q9 4 9 13v289l-32 32v4l-11 11l-14 7h-131q-2 -5 -3 -5.5l-3 -1.5l-9 -18v-279q2 -5 2.5 -7t2.5 -5v-2zM117 427h14v123h-14v-123zM61 335l-5 5q-1 2 -3 5t-2 5v275l5 10q2 1 3.5 3l1.5 2h120q1 0 4.5 -2t5.5 -3l5 -5v-285 q0 -3 -5 -5q-2 -2 -5.5 -3.5t-4.5 -1.5h-120z" />
<glyph unicode="&#xbb;" horiz-adv-x="276" d="M165 353v14l7 -9zM238 428l-95 70v-84l-10 10v4l-95 70v-113l13 -10l16 -17l-29 -21v-113l5 4l33 -33l67 49v-20l5 4l33 -33l89 65v132l-32 32v4zM156 472l69 -50v-122l-69 -50v81l43 30l-43 30v81zM51 472l69 -50v-122l-69 -50v81l43 30l-43 30v81z" />
<glyph unicode="&#xbc;" horiz-adv-x="459" d="M408 0v303h-63v-54l-38 -17v71h-39l108 307h-111l-90 -256v257h-68v-304h51l-107 -307h111l83 236v-96l100 46v-226q9 1 18.5 6t18.5 11t16 12.5t10 10.5zM425 585l-100 -281l7 -7v19h89v-6l32 -32v-313l-2 -6q-3 -5 -11.5 -12t-20 -14t-24.5 -12.5t-25 -6.5l-33 33 q-2 0 -3 -0.5t-2 -0.5v171l-62 -27l-14 14l-52 -149h-132l-32 32h-7l96 277l-29 30h-6v330h94v-6l32 -32v-66l36 103h138l-2 -5z" />
<glyph unicode="&#xbd;" horiz-adv-x="456" d="M328 158l-83 -44v-114h160l-28 50h-70v31l84 45v166l-9 8h-2q-5 5 -9 5h-102l107 305h-111l-90 -256v257h-68v-304h51l-107 -307h111l83 236v-56q6 0 16 2t19.5 5t17 6.5t9.5 6.5v55h21v-97zM425 585l-94 -267h40q5 0 13 -5h3l17 -16v-4l32 -32v-176l-49 -27l5 -8l26 -25 l39 -70h-187l-32 32h-6v47l-28 -79h-132l-32 32h-7l96 277l-29 30h-6v330h94v-6l32 -32v-66l36 103h138l-2 -5z" />
<glyph unicode="&#xbe;" horiz-adv-x="488" d="M214 506l-13 12l13 9v68q-2 5 -4 7.5t-10 8.5h-119q-19 -19 -30 -49h100v-25l-83 -43v-62l83 39v-115h-83v-50h119l-107 -306h111l83 236v-96l100 46v-226q9 1 18.5 6t18.5 11t16 12.5t10 10.5v303h-63v-54l-38 -17v71h-39l108 307h-111l-80 -229v125zM72 517l-32 32h-7 q16 48 43 75h128l5 -5q8 -8 11.5 -10.5t6.5 -9.5l25 -25q2 -2 3.5 -4.5t3.5 -6.5v-15l26 75h138l-2 -5l33 -33l-100 -281l7 -7v19h89v-6l32 -32v-316q-3 -5 -12 -12.5t-20.5 -15t-25 -13.5t-25.5 -7l-33 33q-2 0 -3 -0.5t-2 -0.5v171l-62 -27l-14 14l-52 -149h-132l-32 32 h-7l96 274h-65l-32 32h-6v76h83v33l-45 -21l-33 32l-5 -2v91l29 15h-12z" />
<glyph unicode="&#xbf;" horiz-adv-x="395" d="M343 530v80h-111v-80h111zM161 300l181 90v55h-110l-181 -91v-334q0 -1 4 -4.5t6 -5.5q4 -2 11.5 -6t8.5 -4h240q1 0 4.5 4t5.5 6q2 4 6 11t4 9v205q-11 0 -28 -3.5t-33.5 -8.5t-30 -11t-18.5 -11v-121h-70v220zM83 -27l-20 20q-2 1 -3.5 2t-2.5 1l-9 9q-5 4 -6 5.5 t-4 8.5v343l191 96h126v-6l32 -32v-71l-181 -90v-166h12v113q6 6 22.5 13.5t37 13.5t41.5 10.5t35 4.5v-6l32 -32v-215q0 -5 -4.5 -13t-6.5 -12l-6 -6q-4 -4 -8.5 -6.5l-4.5 -2.5h-240q-2 0 -11.5 4.5t-13.5 6.5l-6 6q-1 0 -2 1zM356 623v-6l32 -32v-100h-131l-32 32h-6v106 h137z" />
<glyph unicode="&#xc0;" d="M211 717h-81l50 -69h81zM160 530h71v-82l-71 -35v117zM311 -45q3 3 8.5 8t10 9.5l8 8t3.5 4.5v605q0 1 -4 4.5t-6 5.5q-4 2 -11.5 6t-8.5 4h-240q-5 -4 -12 -14t-14 -21.5t-13.5 -22.5t-10.5 -17h90l-60 -65v-470h109v312l71 35v-432q4 1 16 6.5t25.5 12t24.5 12.5t14 9z M104 730h113l11 -15l23 -23l50 -69h10q2 0 11.5 -3.5t12.5 -5.5l9 -9q7 -8 8 -9.5t2 -3.5v-1l17 -17h-1l7 -6q3 -4 6 -8.5l3 -4.5v-605q0 -5 -7 -12t-15 -14l-11 -11q-3 -3 -16.5 -10t-29.5 -15t-31 -14.5t-20 -7.5l-33 33q-1 -1 -3 -1q-1 0 -2 -1v380l-13 -6v-316h-129 l-32 32h-6v488l13 15h-13l-32 32h-9q1 1 4.5 6t7.5 11.5l8 13t6 10.5v1q9 15 20.5 31.5t22.5 27.5h124l-12 12h-4zM205 485v-36l13 7v29h-13z" />
<glyph unicode="&#xc1;" d="M263 717h-81l-50 -69h81zM160 530h71v-82l-71 -35v117zM311 -45q3 3 8.5 8t10 9.5l8 8t3.5 4.5v605q0 1 -4 4.5t-6 5.5q-4 2 -11.5 6t-8.5 4h-240q-5 -4 -12 -14t-14 -21.5t-13.5 -22.5t-10.5 -17h90l-60 -65v-470h109v312l71 35v-432q4 1 16 6.5t25.5 12t24.5 12.5t14 9 zM176 730h113l-4 -5l33 -33l-51 -69h44q2 0 11.5 -3.5t12.5 -5.5l9 -9q7 -8 8 -9.5t2 -3.5v-1l23 -23q3 -4 6 -8.5l3 -4.5v-605q0 -5 -7 -12t-15 -14l-11 -11q-3 -3 -16.5 -10t-29.5 -15t-31 -14.5t-20 -7.5l-33 33q-1 -1 -3 -1q-1 0 -2 -1v380l-13 -6v-316h-129l-32 32h-6 v488l13 15h-13l-32 32h-9q1 1 4.5 6t7.5 11.5l8 13t6 10.5v1q9 15 20.5 31.5t22.5 27.5h61l-12 12h-9zM205 485v-36l13 7v29h-13z" />
<glyph unicode="&#xc2;" d="M307 648l-50 69h-122l-50 -69h81l30 43l30 -43h81zM160 530h71v-82l-71 -35v117zM311 -45q3 3 8.5 8t10 9.5l8 8t3.5 4.5v605q0 1 -4 4.5t-6 5.5q-4 2 -11.5 6t-8.5 4h-240q-5 -4 -12 -14t-14 -21.5t-13.5 -22.5t-10.5 -17h90l-60 -65v-470h109v312l71 35v-432 q4 1 16 6.5t25.5 12t24.5 12.5t14 9zM263 730l11 -15l23 -23l65 -89h-17q5 -7 6.5 -8t2.5 -3v-1l17 -17h-1l7 -6q3 -4 6 -8.5l3 -4.5v-605q0 -5 -7 -12t-15 -14l-11 -11q-3 -3 -16.5 -10t-29.5 -15t-31 -14.5t-20 -7.5l-33 33q-1 -1 -3 -1q-1 0 -2 -1v380l-13 -6v-316h-129 l-32 32h-6v488l13 15h-13l-32 32h-9q1 1 4.5 6t7.5 11.5l8 13t6 10.5v1q9 15 20.5 31.5t22.5 27.5h14l-12 12h-9l70 95h134zM205 485v-36l13 7v29h-13zM226 632l-6 -9h16z" />
<glyph unicode="&#xc3;" d="M223 674l-30 43h-82l-50 -69h81l30 43l30 -43h82l50 69h-81zM160 530h71v-82l-71 -35v117zM311 -45q3 3 8.5 8t10 9.5l8 8t3.5 4.5v605q0 1 -4 4.5t-6 5.5q-4 2 -11.5 6t-8.5 4h-240q-5 -4 -12 -14t-14 -21.5t-13.5 -22.5t-10.5 -17h90l-60 -65v-470h109v312l71 35v-432 q4 1 16 6.5t25.5 12t24.5 12.5t14 9zM199 730l10 -15l16 -16l22 31h113l-4 -5l33 -33l-57 -77q1 0 1.5 -0.5t1.5 -0.5l9 -9q7 -8 8 -9.5t2 -3.5v-1l23 -23q3 -4 6 -8.5l3 -4.5v-605q0 -5 -7 -12t-15 -14l-11 -11q-3 -3 -16.5 -10t-29.5 -15t-31 -14.5t-20 -7.5l-33 33 q-1 -1 -3 -1q-1 0 -2 -1v380l-13 -6v-316h-129l-32 32h-6v488l13 15h-13l-32 32h-9q1 1 4.5 6t7.5 11.5l8 13t6 10.5v1q8 14 17.5 28.5t20.5 25.5l-17 17h-9l70 95h94zM205 485v-36l13 7v29h-13zM202 632l-6 -9h15z" />
<glyph unicode="&#xc4;" d="M307 648v69h-97v-69h97zM85 717v-69h97v69h-97zM160 530h71v-82l-71 -35v117zM311 -45q3 3 8.5 8t10 9.5l8 8t3.5 4.5v605q0 1 -4 4.5t-6 5.5q-4 2 -11.5 6t-8.5 4h-240q-5 -4 -12 -14t-14 -21.5t-13.5 -22.5t-10.5 -17h90l-60 -65v-470h109v312l71 35v-432q4 1 16 6.5 t25.5 12t24.5 12.5t14 9zM320 730v-6l32 -32v-89h-7q5 -7 6.5 -8t2.5 -3v-1l23 -23q3 -4 6 -8.5l3 -4.5v-605q0 -5 -7 -12t-15 -14l-11 -11q-3 -3 -16.5 -10t-29.5 -15t-31 -14.5t-20 -7.5l-33 33q-1 -1 -3 -1q-1 0 -2 -1v380l-13 -6v-316h-129l-32 32h-6v488l13 15h-13 l-32 32h-9q1 1 4.5 6t7.5 11.5l8 13t6 10.5v1q9 15 20.5 31.5t22.5 27.5h24l-12 12h-6v95h123v-6l2 -2v8h123zM205 485v-36l13 7v29h-13z" />
<glyph unicode="&#xc5;" d="M205 449v36h13v-29zM135 730v-95h6l12 -12h-87q-11 -11 -22.5 -27.5t-20.5 -31.5v-1q-2 -4 -6 -10.5l-8 -13t-7.5 -11.5t-4.5 -6h9l32 -32h13l-13 -15v-488h6l32 -32h129v316l13 6v-380q1 1 2 1q2 0 3 1l33 -33q5 1 20 7.5t31 14.5t29.5 15t16.5 10l11 11q8 7 15 14t7 12 v605l-3 4.5t-6 8.5l-23 23v1q-1 2 -2 3.5t-8 9.5l-9 9q-3 2 -12.5 5.5t-11.5 3.5h-21v69l-32 32v6h-123zM180 691v-18h32v18h-32zM311 -45q-3 -3 -14 -9t-24.5 -12.5t-25.5 -12t-16 -6.5v432l-71 -35v-312h-109v470l60 65h-90q4 6 10.5 17t13.5 22.5t14 21.5t12 14h240 q1 0 8.5 -4t11.5 -6q2 -2 6 -5.5t4 -4.5v-605q0 -1 -3.5 -4.5l-8 -8t-10 -9.5t-8.5 -8zM231 530h-71v-117l71 35v82zM148 648v69h97v-69h-97z" />
<glyph unicode="&#xc6;" horiz-adv-x="571" d="M159 530h71v-82l-71 -35v117zM310 -45q3 3 8.5 8t10 9.5l8 8t3.5 4.5v15h180v223q-11 0 -28 -3.5t-33.5 -8.5t-30 -11t-18.5 -11v-109h-70v229l124 61v102l-124 -62v120h157l46 80h-473q-5 -4 -12 -14t-14 -21.5t-13.5 -22.5t-10.5 -17h90l-60 -65v-470h109v312l71 35 v-432q4 1 16 6.5t25.5 12t24.5 12.5t14 9zM385 268v-175h12v101q6 6 22.5 13.5t37 13.5t41.5 10.5t35 4.5v-6l32 -32v-243h-180v-5q0 -5 -7 -12t-15 -14l-11 -11q-3 -3 -16.5 -10t-29.5 -15t-31 -14.5t-20 -7.5l-33 33q-1 -1 -3 -1q-1 0 -2 -1v380l-13 -6v-316h-129l-32 32 h-6v488l13 15h-13l-32 32h-9q1 1 4.5 6t7.5 11.5l8 13t6 10.5v1q9 15 20.5 31.5t22.5 27.5h502l-4 -6l33 -32l-58 -100h-61l32 -32v-124zM385 485v-38l76 38h-76zM204 485v-36l13 7v29h-13z" />
<glyph unicode="&#xc7;" horiz-adv-x="247" d="M43 335l13 -13h4l32 -32h124q2 0 7 1.5t9 5.5q9 4 9 13v289l-32 32v4l-11 11l-14 7h-131q-2 -5 -3 -5.5l-3 -1.5l-9 -18v-279q2 -5 2.5 -7t2.5 -5v-2zM117 427h14v123h-14v-123zM61 335l-5 5q-1 2 -3 5t-2 5v275l5 10q2 1 3.5 3l1.5 2h120q1 0 4.5 -2t5.5 -3l5 -5v-285 q0 -3 -5 -5q-2 -2 -5.5 -3.5t-4.5 -1.5h-120z" />
<glyph unicode="&#xc8;" d="M211 717h-81l50 -69h81zM161 80v229l124 61v102l-124 -62v120h157l46 80h-293q-17 -17 -30 -35.5t-20 -39.5h90l-60 -85v-450h290v223q-11 0 -28 -3.5t-33.5 -8.5t-30 -11t-18.5 -11v-109h-70zM104 730h113l11 -15l23 -23l50 -69h87l-4 -6l33 -32l-58 -100h-61l32 -32 v-124l-124 -61v-175h12v101q6 6 22.5 13.5t37 13.5t41.5 10.5t35 4.5v-6l32 -32v-243h-310l-32 32h-6v467l25 36h-21l-32 32h-7q11 32 27 56.5t36 44.5h124l-12 12h-4zM206 485v-38l76 38h-76z" />
<glyph unicode="&#xc9;" d="M263 717h-81l-50 -69h81zM161 80v229l124 61v102l-124 -62v120h157l46 80h-293q-17 -17 -30 -35.5t-20 -39.5h90l-60 -85v-450h290v223q-11 0 -28 -3.5t-33.5 -8.5t-30 -11t-18.5 -11v-109h-70zM176 730h113l-4 -5l33 -33l-51 -69h121l-4 -6l33 -32l-58 -100h-61l32 -32 v-124l-124 -61v-175h12v101q6 6 22.5 13.5t37 13.5t41.5 10.5t35 4.5v-6l32 -32v-243h-310l-32 32h-6v467l25 36h-21l-32 32h-7q11 32 27 56.5t36 44.5h61l-12 12h-9zM206 485v-38l76 38h-76z" />
<glyph unicode="&#xca;" d="M307 648l-50 69h-122l-50 -69h81l30 43l30 -43h81zM161 80v229l124 61v102l-124 -62v120h157l46 80h-293q-17 -17 -30 -35.5t-20 -39.5h90l-60 -85v-450h290v223q-11 0 -28 -3.5t-33.5 -8.5t-30 -11t-18.5 -11v-109h-70zM263 730l11 -15l23 -23l50 -69h41l-4 -6l33 -32 l-58 -100h-61l32 -32v-124l-124 -61v-175h12v101q6 6 22.5 13.5t37 13.5t41.5 10.5t35 4.5v-6l32 -32v-243h-310l-32 32h-6v467l25 36h-21l-32 32h-7q11 32 27 56.5t36 44.5h14l-12 12h-9l70 95h134zM206 485v-38l76 38h-76zM226 632l-6 -9h15z" />
<glyph unicode="&#xcb;" d="M307 648v69h-97v-69h97zM85 717v-69h97v69h-97zM161 80v229l124 61v102l-124 -62v120h157l46 80h-293q-17 -17 -30 -35.5t-20 -39.5h90l-60 -85v-450h290v223q-11 0 -28 -3.5t-33.5 -8.5t-30 -11t-18.5 -11v-109h-70zM320 730v-6l32 -32v-69h36l-4 -6l33 -32l-58 -100 h-61l32 -32v-124l-124 -61v-175h12v101q6 6 22.5 13.5t37 13.5t41.5 10.5t35 4.5v-6l32 -32v-243h-310l-32 32h-6v467l25 36h-21l-32 32h-7q11 32 27 56.5t36 44.5h24l-12 12h-6v95h123v-6l2 -2v8h123zM206 485v-38l76 38h-76z" />
<glyph unicode="&#xcc;" horiz-adv-x="343" d="M187 717h-81l50 -69h81zM316 75h-99v460h54l46 75h-253q-17 -17 -30 -35.5t-20 -39.5h143l-50 -55v-405h-48l-46 -75h253q17 17 30 35.5t20 39.5zM80 730h113l11 -15l23 -23l50 -69h64l-4 -6l33 -32l-58 -95h-50v-402h72l-2 -6l33 -32q-10 -29 -25 -52t-35 -43h-275 l-32 32h-9l62 101h43v397l4 5h-63l-32 32h-7q11 32 27 56.5t36 44.5h107l-12 12h-4z" />
<glyph unicode="&#xcd;" horiz-adv-x="343" d="M239 717h-81l-50 -69h81zM316 75h-99v460h54l46 75h-253q-17 -17 -30 -35.5t-20 -39.5h143l-50 -55v-405h-48l-46 -75h253q17 17 30 35.5t20 39.5zM152 730h113l-4 -5l33 -33l-51 -69h98l-4 -6l33 -32l-58 -95h-50v-402h72l-2 -6l33 -32q-10 -29 -25 -52t-35 -43h-275 l-32 32h-9l62 101h43v397l4 5h-63l-32 32h-7q11 32 27 56.5t36 44.5h44l-12 12h-9z" />
<glyph unicode="&#xce;" horiz-adv-x="343" d="M282 649l-50 69h-122l-50 -69h81l30 43l30 -43h81zM316 75h-99v460h54l46 75h-253q-17 -17 -30 -35.5t-20 -39.5h143l-50 -55v-405h-48l-46 -75h253q17 17 30 35.5t20 39.5zM238 731l11 -15l23 -23l51 -70h18l-4 -6l33 -32l-58 -95h-50v-402h72l-2 -6l33 -32 q-10 -29 -25 -52t-35 -43h-275l-32 32h-9l62 101h43v397l4 5h-63l-32 32h-7q11 32 26 55.5t35 43.5l-14 15h-9l70 95h134zM201 633l-7 -10h18z" />
<glyph unicode="&#xcf;" horiz-adv-x="343" d="M316 75h-99v460h54l46 75h-253q-17 -17 -30 -35.5t-20 -39.5h143l-50 -55v-405h-48l-46 -75h253q17 17 30 35.5t20 39.5zM282 648v69h-97v-69h97zM60 717v-69h97v69h-97zM295 730v-6l32 -32v-69h14l-4 -6l33 -32l-58 -95h-50v-402h72l-2 -6l33 -32q-10 -29 -25 -52 t-35 -43h-275l-32 32h-9l62 101h43v397l4 5h-63l-32 32h-7q11 32 27 56.5t36 44.5h6l-12 12h-6v95h123v-6l2 -2v8h123z" />
<glyph unicode="&#xd0;" horiz-adv-x="460" d="M229 80v450h70v-450h-70zM51 410v-101l68 33v-342h260q1 0 8.5 4t11.5 6q2 2 6 5.5t4 4.5v570q0 1 -4 4.5t-6 5.5q-4 2 -11.5 6t-8.5 4h-240q-5 -4 -12 -14t-14 -21.5t-13.5 -22.5t-10.5 -17h30v-91zM38 288v130l68 34v38l-32 32h-9q1 1 4.5 6.5t7 11.5t7.5 12.5t7 10.5 v1q9 15 20.5 31.5t22.5 27.5h245q2 0 11.5 -3.5t12.5 -5.5l9 -9q7 -8 8 -9.5t2 -3.5v-1l23 -23q3 -4 6 -8.5l3 -4.5v-570l-3 -5t-6 -8l-6 -6q-4 -2 -13.5 -6.5t-11.5 -4.5h-270l-32 32h-6v285l-30 -14l-33 32zM274 485v-392h12v392h-12z" />
<glyph unicode="&#xd1;" horiz-adv-x="427" d="M238 674l-30 43h-82l-50 -69h81l30 43l30 -43h82l50 69h-81zM51 610v-695q7 3 25.5 11t37.5 18.5t33.5 21t14.5 19.5v430l103 -137v-278h111v610h-111v-144l-112 144h-102zM214 730l10 -15l16 -16l22 31h113l-4 -5l33 -33l-51 -69h36v-6l32 -32v-630h-131l-32 32h-6v287 l-45 59v-383q0 -11 -17 -24.5t-39.5 -26t-44 -22t-30.5 -12.5l-32 32l-4.5 -1.5l-1.5 -0.5v728h33l-12 12h-9l70 95h94zM175 603l18 -18l59 -76v94h-5l-30 29l-20 -29h-22z" />
<glyph unicode="&#xd2;" d="M211 717h-81l50 -69h81zM161 80v450h70v-450h-70zM111 535l-60 -65v-440q0 -2 4 -9t6 -11q2 -2 5.5 -6t4.5 -4h240q1 0 8.5 4t11.5 6q2 2 6 5.5t4 4.5v570q0 1 -4 4.5t-6 5.5q-4 2 -11.5 6t-8.5 4h-240q-5 -4 -12 -14t-14 -21.5t-13.5 -22.5t-10.5 -17h90zM104 730h113 l11 -15l23 -23l50 -69h10q2 0 11.5 -3.5t12.5 -5.5l9 -9q7 -8 8 -9.5t2 -3.5v-1l23 -23q3 -4 6 -8.5l3 -4.5v-570l-3 -5t-6 -8l-6 -6q-4 -2 -13.5 -6.5t-11.5 -4.5h-240l-4.5 2t-7.5 5l-26 26q-5 2 -7 3.5t-5 5.5l-9 9q-2 3 -5.5 10t-3.5 14v445l13 15h-13l-32 32h-9 q1 1 4.5 6t7.5 11.5l8 13t6 10.5v1q9 15 20.5 31.5t22.5 27.5h124l-12 12h-4zM206 485v-392h12v392h-12z" />
<glyph unicode="&#xd3;" d="M263 717h-81l-50 -69h81zM161 80v450h70v-450h-70zM111 535l-60 -65v-440q0 -2 4 -9t6 -11q2 -2 5.5 -6t4.5 -4h240q1 0 8.5 4t11.5 6q2 2 6 5.5t4 4.5v570q0 1 -4 4.5t-6 5.5q-4 2 -11.5 6t-8.5 4h-240q-5 -4 -12 -14t-14 -21.5t-13.5 -22.5t-10.5 -17h90zM176 730h113 l-4 -5l33 -33l-51 -69h44q2 0 11.5 -3.5t12.5 -5.5l9 -9q7 -8 8 -9.5t2 -3.5v-1l23 -23q3 -4 6 -8.5l3 -4.5v-570l-3 -5t-6 -8l-6 -6q-4 -2 -13.5 -6.5t-11.5 -4.5h-240l-4.5 2t-7.5 5l-26 26q-5 2 -7 3.5t-5 5.5l-9 9q-2 3 -5.5 10t-3.5 14v445l13 15h-13l-32 32h-9 q1 1 4.5 6t7.5 11.5l8 13t6 10.5v1q9 15 20.5 31.5t22.5 27.5h61l-12 12h-9zM206 485v-392h12v392h-12z" />
<glyph unicode="&#xd4;" d="M307 648l-50 69h-122l-50 -69h81l30 43l30 -43h81zM161 80v450h70v-450h-70zM111 535l-60 -65v-440q0 -2 4 -9t6 -11q2 -2 5.5 -6t4.5 -4h240q1 0 8.5 4t11.5 6q2 2 6 5.5t4 4.5v570q0 1 -4 4.5t-6 5.5q-4 2 -11.5 6t-8.5 4h-240q-5 -4 -12 -14t-14 -21.5t-13.5 -22.5 t-10.5 -17h90zM263 730l11 -15l23 -23l65 -89h-17q5 -7 6.5 -8t2.5 -3v-1l23 -23q3 -4 6 -8.5l3 -4.5v-570l-3 -5t-6 -8l-6 -6q-4 -2 -13.5 -6.5t-11.5 -4.5h-240l-4.5 2t-7.5 5l-26 26q-5 2 -7 3.5t-5 5.5l-9 9q-2 3 -5.5 10t-3.5 14v445l13 15h-13l-32 32h-9q1 1 4.5 6 t7.5 11.5l8 13t6 10.5v1q9 15 20.5 31.5t22.5 27.5h14l-12 12h-9l70 95h134zM206 485v-392h12v392h-12zM226 632l-6 -9h15z" />
<glyph unicode="&#xd5;" d="M223 674l-30 43h-82l-50 -69h81l30 43l30 -43h82l50 69h-81zM161 80v450h70v-450h-70zM111 535l-60 -65v-440q0 -2 4 -9t6 -11q2 -2 5.5 -6t4.5 -4h240q1 0 8.5 4t11.5 6q2 2 6 5.5t4 4.5v570q0 1 -4 4.5t-6 5.5q-4 2 -11.5 6t-8.5 4h-240q-5 -4 -12 -14t-14 -21.5 t-13.5 -22.5t-10.5 -17h90zM199 730l10 -15l16 -16l22 31h113l-4 -5l33 -33l-57 -77q1 0 1.5 -0.5t1.5 -0.5l9 -9q7 -8 8 -9.5t2 -3.5v-1l23 -23q3 -4 6 -8.5l3 -4.5v-570l-3 -5t-6 -8l-6 -6q-4 -2 -13.5 -6.5t-11.5 -4.5h-240l-4.5 2t-7.5 5l-26 26q-5 2 -7 3.5t-5 5.5 l-9 9q-2 3 -5.5 10t-3.5 14v445l13 15h-13l-32 32h-9q1 1 4.5 6t7.5 11.5l8 13t6 10.5v1q8 14 17.5 28.5t20.5 25.5l-17 17h-9l70 95h94zM206 485v-392h12v392h-12zM202 632l-6 -9h15z" />
<glyph unicode="&#xd6;" d="M307 648v69h-97v-69h97zM85 717v-69h97v69h-97zM161 80v450h70v-450h-70zM111 535l-60 -65v-440q0 -2 4 -9t6 -11q2 -2 5.5 -6t4.5 -4h240q1 0 8.5 4t11.5 6q2 2 6 5.5t4 4.5v570q0 1 -4 4.5t-6 5.5q-4 2 -11.5 6t-8.5 4h-240q-5 -4 -12 -14t-14 -21.5t-13.5 -22.5 t-10.5 -17h90zM320 730v-6l32 -32v-89h-7q5 -7 6.5 -8t2.5 -3v-1l23 -23q3 -4 6 -8.5l3 -4.5v-570l-3 -5t-6 -8l-6 -6q-4 -2 -13.5 -6.5t-11.5 -4.5h-240l-4.5 2t-7.5 5l-26 26q-5 2 -7 3.5t-5 5.5l-9 9q-2 3 -5.5 10t-3.5 14v445l13 15h-13l-32 32h-9q1 1 4.5 6t7.5 11.5 l8 13t6 10.5v1q9 15 20.5 31.5t22.5 27.5h24l-12 12h-6v95h123v-6l2 -2v8h123zM206 485v-392h12v392h-12z" />
<glyph unicode="&#xd7;" horiz-adv-x="427" d="M157 303l-106 -303h111l51 145l51 -145h111l-107 303l108 307h-111l-52 -148l-52 148h-111zM33 -13l110 316l-111 320h138l2 -8l31 -30l19 -58l34 96h138l-2 -5l33 -33l-112 -317l111 -313h-132l-32 32h-5l-20 57l-31 -89h-132l-32 32h-7z" />
<glyph unicode="&#xd8;" d="M161 349v181h61zM231 80h-63l63 178v-178zM61 10q2 -2 5.5 -6t4.5 -4h240q1 0 8.5 4t11.5 6q2 2 6 5.5t4 4.5v570q0 1 -4 4.5t-6 5.5q-4 2 -11.5 6t-8.5 4h-240q-1 0 -4.5 -4t-5.5 -6q-2 -4 -6 -11t-4 -9v-550q0 -2 4 -9t6 -11zM48 5q-2 4 -6 11.5t-4 13.5v550 q0 7 3.5 14t5.5 10l9 9q4 4 5.5 5t8.5 5h241q2 0 11.5 -3.5t12.5 -5.5l9 -9q7 -8 8 -9.5t2 -3.5v-1l17 -17h-1l7 -6q3 -4 6 -8.5l3 -4.5v-570l-3 -5t-6 -8l-6 -6q-4 -2 -13.5 -6.5t-11.5 -4.5h-240l-4.5 2t-7.5 5l-26 26q-5 2 -7 3.5t-5 5.5z" />
<glyph unicode="&#xd9;" d="M211 717h-81l50 -69h81zM161 80v530h-110v-580q0 -2 4 -9t6 -11q2 -2 5.5 -6t4.5 -4h240q1 0 8.5 4t11.5 6q2 2 6 5.5t4 4.5v590h-110v-530h-70zM104 730h113l11 -15l23 -23l50 -69h53v-6l32 -32v-600l-3 -5t-6 -8l-6 -6q-4 -2 -13.5 -6.5t-11.5 -4.5h-240l-4.5 2t-7.5 5 l-26 26q-5 2 -7 3.5t-5 5.5l-9 9q-2 3 -5.5 10t-3.5 14v593h136v-6l32 -32v-492h12v510h-8l-32 32h-4z" />
<glyph unicode="&#xda;" d="M263 717h-81l-50 -69h81zM161 80v530h-110v-580q0 -2 4 -9t6 -11q2 -2 5.5 -6t4.5 -4h240q1 0 8.5 4t11.5 6q2 2 6 5.5t4 4.5v590h-110v-530h-70zM176 730h113l-4 -5l33 -33l-51 -69h87v-6l32 -32v-600l-3 -5t-6 -8l-6 -6q-4 -2 -13.5 -6.5t-11.5 -4.5h-240l-4.5 2 t-7.5 5l-26 26q-5 2 -7 3.5t-5 5.5l-9 9q-2 3 -5.5 10t-3.5 14v593h89l-12 12h-9zM188 603l18 -18v-492h12v510h-30z" />
<glyph unicode="&#xdb;" d="M307 648l-50 69h-122l-50 -69h81l30 43l30 -43h81zM161 80v530h-110v-580q0 -2 4 -9t6 -11q2 -2 5.5 -6t4.5 -4h240q1 0 8.5 4t11.5 6q2 2 6 5.5t4 4.5v590h-110v-530h-70zM263 730l11 -15l23 -23l50 -69h7v-6l32 -32v-600l-3 -5t-6 -8l-6 -6q-4 -2 -13.5 -6.5 t-11.5 -4.5h-240l-4.5 2t-7.5 5l-26 26q-5 2 -7 3.5t-5 5.5l-9 9q-2 3 -5.5 10t-3.5 14v593h42l-12 12h-9l70 95h134zM206 585v-492h12v527l-12 -17h-18zM226 632l-7 -9h16z" />
<glyph unicode="&#xdc;" d="M307 648v69h-97v-69h97zM85 717v-69h97v69h-97zM161 80v530h-110v-580q0 -2 4 -9t6 -11q2 -2 5.5 -6t4.5 -4h240q1 0 8.5 4t11.5 6q2 2 6 5.5t4 4.5v590h-110v-530h-70zM320 730v-6l32 -32v-69h2v-6l32 -32v-600l-3 -5t-6 -8l-6 -6q-4 -2 -13.5 -6.5t-11.5 -4.5h-240 l-4.5 2t-7.5 5l-26 26q-5 2 -7 3.5t-5 5.5l-9 9q-2 3 -5.5 10t-3.5 14v593h52l-12 12h-6v95h123v-6l2 -2v8h123zM188 603l18 -18v-492h12v510h-30z" />
<glyph unicode="&#xdd;" d="M263 717h-81l-50 -69h81zM161 610h-110v-297q0 -2 4 -9t6 -11q2 -2 5.5 -6t4.5 -4l71 37v-320q6 -7 19 -19t29 -23.5t32.5 -20.5t29.5 -10v455l59 34q1 0 8.5 4t11.5 6q2 2 6 5.5t4 4.5v174h-110v-147l-70 -40v187zM176 730h113l-4 -5l33 -33l-51 -69h87v-6l32 -32v-184 l-3 -5t-6 -8l-6 -6q-3 -2 -9.5 -5t-11.5 -5h1l-54 -31v-460q-16 1 -34 9.5t-35 19.5t-31.5 23t-23.5 21l-8 8q-13 10 -22 19l-14 14v253l-20 -10l-5.5 2.5t-9.5 5.5l-26 26q-6 2 -8 3.5t-4 4.5l-9 9q-2 3 -5.5 10t-3.5 14v310h89l-12 12h-9zM206 585v-121l12 7v132h-30z" />
<glyph unicode="&#xde;" horiz-adv-x="427" d="M265 364l-104 -52v120h104v-68zM162 610h-111v-120q-22 -25 -30 -53h90l-60 -85v-352h110v211l215 107v173q-2 6 -5.5 11.5t-13.5 9.5h-195v98zM38 623h137v-6l32 -32v-60h152q13 -6 18.5 -12.5t8.5 -13.5l21 -21h-1v1l4 -3q8 -8 11 -19v-180l-215 -107v-215h-130l-32 32 h-6v369l25 36h-20l-32 32h-7q13 46 34 70v129zM206 387v-38l46 23v15h-46z" />
<glyph unicode="&#xdf;" horiz-adv-x="421" d="M51 532v-685h113v685h95v-70l-53 -36v-103l53 27v-270h-53v-80h134q1 0 8.5 4t11.5 6q2 2 6 5.5t4 4.5v380l-34 30l34 25v134q-2 6 -5.5 11.5t-13.5 9.5h-250q-17 -17 -30 -37t-20 -41zM38 -166v702q8 22 23 44.5t35 42.5h257q12 -5 17.5 -11.5t8.5 -13.5l1 -1l24 -23 q8 -8 11 -19v-140l-27 -20l27 -26v-384l-3 -5t-6 -8l-6 -6q-4 -2 -13.5 -6.5t-11.5 -4.5h-144l-22 22v-175h-133l-32 32h-6zM231 271l-22 22v-200h37v185zM209 487v-44l37 26v18h-37z" />
<glyph unicode="&#xe0;" d="M211 717h-81l50 -69h81zM160 530h71v-82l-71 -35v117zM311 -45q3 3 8.5 8t10 9.5l8 8t3.5 4.5v605q0 1 -4 4.5t-6 5.5q-4 2 -11.5 6t-8.5 4h-240q-5 -4 -12 -14t-14 -21.5t-13.5 -22.5t-10.5 -17h90l-60 -65v-470h109v312l71 35v-432q4 1 16 6.5t25.5 12t24.5 12.5t14 9z M104 730h113l11 -15l23 -23l50 -69h10q2 0 11.5 -3.5t12.5 -5.5l9 -9q7 -8 8 -9.5t2 -3.5v-1l17 -17h-1l7 -6q3 -4 6 -8.5l3 -4.5v-605q0 -5 -7 -12t-15 -14l-11 -11q-3 -3 -16.5 -10t-29.5 -15t-31 -14.5t-20 -7.5l-33 33q-1 -1 -3 -1q-1 0 -2 -1v380l-13 -6v-316h-129 l-32 32h-6v488l13 15h-13l-32 32h-9q1 1 4.5 6t7.5 11.5l8 13t6 10.5v1q9 15 20.5 31.5t22.5 27.5h124l-12 12h-4zM205 485v-36l13 7v29h-13z" />
<glyph unicode="&#xe1;" d="M263 717h-81l-50 -69h81zM160 530h71v-82l-71 -35v117zM311 -45q3 3 8.5 8t10 9.5l8 8t3.5 4.5v605q0 1 -4 4.5t-6 5.5q-4 2 -11.5 6t-8.5 4h-240q-5 -4 -12 -14t-14 -21.5t-13.5 -22.5t-10.5 -17h90l-60 -65v-470h109v312l71 35v-432q4 1 16 6.5t25.5 12t24.5 12.5t14 9 zM176 730h113l-4 -5l33 -33l-51 -69h44q2 0 11.5 -3.5t12.5 -5.5l9 -9q7 -8 8 -9.5t2 -3.5v-1l23 -23q3 -4 6 -8.5l3 -4.5v-605q0 -5 -7 -12t-15 -14l-11 -11q-3 -3 -16.5 -10t-29.5 -15t-31 -14.5t-20 -7.5l-33 33q-1 -1 -3 -1q-1 0 -2 -1v380l-13 -6v-316h-129l-32 32h-6 v488l13 15h-13l-32 32h-9q1 1 4.5 6t7.5 11.5l8 13t6 10.5v1q9 15 20.5 31.5t22.5 27.5h61l-12 12h-9zM205 485v-36l13 7v29h-13z" />
<glyph unicode="&#xe2;" d="M307 648l-50 69h-122l-50 -69h81l30 43l30 -43h81zM160 530h71v-82l-71 -35v117zM311 -45q3 3 8.5 8t10 9.5l8 8t3.5 4.5v605q0 1 -4 4.5t-6 5.5q-4 2 -11.5 6t-8.5 4h-240q-5 -4 -12 -14t-14 -21.5t-13.5 -22.5t-10.5 -17h90l-60 -65v-470h109v312l71 35v-432 q4 1 16 6.5t25.5 12t24.5 12.5t14 9zM263 730l11 -15l23 -23l65 -89h-17q5 -7 6.5 -8t2.5 -3v-1l17 -17h-1l7 -6q3 -4 6 -8.5l3 -4.5v-605q0 -5 -7 -12t-15 -14l-11 -11q-3 -3 -16.5 -10t-29.5 -15t-31 -14.5t-20 -7.5l-33 33q-1 -1 -3 -1q-1 0 -2 -1v380l-13 -6v-316h-129 l-32 32h-6v488l13 15h-13l-32 32h-9q1 1 4.5 6t7.5 11.5l8 13t6 10.5v1q9 15 20.5 31.5t22.5 27.5h14l-12 12h-9l70 95h134zM205 485v-36l13 7v29h-13zM226 632l-6 -9h16z" />
<glyph unicode="&#xe3;" d="M223 674l-30 43h-82l-50 -69h81l30 43l30 -43h82l50 69h-81zM160 530h71v-82l-71 -35v117zM311 -45q3 3 8.5 8t10 9.5l8 8t3.5 4.5v605q0 1 -4 4.5t-6 5.5q-4 2 -11.5 6t-8.5 4h-240q-5 -4 -12 -14t-14 -21.5t-13.5 -22.5t-10.5 -17h90l-60 -65v-470h109v312l71 35v-432 q4 1 16 6.5t25.5 12t24.5 12.5t14 9zM199 730l10 -15l16 -16l22 31h113l-4 -5l33 -33l-57 -77q1 0 1.5 -0.5t1.5 -0.5l9 -9q7 -8 8 -9.5t2 -3.5v-1l23 -23q3 -4 6 -8.5l3 -4.5v-605q0 -5 -7 -12t-15 -14l-11 -11q-3 -3 -16.5 -10t-29.5 -15t-31 -14.5t-20 -7.5l-33 33 q-1 -1 -3 -1q-1 0 -2 -1v380l-13 -6v-316h-129l-32 32h-6v488l13 15h-13l-32 32h-9q1 1 4.5 6t7.5 11.5l8 13t6 10.5v1q8 14 17.5 28.5t20.5 25.5l-17 17h-9l70 95h94zM205 485v-36l13 7v29h-13zM202 632l-6 -9h15z" />
<glyph unicode="&#xe4;" d="M307 648v69h-97v-69h97zM85 717v-69h97v69h-97zM160 530h71v-82l-71 -35v117zM311 -45q3 3 8.5 8t10 9.5l8 8t3.5 4.5v605q0 1 -4 4.5t-6 5.5q-4 2 -11.5 6t-8.5 4h-240q-5 -4 -12 -14t-14 -21.5t-13.5 -22.5t-10.5 -17h90l-60 -65v-470h109v312l71 35v-432q4 1 16 6.5 t25.5 12t24.5 12.5t14 9zM320 730v-6l32 -32v-89h-7q5 -7 6.5 -8t2.5 -3v-1l23 -23q3 -4 6 -8.5l3 -4.5v-605q0 -5 -7 -12t-15 -14l-11 -11q-3 -3 -16.5 -10t-29.5 -15t-31 -14.5t-20 -7.5l-33 33q-1 -1 -3 -1q-1 0 -2 -1v380l-13 -6v-316h-129l-32 32h-6v488l13 15h-13 l-32 32h-9q1 1 4.5 6t7.5 11.5l8 13t6 10.5v1q9 15 20.5 31.5t22.5 27.5h24l-12 12h-6v95h123v-6l2 -2v8h123zM205 485v-36l13 7v29h-13z" />
<glyph unicode="&#xe5;" d="M205 449v36h13v-29zM135 730v-95h6l12 -12h-87q-11 -11 -22.5 -27.5t-20.5 -31.5v-1q-2 -4 -6 -10.5l-8 -13t-7.5 -11.5t-4.5 -6h9l32 -32h13l-13 -15v-488h6l32 -32h129v316l13 6v-380q1 1 2 1q2 0 3 1l33 -33q5 1 20 7.5t31 14.5t29.5 15t16.5 10l11 11q8 7 15 14t7 12 v605l-3 4.5t-6 8.5l-23 23v1q-1 2 -2 3.5t-8 9.5l-9 9q-3 2 -12.5 5.5t-11.5 3.5h-21v69l-32 32v6h-123zM180 691v-18h32v18h-32zM311 -45q-3 -3 -14 -9t-24.5 -12.5t-25.5 -12t-16 -6.5v432l-71 -35v-312h-109v470l60 65h-90q4 6 10.5 17t13.5 22.5t14 21.5t12 14h240 q1 0 8.5 -4t11.5 -6q2 -2 6 -5.5t4 -4.5v-605q0 -1 -3.5 -4.5l-8 -8t-10 -9.5t-8.5 -8zM231 530h-71v-117l71 35v82zM148 648v69h97v-69h-97z" />
<glyph unicode="&#xe6;" horiz-adv-x="571" d="M159 530h71v-82l-71 -35v117zM310 -45q3 3 8.5 8t10 9.5l8 8t3.5 4.5v15h180v223q-11 0 -28 -3.5t-33.5 -8.5t-30 -11t-18.5 -11v-109h-70v229l124 61v102l-124 -62v120h157l46 80h-473q-5 -4 -12 -14t-14 -21.5t-13.5 -22.5t-10.5 -17h90l-60 -65v-470h109v312l71 35 v-432q4 1 16 6.5t25.5 12t24.5 12.5t14 9zM385 268v-175h12v101q6 6 22.5 13.5t37 13.5t41.5 10.5t35 4.5v-6l32 -32v-243h-180v-5q0 -5 -7 -12t-15 -14l-11 -11q-3 -3 -16.5 -10t-29.5 -15t-31 -14.5t-20 -7.5l-33 33q-1 -1 -3 -1q-1 0 -2 -1v380l-13 -6v-316h-129l-32 32 h-6v488l13 15h-13l-32 32h-9q1 1 4.5 6t7.5 11.5l8 13t6 10.5v1q9 15 20.5 31.5t22.5 27.5h502l-4 -6l33 -32l-58 -100h-61l32 -32v-124zM385 485v-38l76 38h-76zM204 485v-36l13 7v29h-13z" />
<glyph unicode="&#xe7;" d="M161 520h90q0 -40 23 -58.5t55 -30.5l12 -1v180h-270q-17 -17 -30 -35.5t-20 -39.5h90l-60 -65v-440q0 -2 4 -9t6 -11q2 -2 5.5 -6t4.5 -4h104v-19l-71 -41v-103l182 86v77h55v223q-11 0 -28 -3.5t-33.5 -8.5t-30 -11t-18.5 -11v-109h-70v440zM42 490l-32 32h-7 q11 32 27 56.5t36 44.5h288v-6l32 -32v-201l-22 2q-19 7 -35 15.5t-28 20.5l-16 15q-24 17 -36 38h-43v-382h12v101q6 6 22.5 13.5t37 13.5t41.5 10.5t35 4.5v-6l32 -32v-243h-55v-73l-202 -96l-33 33l-5 -3v132l13 8q-5 1 -10 6l-26 26q-5 2 -7 3.5t-5 5.5l-9 9 q-2 3 -5.5 10t-3.5 14v445l13 15h-9z" />
<glyph unicode="&#xe8;" d="M211 717h-81l50 -69h81zM161 80v229l124 61v102l-124 -62v120h157l46 80h-293q-17 -17 -30 -35.5t-20 -39.5h90l-60 -85v-450h290v223q-11 0 -28 -3.5t-33.5 -8.5t-30 -11t-18.5 -11v-109h-70zM104 730h113l11 -15l23 -23l50 -69h87l-4 -6l33 -32l-58 -100h-61l32 -32 v-124l-124 -61v-175h12v101q6 6 22.5 13.5t37 13.5t41.5 10.5t35 4.5v-6l32 -32v-243h-310l-32 32h-6v467l25 36h-21l-32 32h-7q11 32 27 56.5t36 44.5h124l-12 12h-4zM206 485v-38l76 38h-76z" />
<glyph unicode="&#xe9;" d="M263 717h-81l-50 -69h81zM161 80v229l124 61v102l-124 -62v120h157l46 80h-293q-17 -17 -30 -35.5t-20 -39.5h90l-60 -85v-450h290v223q-11 0 -28 -3.5t-33.5 -8.5t-30 -11t-18.5 -11v-109h-70zM176 730h113l-4 -5l33 -33l-51 -69h121l-4 -6l33 -32l-58 -100h-61l32 -32 v-124l-124 -61v-175h12v101q6 6 22.5 13.5t37 13.5t41.5 10.5t35 4.5v-6l32 -32v-243h-310l-32 32h-6v467l25 36h-21l-32 32h-7q11 32 27 56.5t36 44.5h61l-12 12h-9zM206 485v-38l76 38h-76z" />
<glyph unicode="&#xea;" d="M307 648l-50 69h-122l-50 -69h81l30 43l30 -43h81zM161 80v229l124 61v102l-124 -62v120h157l46 80h-293q-17 -17 -30 -35.5t-20 -39.5h90l-60 -85v-450h290v223q-11 0 -28 -3.5t-33.5 -8.5t-30 -11t-18.5 -11v-109h-70zM263 730l11 -15l23 -23l50 -69h41l-4 -6l33 -32 l-58 -100h-61l32 -32v-124l-124 -61v-175h12v101q6 6 22.5 13.5t37 13.5t41.5 10.5t35 4.5v-6l32 -32v-243h-310l-32 32h-6v467l25 36h-21l-32 32h-7q11 32 27 56.5t36 44.5h14l-12 12h-9l70 95h134zM206 485v-38l76 38h-76zM226 632l-6 -9h15z" />
<glyph unicode="&#xeb;" d="M307 648v69h-97v-69h97zM85 717v-69h97v69h-97zM161 80v229l124 61v102l-124 -62v120h157l46 80h-293q-17 -17 -30 -35.5t-20 -39.5h90l-60 -85v-450h290v223q-11 0 -28 -3.5t-33.5 -8.5t-30 -11t-18.5 -11v-109h-70zM320 730v-6l32 -32v-69h36l-4 -6l33 -32l-58 -100 h-61l32 -32v-124l-124 -61v-175h12v101q6 6 22.5 13.5t37 13.5t41.5 10.5t35 4.5v-6l32 -32v-243h-310l-32 32h-6v467l25 36h-21l-32 32h-7q11 32 27 56.5t36 44.5h24l-12 12h-6v95h123v-6l2 -2v8h123zM206 485v-38l76 38h-76z" />
<glyph unicode="&#xec;" horiz-adv-x="213" d="M121 717h-81l50 -69h81zM162 610h-111v-610h111v610zM14 730h113l11 -15l23 -23l65 -89h-37l18 -18v-630h-131l-32 32h-6v636h62l-12 12h-4z" />
<glyph unicode="&#xed;" horiz-adv-x="213" d="M171 717h-81l-50 -69h81zM162 610h-111v-610h111v610zM84 730h113l-4 -5l33 -33l-51 -70v-5l32 -32v-630h-131l-32 32h-6v633l-15 15h-9z" />
<glyph unicode="&#xee;" horiz-adv-x="213" d="M217 649l-50 69h-122l-50 -69h81l30 43l30 -43h81zM162 610h-111v-610h111v610zM173 731l11 -15l23 -23l65 -89h-84l19 -19v-630h-131l-32 32h-6v617h-28l-32 32h-9l70 95h134zM136 633l-7 -10h18z" />
<glyph unicode="&#xef;" horiz-adv-x="213" d="M217 648v69h-97v-69h97zM-5 717v-69h97v69h-97zM162 610h-111v-610h111v610zM230 730v-6l32 -32v-89h-73l18 -18v-630h-131l-32 32h-6v616h-18l-32 32h-6v95h123v-6l2 -2v8h123z" />
<glyph unicode="&#xf0;" horiz-adv-x="376" d="M153 305l70 -42v-183h-70v225zM66 530h157v-154l-180 96v-443q3 -9 7.5 -16.5t13.5 -12.5h249q1 0 4.5 4t5.5 6q2 4 6 11t4 9v440l-60 65h90q-7 21 -20 39.5t-30 35.5h-293zM30 28v466l180 -96v87h-115l-32 32h-5l-62 106h322q8 -8 14.5 -15.5t12.5 -16.5l7 -6 q20 -20 35 -43t25 -52h-80l14 -15v-2l32 -34v-444q0 -5 -4.5 -13t-6.5 -12l-6 -6q-4 -4 -8.5 -6.5l-4.5 -2.5h-252q-8 6 -11 9l-23 23h-2q-14 8 -20 18t-10 23zM198 252v-159h12v152z" />
<glyph unicode="&#xf1;" horiz-adv-x="427" d="M238 674l-30 43h-82l-50 -69h81l30 43l30 -43h82l50 69h-81zM51 610v-695q7 3 25.5 11t37.5 18.5t33.5 21t14.5 19.5v430l103 -137v-278h111v610h-111v-144l-112 144h-102zM214 730l10 -15l16 -16l22 31h113l-4 -5l33 -33l-51 -69h36v-6l32 -32v-630h-131l-32 32h-6v287 l-45 59v-383q0 -11 -17 -24.5t-39.5 -26t-44 -22t-30.5 -12.5l-32 32l-4.5 -1.5l-1.5 -0.5v728h33l-12 12h-9l70 95h94zM175 603l18 -18l59 -76v94h-5l-30 29l-20 -29h-22z" />
<glyph unicode="&#xf2;" d="M211 717h-81l50 -69h81zM161 80v450h70v-450h-70zM111 535l-60 -65v-440q0 -2 4 -9t6 -11q2 -2 5.5 -6t4.5 -4h240q1 0 8.5 4t11.5 6q2 2 6 5.5t4 4.5v570q0 1 -4 4.5t-6 5.5q-4 2 -11.5 6t-8.5 4h-240q-5 -4 -12 -14t-14 -21.5t-13.5 -22.5t-10.5 -17h90zM104 730h113 l11 -15l23 -23l50 -69h10q2 0 11.5 -3.5t12.5 -5.5l9 -9q7 -8 8 -9.5t2 -3.5v-1l23 -23q3 -4 6 -8.5l3 -4.5v-570l-3 -5t-6 -8l-6 -6q-4 -2 -13.5 -6.5t-11.5 -4.5h-240l-4.5 2t-7.5 5l-26 26q-5 2 -7 3.5t-5 5.5l-9 9q-2 3 -5.5 10t-3.5 14v445l13 15h-13l-32 32h-9 q1 1 4.5 6t7.5 11.5l8 13t6 10.5v1q9 15 20.5 31.5t22.5 27.5h124l-12 12h-4zM206 485v-392h12v392h-12z" />
<glyph unicode="&#xf3;" d="M263 717h-81l-50 -69h81zM161 80v450h70v-450h-70zM111 535l-60 -65v-440q0 -2 4 -9t6 -11q2 -2 5.5 -6t4.5 -4h240q1 0 8.5 4t11.5 6q2 2 6 5.5t4 4.5v570q0 1 -4 4.5t-6 5.5q-4 2 -11.5 6t-8.5 4h-240q-5 -4 -12 -14t-14 -21.5t-13.5 -22.5t-10.5 -17h90zM176 730h113 l-4 -5l33 -33l-51 -69h44q2 0 11.5 -3.5t12.5 -5.5l9 -9q7 -8 8 -9.5t2 -3.5v-1l23 -23q3 -4 6 -8.5l3 -4.5v-570l-3 -5t-6 -8l-6 -6q-4 -2 -13.5 -6.5t-11.5 -4.5h-240l-4.5 2t-7.5 5l-26 26q-5 2 -7 3.5t-5 5.5l-9 9q-2 3 -5.5 10t-3.5 14v445l13 15h-13l-32 32h-9 q1 1 4.5 6t7.5 11.5l8 13t6 10.5v1q9 15 20.5 31.5t22.5 27.5h61l-12 12h-9zM206 485v-392h12v392h-12z" />
<glyph unicode="&#xf4;" d="M307 648l-50 69h-122l-50 -69h81l30 43l30 -43h81zM161 80v450h70v-450h-70zM111 535l-60 -65v-440q0 -2 4 -9t6 -11q2 -2 5.5 -6t4.5 -4h240q1 0 8.5 4t11.5 6q2 2 6 5.5t4 4.5v570q0 1 -4 4.5t-6 5.5q-4 2 -11.5 6t-8.5 4h-240q-5 -4 -12 -14t-14 -21.5t-13.5 -22.5 t-10.5 -17h90zM263 730l11 -15l23 -23l65 -89h-17q5 -7 6.5 -8t2.5 -3v-1l23 -23q3 -4 6 -8.5l3 -4.5v-570l-3 -5t-6 -8l-6 -6q-4 -2 -13.5 -6.5t-11.5 -4.5h-240l-4.5 2t-7.5 5l-26 26q-5 2 -7 3.5t-5 5.5l-9 9q-2 3 -5.5 10t-3.5 14v445l13 15h-13l-32 32h-9q1 1 4.5 6 t7.5 11.5l8 13t6 10.5v1q9 15 20.5 31.5t22.5 27.5h14l-12 12h-9l70 95h134zM206 485v-392h12v392h-12zM226 632l-6 -9h15z" />
<glyph unicode="&#xf5;" d="M223 674l-30 43h-82l-50 -69h81l30 43l30 -43h82l50 69h-81zM161 80v450h70v-450h-70zM111 535l-60 -65v-440q0 -2 4 -9t6 -11q2 -2 5.5 -6t4.5 -4h240q1 0 8.5 4t11.5 6q2 2 6 5.5t4 4.5v570q0 1 -4 4.5t-6 5.5q-4 2 -11.5 6t-8.5 4h-240q-5 -4 -12 -14t-14 -21.5 t-13.5 -22.5t-10.5 -17h90zM199 730l10 -15l16 -16l22 31h113l-4 -5l33 -33l-57 -77q1 0 1.5 -0.5t1.5 -0.5l9 -9q7 -8 8 -9.5t2 -3.5v-1l23 -23q3 -4 6 -8.5l3 -4.5v-570l-3 -5t-6 -8l-6 -6q-4 -2 -13.5 -6.5t-11.5 -4.5h-240l-4.5 2t-7.5 5l-26 26q-5 2 -7 3.5t-5 5.5 l-9 9q-2 3 -5.5 10t-3.5 14v445l13 15h-13l-32 32h-9q1 1 4.5 6t7.5 11.5l8 13t6 10.5v1q8 14 17.5 28.5t20.5 25.5l-17 17h-9l70 95h94zM206 485v-392h12v392h-12zM202 632l-6 -9h15z" />
<glyph unicode="&#xf6;" d="M307 648v69h-97v-69h97zM85 717v-69h97v69h-97zM161 80v450h70v-450h-70zM111 535l-60 -65v-440q0 -2 4 -9t6 -11q2 -2 5.5 -6t4.5 -4h240q1 0 8.5 4t11.5 6q2 2 6 5.5t4 4.5v570q0 1 -4 4.5t-6 5.5q-4 2 -11.5 6t-8.5 4h-240q-5 -4 -12 -14t-14 -21.5t-13.5 -22.5 t-10.5 -17h90zM320 730v-6l32 -32v-89h-7q5 -7 6.5 -8t2.5 -3v-1l23 -23q3 -4 6 -8.5l3 -4.5v-570l-3 -5t-6 -8l-6 -6q-4 -2 -13.5 -6.5t-11.5 -4.5h-240l-4.5 2t-7.5 5l-26 26q-5 2 -7 3.5t-5 5.5l-9 9q-2 3 -5.5 10t-3.5 14v445l13 15h-13l-32 32h-9q1 1 4.5 6t7.5 11.5 l8 13t6 10.5v1q9 15 20.5 31.5t22.5 27.5h24l-12 12h-6v95h123v-6l2 -2v8h123zM206 485v-392h12v392h-12z" />
<glyph unicode="&#xf7;" horiz-adv-x="350" d="M116 541v-80h111v80h-111zM117 252v-80h111v80h-111zM51 347v-103l248 125v102zM103 448v106h137v-6l32 -32v-44l40 20v-8l32 -32v-124l-124 -63h21v-6l32 -32v-100h-131l-32 32h-6v46l-28 -13l-33 32l-5 -2v133l122 61h-19l-32 32h-6z" />
<glyph unicode="&#xf8;" d="M161 349v181h61zM231 80h-63l63 178v-178zM111 535l-60 -65v-440q0 -2 4 -9t6 -11q2 -2 5.5 -6t4.5 -4h240q1 0 8.5 4t11.5 6q2 2 6 5.5t4 4.5v570q0 1 -4 4.5t-6 5.5q-4 2 -11.5 6t-8.5 4h-240q-5 -4 -12 -14t-14 -21.5t-13.5 -22.5t-10.5 -17h90zM38 475l13 15h-13 l-32 32h-9q1 1 4.5 6t7.5 11.5l8 13t6 10.5v1q9 15 20.5 31.5t22.5 27.5h245q2 0 11.5 -3.5t12.5 -5.5l9 -9q7 -8 8 -9.5t2 -3.5v-1l23 -23q3 -4 6 -8.5l3 -4.5v-570l-3 -5t-6 -8l-6 -6q-4 -2 -13.5 -6.5t-11.5 -4.5h-240l-4.5 2t-7.5 5l-26 26q-5 2 -7 3.5t-5 5.5l-9 9 q-2 3 -5.5 10t-3.5 14v445z" />
<glyph unicode="&#xf9;" d="M211 717h-81l50 -69h81zM161 80v530h-110v-580q0 -2 4 -9t6 -11q2 -2 5.5 -6t4.5 -4h240q1 0 8.5 4t11.5 6q2 2 6 5.5t4 4.5v590h-110v-530h-70zM104 730h113l11 -15l23 -23l50 -69h53v-6l32 -32v-600l-3 -5t-6 -8l-6 -6q-4 -2 -13.5 -6.5t-11.5 -4.5h-240l-4.5 2t-7.5 5 l-26 26q-5 2 -7 3.5t-5 5.5l-9 9q-2 3 -5.5 10t-3.5 14v593h136v-6l32 -32v-492h12v510h-8l-32 32h-4z" />
<glyph unicode="&#xfa;" d="M263 717h-81l-50 -69h81zM161 80v530h-110v-580q0 -2 4 -9t6 -11q2 -2 5.5 -6t4.5 -4h240q1 0 8.5 4t11.5 6q2 2 6 5.5t4 4.5v590h-110v-530h-70zM176 730h113l-4 -5l33 -33l-51 -69h87v-6l32 -32v-600l-3 -5t-6 -8l-6 -6q-4 -2 -13.5 -6.5t-11.5 -4.5h-240l-4.5 2 t-7.5 5l-26 26q-5 2 -7 3.5t-5 5.5l-9 9q-2 3 -5.5 10t-3.5 14v593h89l-12 12h-9zM188 603l18 -18v-492h12v510h-30z" />
<glyph unicode="&#xfb;" d="M307 648l-50 69h-122l-50 -69h81l30 43l30 -43h81zM161 80v530h-110v-580q0 -2 4 -9t6 -11q2 -2 5.5 -6t4.5 -4h240q1 0 8.5 4t11.5 6q2 2 6 5.5t4 4.5v590h-110v-530h-70zM263 730l11 -15l23 -23l50 -69h7v-6l32 -32v-600l-3 -5t-6 -8l-6 -6q-4 -2 -13.5 -6.5 t-11.5 -4.5h-240l-4.5 2t-7.5 5l-26 26q-5 2 -7 3.5t-5 5.5l-9 9q-2 3 -5.5 10t-3.5 14v593h42l-12 12h-9l70 95h134zM206 585v-492h12v527l-12 -17h-18zM226 632l-7 -9h16z" />
<glyph unicode="&#xfc;" d="M307 648v69h-97v-69h97zM85 717v-69h97v69h-97zM161 80v530h-110v-580q0 -2 4 -9t6 -11q2 -2 5.5 -6t4.5 -4h240q1 0 8.5 4t11.5 6q2 2 6 5.5t4 4.5v590h-110v-530h-70zM320 730v-6l32 -32v-69h2v-6l32 -32v-600l-3 -5t-6 -8l-6 -6q-4 -2 -13.5 -6.5t-11.5 -4.5h-240 l-4.5 2t-7.5 5l-26 26q-5 2 -7 3.5t-5 5.5l-9 9q-2 3 -5.5 10t-3.5 14v593h52l-12 12h-6v95h123v-6l2 -2v8h123zM188 603l18 -18v-492h12v510h-30z" />
<glyph unicode="&#xfd;" d="M263 717h-81l-50 -69h81zM161 610h-110v-297q0 -2 4 -9t6 -11q2 -2 5.5 -6t4.5 -4l71 37v-320q6 -7 19 -19t29 -23.5t32.5 -20.5t29.5 -10v455l59 34q1 0 8.5 4t11.5 6q2 2 6 5.5t4 4.5v174h-110v-147l-70 -40v187zM176 730h113l-4 -5l33 -33l-51 -69h87v-6l32 -32v-184 l-3 -5t-6 -8l-6 -6q-3 -2 -9.5 -5t-11.5 -5h1l-54 -31v-460q-16 1 -34 9.5t-35 19.5t-31.5 23t-23.5 21l-8 8q-13 10 -22 19l-14 14v253l-20 -10l-5.5 2.5t-9.5 5.5l-26 26q-6 2 -8 3.5t-4 4.5l-9 9q-2 3 -5.5 10t-3.5 14v310h89l-12 12h-9zM206 585v-121l12 7v132h-30z" />
<glyph unicode="&#xfe;" horiz-adv-x="427" d="M265 364l-104 -52v120h104v-68zM162 610h-111v-120q-22 -25 -30 -53h90l-60 -85v-352h110v211l215 107v173q-2 6 -5.5 11.5t-13.5 9.5h-195v98zM38 623h137v-6l32 -32v-60h152q13 -6 18.5 -12.5t8.5 -13.5l21 -21h-1v1l4 -3q8 -8 11 -19v-180l-215 -107v-215h-130l-32 32 h-6v369l25 36h-20l-32 32h-7q13 46 34 70v129zM206 387v-38l46 23v15h-46z" />
<glyph unicode="&#xff;" d="M307 648v69h-97v-69h97zM85 717v-69h97v69h-97zM161 610h-110v-297q0 -2 4 -9t6 -11q2 -2 5.5 -6t4.5 -4l71 37v-320q6 -7 19 -19t29 -23.5t32.5 -20.5t29.5 -10v455l59 34q1 0 8.5 4t11.5 6q2 2 6 5.5t4 4.5v174h-110v-147l-70 -40v187zM320 730v-6l32 -32v-69h2v-6 l32 -32v-184l-3 -5t-6 -8l-6 -6q-3 -2 -9.5 -5t-11.5 -5h1l-54 -31v-460q-16 1 -34 9.5t-35 19.5t-31.5 23t-23.5 21l-8 8q-13 10 -22 19l-14 14v253l-20 -10l-5.5 2.5t-9.5 5.5l-26 26q-6 2 -8 3.5t-4 4.5l-9 9q-2 3 -5.5 10t-3.5 14v310h52l-12 12h-6v95h123v-6l2 -2v8 h123zM206 585v-121l12 7v132h-30z" />
<glyph unicode="&#x152;" horiz-adv-x="633" d="M160 520h90q0 -28 11.5 -45t30.5 -28v-232q-20 -6 -38 -13t-24 -13v-109h-70v440zM402 80v229l124 61v102l-124 -62v120h157l46 80h-535q-17 -17 -30 -35.5t-20 -39.5h90l-60 -65v-440q0 -2 4 -9t6 -11q2 -2 5.5 -6t4.5 -4h512v235q-11 0 -28 -3.5t-33.5 -8.5t-30 -11 t-18.5 -11v-121h-70zM41 490l-32 32h-7q11 32 27 56.5t36 44.5h564l-4 -6l33 -32l-58 -100h-61l32 -32v-124l-124 -61v-175h12v113q6 6 22.5 13.5t37 13.5t41.5 10.5t35 4.5v-6l32 -32v-255h-522l-4.5 2t-7.5 5l-26 26q-5 2 -7 3.5t-5 5.5l-9 9q-2 3 -5.5 10t-3.5 14v445 l13 15h-9zM279 438q-20 13 -33 37h-41v-382h12v101q8 8 25 16t37 15v213zM447 485v-38l76 38h-76z" />
<glyph unicode="&#x153;" horiz-adv-x="633" d="M160 520h90q0 -28 11.5 -45t30.5 -28v-232q-20 -6 -38 -13t-24 -13v-109h-70v440zM402 80v229l124 61v102l-124 -62v120h157l46 80h-535q-17 -17 -30 -35.5t-20 -39.5h90l-60 -65v-440q0 -2 4 -9t6 -11q2 -2 5.5 -6t4.5 -4h512v235q-11 0 -28 -3.5t-33.5 -8.5t-30 -11 t-18.5 -11v-121h-70zM41 490l-32 32h-7q11 32 27 56.5t36 44.5h564l-4 -6l33 -32l-58 -100h-61l32 -32v-124l-124 -61v-175h12v113q6 6 22.5 13.5t37 13.5t41.5 10.5t35 4.5v-6l32 -32v-255h-522l-4.5 2t-7.5 5l-26 26q-5 2 -7 3.5t-5 5.5l-9 9q-2 3 -5.5 10t-3.5 14v445 l13 15h-9zM279 438q-20 13 -33 37h-41v-382h12v101q8 8 25 16t37 15v213zM447 485v-38l76 38h-76z" />
<glyph unicode="&#x178;" d="M307 648v69h-97v-69h97zM85 717v-69h97v69h-97zM161 610h-110v-297q0 -2 4 -9t6 -11q2 -2 5.5 -6t4.5 -4l71 37v-320q6 -7 19 -19t29 -23.5t32.5 -20.5t29.5 -10v455l59 34q1 0 8.5 4t11.5 6q2 2 6 5.5t4 4.5v174h-110v-147l-70 -40v187zM320 730v-6l32 -32v-69h2v-6 l32 -32v-184l-3 -5t-6 -8l-6 -6q-3 -2 -9.5 -5t-11.5 -5h1l-54 -31v-460q-16 1 -34 9.5t-35 19.5t-31.5 23t-23.5 21l-8 8q-13 10 -22 19l-14 14v253l-20 -10l-5.5 2.5t-9.5 5.5l-26 26q-6 2 -8 3.5t-4 4.5l-9 9q-2 3 -5.5 10t-3.5 14v310h52l-12 12h-6v95h123v-6l2 -2v8 h123zM206 585v-121l12 7v132h-30z" />
<glyph unicode="&#x2c6;" horiz-adv-x="324" d="M273 571l-50 69h-122l-50 -69h81l30 43l30 -43h81zM229 653l11 -15l23 -23l65 -89h-106l-30 29l-20 -29h-106l-32 32h-9l70 95h134z" />
<glyph unicode="&#x2dc;" horiz-adv-x="375" d="M213 597l-30 43h-82l-50 -69h81l30 43l30 -43h82l50 69h-81zM189 653l10 -15l16 -16l22 31h113l-4 -5l33 -33l-65 -89h-92l-30 29l-20 -29h-106l-32 32h-9l70 95h94z" />
<glyph unicode="&#x2000;" horiz-adv-x="382" />
<glyph unicode="&#x2001;" horiz-adv-x="764" />
<glyph unicode="&#x2002;" horiz-adv-x="382" />
<glyph unicode="&#x2003;" horiz-adv-x="764" />
<glyph unicode="&#x2004;" horiz-adv-x="254" />
<glyph unicode="&#x2005;" horiz-adv-x="191" />
<glyph unicode="&#x2006;" horiz-adv-x="127" />
<glyph unicode="&#x2007;" horiz-adv-x="127" />
<glyph unicode="&#x2008;" horiz-adv-x="95" />
<glyph unicode="&#x2009;" horiz-adv-x="152" />
<glyph unicode="&#x200a;" horiz-adv-x="42" />
<glyph unicode="&#x2010;" horiz-adv-x="226" d="M51 410v-101l124 61v102zM38 288v130l150 75v-8l32 -32v-124l-144 -71l-33 32z" />
<glyph unicode="&#x2011;" horiz-adv-x="226" d="M51 410v-101l124 61v102zM38 288v130l150 75v-8l32 -32v-124l-144 -71l-33 32z" />
<glyph unicode="&#x2012;" horiz-adv-x="226" d="M51 410v-101l124 61v102zM38 288v130l150 75v-8l32 -32v-124l-144 -71l-33 32z" />
<glyph unicode="&#x2013;" horiz-adv-x="226" d="M51 410v-101l124 61v102zM38 288v130l150 75v-8l32 -32v-124l-144 -71l-33 32z" />
<glyph unicode="&#x2014;" horiz-adv-x="350" d="M51 347v-103l248 125v102zM38 222v133l274 137v-8l32 -32v-124l-268 -136l-33 32z" />
<glyph unicode="&#x2018;" horiz-adv-x="212" d="M161 429v181q-5 -2 -17 -8t-25.5 -13t-24.5 -12.5l-13 -6.5q-4 -3 -9 -7.5t-9.5 -9t-8 -8.5t-3.5 -5v-111h110zM174 630v-8l32 -32v-206h-130l-32 32h-6v124q0 2 4.5 8t11.5 13t14.5 14t12.5 11q1 1 13 6.5t27.5 13t30.5 14.5t22 10z" />
<glyph unicode="&#x2019;" horiz-adv-x="212" d="M51 611v-181q4 2 16.5 8t26 12.5t24.5 12t13 7.5q4 3 9 7.5t9.5 9t8 8.5t3.5 5v111h-110zM38 409v215h136v-6l32 -32v-121q0 -2 -4 -7t-9 -11t-11 -11.5t-10 -8.5q-3 -2 -21.5 -11t-34.5 -17l-40 -20l-33 32z" />
<glyph unicode="&#x201a;" horiz-adv-x="213" d="M162 80h-111v-153q13 1 30 10t33 20.5t29 23.5t19 19v80zM38 93h137v-6l32 -32v-94q-6 -8 -20.5 -21t-33.5 -25.5t-39.5 -22.5t-37.5 -11l-33 33q-1 -1 -5 -1v180z" />
<glyph unicode="&#x201c;" horiz-adv-x="356" d="M305 429v181q-5 -2 -17 -8t-25.5 -13t-24.5 -12.5l-13 -6.5q-4 -3 -9 -7.5t-9.5 -9t-8 -8.5t-3.5 -5v-111h110zM161 429v181q-5 -2 -17 -8t-25.5 -13t-24.5 -12.5l-13 -6.5q-4 -3 -9 -7.5t-9.5 -9t-8 -8.5t-3.5 -5v-111h110zM318 630v-8l32 -32v-206h-130l-14 14v-14 h-130l-32 32h-6v124q0 2 4.5 8t11.5 13t14.5 14t12.5 11q1 1 13 6.5t27.5 13t30.5 14.5t22 10v-8l32 -32v-21q5 5 10 9.5t9 7.5q1 1 13 6.5t27.5 13t30.5 14.5t22 10z" />
<glyph unicode="&#x201d;" horiz-adv-x="356" d="M51 611v-181q4 2 16.5 8t26 12.5t24.5 12t13 7.5q4 3 9 7.5t9.5 9t8 8.5t3.5 5v111h-110zM195 611v-181q4 2 16.5 8t26 12.5t24.5 12t13 7.5q4 3 9 7.5t9.5 9t8 8.5t3.5 5v111h-110zM182 409v26q-7 -7 -10 -8q-3 -2 -21.5 -11t-34.5 -17l-40 -20l-33 32l-5 -2v215h136v-6 l8 -8v14h136v-6l32 -32v-121q0 -2 -4 -7t-9 -11t-11 -11.5t-10 -8.5q-3 -2 -21.5 -11t-34.5 -17l-40 -20l-33 32z" />
<glyph unicode="&#x201e;" horiz-adv-x="357" d="M162 80h-111v-153q13 1 30 10t33 20.5t29 23.5t19 19v80zM306 80h-111v-153q13 1 30 10t33 20.5t29 23.5t19 19v80zM182 93h137v-6l32 -32v-94q-6 -8 -20.5 -21t-33.5 -25.5t-39.5 -22.5t-37.5 -11l-33 33q-1 -1 -5 -1v24q-22 -18 -51.5 -36t-54.5 -20l-33 33 q-1 -1 -5 -1v180h137v-6l7 -7v13z" />
<glyph unicode="&#x2022;" d="M48 5l8 -8q3 -4 5 -5.5t7 -3.5l26 -26q3 -3 7.5 -5l4.5 -2h240q2 0 11.5 4.5t13.5 6.5l6 6q3 3 6 8l3 5v570l-3 4.5t-6 8.5l-7 6h1l-17 17v1q-1 2 -2 3.5t-8 9.5l-9 9q-3 2 -12.5 5.5t-11.5 3.5h-241q-7 -4 -8.5 -5t-5.5 -5l-9 -9q-2 -3 -5.5 -10t-3.5 -14v-550 q0 -6 4 -13.5t6 -11.5zM61 10q-2 4 -6 11t-4 9v550q0 2 4 9t6 11q2 2 5.5 6t4.5 4h240q1 0 8.5 -4t11.5 -6q2 -2 6 -5.5t4 -4.5v-570q0 -1 -4 -4.5t-6 -5.5q-4 -2 -11.5 -6t-8.5 -4h-240q-1 0 -4.5 4t-5.5 6z" />
<glyph unicode="&#x2026;" horiz-adv-x="559" d="M51 80v-80h111v80h-111zM224 80v-80h111v80h-111zM397 80v-80h111v80h-111zM384 -13v106h137v-6l32 -32v-100h-131l-32 32h-6zM38 -13v106h137v-6l32 -32v-100h-131l-32 32h-6zM211 -13v106h137v-6l32 -32v-100h-131l-32 32h-6z" />
<glyph unicode="&#x202f;" horiz-adv-x="152" />
<glyph unicode="&#x2039;" horiz-adv-x="171" d="M120 472l-69 -50v-122l69 -50v81l-43 30l43 30v81zM38 428l95 70v-9l32 -32v-106l-30 -21l30 -29v-106l-89 65l-23 23l-15 11v134z" />
<glyph unicode="&#x203a;" horiz-adv-x="171" d="M132 428l-95 70v-113l13 -10l16 -17l-29 -21v-113l5 4l33 -33l89 65v132l-32 32v4zM50 472l69 -50v-122l-69 -50v81l43 30l-43 30v81z" />
<glyph unicode="&#x205f;" horiz-adv-x="191" />
<glyph unicode="&#x20ac;" horiz-adv-x="467" d="M51 355v-103l75 38v-60l-75 -37v-103l75 38v-98q0 -2 4 -9t6 -11q2 -2 5.5 -6t4.5 -4h270v223q-11 0 -28 -3.5t-33.5 -8.5t-30 -11t-18.5 -11v-109h-70v103l63 32v102l-63 -32v60l63 32v102l-63 -32v73h90q0 -40 23 -58.5t55 -30.5l12 -1v180h-270q-17 -17 -30 -35.5 t-20 -39.5h90l-60 -65v-78zM38 230v133l75 37v75l13 15h-9l-32 32h-7q11 32 27 56.5t36 44.5h288v-6l32 -32v-201l-22 2q-19 7 -35 15.5t-28 20.5l-16 15q-9 6 -16 13v-114l-25 -13l25 -24v-81q22 8 45.5 13t39.5 5v-6l32 -32v-243h-280l-4.5 2t-7.5 5l-26 26q-5 2 -7 3.5 t-5 5.5l-9 9q-2 3 -5.5 10t-3.5 14v26l-37 -18l-33 32l-5 -2v133l25 12l-20 19zM281 141v-48h12v54z" />
<glyph unicode="&#x2122;" horiz-adv-x="362" d="M84 574v-80h6l32 -32h40v112h10v-80h6l32 -32h34v29l25 -25q3 -3 6 -3.5t7 -0.5q11 0 13.5 1.5t6.5 12.5l1 3l18 -17h35v153l-32 32v6h-19q-18 0 -32.5 -10.5t-24.5 -39.5v1l-13 12q-9 14 -21 26t-18 12q-2 0 -4 -8l-1 2v3q-8 0 -14 -6l-1 2v6h-138v-47h6l32 -32h8z M185 507v129q2 2 6 2q5 0 5 1l-1 1q-1 0 -0.5 0.5t1.5 0.5q5 0 16.5 -12.5t16.5 -25.5l2 -7q5 -17 9 -29l7 -21q4 11 6.5 21t5.5 24q8 29 20 39t26 10h6v-133h-15v87l-5 9l-33 -88q-2 -6 -3.5 -7t-7.5 -1q-3 0 -5.5 1t-4.5 7l-32 86l-6 -7v-87h-14zM97 507v112h-46v21h112 v-21h-46v-112h-20z" />
<glyph unicode="&#x25fc;" horiz-adv-x="625" d="M0 625h625v-625h-625v625z" />
</font>
</defs>
</svg>
